<?xml version="1.0" standalone="no"?>
<!DOCTYPE svg PUBLIC "-//W3C//DTD SVG 1.1//EN" "http://www.w3.org/Graphics/SVG/1.1/DTD/svg11.dtd" >
<svg xmlns="http://www.w3.org/2000/svg" xmlns:xlink="http://www.w3.org/1999/xlink" version="1.1">
<metadata>
Created by FontForge 20170731 at Mon Nov 29 12:38:33 2021
 By Aleksey,,,
Joe Prince (c)2015. All Rights Reserved.
</metadata>
<defs>
<font id="MajestiBanner-Medium" horiz-adv-x="1140" >
  <font-face 
    font-family="Majesti Banner Medium"
    font-weight="500"
    font-stretch="normal"
    units-per-em="2048"
    panose-1="2 0 0 0 0 0 0 0 0 0"
    ascent="1536"
    descent="-512"
    x-height="836"
    cap-height="1266"
    bbox="-1817 -1012 2634 1968"
    underline-thickness="102"
    underline-position="-307"
    unicode-range="U+0020-FB06"
  />
<missing-glyph horiz-adv-x="563" 
 />
    <glyph glyph-name="fi" unicode="fi" horiz-adv-x="1247" 
d="M41 0v12q86 0 125 32t39 114v653h-174v25h174v112q0 183 126.5 292.5t330.5 109.5q169 0 271.5 -71.5t102.5 -162.5q0 -59 -37 -99t-94 -40q-55 0 -93 39.5t-38 95.5q0 44 25 79.5t65 49.5q-30 42 -81 69t-115 27q-111 0 -170.5 -75.5t-59.5 -196.5v-229h396l241 20v-702
q0 -78 31 -110t113 -32v-12h-521v12q82 0 113 32t31 110v516q0 74 -27.5 107.5t-97.5 33.5h-279v-653q0 -89 43.5 -117.5t136.5 -28.5v-12h-577z" />
    <glyph glyph-name="fl" unicode="fl" horiz-adv-x="1247" 
d="M41 0v12q86 0 125 32t39 114v653h-174v25h174v127q0 181 119.5 284t314.5 103q182 0 291 -88l137 106h8v-1214q0 -78 31 -110t113 -32v-12h-521v12q82 0 113 32t31 110v835q-40 14 -64 48.5t-24 78.5t24.5 78.5t63.5 46.5q-26 42 -75.5 69t-111.5 27q-108 0 -162.5 -75
t-54.5 -197v-229h232v-25h-232v-653q0 -89 43.5 -117.5t136.5 -28.5v-12h-577z" />
    <glyph glyph-name="f_j" unicode="fj" horiz-adv-x="1220" 
d="M41 0v12q86 0 125 32t39 114v653h-174v25h174v112q0 183 126.5 292.5t330.5 109.5q169 0 271.5 -71.5t102.5 -162.5q0 -59 -37 -99t-94 -40q-55 0 -93 39.5t-38 95.5q0 44 25 79.5t65 49.5q-30 42 -81 69t-115 27q-111 0 -170.5 -75.5t-59.5 -196.5v-229h396l241 20v-825
q0 -77 -34 -142t-95 -112t-128 -79.5t-148 -57.5l-6 6q51 29 85.5 61.5t52.5 60.5t27.5 69.5t11 70.5t1.5 80v682q0 74 -27.5 107.5t-97.5 33.5h-279v-653q0 -89 43.5 -117.5t136.5 -28.5v-12h-577z" />
    <glyph glyph-name="f_y" unicode="fy" horiz-adv-x="1626" 
d="M41 0v12q86 0 125 32t39 114v653h-174v25h174v149q0 89 30 160t82 115t118.5 67t142.5 23q143 0 223 -70t80 -156q0 -57 -36 -93t-87 -36q-52 0 -87.5 37t-35.5 90q0 45 26 79.5t68 45.5q-35 90 -129 90q-79 0 -120.5 -67t-41.5 -178v-256h727v-15q-100 0 -124.5 -46.5
t16.5 -129.5l174 -401l74 174q94 236 94 301q0 102 -131 102v15h395v-15q-135 0 -209 -123q-10 -15 -20.5 -34t-25.5 -51.5t-23.5 -52.5t-31.5 -73.5t-34 -78.5l-209 -476q-128 -288 -311 -288q-101 0 -101 80q0 42 33.5 64t85 30.5t106.5 17.5t105.5 38t73.5 79l16 37
l-305 639q-23 51 -39.5 80t-41.5 55t-57.5 36.5t-78.5 10.5h-158v-653q0 -89 43.5 -117.5t136.5 -28.5v-12h-577z" />
    <glyph glyph-name=".notdef" horiz-adv-x="563" 
 />
    <glyph glyph-name=".null" horiz-adv-x="0" 
 />
    <glyph glyph-name="nonmarkingreturn" horiz-adv-x="682" 
 />
    <glyph glyph-name="space" unicode=" " horiz-adv-x="466" 
 />
    <glyph glyph-name="exclam" unicode="!" horiz-adv-x="495" 
d="M240 389q-10 153 -33.5 287.5t-46.5 208.5t-40.5 142t-17.5 108q0 69 41 112t103 43t103.5 -42.5t41.5 -112.5q0 -40 -17 -108t-39.5 -142t-45.5 -208.5t-33 -287.5h-16zM248 -16q-58 0 -98.5 40t-40.5 99t40.5 99t98.5 40t98.5 -40t40.5 -99t-40.5 -99t-98.5 -40z" />
    <glyph glyph-name="quotedbl" unicode="&#x22;" horiz-adv-x="759" 
d="M193 762q-16 88 -44 174t-47.5 142.5t-19.5 92.5q0 51 32.5 85t86.5 34q55 0 86.5 -33t31.5 -86q0 -36 -19 -92t-47.5 -142.5t-43.5 -174.5h-16zM549 762q-16 88 -44 174t-47.5 142.5t-19.5 92.5q0 51 32.5 85t86.5 34q55 0 87 -33t32 -86q0 -36 -19.5 -92.5
t-47.5 -142.5t-44 -174h-16z" />
    <glyph glyph-name="numbersign" unicode="#" horiz-adv-x="1091" 
d="M174 0l82 371h-186v18h190l109 490h-203v20h209l82 367h22l-82 -367h428l82 367h23l-82 -367h176v-20h-182l-109 -490h195v-18h-199l-82 -371h-22l82 371h-428l-82 -371h-23zM283 389h428l108 490h-428z" />
    <glyph glyph-name="dollar" unicode="$" horiz-adv-x="1120" 
d="M549 -215v190q-209 3 -339 89.5t-130 201.5q0 61 39.5 103.5t99.5 42.5t99.5 -41t39.5 -101q0 -52 -32 -91t-80 -50q32 -56 107 -97.5t196 -41.5v545q-167 66 -216 91q-153 78 -197 192q-21 54 -21 120q0 160 116 254.5t318 97.5v135h20v-135q190 -3 307 -83t117 -191
q0 -66 -39.5 -107t-99.5 -41t-99.5 41t-39.5 101q0 51 30 89.5t76 49.5q-75 127 -252 127v-496q166 -65 205 -83q175 -84 230 -204q30 -64 30 -143q0 -165 -120.5 -269.5t-344.5 -105.5v-190h-20zM846 246q0 46 -16 84.5t-39 65t-63 52t-73.5 41.5t-85.5 37v-534
q137 7 207 80t70 174zM299 1047q0 -50 18.5 -90.5t56 -71t77.5 -52.5t98 -45v486q-122 -6 -186 -70t-64 -157z" />
    <glyph glyph-name="percent" unicode="%" horiz-adv-x="1484" 
d="M393 614q-133 0 -229 91.5t-96 244.5t96 244.5t229 91.5q86 0 161.5 -41t119.5 -115q71 -22 137 -22q71 0 160 22.5t170 59.5q9 17 19 47.5t19.5 45.5t26.5 15q14 0 23.5 -9.5t9.5 -26.5q0 -49 -82 -82l-868 -1198l-17 12l852 1171q-160 -73 -309 -73q-73 0 -131 18
q35 -72 35 -160q0 -153 -96 -244.5t-230 -91.5zM1087 -20q-133 0 -229 91t-96 244t96 244.5t229 91.5q134 0 230 -91.5t96 -244.5t-96 -244t-230 -91zM1087 -8q144 0 144 323q0 322 -144 322q-141 0 -141 -322q0 -323 141 -323zM393 627q144 0 144 323q0 177 -41 252
q-40 36 -64 60q-17 10 -39 10q-141 0 -141 -322q0 -323 141 -323z" />
    <glyph glyph-name="ampersand" unicode="&#x26;" horiz-adv-x="1544" 
d="M580 -25q-215 0 -350.5 88t-135.5 238q0 53 19.5 98t50 77t80.5 62.5t96.5 50.5t112.5 44l-41 39q-164 160 -164 309q0 140 123 224.5t313 84.5q183 0 286 -74.5t103 -187.5q0 -35 -11.5 -66t-28 -54t-45.5 -44.5t-54 -35.5t-63 -29t-63.5 -23.5t-65 -21.5t-58.5 -19
l428 -409q44 98 53 202q3 52 -9 81t-56.5 46t-130.5 17v14h458v-14q-87 0 -134.5 -22t-62.5 -50t-38 -99q-1 -4 -2 -6t-2 -5.5t-2 -6.5q-27 -94 -60 -172l177 -170q77 -76 123.5 -101.5t113.5 -25.5v-14h-430l-123 119q-151 -144 -407 -144zM662 4q181 0 313 125l-510 492
q-127 -93 -127 -285q0 -67 18.5 -125t55.5 -105t101.5 -74.5t148.5 -27.5zM684 1276q-94 0 -148.5 -60t-54.5 -155q0 -67 33 -128.5t115 -139.5l47 -50q91 52 144.5 125.5t53.5 182.5q0 99 -46.5 162t-143.5 63z" />
    <glyph glyph-name="quotesingle" unicode="'" horiz-adv-x="403" 
d="M193 762q-16 88 -44 174t-47.5 142.5t-19.5 92.5q0 51 32.5 85t86.5 34q55 0 86.5 -33t31.5 -86q0 -36 -19 -92t-47.5 -142.5t-43.5 -174.5h-16z" />
    <glyph glyph-name="parenleft" unicode="(" horiz-adv-x="673" 
d="M680 -373q-16 12 -50 37q-49 35 -76 55.5t-79 62.5t-84.5 73.5t-79.5 82t-77 94.5t-64 104.5t-53 120t-32 132t-13 148.5q0 97 20.5 187.5t52.5 162t80 140.5t95.5 120.5t106.5 103t104 86t98 72.5q35 25 51 37l6 -10q-52 -39 -102 -91t-103 -134t-92 -177t-64.5 -225
t-25.5 -272t25.5 -272t64.5 -225.5t92 -178t103 -135t102 -91.5z" />
    <glyph glyph-name="parenright" unicode=")" horiz-adv-x="673" 
d="M-6 -373l-6 8q52 39 101.5 91.5t102.5 135t92 178t64 225t25 272.5t-25 272.5t-64 224.5t-92 177t-102.5 134t-101.5 91l6 10q16 -12 51 -37q177 -130 269 -221q288 -286 288 -651q0 -97 -22 -188.5t-49.5 -160.5t-83.5 -143.5t-92.5 -118t-109 -105.5t-101.5 -83.5
t-100 -73.5q-34 -25 -50 -37z" />
    <glyph glyph-name="asterisk" unicode="*" horiz-adv-x="854" 
d="M125 1124q19 31 50.5 39.5t60.5 -8.5q18 -10 39 -38t56 -71.5t77 -80.5l-5 -9q-67 23 -149 33t-100 21q-31 18 -39.5 47t10.5 67zM125 774q-19 32 -10.5 64t39.5 49q18 11 99.5 20.5t149.5 32.5l5 -8q-41 -36 -76 -79.5t-56.5 -72.5t-39.5 -39q-27 -17 -59.5 -9t-51.5 42
zM428 600q-40 0 -62 23t-22 57q0 22 32.5 98.5t45.5 145.5h10q14 -70 46 -146t32 -98q0 -34 -23 -57t-59 -23zM729 774q-19 -34 -51.5 -42t-59.5 9q-18 10 -39.5 39t-56.5 72.5t-76 79.5l5 8q68 -23 150 -32.5t101 -20.5q30 -17 37.5 -49t-10.5 -64zM729 1124
q18 -38 9.5 -67t-38.5 -47q-18 -11 -100 -21t-149 -33l-5 9q42 37 77 80.5t56 71.5t39 38q29 17 60.5 8.5t50.5 -39.5zM428 1298q36 0 59 -23t23 -58q0 -21 -32 -97t-46 -145h-10q-13 69 -45.5 144.5t-32.5 97.5q0 34 22.5 57.5t61.5 23.5z" />
    <glyph glyph-name="plus" unicode="+" horiz-adv-x="1071" 
d="M526 45v447h-446v20h446v446h19v-446h446v-20h-446v-447h-19z" />
    <glyph glyph-name="comma" unicode="," horiz-adv-x="499" 
d="M80 -272l-6 10q98 35 167 114.5t72 172.5q-31 -25 -77 -25q-54 0 -93 38.5t-39 92.5q0 55 40.5 93t101.5 38q67 0 106 -48t39 -122q0 -108 -80.5 -209.5t-230.5 -154.5z" />
    <glyph glyph-name="hyphen" unicode="-" horiz-adv-x="784" 
d="M121 442v74h541v-74h-541z" />
    <glyph glyph-name="period" unicode="." horiz-adv-x="487" 
d="M244 -16q-59 0 -99.5 40.5t-40.5 98.5t40.5 98.5t99.5 40.5q58 0 98.5 -40t40.5 -99t-40.5 -99t-98.5 -40z" />
    <glyph glyph-name="slash" unicode="/" horiz-adv-x="903" 
d="M66 -340l-17 8l785 1759l18 -8z" />
    <glyph glyph-name="zero" unicode="0" horiz-adv-x="1245" 
d="M623 -25q-162 0 -282 87.5t-180.5 235.5t-60.5 335t60.5 334.5t180.5 235t282 87.5t281.5 -87.5t180 -235t60.5 -334.5t-60.5 -335t-180 -235.5t-281.5 -87.5zM623 -10q71 0 122.5 55.5t79.5 151.5t41 204t13 232t-13 232t-41 204t-79.5 151.5t-122.5 55.5t-122.5 -55.5
t-79.5 -151.5t-41 -204t-13 -232t13 -232t41 -204t79.5 -151.5t122.5 -55.5z" />
    <glyph glyph-name="one" unicode="1" horiz-adv-x="788" 
d="M86 0v12q121 0 169 43.5t48 159.5v805q0 52 -18.5 77t-71.5 25h-147v13q276 19 473 133l8 -2v-1061q0 -114 44.5 -153.5t160.5 -39.5v-12h-666z" />
    <glyph glyph-name="two" unicode="2" horiz-adv-x="1150" 
d="M133 0q-24 93 -11 169t66 146q42 62 119.5 126.5t149.5 117t140.5 114t110.5 144.5t42 182q0 119 -60 196t-184 77q-100 0 -164 -48.5t-96 -121.5q55 -4 92 -45.5t37 -98.5q0 -61 -41 -103t-101 -42q-63 0 -102 46.5t-39 109.5q0 54 31 109.5t88 103.5t149 78t201 30
q126 0 228 -39t163.5 -115.5t61.5 -179.5q0 -65 -26 -119t-70 -92.5t-104 -74.5t-125 -63.5t-136 -61t-134.5 -66.5t-123.5 -80.5t-100 -101.5q-36 -50 -52 -113q54 146 256 146q85 0 226.5 -46t212.5 -46q180 0 180 168q0 42 -8 81h14q20 -82 20 -180q0 -49 -6.5 -94
t-23 -88t-41 -74t-63 -50t-87.5 -19q-61 0 -117.5 31t-100.5 75t-87.5 88.5t-97.5 75.5t-111 31q-81 0 -125.5 -55.5t-44.5 -141.5q0 -45 13 -86h-19z" />
    <glyph glyph-name="three" unicode="3" horiz-adv-x="1163" 
d="M553 -25q-204 0 -333.5 82t-129.5 195q0 63 39 107t98 44t100.5 -42t41.5 -103q0 -53 -33.5 -93.5t-83.5 -49.5q29 -52 88 -87.5t152 -35.5q78 0 138 26.5t96.5 73.5t54.5 106.5t18 129.5q0 155 -84.5 233.5t-237.5 81.5q-65 -1 -107 -11.5t-44 -10.5q-14 0 -26.5 8.5
t-12.5 21.5t10.5 23t28.5 10q8 0 22 -6.5t45 -12t82 -3.5q139 3 211 93t72 226q0 129 -66 210t-190 81q-151 0 -226 -123q50 -9 82.5 -49t32.5 -92q0 -61 -39.5 -102.5t-99.5 -41.5t-98.5 41.5t-38.5 106.5q0 116 125 197t323 81t329.5 -83t131.5 -232q0 -147 -130.5 -231
t-340.5 -87h-12v-8h12q103 0 192 -18t162.5 -55.5t115.5 -101.5t42 -148q0 -113 -74 -194.5t-187.5 -119t-250.5 -37.5z" />
    <glyph glyph-name="four" unicode="4" horiz-adv-x="1159" 
d="M436 0v12q121 0 169 43.5t48 159.5v117h-616l-4 12l198 207q80 77 142.5 200t62.5 248q0 101 -42 174.5t-111 112.5q121 3 223 -24t165.5 -83.5t63.5 -131.5q0 -51 -29 -102t-82.5 -101t-109 -93.5t-130.5 -102.5t-124 -105l-199 -193h592v221l234 226h10v-447
q77 1 120.5 13t45.5 12q18 0 28.5 -10t10.5 -23t-12.5 -22t-26.5 -9q-7 0 -24 5t-53 10t-89 6v-127q0 -114 44.5 -153.5t160.5 -39.5v-12h-666z" />
    <glyph glyph-name="five" unicode="5" horiz-adv-x="1134" 
d="M524 -25q-198 0 -323 81.5t-125 195.5q0 65 40 108t101 43t99 -41t38 -102q0 -55 -33 -95t-83 -48q68 -125 227 -125q83 0 146 33t98.5 89t53 120.5t17.5 136.5q0 162 -83 254t-230 92q-130 0 -260 -66q-5 -34 -15.5 -52.5t-33.5 -18.5q-29 0 -29 28q0 33 64 56l57 602
q24 -1 80.5 -4t93 -4.5t95 -3.5t99.5 -1t92.5 3t89 8.5t74 15.5t62 23.5t39.5 33.5q33 -82 33 -137q0 -99 -66 -143.5t-170 -44.5q-204 0 -514 153l-51 -497q168 77 336 77q220 0 362 -102t142 -276q0 -119 -70.5 -209t-188.5 -136.5t-264 -46.5z" />
    <glyph glyph-name="six" unicode="6" horiz-adv-x="1224" 
d="M635 -25q-116 0 -209 37.5t-153 99.5t-100 145.5t-56.5 170.5t-16.5 180q0 141 39.5 265t112 216.5t183.5 146.5t245 54q175 0 285 -81.5t110 -192.5q0 -65 -39 -108.5t-100 -43.5q-60 0 -99.5 41t-39.5 101q0 52 31 91t79 48q-52 131 -198 131q-87 0 -154.5 -47
t-106.5 -121t-62.5 -173.5t-30 -197.5t-1.5 -200q25 120 119.5 192t235.5 72q183 0 300 -116.5t117 -287.5q0 -181 -134.5 -301.5t-356.5 -120.5zM625 -12q64 0 114.5 35t80 94t44.5 130t15 150q0 104 -22.5 184t-77 131.5t-136.5 51.5q-116 0 -202 -97.5t-85 -281.5
q1 -101 30 -189t91.5 -148t147.5 -60z" />
    <glyph glyph-name="seven" unicode="7" horiz-adv-x="997" 
d="M315 0q5 50 16.5 101t23 93t36 95t40 87.5t50.5 92t52.5 86t62 91.5t62.5 88t70 95.5t69 94.5q8 10 33 38t37 42.5t29.5 39t29.5 46.5l-4 4q-44 -66 -91 -101t-129 -35q-58 0 -199 33t-214 33q-102 0 -145 -52.5t-48 -164.5h-16v459h16l8 -310h5q5 59 12.5 102t22 88
t35.5 73t55 45.5t79 17.5q54 0 107 -25.5t95.5 -61.5t84.5 -72t90 -61.5t96 -25.5q43 0 76.5 20t52 50t28 61t9.5 58q0 13 -4 41h19q4 -20 4 -39q-1 -41 -15.5 -88t-27.5 -75t-46.5 -87.5t-43.5 -79.5q-123 -237 -181.5 -435.5t-72.5 -461.5h-269z" />
    <glyph glyph-name="eight" unicode="8" horiz-adv-x="1245" 
d="M623 -25q-132 0 -234.5 28.5t-164.5 77.5t-93 111t-31 134q0 65 26.5 121.5t78.5 102.5t138 76t198 38q-195 15 -300.5 96.5t-105.5 208.5q0 145 130.5 233t357.5 88t357 -88t130 -233q0 -127 -105 -208.5t-300 -96.5q218 -16 329 -109.5t111 -228.5
q0 -150 -132.5 -250.5t-389.5 -100.5zM623 -10q130 0 194 91.5t64 240.5t-64 242t-194 93q-131 0 -194.5 -92.5t-63.5 -242.5q0 -149 63.5 -240.5t194.5 -91.5zM623 1276q-116 0 -171 -84t-55 -219t55 -219t171 -84q78 0 130 42t73.5 108t21.5 153t-21.5 153t-73.5 108
t-130 42z" />
    <glyph glyph-name="nine" unicode="9" horiz-adv-x="1224" 
d="M539 -25q-179 0 -289.5 81t-110.5 192q0 67 38 110t99 43q60 0 101 -41.5t41 -101.5q0 -52 -32.5 -91t-80.5 -48q63 -129 213 -129q61 0 112 21.5t86.5 59.5t64 88.5t44 109t28 121t15 124.5t4.5 119.5t-2 105.5q-27 -121 -118.5 -192.5t-235.5 -71.5
q-183 0 -299.5 111.5t-116.5 283.5q0 183 135 301.5t355 118.5q116 0 208.5 -36.5t152.5 -97.5t99.5 -143.5t56.5 -169.5t17 -181q0 -140 -37.5 -262.5t-109 -218t-184.5 -151t-254 -55.5zM604 1276q-85 0 -144.5 -59.5t-85.5 -147t-26 -192.5q0 -170 65 -265.5t179 -95.5
q53 0 101 22t87 65t62.5 114.5t23.5 163.5q0 102 -26.5 188.5t-87.5 146.5t-148 60z" />
    <glyph glyph-name="colon" unicode=":" horiz-adv-x="509" 
d="M256 -16q-59 0 -100 40.5t-41 98.5t41 98.5t100 40.5q58 0 98.5 -40t40.5 -99t-40.5 -99t-98.5 -40zM256 559q-58 0 -99.5 41.5t-41.5 99.5t41 99t100 41q58 0 98.5 -40.5t40.5 -99.5t-40.5 -100t-98.5 -41z" />
    <glyph glyph-name="semicolon" unicode=";" horiz-adv-x="538" 
d="M270 559q-58 0 -99.5 41.5t-41.5 99.5t41 99t100 41q58 0 99 -41t41 -99q0 -59 -41 -100t-99 -41zM104 -272l-6 10q99 35 168 114.5t72 172.5q-31 -25 -78 -25q-54 0 -92.5 38.5t-38.5 92.5q0 55 40 93t101 38q67 0 106.5 -48t39.5 -122q0 -108 -80.5 -209.5
t-231.5 -154.5z" />
    <glyph glyph-name="less" unicode="&#x3c;" horiz-adv-x="962" 
d="M856 92l-795 402v14l795 403v-22l-770 -387l770 -389v-21z" />
    <glyph glyph-name="equal" unicode="=" horiz-adv-x="1175" 
d="M131 711v20h911v-20h-911zM131 274v19h911v-19h-911z" />
    <glyph glyph-name="greater" unicode="&#x3e;" horiz-adv-x="962" 
d="M106 92v21l771 389l-771 387v22l795 -403v-14z" />
    <glyph glyph-name="question" unicode="?" horiz-adv-x="1058" 
d="M479 389l-8 209q266 70 266 346q0 144 -66.5 237t-199.5 93q-88 0 -150 -38.5t-96 -98.5q50 -9 83.5 -49t33.5 -93q0 -60 -40.5 -101.5t-98.5 -41.5q-59 0 -98 42t-39 105q0 114 128.5 202.5t323.5 88.5q204 0 337.5 -98t133.5 -250q0 -55 -21 -101.5t-61 -81
t-83.5 -60.5t-105.5 -47.5t-108.5 -34.5t-109.5 -27l-8 -201h-13zM489 -16q-59 0 -99 40t-40 99t40 99t99 40t99.5 -40.5t40.5 -98.5t-40.5 -98.5t-99.5 -40.5z" />
    <glyph glyph-name="at" unicode="@" horiz-adv-x="1648" 
d="M678 106q-112 0 -170.5 73.5t-58.5 195.5q0 182 122.5 312t307.5 130q131 0 188 -76l182 66l8 -8l-104 -457q-12 -46 -12 -92q0 -113 96 -113q115 0 198 111t83 289q0 171 -81 315.5t-226 230.5t-322 86q-144 0 -275 -59.5t-225.5 -160.5t-150.5 -241.5t-56 -295.5
q0 -132 42 -250.5t116.5 -207t185.5 -140.5t242 -52q121 0 241 39.5t214 112.5l8 -10q-203 -164 -465 -164q-139 0 -263.5 51t-215.5 139.5t-144 215t-53 270.5q0 131 44 253.5t121 217t177 166t217.5 109.5t237.5 38q188 0 340 -91t235.5 -243t83.5 -331q0 -186 -91 -305
t-249 -119q-205 0 -239 143q-137 -148 -289 -148zM782 168q86 0 183 104q-4 20 -4 31q0 40 10 82l71 313q-40 99 -122 99q-79 0 -143.5 -74t-96 -173t-31.5 -190q0 -88 34 -140t99 -52z" />
    <glyph glyph-name="A" unicode="A" horiz-adv-x="1363" 
d="M-74 0v12q33 0 63 7t54.5 17.5t48.5 30.5t41 37t36.5 46t31.5 49.5t29 56t25.5 56.5t25 59.5t24.5 56.5l363 846h12l450 -989q27 -59 51 -101t58 -84.5t76.5 -65t91.5 -22.5v-12h-674v12q109 0 142 69t-19 189l-70 156h-458l-17 -43q-143 -371 152 -371v-12h-537z
M338 446h440l-225 512z" />
    <glyph glyph-name="B" unicode="B" horiz-adv-x="1353" 
d="M59 0v12q116 0 150.5 39.5t34.5 153.5v854q0 58 -6.5 91.5t-26.5 58t-55.5 33.5t-96.5 9v15h641q519 0 519 -310q0 -280 -451 -297v-6q494 -14 494 -317q0 -156 -124.5 -246t-392.5 -90h-686zM500 14h194q146 0 221.5 94.5t75.5 231.5q0 136 -77.5 220.5t-235.5 84.5
h-178v-631zM500 662h147q155 0 229 79t74 213q0 57 -14 107t-44 93.5t-85.5 69t-130.5 25.5h-176v-587z" />
    <glyph glyph-name="C" unicode="C" horiz-adv-x="1390" 
d="M811 -25q-169 0 -306 49.5t-228 136.5t-140 206.5t-49 259.5q0 195 91.5 346t254.5 234t371 83q52 0 120.5 -6t116 -11t107.5 -2.5t111 15.5l34 -416l-10 -2q-88 212 -201 310t-270 98q-95 0 -171.5 -35.5t-127.5 -95.5t-85 -143t-49 -175.5t-15 -195.5q0 -102 14.5 -193
t47.5 -174.5t82.5 -144t124 -96t167.5 -35.5q327 0 510 432h10l-68 -383q-85 -26 -210 -44t-232 -18z" />
    <glyph glyph-name="D" unicode="D" horiz-adv-x="1536" 
d="M59 0v12q116 0 150.5 39.5t34.5 153.5v854q0 58 -6.5 91.5t-26.5 58t-55.5 33.5t-96.5 9v15h658q336 0 532.5 -171.5t196.5 -461.5t-196 -461.5t-533 -171.5h-658zM500 14h190q101 0 182.5 33t136 90t91 136.5t53 169t16.5 190.5t-16.5 189.5t-53 168t-91 136t-136 89.5
t-182.5 33h-190v-1235z" />
    <glyph glyph-name="E" unicode="E" horiz-adv-x="1290" 
d="M59 0v12q116 0 150.5 39.5t34.5 153.5v854q0 58 -6.5 91.5t-26.5 58t-55.5 33.5t-96.5 9v15h1078l28 -396l-10 -2q-21 94 -54.5 160.5t-91 118.5t-147.5 77t-215 25h-147v-610h47q185 0 271.5 67.5t115.5 215.5h10v-580h-10q-29 147 -116 214t-271 67h-47v-609h166
q104 0 185 23t133 58.5t91.5 92.5t61 110t41.5 126l10 -2l-39 -422h-1090z" />
    <glyph glyph-name="F" unicode="F" horiz-adv-x="1214" 
d="M59 0v12q116 0 150.5 39.5t34.5 153.5v854q0 58 -6.5 91.5t-26.5 58t-55.5 33.5t-96.5 9v15h1074l26 -410l-10 -2q-21 94 -55.5 163t-92.5 123t-147.5 81.5t-210.5 27.5h-143v-626h43q182 0 270 71.5t115 220.5h10v-600h-10q-28 148 -115.5 219.5t-269.5 71.5h-43v-391
q0 -119 42.5 -161t162.5 -42v-12h-646z" />
    <glyph glyph-name="G" unicode="G" horiz-adv-x="1574" 
d="M846 -25q-153 0 -279.5 34.5t-214 94.5t-148 142t-88.5 176.5t-28 198.5q0 151 59 278t159.5 212t234.5 132t284 47q49 0 122.5 -6t127.5 -11t119.5 -2.5t116.5 15.5l35 -405l-11 -2q-77 200 -206.5 298.5t-290.5 98.5q-96 0 -175.5 -35t-134 -96t-92 -145t-54.5 -180
t-17 -204q0 -127 25.5 -235.5t78.5 -198t145 -141t215 -51.5q152 0 306 82v309q0 115 -39 160t-160 45v14h625v-14q-59 0 -94 -8.5t-54 -32.5t-25 -56.5t-6 -91.5v-334q-280 -88 -536 -88z" />
    <glyph glyph-name="H" unicode="H" horiz-adv-x="1624" 
d="M59 0v12q116 0 150.5 39.5t34.5 153.5v854q0 58 -6.5 91.5t-26.5 58t-55.5 33.5t-96.5 9v15h625v-15q-116 0 -150 -39t-34 -153v-408h624v408q0 114 -34 153t-150 39v15h625v-15q-61 0 -96.5 -9t-55.5 -33.5t-26.5 -58t-6.5 -91.5v-854q0 -114 34.5 -153.5t150.5 -39.5
v-12h-625v12q61 0 96.5 9t55.5 34t26 58t6 92v428h-624v-428q0 -59 6 -92t26 -58t55.5 -34t96.5 -9v-12h-625z" />
    <glyph glyph-name="I" unicode="I" horiz-adv-x="743" 
d="M59 0v12q116 0 150.5 39.5t34.5 153.5v854q0 58 -6.5 91.5t-26.5 58t-55.5 33.5t-96.5 9v15h625v-15q-116 0 -150 -39t-34 -153v-854q0 -59 6 -92t26 -58t55.5 -34t96.5 -9v-12h-625z" />
    <glyph glyph-name="J" unicode="J" horiz-adv-x="716" 
d="M29 -342l-6 8q64 33 107 74t64 89.5t29 94.5t8 105v1030q0 114 -34 153t-150 39v15h623v-15q-61 0 -96.5 -9t-55.5 -33.5t-26.5 -58t-6.5 -91.5v-985q0 -64 -25.5 -121.5t-68 -101.5t-101.5 -82t-123.5 -64.5t-137.5 -46.5z" />
    <glyph glyph-name="K" unicode="K" horiz-adv-x="1449" 
d="M59 0v12q116 0 150.5 39.5t34.5 153.5v854q0 58 -6.5 91.5t-26.5 58t-55.5 33.5t-96.5 9v15h625v-15q-116 0 -150 -39t-34 -153v-531l360 363q180 180 180 272q0 88 -159 88v15h573v-15q-150 0 -303 -112q-80 -60 -272 -252l-76 -80l430 -617q68 -97 127.5 -137.5
t124.5 -40.5v-12h-432l-430 629l-123 -125v-299q0 -59 6 -92t26 -58t55.5 -34t96.5 -9v-12h-625z" />
    <glyph glyph-name="L" unicode="L" horiz-adv-x="1212" 
d="M59 0v12q116 0 150.5 39.5t34.5 153.5v854q0 58 -6.5 91.5t-26.5 58t-55.5 33.5t-96.5 9v15h646v-15q-120 0 -162.5 -41t-42.5 -161v-1035h131q122 0 213.5 31.5t150.5 91.5t94 132t56 167l10 -2l-29 -434h-1067z" />
    <glyph glyph-name="M" unicode="M" horiz-adv-x="1857" 
d="M0 0v12q59 0 98 8.5t73 36.5t54 71.5t37 122t26.5 179.5t18.5 252l17 240q11 173 -42 251t-204 78v15h471l436 -910l377 910h405v-15q-117 0 -153 -57.5t-29 -177.5l37 -772q6 -128 46.5 -180t152.5 -52v-12h-633v12q111 0 147.5 53.5t30.5 167.5l-45 881l-451 -1077h-12
l-506 1030l-26 -385q-7 -116 -10.5 -195.5t-3 -153t5 -119t16.5 -84.5t27.5 -59.5t41.5 -35t56 -19t73 -4.5v-12h-532z" />
    <glyph glyph-name="N" unicode="N" horiz-adv-x="1482" 
d="M31 0v12q47 0 80.5 5t61.5 22.5t45.5 37.5t31 62.5t20.5 83.5t11 116t5 144.5t1 182.5v276q0 164 -51.5 236.5t-194.5 72.5v15h414l745 -871v203q0 113 -1 182.5t-5 144.5t-11 116t-20.5 83.5t-31 62t-45.5 37t-61.5 22.5t-80.5 5v15h533v-15q-47 0 -80.5 -5t-61.5 -22.5
t-45.5 -37t-31 -62t-20.5 -83.5t-11 -116t-5 -144.5t-1 -182.5v-608l-11 -4l-903 1048v-368q0 -113 1 -182.5t5 -144.5t11 -116t20.5 -83.5t31 -62.5t45.5 -37.5t61.5 -22.5t80.5 -5v-12h-532z" />
    <glyph glyph-name="O" unicode="O" horiz-adv-x="1550" 
d="M774 -25q-197 0 -354.5 85.5t-245.5 236t-88 336.5q0 139 52 260.5t142 209t218.5 137.5t275.5 50q148 0 276.5 -50t218.5 -137.5t141.5 -209t51.5 -260.5q0 -186 -88 -336.5t-245.5 -236t-354.5 -85.5zM774 -8q92 0 163.5 36t117.5 95.5t76 143.5t42.5 174t12.5 192
q0 103 -12 192.5t-42 173t-76 143t-118 95t-164 35.5t-164 -36t-117.5 -95.5t-74.5 -143.5t-41 -173t-12 -191t12 -191.5t41.5 -173.5t75 -144t117.5 -96t163 -36z" />
    <glyph glyph-name="P" unicode="P" horiz-adv-x="1267" 
d="M59 0v12q116 0 150.5 39.5t34.5 153.5v854q0 58 -6.5 91.5t-26.5 58t-55.5 33.5t-96.5 9v15h629q141 0 246 -28t167 -78t92 -115t30 -144q0 -166 -129.5 -264t-405.5 -98h-92v14h47q81 0 142 29t96 79t52 110t17 130q0 55 -10 104t-33.5 94.5t-58 78t-87.5 52t-118 19.5
h-143v-1044q0 -59 6 -92t26 -58t55.5 -34t96.5 -9v-12h-625z" />
    <glyph glyph-name="Q" unicode="Q" horiz-adv-x="1550" 
d="M432 -274l-12 8q8 9 43 50t48 54.5t46.5 45t57.5 45t60.5 28t74.5 18.5q-143 4 -266.5 56t-211 139t-137 206.5t-49.5 256.5q0 139 52 260.5t142 209t218.5 137.5t275.5 50q148 0 276.5 -50t218.5 -137.5t141.5 -209t51.5 -260.5q0 -178 -81 -323.5t-226 -233.5t-328 -99
q59 -5 119.5 -30t111.5 -56.5t101 -62t106 -51.5t109 -21q126 0 203 121l12 -6q-29 -51 -56 -89t-68 -81t-93 -66.5t-112 -23.5q-58 0 -123 24t-124 58.5t-117.5 68.5t-123 58t-121.5 24q-125 0 -219 -118zM774 -8q92 0 163.5 36t117.5 95.5t76 143.5t42.5 174t12.5 192
q0 103 -12 192.5t-42 173t-76 143t-118 95t-164 35.5t-164 -36t-117.5 -95.5t-74.5 -143.5t-41 -173t-12 -191t12 -191.5t41.5 -173.5t75 -144t117.5 -96t163 -36z" />
    <glyph glyph-name="R" unicode="R" horiz-adv-x="1423" 
d="M59 0v12q116 0 150.5 39.5t34.5 153.5v854q0 58 -6.5 91.5t-26.5 58t-55.5 33.5t-96.5 9v15h633q277 0 419 -86t142 -246q0 -302 -512 -320v-8q73 -1 129 -6.5t98.5 -17.5t72 -25t52 -37t36.5 -45t26.5 -57t20.5 -65t21.5 -77.5t25.5 -85.5q34 -103 73.5 -140.5
t126.5 -37.5v-12h-399q-35 69 -74 215q-8 30 -21 84q-39 153 -64 201q-39 73 -119 93q-42 11 -105 11h-141v-399q0 -59 6 -92t26 -58t55.5 -34t96.5 -9v-12h-625zM500 618h162q162 0 244.5 90t82.5 228q0 139 -84 226t-252 87h-153v-631z" />
    <glyph glyph-name="S" unicode="S" horiz-adv-x="1163" 
d="M563 -25q-180 0 -428 54l-22 385l12 2q63 -165 105 -233q100 -163 268 -188q33 -5 69 -5q145 0 220 69t75 174q0 59 -25 105.5t-67.5 78.5t-97.5 58.5t-116 50t-121.5 47.5t-115.5 57t-97.5 73t-67.5 100t-25 135q0 161 114.5 256.5t336.5 95.5q52 0 112 -6t100 -11
t91 -4.5t98 11.5l25 -397l-11 -2q-63 155 -106 222q-114 172 -303 173q-125 0 -192.5 -64.5t-67.5 -160.5q0 -56 25 -100.5t68 -75.5t98 -57t116 -49.5t122.5 -48.5t116.5 -59t98 -75.5t68 -102.5t25 -137q0 -172 -127.5 -271.5t-372.5 -99.5z" />
    <glyph glyph-name="T" unicode="T" horiz-adv-x="1335" 
d="M336 0v12q120 0 162.5 42t42.5 161v1034h-17q-66 0 -120.5 -12.5t-95 -32.5t-74.5 -53.5t-56.5 -66.5t-43.5 -81.5t-33.5 -87.5t-28.5 -96l-13 2l37 445h1143l37 -445l-12 -2q-16 56 -29 95.5t-34 88t-43.5 81.5t-56.5 66.5t-74.5 53.5t-95 32.5t-120.5 12.5h-16v-1034
q0 -119 42 -161t162 -42v-12h-663z" />
    <glyph glyph-name="U" unicode="U" horiz-adv-x="1429" 
d="M725 -25q-104 0 -192 24.5t-160 76t-113 141.5t-41 211v614q0 59 -6.5 94.5t-25.5 63.5t-55.5 39.5t-96.5 11.5v15h624v-15q-60 0 -96.5 -11.5t-55.5 -39.5t-25.5 -63.5t-6.5 -94.5v-659q0 -377 318 -377q170 0 271 106t101 304v207q0 107 -1 177t-6 140t-12 111
t-20.5 80t-31.5 59t-45 35.5t-60 20.5t-78 5v15h529v-15q-37 0 -65 -3.5t-52.5 -13.5t-42.5 -22t-32.5 -36t-24 -47.5t-16.5 -64.5t-11 -80t-6.5 -100.5t-3 -118.5t-0.5 -142v-207q0 -216 -118.5 -328.5t-342.5 -112.5z" />
    <glyph glyph-name="V" unicode="V" horiz-adv-x="1335" 
d="M668 -10l-435 993q-28 65 -47.5 102t-52.5 81t-75.5 64.5t-96.5 20.5v15h670v-15q-79 -1 -118 -33.5t-37 -89t32 -133.5l285 -686l186 469q86 219 86 318q0 73 -44 114t-134 41v15h516v-15q-85 0 -145 -37.5t-107 -113.5q-54 -89 -154 -332l-315 -778h-14z" />
    <glyph glyph-name="W" unicode="W" horiz-adv-x="1996" 
d="M647 -10l-414 993q-19 47 -33 76.5t-39.5 70t-51.5 64t-64.5 40.5t-83.5 17v15h639v-15q-75 0 -110 -29.5t-34 -80t31 -125.5l281 -705l233 598l-26 74q-49 128 -111.5 198t-154.5 70v15h651v-15q-215 0 -125 -256l242 -671l170 456q75 205 75 316q0 155 -176 155v15h518
v-15q-163 0 -254 -147q-8 -12 -15.5 -25.5t-15.5 -31t-14.5 -30.5t-16 -35.5t-15 -36t-16.5 -41.5t-16 -41t-18 -46.5t-18 -46.5l-297 -780h-14l-340 887l-352 -887h-15z" />
    <glyph glyph-name="X" unicode="X" horiz-adv-x="1411" 
d="M-53 0v12q88 0 163.5 38.5t153.5 109.5q118 113 266 321l72 97l-235 366q-44 70 -76.5 114.5t-78.5 94t-96 74t-104 24.5v15h682v-15q-62 0 -94.5 -21t-34.5 -57t12.5 -76.5t43.5 -86.5l174 -273l53 72q84 119 123 195t39 131q0 54 -38 85t-114 31v15h586v-15
q-160 0 -316 -139q-121 -112 -270 -317l-53 -74l264 -412q41 -63 77.5 -110t82.5 -92.5t96.5 -70t101.5 -24.5v-12h-679v12q76 0 105.5 34t17.5 86.5t-56 119.5l-203 311l-65 -92q-83 -122 -121.5 -198t-38.5 -130q0 -61 42 -96t124 -35v-12h-606z" />
    <glyph glyph-name="Y" unicode="Y" horiz-adv-x="1366" 
d="M365 0v12q63 0 103.5 13.5t62.5 44.5t30 72t8 104v268l-305 500q-71 114 -138 175.5t-149 61.5v15h664v-15q-109 0 -132 -60.5t40 -164.5l256 -428h4l106 180q85 145 120.5 223.5t35.5 128.5q0 121 -174 121v15h535v-15q-89 0 -154 -33.5t-119 -99.5q-31 -36 -74.5 -103
t-129.5 -206q-16 -27 -25 -41l-107 -178v-344q0 -126 41.5 -180t163.5 -54v-12h-663z" />
    <glyph glyph-name="Z" unicode="Z" horiz-adv-x="1251" 
d="M63 0l-2 4l799 1245h-342q-81 0 -149.5 -33.5t-117 -93t-82.5 -128t-58 -150.5h-11l31 422h1026l4 -4l-801 -1246h388q283 0 409 418l10 -2l-39 -432h-1065z" />
    <glyph glyph-name="bracketleft" unicode="[" horiz-adv-x="626" 
d="M135 -344v1761h488v-14h-193q-96 0 -96 -88v-1559q0 -88 96 -88h193v-12h-488z" />
    <glyph glyph-name="backslash" unicode="\" horiz-adv-x="903" 
d="M836 -340l-787 1759l19 8l784 -1759z" />
    <glyph glyph-name="bracketright" unicode="]" horiz-adv-x="626" 
d="M2 -344v12h193q96 0 96 88v1559q0 88 -96 88h-193v14h490v-1761h-490z" />
    <glyph glyph-name="asciicircum" unicode="^" horiz-adv-x="968" 
d="M94 690l-8 6l391 604h15l389 -604l-9 -6l-389 375z" />
    <glyph glyph-name="underscore" unicode="_" horiz-adv-x="1056" 
d="M0 -119v19h1057v-19h-1057z" />
    <glyph glyph-name="grave" unicode="`" horiz-adv-x="671" 
d="M545 967q-46 24 -115 59.5t-105.5 54.5t-73.5 41t-54 37q-38 32 -44 70t19 67q27 30 66 30t75 -32q22 -19 53.5 -61.5t89 -127t93.5 -134.5z" />
    <glyph glyph-name="a" unicode="a" horiz-adv-x="1048" 
d="M362 -23q-128 0 -206 63.5t-78 170.5q0 117 95.5 176t244.5 59q122 0 229 -34v206q0 108 -39 168t-137 60q-122 0 -190 -103q36 -13 58.5 -46t22.5 -72q0 -53 -35 -88t-89 -35q-56 0 -89.5 39t-33.5 92q0 93 103.5 159t262.5 66q59 0 114.5 -10t108 -33.5t91.5 -57.5
t62.5 -86.5t23.5 -117.5v-451q0 -71 57 -71q70 0 137 119l12 -9q-43 -73 -97.5 -116t-139.5 -43q-77 0 -128.5 37.5t-66.5 101.5q-103 -144 -293 -144zM465 27q99 0 182 108v260q-97 27 -145 27q-88 0 -135.5 -51t-47.5 -152q0 -89 38 -140.5t108 -51.5z" />
    <glyph glyph-name="b" unicode="b" horiz-adv-x="1103" 
d="M578 -23q-145 0 -244 72l-182 -72l-7 5v1192q0 78 -30.5 109.5t-112.5 31.5v12l377 41v-645q113 135 280 135q113 0 198.5 -62t127 -159t41.5 -211q0 -196 -121 -322.5t-327 -126.5zM541 -8q63 0 110.5 37t74 99t39.5 133t13 149q0 109 -22 192.5t-73.5 137t-127.5 53.5
q-98 0 -176 -93v-589q16 -48 56.5 -83.5t105.5 -35.5z" />
    <glyph glyph-name="c" unicode="c" horiz-adv-x="960" 
d="M508 -23q-133 0 -232.5 60t-149.5 157.5t-50 217.5q0 102 38 187t102 141t147 87t174 31q155 0 251.5 -79t96.5 -179q0 -61 -36.5 -100t-92.5 -39q-55 0 -92 38t-37 93q0 49 30.5 85t77.5 44q-20 52 -63 87.5t-109 35.5q-62 0 -110 -34.5t-75.5 -94t-41.5 -130.5
t-14 -151q0 -195 73 -304.5t203 -109.5q94 0 169 54.5t120 138.5l12 -6q-24 -43 -56 -80.5t-78.5 -73t-113 -56t-143.5 -20.5z" />
    <glyph glyph-name="d" unicode="d" horiz-adv-x="1124" 
d="M449 -23q-165 0 -268 128t-103 309q0 192 117.5 318t308.5 126q138 0 219 -74v390q0 83 -38 112t-126 29v12l397 41v-1214q0 -78 31 -110t113 -32v-12h-373v117q-112 -140 -278 -140zM553 41q98 0 170 94v555q-11 62 -58 106t-114 44q-73 0 -126 -64.5t-76 -156
t-23 -193.5q0 -106 22.5 -190.5t75 -139.5t129.5 -55z" />
    <glyph glyph-name="e" unicode="e" horiz-adv-x="997" 
d="M520 -23q-106 0 -191.5 36.5t-140 98.5t-83.5 141t-29 167q0 192 126 315t318 123q113 0 202.5 -44t144 -134.5t57.5 -214.5h-602q-5 -207 69 -326t217 -119q100 0 176.5 56.5t124.5 136.5l13 -8q-142 -228 -402 -228zM518 844q-46 0 -83 -31.5t-60 -84t-36.5 -115
t-16.5 -130.5h362q0 40 -2.5 79t-12.5 93t-26.5 93.5t-49 67.5t-75.5 28z" />
    <glyph glyph-name="f" unicode="f" horiz-adv-x="696" 
d="M41 0v12q86 0 125 32t39 114v653h-174v25h174v149q0 89 30 160t82 115t118.5 67t142.5 23q143 0 223 -70t80 -156q0 -57 -36 -93t-87 -36q-52 0 -87.5 37t-35.5 90q0 45 26 79.5t68 45.5q-35 90 -129 90q-79 0 -120.5 -67t-41.5 -178v-256h232v-25h-232v-653
q0 -89 43.5 -117.5t136.5 -28.5v-12h-577z" />
    <glyph glyph-name="g" unicode="g" horiz-adv-x="958" 
d="M449 -356q-121 0 -214 18.5t-149.5 59t-56.5 98.5q0 38 23.5 68t61.5 47t71.5 26t68.5 14q-64 16 -98.5 46.5t-34.5 82.5q0 116 172 177q-102 35 -158.5 107t-56.5 167q0 132 108.5 217.5t284.5 85.5q112 0 209 -41q20 38 43 83.5t34 68t25.5 46t26.5 35t27 17.5
q28 15 59.5 4.5t46.5 -39.5q30 -54 -16 -100q-14 -13 -40.5 -28.5t-51.5 -27t-70 -32t-72 -33.5q80 -40 125 -107t45 -149q0 -133 -107 -218t-284 -85q-93 0 -166 24q-53 -22 -53 -61q0 -25 29 -38.5t77 -17t108.5 -7t124.5 -6t124.5 -16t108.5 -36t77 -67t29 -107.5
q0 -130 -121.5 -203t-359.5 -73zM471 846q-55 0 -91 -39.5t-50.5 -102.5t-14.5 -149t14.5 -149t50.5 -102.5t91 -39.5t91 39.5t50.5 102.5t14.5 149t-14.5 149t-50.5 102.5t-91 39.5zM465 -344q91 0 158 17t101 45t49 55.5t15 56.5q0 43 -33.5 68.5t-93 35t-122 13
t-139.5 9.5t-126 17q-112 -39 -112 -135q0 -84 73 -133t230 -49z" />
    <glyph glyph-name="h" unicode="h" 
d="M27 0v12q82 0 112.5 32t30.5 110v1020q0 78 -30.5 109.5t-112.5 31.5v12l376 41v-682q167 172 330 172q106 0 175 -67t69 -203v-434q0 -78 30.5 -110t112.5 -32v-12h-510v12q73 0 103 32.5t30 109.5v452q0 83 -35 125.5t-100 42.5q-101 0 -205 -108v-512q0 -78 31 -110
t113 -32v-12h-520z" />
    <glyph glyph-name="i" unicode="i" horiz-adv-x="591" 
d="M295 1001q-62 0 -103.5 39.5t-41.5 100.5t41.5 99t103.5 38q61 0 102 -38t41 -99t-41 -100.5t-102 -39.5zM43 0v12q82 0 112.5 32t30.5 110v508q0 78 -30.5 109.5t-112.5 31.5v12l377 41v-702q0 -78 30.5 -110t112.5 -32v-12h-520z" />
    <glyph glyph-name="j" unicode="j" horiz-adv-x="557" 
d="M6 -360l-6 6q51 29 85.5 61.5t52.5 60.5t27.5 69.5t11 70.5t1.5 80v674q0 78 -34.5 109.5t-118.5 31.5v12l387 41v-825q0 -77 -34.5 -142t-95 -112t-128 -79.5t-148.5 -57.5zM285 1001q-61 0 -103.5 39.5t-42.5 100.5q0 60 42.5 98.5t103.5 38.5q62 0 103.5 -38t41.5 -99
t-41.5 -100.5t-103.5 -39.5z" />
    <glyph glyph-name="k" unicode="k" horiz-adv-x="1093" 
d="M27 0v12q82 0 112.5 32t30.5 110v1020q0 78 -30.5 109.5t-112.5 31.5v12l376 41v-1008l193 193q125 122 125 190q0 78 -135 78v15h477v-15q-133 0 -250 -88q-85 -62 -160 -141l-20 -21l289 -430q43 -64 91.5 -96.5t110.5 -32.5v-12h-374l-279 408l-68 -68v-186
q0 -78 31 -110t113 -32v-12h-520z" />
    <glyph glyph-name="l" unicode="l" horiz-adv-x="577" 
d="M29 0v12q82 0 112.5 32t30.5 110v1020q0 78 -30.5 109.5t-112.5 31.5v12l377 41v-1214q0 -78 30.5 -110t112.5 -32v-12h-520z" />
    <glyph glyph-name="m" unicode="m" horiz-adv-x="1677" 
d="M41 0v12q82 0 112.5 32t30.5 110v508q0 78 -30.5 109.5t-112.5 31.5v12l367 41v-170q163 172 321 172q81 0 141.5 -44t81.5 -132q167 176 326 176q104 0 169.5 -66.5t65.5 -203.5v-434q0 -78 31 -110t113 -32v-12h-506v12q73 0 103 32.5t30 109.5v452q0 168 -131 168
q-97 0 -197 -108q7 -44 7 -78v-434q0 -78 29.5 -110t107.5 -32v-12h-498v12q73 0 103 32.5t30 109.5v452q0 83 -34 125.5t-97 42.5q-92 0 -190 -102v-518q0 -77 30 -109.5t103 -32.5v-12h-506z" />
    <glyph glyph-name="n" unicode="n" horiz-adv-x="1155" 
d="M41 0v12q82 0 112.5 32t30.5 110v508q0 78 -30.5 109.5t-112.5 31.5v12l373 41v-174q167 176 334 176q107 0 175 -66.5t68 -203.5v-434q0 -78 31 -110t113 -32v-12h-510v12q73 0 103 32.5t30 109.5v452q0 83 -35 125.5t-100 42.5q-59 0 -107.5 -29.5t-97.5 -78.5v-512
q0 -77 30 -109.5t103 -32.5v-12h-510z" />
    <glyph glyph-name="o" unicode="o" horiz-adv-x="1087" 
d="M543 -23q-124 0 -229 50.5t-171.5 153t-66.5 237.5q0 102 38.5 186.5t103.5 139t149 84.5t176 30t176 -30t149 -84.5t103.5 -139t38.5 -186.5q0 -135 -66.5 -237.5t-171.5 -153t-229 -50.5zM543 -6q217 0 217 424t-217 424q-215 0 -215 -424t215 -424z" />
    <glyph glyph-name="p" unicode="p" horiz-adv-x="1126" 
d="M27 -334v12q81 0 112 33.5t31 112.5v833q0 79 -31 112.5t-112 33.5v12l370 41v-139q112 141 279 141q110 0 196 -61.5t130.5 -161.5t44.5 -217q0 -190 -114.5 -315.5t-307.5 -125.5q-150 0 -222 72v-233q0 -76 35.5 -107t118.5 -31v-12h-530zM573 793q-101 0 -170 -95
v-520q0 -82 49.5 -133t122.5 -51q55 0 99.5 36.5t71 96.5t40 131.5t13.5 147.5q0 110 -22.5 194.5t-74.5 138.5t-129 54z" />
    <glyph glyph-name="q" unicode="q" horiz-adv-x="1101" 
d="M569 -334v12q84 0 119 32.5t35 113.5v285q-111 -132 -279 -132q-113 0 -198.5 62.5t-126.5 159t-41 209.5q0 195 122.5 322.5t323.5 127.5q150 0 250 -78l174 74h8v-1030q0 -79 31.5 -112.5t112.5 -33.5v-12h-531zM563 842q-63 0 -110.5 -37t-74 -99t-39.5 -133t-13 -149
q0 -167 55.5 -274t167.5 -107q100 0 174 88v598q-18 46 -58.5 79.5t-101.5 33.5z" />
    <glyph glyph-name="r" unicode="r" horiz-adv-x="849" 
d="M41 0v12q81 0 112 33.5t31 112.5v499q0 79 -31 112.5t-112 33.5v12l373 41v-266q39 113 111 190.5t161 77.5q67 0 104 -41t37 -98t-38.5 -96t-92.5 -39q-60 0 -99 43.5t-32 105.5q-94 -35 -147 -158v-417q0 -81 34.5 -113.5t118.5 -32.5v-12h-530z" />
    <glyph glyph-name="s" unicode="s" horiz-adv-x="870" 
d="M422 -23q-131 0 -316 37l-12 262l10 3q17 -39 26.5 -59.5t28.5 -56t34.5 -55.5t40.5 -46t50.5 -39t60 -23t73.5 -10q95 0 140.5 45.5t45.5 105.5q0 41 -21.5 72.5t-57 51t-80.5 39t-92 34.5t-92 39t-80.5 52t-57 73.5t-21.5 103.5q0 118 86 185t248 67q44 0 107.5 -6.5
t94 -8t93.5 8.5l14 -274l-10 -3q-18 41 -34 73t-43 71.5t-56 65t-70.5 43.5t-87.5 18q-80 0 -121.5 -42.5t-41.5 -101.5q0 -45 28 -78t72.5 -54.5t98.5 -40.5t107.5 -42t98 -52.5t72.5 -79.5t28 -115q0 -124 -95 -193.5t-269 -69.5z" />
    <glyph glyph-name="t" unicode="t" horiz-adv-x="696" 
d="M414 -20q-109 0 -174.5 64t-65.5 185v582h-145v25h145v217l234 43v-260h254v-25h-254v-612q0 -158 112 -158q94 0 185 117l10 -8q-59 -76 -130.5 -123t-170.5 -47z" />
    <glyph glyph-name="u" unicode="u" 
d="M408 -23q-107 0 -175.5 67t-68.5 204v409q0 79 -31.5 112.5t-112.5 33.5v12l377 41v-627q0 -168 135 -168q58 0 106 29t99 78v489q0 78 -30 112t-103 34v12l367 41v-698q0 -79 31 -112.5t112 -33.5v-12h-373v152q-170 -175 -333 -175z" />
    <glyph glyph-name="v" unicode="v" horiz-adv-x="999" 
d="M496 -14l-308 643q-45 98 -93.5 145t-123.5 47v15h568v-15q-100 0 -124 -46.5t17 -129.5l174 -397l78 188q88 206 88 285q0 100 -131 100v15h393v-15q-129 0 -205 -116q-29 -45 -131 -279l-190 -440h-12z" />
    <glyph glyph-name="w" unicode="w" horiz-adv-x="1515" 
d="M502 -14l-307 643q-45 97 -94 144.5t-124 47.5v15h543v-15q-61 0 -88.5 -21.5t-25.5 -59t28 -95.5l176 -401l150 362l-17 35q-41 94 -77 137t-97 43v15h527v-15q-99 0 -123 -46.5t14 -129.5l150 -387l73 191q82 212 82 276q0 96 -127 96v15h385v-15q-136 0 -204 -110
q-9 -14 -19 -33.5t-17 -34.5t-19.5 -45t-18.5 -44.5t-22.5 -56.5t-22.5 -57l-187 -454h-12l-256 592l-258 -592h-12z" />
    <glyph glyph-name="x" unicode="x" horiz-adv-x="1024" 
d="M-23 0v12q118 0 228 101q70 65 172 204l45 64l-148 237q-66 105 -123.5 154t-138.5 49v15h541v-15q-75 0 -91 -43.5t25 -105.5l109 -172l37 49q96 132 96 194q0 78 -123 78v15h410v-15q-119 0 -215 -96q-42 -40 -160 -190l-35 -48l170 -268q67 -105 126.5 -156t139.5 -51
v-12h-550v12q54 0 78 23t19 58t-32 77l-125 199l-45 -66q-101 -138 -98 -207q0 -84 125 -84v-12h-437z" />
    <glyph glyph-name="y" unicode="y" horiz-adv-x="1009" 
d="M182 -356q-100 0 -100 80q0 42 33.5 64t85 30.5t106 17.5t105 38t73.5 79l17 37l-305 639q-43 97 -92 144.5t-123 47.5v15h567v-15q-68 0 -101 -21t-32.5 -60t24.5 -95l174 -401l74 174q94 236 94 301q0 102 -131 102v15h396v-15q-135 0 -209 -123q-7 -11 -14.5 -24
t-17 -32.5t-16.5 -33.5t-19.5 -43t-19.5 -44.5t-24 -55t-25 -57.5l-208 -476q-128 -288 -312 -288z" />
    <glyph glyph-name="z" unicode="z" horiz-adv-x="935" 
d="M76 0l-6 6l518 815h-176q-60 0 -113 -29t-91.5 -78t-65.5 -102t-44 -112h-12l33 336h725l6 -9l-516 -811h190q52 0 98.5 21t80 53t63 76.5t48 83t34.5 82.5l12 -2l-35 -330h-749z" />
    <glyph glyph-name="braceleft" unicode="{" horiz-adv-x="694" 
d="M672 -356q-218 0 -315 56t-97 173q0 46 20.5 154.5t20.5 183.5q0 172 -78.5 244.5t-242.5 72.5v15q163 0 242 73.5t79 243.5q0 77 -20.5 184.5t-20.5 153.5q0 119 97 175.5t315 56.5v-13q-147 -1 -199.5 -42.5t-52.5 -131.5q0 -86 50 -249.5t50 -223.5q0 -63 -30.5 -106
t-91.5 -68t-133.5 -37t-176.5 -18v-11q71 -6 121 -13t103 -18.5t88 -27.5t64 -39t42.5 -56t13.5 -75q0 -60 -50 -223.5t-50 -249.5q0 -59 19.5 -94.5t75.5 -56.5t157 -23v-10z" />
    <glyph glyph-name="bar" unicode="|" horiz-adv-x="288" 
d="M135 -344v1761h19v-1761h-19z" />
    <glyph glyph-name="braceright" unicode="}" horiz-adv-x="694" 
d="M20 -346q101 2 157 23t75.5 56.5t19.5 94.5q0 86 -50 249.5t-50 223.5q0 42 13.5 75t42.5 56t64 39t88 27.5t103 18.5t121 13v11q-104 6 -176.5 18t-133.5 37t-91.5 68t-30.5 106q0 60 50 223.5t50 249.5q0 90 -52.5 131.5t-199.5 42.5v13q219 0 315.5 -56.5t96.5 -175.5
q0 -46 -20.5 -153.5t-20.5 -184.5q0 -170 80 -243.5t242 -73.5v-15q-163 0 -242.5 -73t-79.5 -244q0 -75 20.5 -183.5t20.5 -154.5q0 -118 -96.5 -173.5t-315.5 -55.5v10z" />
    <glyph glyph-name="asciitilde" unicode="~" horiz-adv-x="962" 
d="M141 373l-10 2q12 56 22.5 94.5t27.5 79t37.5 64.5t51 39.5t68.5 15.5q42 0 92 -19.5t88 -43t85.5 -43t86.5 -19.5q105 0 139 133l11 -4q-12 -54 -21.5 -89t-26.5 -77t-37 -66.5t-51.5 -41.5t-70.5 -17q-42 0 -92 19.5t-88 43t-85.5 43t-86.5 19.5q-106 0 -140 -133z" />
    <glyph glyph-name="exclamdown" unicode="&#xa1;" horiz-adv-x="471" 
d="M236 -467q-62 0 -104 42t-42 112q0 40 17.5 108.5t40 142.5t46 208.5t33.5 287.5h17q10 -153 33 -287.5t45.5 -208.5t39.5 -142.5t17 -108.5q0 -70 -40.5 -112t-102.5 -42zM233 840q59 0 100.5 -42t41.5 -100t-41.5 -98.5t-100.5 -40.5t-99 40.5t-40 98.5
q0 59 40.5 100.5t98.5 41.5z" />
    <glyph glyph-name="cent" unicode="&#xa2;" horiz-adv-x="995" 
d="M530 27v192q-138 0 -239.5 60t-151 157t-49.5 217q0 131 61.5 233t161.5 156t219 58v170h19v-170q156 0 252 -79.5t96 -178.5q0 -61 -36.5 -100.5t-92.5 -39.5q-55 0 -92 38.5t-37 93.5q0 49 31 85t78 44q-20 51 -63 86.5t-109 35.5q-82 0 -138.5 -61t-80 -150.5
t-23.5 -197.5q0 -195 73 -304.5t203 -109.5q94 0 169 54.5t120 138.5l12 -6q-124 -218 -364 -230v-192h-19z" />
    <glyph glyph-name="sterling" unicode="&#xa3;" horiz-adv-x="1241" 
d="M270 -14q-76 0 -118.5 38.5t-42.5 100.5q0 71 59.5 112.5t163.5 41.5q36 0 108 -11q-9 58 -34 118t-75 150.5t-65 120.5h-174v19h164q-63 136 -63 246q0 168 134 268t341 100q104 0 191 -26.5t141 -70t84 -96t30 -106.5q0 -67 -40 -110t-99 -43q-57 0 -98 42.5t-41 102.5
q0 55 34.5 95t87.5 46q-72 148 -241 148q-73 0 -127 -27t-85 -75.5t-46 -109t-15 -134.5q0 -73 37 -250h379v-19h-375q43 -193 43 -276q0 -65 -12 -127q19 -4 71.5 -14t79 -15t67.5 -11.5t73 -9.5t59 -3q248 0 254 254h13q15 -478 -246 -478q-49 0 -92 16t-78 43.5t-65.5 57
t-69.5 63t-76 54.5q-26 -102 -83.5 -163.5t-152.5 -61.5zM266 0q88 0 137.5 69t40.5 171q-50 20 -122 20q-94 0 -144.5 -36.5t-50.5 -98.5q0 -53 36 -89t103 -36z" />
    <glyph glyph-name="yen" unicode="&#xa5;" horiz-adv-x="1505" 
d="M422 0v12q122 0 163.5 54t41.5 180v157h-338v19h338v98l-90 154h-248v18h237l-190 322q-69 117 -132.5 177t-146.5 60v15h635v-15q-105 0 -129 -59t37 -166l242 -428h4l129 225q123 215 123 307q0 121 -176 121v15h524v-15q-90 0 -152.5 -36t-119.5 -109
q-13 -17 -25.5 -34.5t-31.5 -48t-31 -51t-44 -74t-51 -85.5l-71 -121h274v-18h-287l-51 -90v-162h338v-19h-338v-157q0 -126 41.5 -180t163.5 -54v-12h-639z" />
    <glyph glyph-name="brokenbar" unicode="&#xa6;" horiz-adv-x="305" 
d="M143 -344v819h19v-819h-19zM143 700v717h19v-717h-19z" />
    <glyph glyph-name="section" unicode="&#xa7;" horiz-adv-x="962" 
d="M467 -145q-160 0 -260.5 65.5t-100.5 151.5q0 46 33 78t78 32q47 0 80 -33t33 -79q0 -40 -23.5 -71t-60.5 -40q66 -94 207 -94q109 0 163 49.5t54 118.5q0 49 -30.5 87t-80 63t-109 48t-118.5 48t-108.5 55.5t-80 78.5t-30.5 109q0 83 56 140.5t171 115.5q-88 42 -137 98
t-49 144q0 121 94.5 195.5t251.5 74.5q149 0 237 -64t88 -149q0 -51 -32 -80.5t-78 -29.5t-77.5 32t-31.5 78q0 41 24 72.5t62 38.5q-58 92 -182 92q-94 0 -148.5 -48t-54.5 -118q0 -50 30.5 -88.5t79.5 -64t107.5 -49t117.5 -49t108 -57t79.5 -80.5t30.5 -112
q0 -81 -53 -137t-170 -115q88 -42 137 -97.5t49 -141.5q0 -120 -94.5 -194t-261.5 -74zM623 369q28 19 45 33.5t33 44.5t16 65q0 43 -20.5 77t-62.5 59.5t-80 42t-102 40.5t-98 39q-98 -54 -98 -145q0 -42 21 -75t63 -58t81.5 -41.5t102 -40.5t99.5 -41z" />
    <glyph glyph-name="dieresis" unicode="&#xa8;" horiz-adv-x="972" 
d="M305 1006q-51 0 -88 36t-37 88t35.5 88.5t87.5 36.5q51 0 88 -36.5t37 -88.5t-36.5 -88t-86.5 -36zM668 1006q-51 0 -87 36t-36 88t35.5 88.5t87.5 36.5q51 0 88 -36.5t37 -88.5t-37 -88t-88 -36z" />
    <glyph glyph-name="copyright" unicode="&#xa9;" horiz-adv-x="1501" 
d="M750 -25q-178 0 -329.5 88.5t-240 240t-88.5 329.5t88.5 329.5t240 239.5t329.5 88q134 0 256 -52t210 -140t139.5 -210t51.5 -255q0 -178 -87.5 -329.5t-239 -240t-330.5 -88.5zM750 -6q130 0 248 50.5t204 136.5t136.5 204t50.5 248t-50.5 248t-136.5 204t-204 136.5
t-248 50.5q-129 0 -247 -50.5t-203.5 -136.5t-136 -204t-50.5 -248t50.5 -248t136 -204t203.5 -136.5t247 -50.5zM797 264q-213 0 -327 101t-114 264q0 169 119.5 270.5t310.5 101.5q36 0 97 -5t89.5 -5.5t86.5 8.5l20 -245h-6q-52 126 -119.5 182.5t-152.5 56.5
q-64 0 -111.5 -30.5t-73.5 -82.5t-38.5 -113t-12.5 -132t12 -132.5t37.5 -115t72.5 -84.5t110 -31q96 0 170 70.5t123 189.5l6 -2l-41 -231q-115 -35 -258 -35z" />
    <glyph glyph-name="ordfeminine" unicode="&#xaa;" horiz-adv-x="1052" 
d="M377 575q-105 0 -169.5 52.5t-64.5 138.5q0 97 77.5 144.5t201.5 47.5q91 0 186 -26v170q0 88 -32 137t-111 49q-101 0 -156 -84q29 -10 47.5 -38t18.5 -60q0 -43 -29 -71.5t-72 -28.5q-47 0 -73.5 32.5t-26.5 75.5q0 76 84.5 130t214.5 54q61 0 116.5 -14t103.5 -42
t76 -78t28 -115v-371q0 -57 47 -57q35 0 65 30t49 66l9 -6q-71 -131 -193 -131q-62 0 -104 30.5t-56 83.5q-84 -119 -237 -119zM459 616q82 0 149 89v213q-58 20 -119 20q-151 0 -151 -164q0 -73 31.5 -115.5t89.5 -42.5zM119 434v19h811v-19h-811z" />
    <glyph glyph-name="guillemotleft" unicode="&#xab;" horiz-adv-x="1198" 
d="M643 47l-592 408v6l592 409l6 -10l-438 -401l438 -404zM1120 47l-592 408v6l592 409l6 -10l-436 -401l436 -404z" />
    <glyph glyph-name="uni00AD" unicode="&#xad;" horiz-adv-x="739" 
d="M104 451v51h531v-51h-531z" />
    <glyph glyph-name="registered" unicode="&#xae;" horiz-adv-x="833" 
d="M416 694q-132 0 -226 94t-94 226t94 225.5t226 93.5q133 0 226 -93.5t93 -225.5t-93 -226t-226 -94zM416 711q126 0 214.5 88.5t88.5 214.5t-88.5 214.5t-214.5 88.5q-125 0 -214 -88.5t-89 -214.5t89 -214.5t214 -88.5zM254 856v4q26 0 34.5 9t8.5 38v211q0 29 -8.5 38
t-34.5 9v6h172q70 0 105.5 -22.5t35.5 -61.5q0 -23 -12 -39t-34 -23.5t-41.5 -10.5t-45.5 -4v-2q29 0 48.5 -3.5t30.5 -7t19 -15t10.5 -18.5t7.5 -28t9 -33q8 -25 18 -34t33 -9v-4h-114q-5 10 -19 57q-14 66 -24 78q-14 15 -47 15h-33v-99q0 -29 9 -38t36 -9v-4h-164z
M373 1012h39q39 0 57 21.5t18 53.5q0 34 -18.5 56t-58.5 22h-37v-153z" />
    <glyph glyph-name="macron" unicode="&#xaf;" horiz-adv-x="868" 
d="M150 1024v70h569v-70h-569z" />
    <glyph glyph-name="degree" unicode="&#xb0;" horiz-adv-x="755" 
d="M377 795q-53 0 -104.5 16t-95 46t-70.5 81t-27 115q0 65 27 116.5t70.5 81.5t95 46t104.5 16q54 0 105.5 -16t95.5 -46t71 -81.5t27 -116.5q0 -64 -27 -115t-71 -81t-95.5 -46t-105.5 -16zM377 805q133 0 133 248q0 247 -133 247q-131 0 -131 -247q0 -248 131 -248z" />
    <glyph glyph-name="plusminus" unicode="&#xb1;" horiz-adv-x="1167" 
d="M573 209v446h-444v21h444v446h21v-446h444v-21h-444v-446h-21zM129 0v18h911v-18h-911z" />
    <glyph glyph-name="twosuperior" unicode="&#xb2;" horiz-adv-x="763" 
d="M88 686q-15 61 -6 108.5t47 92.5q27 36 75.5 75t93 71.5t87.5 71.5t68.5 90t25.5 112q0 75 -38 121.5t-113 46.5q-60 0 -101 -30t-61 -73q37 -5 61.5 -31.5t24.5 -62.5q0 -41 -28 -68.5t-68 -27.5q-44 0 -71.5 30t-27.5 72q0 75 86 139t228 64q128 0 214.5 -56.5
t86.5 -154.5q0 -62 -39 -107t-103 -75t-133 -56t-142.5 -66t-117.5 -89q-28 -35 -39 -72q40 88 178 88q54 0 144.5 -24.5t134.5 -24.5q119 0 119 106q0 23 -6 50h10q14 -46 14 -119q0 -41 -7 -76.5t-23 -67.5t-46 -50.5t-71 -18.5q-42 0 -80 19.5t-68 47.5t-58.5 56
t-63.5 47.5t-72 19.5q-53 0 -82 -34.5t-29 -88.5q0 -39 8 -55h-12z" />
    <glyph glyph-name="threesuperior" unicode="&#xb3;" horiz-adv-x="768" 
d="M367 672q-136 0 -223 50.5t-87 121.5q0 41 27.5 70.5t69.5 29.5q41 0 69.5 -28t28.5 -68q0 -35 -22 -62.5t-56 -33.5q40 -70 141 -70q95 0 145 58.5t50 148.5q0 95 -52.5 143.5t-152.5 50.5q-29 1 -49.5 -2t-31.5 -6.5t-15 -3.5q-25 0 -25 19q0 7 6.5 13.5t16.5 6.5
q3 0 32.5 -8t61.5 -8q92 0 138 57.5t46 140.5t-42 133t-119 50q-91 0 -136 -72q34 -6 55 -32.5t21 -61.5q0 -40 -27.5 -67.5t-68.5 -27.5t-67.5 28.5t-26.5 68.5q0 74 83.5 125t215.5 51q135 0 221 -53t86 -146t-90.5 -144.5t-231.5 -51.5h-8v-5h8q96 0 171.5 -19.5
t125.5 -66t50 -114.5q0 -103 -98 -159t-240 -56z" />
    <glyph glyph-name="acute" unicode="&#xb4;" horiz-adv-x="671" 
d="M141 969l-4 4q28 40 73 105t68.5 98.5t50.5 68t44 49.5q36 32 75 32t66 -30q25 -29 19 -67t-44 -70q-17 -15 -54.5 -37t-74 -41t-105 -53.5t-114.5 -58.5z" />
    <glyph glyph-name="mu" unicode="&#xb5;" horiz-adv-x="1187" 
d="M285 -399q-36 0 -63.5 19.5t-43.5 58t-26 75t-13.5 93.5t-4.5 88t-1 83v805l234 27v-621q0 -168 135 -168q58 0 106 29t99 78v655l233 27v-705q0 -116 88 -116q39 0 94 34l4 -12q-104 -71 -221 -71q-98 0 -146 45t-48 127q-170 -175 -334 -175q-83 0 -144.5 40t-85.5 122
v-86q0 -46 16 -88t40 -72.5t51.5 -61t51.5 -54t40 -51.5t16 -54q0 -30 -19 -50.5t-58 -20.5z" />
    <glyph glyph-name="paragraph" unicode="&#xb6;" horiz-adv-x="1005" 
d="M504 -121v699q-206 0 -323.5 97.5t-117.5 242.5q0 149 121 248.5t310 99.5h432v-17h-121v-1370h-19v1370h-262v-1370h-20z" />
    <glyph glyph-name="periodcentered" unicode="&#xb7;" horiz-adv-x="497" 
d="M250 350q-59 0 -100 40.5t-41 98.5t41 99t100 41q58 0 98.5 -40.5t40.5 -99.5t-40.5 -99t-98.5 -40z" />
    <glyph glyph-name="cedilla" unicode="&#xb8;" horiz-adv-x="669" 
d="M309 -449q-144 0 -237 66l6 10q70 -45 160 -45q74 0 117.5 41t43.5 105q0 58 -34 94.5t-95 36.5q-34 0 -77 -17l-5 4l134 144l18 -4l-109 -117q47 14 113 14q106 0 170 -41.5t64 -117.5q0 -60 -42.5 -100.5t-100.5 -56.5t-126 -16z" />
    <glyph glyph-name="onesuperior" unicode="&#xb9;" horiz-adv-x="503" 
d="M43 686v8q75 0 107 28t32 103v488q0 33 -12 49t-45 16h-92v6q185 16 323 89l6 -3v-653q0 -74 29.5 -98.5t100.5 -24.5v-8h-449z" />
    <glyph glyph-name="ordmasculine" unicode="&#xba;" horiz-adv-x="1038" 
d="M518 575q-103 0 -189.5 42.5t-141 126t-54.5 192.5q0 165 112.5 263.5t272.5 98.5q161 0 274 -98.5t113 -263.5q0 -163 -113.5 -262t-273.5 -99zM518 590q172 0 172 346q0 350 -172 350q-170 0 -170 -350q0 -346 170 -346zM133 434v19h772v-19h-772z" />
    <glyph glyph-name="guillemotright" unicode="&#xbb;" horiz-adv-x="1198" 
d="M78 47l-6 8l436 404l-436 401l6 10l592 -409v-6zM555 47l-6 8l438 404l-438 401l6 10l592 -409v-6z" />
    <glyph glyph-name="onequarter" unicode="&#xbc;" horiz-adv-x="1671" 
d="M98 481v8q75 0 107.5 28.5t32.5 103.5v487q0 33 -12.5 49.5t-45.5 16.5h-92v6q189 16 324 88l6 -2v-654q0 -74 29 -98.5t100 -24.5v-8h-449zM385 -18l-14 8l897 1294l14 -8zM1155 0v8q76 0 108.5 27.5t32.5 103.5v66h-401l-4 6l123 117q54 49 93.5 125.5t39.5 154.5
q0 125 -103 191q126 3 222 -39t96 -117q0 -42 -35 -85.5t-79 -74.5t-111.5 -77.5t-106.5 -79.5l-119 -109h385v129l172 156h7v-285q50 0 78.5 7t29.5 7q10 0 17.5 -6t7.5 -14q0 -7 -8.5 -12.5t-16.5 -5.5l-30 6q-30 6 -78 6v-74q0 -74 29.5 -98.5t101.5 -24.5v-8h-451z" />
    <glyph glyph-name="onehalf" unicode="&#xbd;" horiz-adv-x="1705" 
d="M1022 0q-14 61 -4.5 108.5t45.5 92.5q27 36 76 75t93.5 71.5t87.5 71.5t69 90t26 112q0 74 -39 120.5t-114 46.5q-61 0 -102 -30t-58 -72q37 -5 61.5 -31.5t24.5 -62.5q0 -41 -28.5 -68.5t-69.5 -27.5q-43 0 -70 30.5t-27 71.5q0 75 85.5 139t228.5 64q128 0 214.5 -56.5
t86.5 -154.5q0 -62 -39 -107t-103 -75t-133 -56t-143 -66t-119 -89q-28 -35 -39 -72q43 88 180 88q54 0 144 -24.5t135 -24.5q119 0 119 106q0 22 -6 49h10q14 -58 14 -118q0 -41 -7.5 -77t-23.5 -67.5t-45.5 -50t-70.5 -18.5q-42 0 -80.5 19.5t-68.5 47.5t-59 56t-64 47.5
t-72 19.5q-53 0 -82 -34.5t-29 -88.5q0 -31 8 -55h-12zM88 481v8q75 0 107 28t32 104v487q0 34 -12 50t-45 16h-92v6q187 16 323 88l7 -2v-654q0 -74 29 -98.5t100 -24.5v-8h-449zM375 -18l-15 8l897 1294l15 -8z" />
    <glyph glyph-name="threequarters" unicode="&#xbe;" horiz-adv-x="1787" 
d="M395 467q-136 0 -222.5 50.5t-86.5 121.5q0 41 27 70.5t69 29.5q41 0 70 -28t29 -68q0 -35 -22 -62.5t-56 -33.5q40 -70 141 -70q95 0 145 58.5t50 148.5q0 96 -52.5 144.5t-152.5 50.5q-29 1 -49.5 -2.5t-31.5 -7t-15 -3.5q-25 0 -25 19q0 7 6.5 13.5t16.5 6.5
q3 0 32.5 -8t61.5 -8q92 0 138 57.5t46 140.5t-42.5 133t-119.5 50q-90 0 -135 -72q34 -6 55 -32.5t21 -61.5q0 -40 -27.5 -67t-68.5 -27t-68 28t-27 68q0 74 83.5 125t215.5 51q135 0 221.5 -53t86.5 -146t-90.5 -144.5t-231.5 -51.5h-8v-4h8q96 0 171.5 -19.5t125 -66.5
t49.5 -115q0 -103 -98 -159t-240 -56zM502 -18l-15 8l897 1294l15 -8zM1272 0v8q76 0 108.5 27.5t32.5 103.5v66h-401l-4 6l122 117q55 49 94.5 125.5t39.5 154.5q0 125 -103 191q126 3 222 -39t96 -117q0 -42 -35 -85.5t-79 -74.5t-111.5 -77.5t-106.5 -79.5l-119 -109h385
v129l172 156h6v-285q50 0 79 7t30 7q10 0 17 -6t7 -14q0 -7 -8 -12.5t-16 -5.5q-5 0 -16 3t-34.5 6t-58.5 3v-74q0 -74 29.5 -98.5t101.5 -24.5v-8h-450z" />
    <glyph glyph-name="questiondown" unicode="&#xbf;" horiz-adv-x="1040" 
d="M530 -467q-204 0 -337.5 98t-133.5 250q0 47 17 88t43.5 71.5t69 58t81 46t93.5 36.5t93.5 28.5t92.5 23.5l8 201h12l9 -211q-265 -71 -265 -344q0 -144 67 -238t200 -94q88 0 149.5 39t95.5 101q-51 7 -83.5 47t-32.5 94q0 60 40 101.5t97 41.5q58 0 97.5 -43t39.5 -106
q0 -114 -129 -201.5t-324 -87.5zM559 840q58 0 99.5 -41.5t41.5 -100.5q0 -58 -41 -98.5t-100 -40.5t-99 40.5t-40 98.5q0 59 40.5 100.5t98.5 41.5z" />
    <glyph glyph-name="Agrave" unicode="&#xc0;" horiz-adv-x="1363" 
d="M-74 0v12q33 0 63 7t54.5 17.5t48.5 30.5t41 37t36.5 46t31.5 49.5t29 56t25.5 56.5t25 59.5t24.5 56.5l363 846h12l450 -989q27 -59 51 -101t58 -84.5t76.5 -65t91.5 -22.5v-12h-674v12q109 0 142 69t-19 189l-70 156h-458l-17 -43q-143 -371 152 -371v-12h-537z
M338 446h440l-225 512zM856 1376q-44 24 -114.5 60t-106 54.5t-73 41t-54.5 37.5q-38 32 -44 70t19 67q27 30 66.5 30t75.5 -32q22 -19 54 -62.5t87.5 -126t93.5 -135.5z" />
    <glyph glyph-name="Aacute" unicode="&#xc1;" horiz-adv-x="1363" 
d="M-74 0v12q33 0 63 7t54.5 17.5t48.5 30.5t41 37t36.5 46t31.5 49.5t29 56t25.5 56.5t25 59.5t24.5 56.5l363 846h12l450 -989q27 -59 51 -101t58 -84.5t76.5 -65t91.5 -22.5v-12h-674v12q109 0 142 69t-19 189l-70 156h-458l-17 -43q-143 -371 152 -371v-12h-537z
M338 446h440l-225 512zM514 1378l-4 4q30 42 73 105t67 98t51 69.5t44 49.5q36 32 75.5 32t66.5 -30q25 -29 19 -67t-44 -70q-17 -15 -54.5 -37t-73.5 -41t-106 -54.5t-114 -58.5z" />
    <glyph glyph-name="Acircumflex" unicode="&#xc2;" horiz-adv-x="1363" 
d="M-74 0v12q33 0 63 7t54.5 17.5t48.5 30.5t41 37t36.5 46t31.5 49.5t29 56t25.5 56.5t25 59.5t24.5 56.5l363 846h12l450 -989q27 -59 51 -101t58 -84.5t76.5 -65t91.5 -22.5v-12h-674v12q109 0 142 69t-19 189l-70 156h-458l-17 -43q-143 -371 152 -371v-12h-537z
M338 446h440l-225 512zM375 1364l-4 4l229 295q27 41 74 41q44 0 74 -41l227 -295l-4 -4l-297 164z" />
    <glyph glyph-name="Atilde" unicode="&#xc3;" horiz-adv-x="1363" 
d="M-74 0v12q33 0 63 7t54.5 17.5t48.5 30.5t41 37t36.5 46t31.5 49.5t29 56t25.5 56.5t25 59.5t24.5 56.5l363 846h12l450 -989q27 -59 51 -101t58 -84.5t76.5 -65t91.5 -22.5v-12h-674v12q109 0 142 69t-19 189l-70 156h-458l-17 -43q-143 -371 152 -371v-12h-537z
M338 446h440l-225 512zM367 1405q3 36 6.5 61t10.5 62.5t18.5 63.5t28.5 51t43 38t58 13q53 0 161 -55.5t163 -55.5q31 0 53 10.5t33 31.5t16 38.5t9 44.5l10 -2q-5 -57 -14 -100t-26.5 -89.5t-50 -72t-77.5 -25.5q-35 0 -79.5 17.5t-80.5 38t-81.5 38t-82.5 17.5
q-31 0 -52.5 -11t-32.5 -31.5t-15.5 -38.5t-7.5 -44h-10z" />
    <glyph glyph-name="Adieresis" unicode="&#xc4;" horiz-adv-x="1363" 
d="M-74 0v12q33 0 63 7t54.5 17.5t48.5 30.5t41 37t36.5 46t31.5 49.5t29 56t25.5 56.5t25 59.5t24.5 56.5l363 846h12l450 -989q27 -59 51 -101t58 -84.5t76.5 -65t91.5 -22.5v-12h-674v12q109 0 142 69t-19 189l-70 156h-458l-17 -43q-143 -371 152 -371v-12h-537z
M338 446h440l-225 512zM489 1415q-51 0 -87.5 36.5t-36.5 88.5t35 88.5t87 36.5q51 0 88 -36.5t37 -88.5t-36.5 -88.5t-86.5 -36.5zM852 1415q-51 0 -87 36.5t-36 88.5t35.5 88.5t87.5 36.5q51 0 88 -36.5t37 -88.5t-37 -88.5t-88 -36.5z" />
    <glyph glyph-name="Aring" unicode="&#xc5;" horiz-adv-x="1363" 
d="M-74 0v12q33 0 63 7t54.5 17.5t48.5 30.5t41 37t36.5 46t31.5 49.5t29 56t25.5 56.5t25 59.5t24.5 56.5l363 846h12l450 -989q27 -59 51 -101t58 -84.5t76.5 -65t91.5 -22.5v-12h-674v12q109 0 142 69t-19 189l-70 156h-458l-17 -43q-143 -371 152 -371v-12h-537z
M338 446h440l-225 512zM672 1360q-102 0 -169 56t-67 145q0 90 67 146t169 56t167.5 -56t65.5 -146q0 -89 -65.5 -145t-167.5 -56zM672 1368q80 0 80 193q0 192 -80 192q-84 0 -84 -192q0 -193 84 -193z" />
    <glyph glyph-name="AE" unicode="&#xc6;" horiz-adv-x="2039" 
d="M-84 0v12q44 0 87.5 13.5t79.5 33t76.5 55t69.5 65t67.5 78.5t61.5 80t60 83l545 780q-34 51 -154 51v15h1077l29 -396l-10 -2q-21 94 -54.5 160.5t-91 118.5t-147.5 77t-215 25h-148v-610h47q185 0 271.5 67.5t115.5 215.5h11v-580h-11q-29 147 -116 214t-271 67h-47
v-609h166q104 0 185 23t133 58.5t91.5 92.5t61 110t41.5 126l10 -2l-39 -422h-1089v12q61 0 96.5 9t55.5 34t26 58t6 92v248h-528l-31 -47q-59 -84 -90 -153t-32 -124t42 -86t129 -31v-12h-567zM477 471h516v588q0 93 -20 125z" />
    <glyph glyph-name="Ccedilla" unicode="&#xc7;" horiz-adv-x="1390" 
d="M731 -449q-141 0 -237 66l8 10q67 -45 157 -45q75 0 118.5 41t43.5 105q0 58 -33.5 94.5t-95.5 36.5q-34 0 -76 -17l-6 4l123 134q-301 20 -473 198.5t-172 448.5q0 195 91.5 346t254.5 234t371 83q52 0 120.5 -6t116 -11t107.5 -2.5t111 15.5l34 -416l-10 -2
q-88 212 -201 310t-270 98q-95 0 -171.5 -35.5t-127.5 -95.5t-85 -143t-49 -175.5t-15 -195.5q0 -102 14.5 -193t47.5 -174.5t82.5 -144t124 -96t167.5 -35.5q327 0 510 432h10l-68 -383q-239 -72 -499 -60l-101 -108q47 14 113 14q106 0 169.5 -41.5t63.5 -117.5
q0 -46 -24 -80.5t-63.5 -54t-85.5 -29t-95 -9.5z" />
    <glyph glyph-name="Egrave" unicode="&#xc8;" horiz-adv-x="1290" 
d="M59 0v12q116 0 150.5 39.5t34.5 153.5v854q0 58 -6.5 91.5t-26.5 58t-55.5 33.5t-96.5 9v15h1078l28 -396l-10 -2q-21 94 -54.5 160.5t-91 118.5t-147.5 77t-215 25h-147v-610h47q185 0 271.5 67.5t115.5 215.5h10v-580h-10q-29 147 -116 214t-271 67h-47v-609h166
q104 0 185 23t133 58.5t91.5 92.5t61 110t41.5 126l10 -2l-39 -422h-1090zM827 1376q-47 25 -114.5 60t-104.5 54.5t-74 41.5t-55 37q-36 32 -41.5 70t19.5 67q25 30 65 30t76 -32q22 -19 52.5 -60.5t90 -130t90.5 -133.5z" />
    <glyph glyph-name="Eacute" unicode="&#xc9;" horiz-adv-x="1290" 
d="M59 0v12q116 0 150.5 39.5t34.5 153.5v854q0 58 -6.5 91.5t-26.5 58t-55.5 33.5t-96.5 9v15h1078l28 -396l-10 -2q-21 94 -54.5 160.5t-91 118.5t-147.5 77t-215 25h-147v-610h47q185 0 271.5 67.5t115.5 215.5h10v-580h-10q-29 147 -116 214t-271 67h-47v-609h166
q104 0 185 23t133 58.5t91.5 92.5t61 110t41.5 126l10 -2l-39 -422h-1090zM522 1378l-4 4q38 53 94 134.5t88 125t54 62.5q36 32 76 32t65 -30q25 -29 19 -67t-42 -70q-15 -12 -38.5 -27t-60.5 -34.5t-69.5 -36.5t-88 -45t-93.5 -48z" />
    <glyph glyph-name="Ecircumflex" unicode="&#xca;" horiz-adv-x="1290" 
d="M59 0v12q116 0 150.5 39.5t34.5 153.5v854q0 58 -6.5 91.5t-26.5 58t-55.5 33.5t-96.5 9v15h1078l28 -396l-10 -2q-21 94 -54.5 160.5t-91 118.5t-147.5 77t-215 25h-147v-610h47q185 0 271.5 67.5t115.5 215.5h10v-580h-10q-29 147 -116 214t-271 67h-47v-609h166
q104 0 185 23t133 58.5t91.5 92.5t61 110t41.5 126l10 -2l-39 -422h-1090zM365 1364l-5 4l230 295q27 41 74 41q43 0 73 -41l228 -295l-4 -4l-297 164z" />
    <glyph glyph-name="Edieresis" unicode="&#xcb;" horiz-adv-x="1290" 
d="M59 0v12q116 0 150.5 39.5t34.5 153.5v854q0 58 -6.5 91.5t-26.5 58t-55.5 33.5t-96.5 9v15h1078l28 -396l-10 -2q-21 94 -54.5 160.5t-91 118.5t-147.5 77t-215 25h-147v-610h47q185 0 271.5 67.5t115.5 215.5h10v-580h-10q-29 147 -116 214t-271 67h-47v-609h166
q104 0 185 23t133 58.5t91.5 92.5t61 110t41.5 126l10 -2l-39 -422h-1090zM496 1415q-51 0 -88 36.5t-37 88.5t35.5 88.5t87.5 36.5t88 -36t36 -89q0 -52 -35.5 -88.5t-86.5 -36.5zM860 1415q-51 0 -88 36.5t-37 88.5t35.5 88.5t87.5 36.5t88.5 -36.5t36.5 -88.5t-36 -88.5
t-87 -36.5z" />
    <glyph glyph-name="Igrave" unicode="&#xcc;" horiz-adv-x="743" 
d="M59 0v12q116 0 150.5 39.5t34.5 153.5v854q0 58 -6.5 91.5t-26.5 58t-55.5 33.5t-96.5 9v15h625v-15q-116 0 -150 -39t-34 -153v-854q0 -59 6 -92t26 -58t55.5 -34t96.5 -9v-12h-625zM545 1376q-47 25 -114.5 60t-104.5 54.5t-74 41.5t-55 37q-36 32 -42 70t19 67
q25 30 65 30t76 -32q17 -15 43.5 -49.5t50.5 -69.5t67 -98.5t73 -106.5z" />
    <glyph glyph-name="Iacute" unicode="&#xcd;" horiz-adv-x="743" 
d="M59 0v12q116 0 150.5 39.5t34.5 153.5v854q0 58 -6.5 91.5t-26.5 58t-55.5 33.5t-96.5 9v15h625v-15q-116 0 -150 -39t-34 -153v-854q0 -59 6 -92t26 -58t55.5 -34t96.5 -9v-12h-625zM190 1378l-4 4q38 53 94 134.5t88 125t54 62.5q36 32 76 32t65 -30q25 -29 19.5 -67
t-41.5 -70q-18 -15 -56 -37.5t-73 -40.5t-107.5 -54.5t-114.5 -58.5z" />
    <glyph glyph-name="Icircumflex" unicode="&#xce;" horiz-adv-x="743" 
d="M59 0v12q116 0 150.5 39.5t34.5 153.5v854q0 58 -6.5 91.5t-26.5 58t-55.5 33.5t-96.5 9v15h625v-15q-116 0 -150 -39t-34 -153v-854q0 -59 6 -92t26 -58t55.5 -34t96.5 -9v-12h-625zM74 1364l-4 4l227 295q30 41 74 41q46 0 73 -41l230 -295l-4 -4l-299 164z" />
    <glyph glyph-name="Idieresis" unicode="&#xcf;" horiz-adv-x="743" 
d="M59 0v12q116 0 150.5 39.5t34.5 153.5v854q0 58 -6.5 91.5t-26.5 58t-55.5 33.5t-96.5 9v15h625v-15q-116 0 -150 -39t-34 -153v-854q0 -59 6 -92t26 -58t55.5 -34t96.5 -9v-12h-625zM190 1415q-51 0 -87.5 36.5t-36.5 88.5t35 88.5t87 36.5t88.5 -36.5t36.5 -88.5
t-36 -88.5t-87 -36.5zM555 1415q-51 0 -88 36.5t-37 88.5t35.5 88.5t87.5 36.5q53 0 89 -36.5t36 -88.5t-36 -88.5t-87 -36.5z" />
    <glyph glyph-name="Eth" unicode="&#xd0;" horiz-adv-x="1538" 
d="M61 0v12q116 0 150.5 39.5t34.5 153.5v422h-160v18h160v414q0 58 -6.5 91.5t-26.5 58t-55.5 33.5t-96.5 9v15h656q337 0 534 -171.5t197 -461.5t-197 -461.5t-534 -171.5h-656zM500 14h190q126 0 221 50t150.5 137.5t82.5 195.5t27 236q0 101 -16.5 189.5t-53 168
t-91 136t-136 89.5t-182.5 33h-192v-604h354v-18h-354v-613z" />
    <glyph glyph-name="Ntilde" unicode="&#xd1;" horiz-adv-x="1482" 
d="M31 0v12q47 0 80.5 5t61.5 22.5t45.5 37.5t31 62.5t20.5 83.5t11 116t5 144.5t1 182.5v276q0 164 -51.5 236.5t-194.5 72.5v15h414l745 -871v203q0 113 -1 182.5t-5 144.5t-11 116t-20.5 83.5t-31 62t-45.5 37t-61.5 22.5t-80.5 5v15h533v-15q-47 0 -80.5 -5t-61.5 -22.5
t-45.5 -37t-31 -62t-20.5 -83.5t-11 -116t-5 -144.5t-1 -182.5v-608l-11 -4l-903 1048v-368q0 -113 1 -182.5t5 -144.5t11 -116t20.5 -83.5t31 -62.5t45.5 -37.5t61.5 -22.5t80.5 -5v-12h-532zM465 1405q3 35 6.5 60.5t11 63t19 63.5t29 51t43.5 38t59 13q35 0 79.5 -17.5
t80 -38t81 -38t82.5 -17.5q31 0 53 11t33 31t15.5 38.5t7.5 44.5l10 -2q-3 -44 -8.5 -79.5t-18 -76t-29.5 -67.5t-46 -45.5t-66 -18.5q-43 0 -100 27.5t-116 55.5t-105 28q-31 0 -53 -11t-33 -32t-16 -38.5t-9 -43.5h-10z" />
    <glyph glyph-name="Ograve" unicode="&#xd2;" horiz-adv-x="1550" 
d="M774 -25q-197 0 -354.5 85.5t-245.5 236t-88 336.5q0 139 52 260.5t142 209t218.5 137.5t275.5 50q148 0 276.5 -50t218.5 -137.5t141.5 -209t51.5 -260.5q0 -186 -88 -336.5t-245.5 -236t-354.5 -85.5zM774 -8q92 0 163.5 36t117.5 95.5t76 143.5t42.5 174t12.5 192
q0 103 -12 192.5t-42 173t-76 143t-118 95t-164 35.5t-164 -36t-117.5 -95.5t-74.5 -143.5t-41 -173t-12 -191t12 -191.5t41.5 -173.5t75 -144t117.5 -96t163 -36zM940 1397q-46 24 -115 59.5t-105.5 54.5t-73.5 41t-54 37q-38 32 -44 70t19 67q27 30 66.5 30t75.5 -32
q22 -19 53.5 -62t88 -126t93.5 -135z" />
    <glyph glyph-name="Oacute" unicode="&#xd3;" horiz-adv-x="1550" 
d="M774 -25q-197 0 -354.5 85.5t-245.5 236t-88 336.5q0 139 52 260.5t142 209t218.5 137.5t275.5 50q148 0 276.5 -50t218.5 -137.5t141.5 -209t51.5 -260.5q0 -186 -88 -336.5t-245.5 -236t-354.5 -85.5zM774 -8q92 0 163.5 36t117.5 95.5t76 143.5t42.5 174t12.5 192
q0 103 -12 192.5t-42 173t-76 143t-118 95t-164 35.5t-164 -36t-117.5 -95.5t-74.5 -143.5t-41 -173t-12 -191t12 -191.5t41.5 -173.5t75 -144t117.5 -96t163 -36zM598 1399l-4 4q29 42 73 105.5t67.5 97.5t50.5 68.5t44 49.5q36 32 75.5 32t66.5 -30q25 -29 19 -67t-44 -70
q-17 -15 -54.5 -37t-74 -41t-105 -53.5t-114.5 -58.5z" />
    <glyph glyph-name="Ocircumflex" unicode="&#xd4;" horiz-adv-x="1550" 
d="M774 -25q-197 0 -354.5 85.5t-245.5 236t-88 336.5q0 139 52 260.5t142 209t218.5 137.5t275.5 50q148 0 276.5 -50t218.5 -137.5t141.5 -209t51.5 -260.5q0 -186 -88 -336.5t-245.5 -236t-354.5 -85.5zM774 -8q92 0 163.5 36t117.5 95.5t76 143.5t42.5 174t12.5 192
q0 103 -12 192.5t-42 173t-76 143t-118 95t-164 35.5t-164 -36t-117.5 -95.5t-74.5 -143.5t-41 -173t-12 -191t12 -191.5t41.5 -173.5t75 -144t117.5 -96t163 -36zM475 1384l-4 5l229 294q27 41 74 41q44 0 74 -41l227 -294l-4 -5l-297 164z" />
    <glyph glyph-name="Otilde" unicode="&#xd5;" horiz-adv-x="1550" 
d="M774 -25q-197 0 -354.5 85.5t-245.5 236t-88 336.5q0 139 52 260.5t142 209t218.5 137.5t275.5 50q148 0 276.5 -50t218.5 -137.5t141.5 -209t51.5 -260.5q0 -186 -88 -336.5t-245.5 -236t-354.5 -85.5zM774 -8q92 0 163.5 36t117.5 95.5t76 143.5t42.5 174t12.5 192
q0 103 -12 192.5t-42 173t-76 143t-118 95t-164 35.5t-164 -36t-117.5 -95.5t-74.5 -143.5t-41 -173t-12 -191t12 -191.5t41.5 -173.5t75 -144t117.5 -96t163 -36zM459 1425q3 35 6.5 60.5t11 63t19 63.5t29 51t43.5 38t59 13q44 0 101.5 -27.5t116.5 -55t105 -27.5
q31 0 53 11t33 31t15.5 38.5t7.5 44.5l10 -3q-3 -44 -8.5 -79.5t-18 -75.5t-29.5 -67.5t-46 -45.5t-66 -18q-43 0 -100 27.5t-116 55t-105 27.5q-31 0 -53 -11t-33 -32t-16 -38.5t-9 -43.5h-10z" />
    <glyph glyph-name="Odieresis" unicode="&#xd6;" horiz-adv-x="1550" 
d="M774 -25q-197 0 -354.5 85.5t-245.5 236t-88 336.5q0 139 52 260.5t142 209t218.5 137.5t275.5 50q148 0 276.5 -50t218.5 -137.5t141.5 -209t51.5 -260.5q0 -186 -88 -336.5t-245.5 -236t-354.5 -85.5zM774 -8q92 0 163.5 36t117.5 95.5t76 143.5t42.5 174t12.5 192
q0 103 -12 192.5t-42 173t-76 143t-118 95t-164 35.5t-164 -36t-117.5 -95.5t-74.5 -143.5t-41 -173t-12 -191t12 -191.5t41.5 -173.5t75 -144t117.5 -96t163 -36zM594 1436q-51 0 -88 36.5t-37 88.5t35.5 88.5t87.5 36.5q51 0 88 -36.5t37 -88.5t-36.5 -88.5t-86.5 -36.5z
M956 1436q-51 0 -86.5 36.5t-35.5 88.5t35 88.5t87 36.5q51 0 88 -36.5t37 -88.5t-37 -88.5t-88 -36.5z" />
    <glyph glyph-name="multiply" unicode="&#xd7;" horiz-adv-x="948" 
d="M109 121l-15 12l367 367l-367 366l15 13l366 -365l365 365l14 -13l-367 -366l367 -367l-14 -12l-365 366z" />
    <glyph glyph-name="Oslash" unicode="&#xd8;" horiz-adv-x="1550" 
d="M776 -25q-247 0 -430 134l-131 -154l-14 12l129 154q-115 90 -178.5 222t-63.5 290q0 139 51.5 260.5t141.5 209t218.5 137.5t276.5 50q246 0 428 -135l131 154l17 -15l-129 -151q114 -90 177.5 -222.5t63.5 -287.5q0 -186 -88 -336.5t-245.5 -236t-354.5 -85.5zM776 -8
q92 0 163.5 36t117 95.5t75.5 143.5t42 173.5t12 192.5q0 233 -68 387l-678 -799q102 -229 336 -229zM776 1272q-92 0 -164 -36t-118 -95.5t-75.5 -143t-41.5 -173t-12 -191.5q0 -230 67 -391l678 800q-102 230 -334 230z" />
    <glyph glyph-name="Ugrave" unicode="&#xd9;" horiz-adv-x="1429" 
d="M725 -25q-104 0 -192 24.5t-160 76t-113 141.5t-41 211v614q0 59 -6.5 94.5t-25.5 63.5t-55.5 39.5t-96.5 11.5v15h624v-15q-60 0 -96.5 -11.5t-55.5 -39.5t-25.5 -63.5t-6.5 -94.5v-659q0 -377 318 -377q170 0 271 106t101 304v207q0 107 -1 177t-6 140t-12 111
t-20.5 80t-31.5 59t-45 35.5t-60 20.5t-78 5v15h529v-15q-37 0 -65 -3.5t-52.5 -13.5t-42.5 -22t-32.5 -36t-24 -47.5t-16.5 -64.5t-11 -80t-6.5 -100.5t-3 -118.5t-0.5 -142v-207q0 -216 -118.5 -328.5t-342.5 -112.5zM905 1376q-44 24 -114.5 60t-106 54.5t-73 41
t-54.5 37.5q-38 32 -44 70t19 67q27 30 66.5 30t75.5 -32q22 -19 54 -62.5t87.5 -126t93.5 -135.5z" />
    <glyph glyph-name="Uacute" unicode="&#xda;" horiz-adv-x="1429" 
d="M725 -25q-104 0 -192 24.5t-160 76t-113 141.5t-41 211v614q0 59 -6.5 94.5t-25.5 63.5t-55.5 39.5t-96.5 11.5v15h624v-15q-60 0 -96.5 -11.5t-55.5 -39.5t-25.5 -63.5t-6.5 -94.5v-659q0 -377 318 -377q170 0 271 106t101 304v207q0 107 -1 177t-6 140t-12 111
t-20.5 80t-31.5 59t-45 35.5t-60 20.5t-78 5v15h529v-15q-37 0 -65 -3.5t-52.5 -13.5t-42.5 -22t-32.5 -36t-24 -47.5t-16.5 -64.5t-11 -80t-6.5 -100.5t-3 -118.5t-0.5 -142v-207q0 -216 -118.5 -328.5t-342.5 -112.5zM614 1378l-4 4q38 53 94 134.5t88 125t54 62.5
q36 32 76 32t65 -30q25 -29 19.5 -67t-41.5 -70q-18 -15 -56 -37.5t-73 -40.5t-107.5 -54.5t-114.5 -58.5z" />
    <glyph glyph-name="Ucircumflex" unicode="&#xdb;" horiz-adv-x="1429" 
d="M725 -25q-104 0 -192 24.5t-160 76t-113 141.5t-41 211v614q0 59 -6.5 94.5t-25.5 63.5t-55.5 39.5t-96.5 11.5v15h624v-15q-60 0 -96.5 -11.5t-55.5 -39.5t-25.5 -63.5t-6.5 -94.5v-659q0 -377 318 -377q170 0 271 106t101 304v207q0 107 -1 177t-6 140t-12 111
t-20.5 80t-31.5 59t-45 35.5t-60 20.5t-78 5v15h529v-15q-37 0 -65 -3.5t-52.5 -13.5t-42.5 -22t-32.5 -36t-24 -47.5t-16.5 -64.5t-11 -80t-6.5 -100.5t-3 -118.5t-0.5 -142v-207q0 -216 -118.5 -328.5t-342.5 -112.5zM455 1364l-4 4l227 295q30 41 74 41q46 0 73 -41
l230 -295l-4 -4l-299 164z" />
    <glyph glyph-name="Udieresis" unicode="&#xdc;" horiz-adv-x="1429" 
d="M725 -25q-104 0 -192 24.5t-160 76t-113 141.5t-41 211v614q0 59 -6.5 94.5t-25.5 63.5t-55.5 39.5t-96.5 11.5v15h624v-15q-60 0 -96.5 -11.5t-55.5 -39.5t-25.5 -63.5t-6.5 -94.5v-659q0 -377 318 -377q170 0 271 106t101 304v207q0 107 -1 177t-6 140t-12 111
t-20.5 80t-31.5 59t-45 35.5t-60 20.5t-78 5v15h529v-15q-37 0 -65 -3.5t-52.5 -13.5t-42.5 -22t-32.5 -36t-24 -47.5t-16.5 -64.5t-11 -80t-6.5 -100.5t-3 -118.5t-0.5 -142v-207q0 -216 -118.5 -328.5t-342.5 -112.5zM578 1415q-51 0 -88 36.5t-37 88.5t35 88.5t87 36.5
q51 0 88 -36.5t37 -88.5t-36 -88.5t-86 -36.5zM940 1415q-51 0 -87 36.5t-36 88.5t35.5 88.5t87.5 36.5q51 0 88 -36.5t37 -88.5t-37 -88.5t-88 -36.5z" />
    <glyph glyph-name="Yacute" unicode="&#xdd;" horiz-adv-x="1366" 
d="M365 0v12q63 0 103.5 13.5t62.5 44.5t30 72t8 104v268l-305 500q-71 114 -138 175.5t-149 61.5v15h664v-15q-109 0 -132 -60.5t40 -164.5l256 -428h4l106 180q85 145 120.5 223.5t35.5 128.5q0 121 -174 121v15h535v-15q-89 0 -154 -33.5t-119 -99.5q-31 -36 -74.5 -103
t-129.5 -206q-16 -27 -25 -41l-107 -178v-344q0 -126 41.5 -180t163.5 -54v-12h-663zM578 1378l-5 4q38 53 94 134.5t88 125t54 62.5q36 32 76 32t65 -30q25 -29 19.5 -67t-41.5 -70q-15 -12 -38.5 -27t-60.5 -34.5t-69.5 -36.5t-88 -45t-93.5 -48z" />
    <glyph glyph-name="Thorn" unicode="&#xde;" horiz-adv-x="1275" 
d="M59 0v12q116 0 150.5 39.5t34.5 153.5v854q0 58 -6.5 91.5t-26.5 58t-55.5 33.5t-96.5 9v15h625v-15q-116 0 -150 -39t-34 -153v-49h188q141 0 246 -28t167 -78t92 -115t30 -144q0 -166 -129.5 -264t-405.5 -98h-92v14h47q81 0 142 29t96 79t52 110t17 130q0 55 -10 104
t-33.5 94.5t-58 78t-87.5 52t-118 19.5h-143v-788q0 -59 6 -92t26 -58t55.5 -34t96.5 -9v-12h-625z" />
    <glyph glyph-name="germandbls" unicode="&#xdf;" horiz-adv-x="1273" 
d="M41 0v12q86 0 125 32t39 114v653h-174v25h174v139q0 178 118 276.5t302 98.5q86 0 157.5 -25.5t119.5 -66t84 -97t56 -111.5t31 -116q-14 -2 -57.5 -9t-64 -11.5t-58 -13.5t-57 -20t-42 -27.5t-32.5 -39.5t-10 -51q0 -42 26 -78.5t68 -64t92 -55t100.5 -58.5t92.5 -67
t68 -87.5t26 -113.5q0 -116 -91 -188.5t-270 -72.5q-138 0 -293 37l-12 262l10 3q3 -7 14.5 -33t16.5 -38t18 -37.5t22 -39.5t24.5 -36t29.5 -34.5t34 -28t40.5 -23.5t46 -13.5t53.5 -5.5q49 0 85 15.5t53.5 40.5t25.5 49.5t8 49.5q0 44 -25.5 82t-65.5 66.5t-89 56.5
t-98 58.5t-89 64t-65.5 81t-25.5 103.5q0 99 74 156.5t210 91.5q-4 40 -8 71.5t-13 79t-20 83t-30.5 75t-43.5 65t-58.5 42t-76.5 16.5q-87 0 -132.5 -66.5t-45.5 -178.5v-1092h-397z" />
    <glyph glyph-name="agrave" unicode="&#xe0;" horiz-adv-x="1048" 
d="M362 -23q-128 0 -206 63.5t-78 170.5q0 117 95.5 176t244.5 59q122 0 229 -34v206q0 108 -39 168t-137 60q-122 0 -190 -103q36 -13 58.5 -46t22.5 -72q0 -53 -35 -88t-89 -35q-56 0 -89.5 39t-33.5 92q0 93 103.5 159t262.5 66q59 0 114.5 -10t108 -33.5t91.5 -57.5
t62.5 -86.5t23.5 -117.5v-451q0 -71 57 -71q70 0 137 119l12 -9q-43 -73 -97.5 -116t-139.5 -43q-77 0 -128.5 37.5t-66.5 101.5q-103 -144 -293 -144zM465 27q99 0 182 108v260q-97 27 -145 27q-88 0 -135.5 -51t-47.5 -152q0 -89 38 -140.5t108 -51.5zM672 967
q-46 24 -115 59.5t-105.5 54.5t-73.5 41t-54 37q-38 32 -44 70t19 67q27 30 66 30t75 -32q22 -19 53.5 -61.5t89 -127t93.5 -134.5z" />
    <glyph glyph-name="aacute" unicode="&#xe1;" horiz-adv-x="1048" 
d="M362 -23q-128 0 -206 63.5t-78 170.5q0 117 95.5 176t244.5 59q122 0 229 -34v206q0 108 -39 168t-137 60q-122 0 -190 -103q36 -13 58.5 -46t22.5 -72q0 -53 -35 -88t-89 -35q-56 0 -89.5 39t-33.5 92q0 93 103.5 159t262.5 66q59 0 114.5 -10t108 -33.5t91.5 -57.5
t62.5 -86.5t23.5 -117.5v-451q0 -71 57 -71q70 0 137 119l12 -9q-43 -73 -97.5 -116t-139.5 -43q-77 0 -128.5 37.5t-66.5 101.5q-103 -144 -293 -144zM465 27q99 0 182 108v260q-97 27 -145 27q-88 0 -135.5 -51t-47.5 -152q0 -89 38 -140.5t108 -51.5zM338 969l-4 4
q39 53 94 134t87 124.5t54 62.5q36 32 76.5 32t65.5 -30q25 -29 19 -67t-42 -70q-18 -15 -56 -37t-73 -40.5t-106.5 -54.5t-114.5 -58z" />
    <glyph glyph-name="acircumflex" unicode="&#xe2;" horiz-adv-x="1048" 
d="M362 -23q-128 0 -206 63.5t-78 170.5q0 117 95.5 176t244.5 59q122 0 229 -34v206q0 108 -39 168t-137 60q-122 0 -190 -103q36 -13 58.5 -46t22.5 -72q0 -53 -35 -88t-89 -35q-56 0 -89.5 39t-33.5 92q0 93 103.5 159t262.5 66q59 0 114.5 -10t108 -33.5t91.5 -57.5
t62.5 -86.5t23.5 -117.5v-451q0 -71 57 -71q70 0 137 119l12 -9q-43 -73 -97.5 -116t-139.5 -43q-77 0 -128.5 37.5t-66.5 101.5q-103 -144 -293 -144zM465 27q99 0 182 108v260q-97 27 -145 27q-88 0 -135.5 -51t-47.5 -152q0 -89 38 -140.5t108 -51.5zM203 954l-4 4
l227 295q30 41 74 41q46 0 73 -41l230 -295l-4 -4l-299 164z" />
    <glyph glyph-name="atilde" unicode="&#xe3;" horiz-adv-x="1048" 
d="M362 -23q-128 0 -206 63.5t-78 170.5q0 117 95.5 176t244.5 59q122 0 229 -34v206q0 108 -39 168t-137 60q-122 0 -190 -103q36 -13 58.5 -46t22.5 -72q0 -53 -35 -88t-89 -35q-56 0 -89.5 39t-33.5 92q0 93 103.5 159t262.5 66q59 0 114.5 -10t108 -33.5t91.5 -57.5
t62.5 -86.5t23.5 -117.5v-451q0 -71 57 -71q70 0 137 119l12 -9q-43 -73 -97.5 -116t-139.5 -43q-77 0 -128.5 37.5t-66.5 101.5q-103 -144 -293 -144zM465 27q99 0 182 108v260q-97 27 -145 27q-88 0 -135.5 -51t-47.5 -152q0 -89 38 -140.5t108 -51.5zM195 995
q3 36 6.5 61t10.5 62.5t18.5 63.5t28.5 51t43 38t58 13q53 0 161 -55t163 -55q31 0 53 10.5t33 31t16 38.5t9 44l10 -2q-5 -57 -14 -100t-26.5 -89t-50 -71.5t-77.5 -25.5q-44 0 -102 27.5t-117 55t-105 27.5q-31 0 -52.5 -11t-32.5 -31.5t-15.5 -38.5t-7.5 -44h-10z" />
    <glyph glyph-name="adieresis" unicode="&#xe4;" horiz-adv-x="1048" 
d="M362 -23q-128 0 -206 63.5t-78 170.5q0 117 95.5 176t244.5 59q122 0 229 -34v206q0 108 -39 168t-137 60q-122 0 -190 -103q36 -13 58.5 -46t22.5 -72q0 -53 -35 -88t-89 -35q-56 0 -89.5 39t-33.5 92q0 93 103.5 159t262.5 66q59 0 114.5 -10t108 -33.5t91.5 -57.5
t62.5 -86.5t23.5 -117.5v-451q0 -71 57 -71q70 0 137 119l12 -9q-43 -73 -97.5 -116t-139.5 -43q-77 0 -128.5 37.5t-66.5 101.5q-103 -144 -293 -144zM465 27q99 0 182 108v260q-97 27 -145 27q-88 0 -135.5 -51t-47.5 -152q0 -89 38 -140.5t108 -51.5zM317 1006
q-51 0 -87.5 36t-36.5 88t35 88.5t87 36.5q51 0 88 -36.5t37 -88.5t-36.5 -88t-86.5 -36zM680 1006q-51 0 -87 36t-36 88t35.5 88.5t87.5 36.5q51 0 88 -36.5t37 -88.5t-37 -88t-88 -36z" />
    <glyph glyph-name="aring" unicode="&#xe5;" horiz-adv-x="1048" 
d="M362 -23q-128 0 -206 63.5t-78 170.5q0 117 95.5 176t244.5 59q122 0 229 -34v206q0 108 -39 168t-137 60q-122 0 -190 -103q36 -13 58.5 -46t22.5 -72q0 -53 -35 -88t-89 -35q-56 0 -89.5 39t-33.5 92q0 93 103.5 159t262.5 66q59 0 114.5 -10t108 -33.5t91.5 -57.5
t62.5 -86.5t23.5 -117.5v-451q0 -71 57 -71q70 0 137 119l12 -9q-43 -73 -97.5 -116t-139.5 -43q-77 0 -128.5 37.5t-66.5 101.5q-103 -144 -293 -144zM465 27q99 0 182 108v260q-97 27 -145 27q-88 0 -135.5 -51t-47.5 -152q0 -89 38 -140.5t108 -51.5zM492 950
q-102 0 -168 56t-66 145q0 90 66 146.5t168 56.5t168.5 -56.5t66.5 -146.5q0 -89 -66.5 -145t-168.5 -56zM492 958q81 0 81 193q0 37 -2.5 65.5t-10 60t-25 49t-43.5 17.5q-82 0 -82 -192q0 -193 82 -193z" />
    <glyph glyph-name="ae" unicode="&#xe6;" horiz-adv-x="1552" 
d="M367 -23q-133 0 -212 63.5t-79 170.5q0 117 95.5 176t244.5 59q122 0 229 -34v206q0 109 -38.5 168.5t-137.5 59.5q-124 0 -188 -103q36 -13 58.5 -46t22.5 -72q0 -52 -35.5 -87.5t-88.5 -35.5q-56 0 -89.5 39t-33.5 92q0 93 102.5 159t261.5 66q206 0 303 -117
q117 117 295 117q111 0 200 -44t144 -134.5t58 -214.5h-602q-5 -207 69 -326t217 -119q100 0 176.5 56.5t124.5 136.5l13 -8q-142 -228 -404 -228q-247 0 -358 181q-133 -181 -348 -181zM479 27q126 0 226 147q-57 96 -60 221q-97 27 -143 27q-87 0 -136 -50.5t-49 -146.5
q0 -92 43.5 -145t118.5 -53zM1073 844q-46 0 -83 -31.5t-60 -84t-36.5 -115t-16.5 -130.5h366q0 39 -3 79t-13.5 93.5t-28 93t-50 67.5t-75.5 28z" />
    <glyph glyph-name="ccedilla" unicode="&#xe7;" horiz-adv-x="960" 
d="M457 -449q-145 0 -238 66l6 10q70 -45 160 -45q74 0 118 41t44 105q0 58 -34 94.5t-95 36.5q-36 0 -78 -17l-4 4l121 134q-176 17 -278.5 139t-102.5 293q0 102 38 187t102 141t147 87t174 31q155 0 251.5 -79t96.5 -179q0 -61 -36.5 -100t-92.5 -39q-55 0 -92 38t-37 93
q0 49 30.5 85t77.5 44q-20 52 -63 87.5t-109 35.5q-62 0 -110 -34.5t-75.5 -94t-41.5 -130.5t-14 -151q0 -195 73 -304.5t203 -109.5q94 0 169 54.5t120 138.5l12 -6q-66 -109 -171.5 -171.5t-248.5 -55.5l-100 -111q47 14 113 14q106 0 169.5 -41.5t63.5 -117.5
q0 -46 -24 -80.5t-63.5 -54t-85.5 -29t-95 -9.5z" />
    <glyph glyph-name="egrave" unicode="&#xe8;" horiz-adv-x="997" 
d="M520 -23q-106 0 -191.5 36.5t-140 98.5t-83.5 141t-29 167q0 192 126 315t318 123q113 0 202.5 -44t144 -134.5t57.5 -214.5h-602q-5 -207 69 -326t217 -119q100 0 176.5 56.5t124.5 136.5l13 -8q-142 -228 -402 -228zM518 844q-46 0 -83 -31.5t-60 -84t-36.5 -115
t-16.5 -130.5h362q0 40 -2.5 79t-12.5 93t-26.5 93.5t-49 67.5t-75.5 28zM686 967q-46 24 -115 59.5t-105.5 54.5t-73.5 41t-54 37q-38 32 -44 70t19 67q27 30 66.5 30t75.5 -32q22 -19 53.5 -62t88 -126t93.5 -135z" />
    <glyph glyph-name="eacute" unicode="&#xe9;" horiz-adv-x="997" 
d="M520 -23q-106 0 -191.5 36.5t-140 98.5t-83.5 141t-29 167q0 192 126 315t318 123q113 0 202.5 -44t144 -134.5t57.5 -214.5h-602q-5 -207 69 -326t217 -119q100 0 176.5 56.5t124.5 136.5l13 -8q-142 -228 -402 -228zM518 844q-46 0 -83 -31.5t-60 -84t-36.5 -115
t-16.5 -130.5h362q0 40 -2.5 79t-12.5 93t-26.5 93.5t-49 67.5t-75.5 28zM346 969l-4 4q38 52 94 133.5t88 125t54 62.5q36 32 76 32t65 -30q25 -29 19 -67t-42 -70q-18 -15 -56 -37t-73 -40.5t-106.5 -54.5t-114.5 -58z" />
    <glyph glyph-name="ecircumflex" unicode="&#xea;" horiz-adv-x="997" 
d="M520 -23q-106 0 -191.5 36.5t-140 98.5t-83.5 141t-29 167q0 192 126 315t318 123q113 0 202.5 -44t144 -134.5t57.5 -214.5h-602q-5 -207 69 -326t217 -119q100 0 176.5 56.5t124.5 136.5l13 -8q-142 -228 -402 -228zM518 844q-46 0 -83 -31.5t-60 -84t-36.5 -115
t-16.5 -130.5h362q0 40 -2.5 79t-12.5 93t-26.5 93.5t-49 67.5t-75.5 28zM215 954l-4 4l229 295q27 41 74 41q44 0 74 -41l227 -295l-4 -4l-297 164z" />
    <glyph glyph-name="edieresis" unicode="&#xeb;" horiz-adv-x="997" 
d="M520 -23q-106 0 -191.5 36.5t-140 98.5t-83.5 141t-29 167q0 192 126 315t318 123q113 0 202.5 -44t144 -134.5t57.5 -214.5h-602q-5 -207 69 -326t217 -119q100 0 176.5 56.5t124.5 136.5l13 -8q-142 -228 -402 -228zM518 844q-46 0 -83 -31.5t-60 -84t-36.5 -115
t-16.5 -130.5h362q0 40 -2.5 79t-12.5 93t-26.5 93.5t-49 67.5t-75.5 28zM336 1006q-51 0 -88 36t-37 88t35.5 88.5t87.5 36.5q51 0 88 -36.5t37 -88.5t-36.5 -88t-86.5 -36zM698 1006q-51 0 -87 36t-36 88t35.5 88.5t87.5 36.5q51 0 88 -36.5t37 -88.5t-37 -88t-88 -36z
" />
    <glyph glyph-name="igrave" unicode="&#xec;" horiz-adv-x="591" 
d="M43 0v12q82 0 112.5 32t30.5 110v508q0 78 -30.5 109.5t-112.5 31.5v12l377 41v-702q0 -78 30.5 -110t112.5 -32v-12h-520zM459 967q-46 24 -115 59.5t-105.5 54.5t-73.5 41t-54 37q-38 32 -44 70t19 67q27 30 66 30t75 -32q22 -19 53.5 -61.5t89 -127t93.5 -134.5z" />
    <glyph glyph-name="iacute" unicode="&#xed;" horiz-adv-x="591" 
d="M43 0v12q82 0 112.5 32t30.5 110v508q0 78 -30.5 109.5t-112.5 31.5v12l377 41v-702q0 -78 30.5 -110t112.5 -32v-12h-520zM106 969l-4 4q38 52 94 133.5t88 125t54 62.5q36 32 76 32t65 -30q25 -29 19.5 -67t-41.5 -70q-18 -15 -56 -37t-74 -40.5t-106 -54t-115 -58.5z
" />
    <glyph glyph-name="icircumflex" unicode="&#xee;" horiz-adv-x="593" 
d="M45 0v12q82 0 112.5 32t30.5 110v508q0 78 -30.5 109.5t-112.5 31.5v12l377 41v-702q0 -78 30.5 -110t112.5 -32v-12h-520zM-10 954l-4 4l227 295q30 41 74 41q46 0 73 -41l230 -295l-4 -4l-299 164z" />
    <glyph glyph-name="idieresis" unicode="&#xef;" horiz-adv-x="591" 
d="M43 0v12q82 0 112.5 32t30.5 110v508q0 78 -30.5 109.5t-112.5 31.5v12l377 41v-702q0 -78 30.5 -110t112.5 -32v-12h-520zM104 1006q-51 0 -87.5 36t-36.5 88t35 88.5t87 36.5q51 0 88 -36.5t37 -88.5t-36.5 -88t-86.5 -36zM467 1006q-51 0 -87 36t-36 88t35.5 88.5
t87.5 36.5q51 0 88 -36.5t37 -88.5t-37 -88t-88 -36z" />
    <glyph glyph-name="eth" unicode="&#xf0;" horiz-adv-x="1103" 
d="M537 -25q-216 0 -337.5 116.5t-121.5 303.5q0 130 61.5 227t163 145t227.5 48q108 0 199 -43q-60 213 -197 365l-309 -170l-10 14l307 168q-102 111 -256 194l6 13q188 -102 297 -182l234 129l8 -17l-225 -123q434 -316 434 -694q0 -76 -16 -145.5t-53 -133.5
t-91.5 -111.5t-136.5 -75.5t-184 -28zM537 -8q66 0 114 41t72 110.5t34.5 143.5t10.5 159q0 170 -35 302q-62 40 -143 40q-71 0 -123.5 -31t-83 -87.5t-45 -128.5t-14.5 -160q0 -73 9.5 -137t32 -123.5t66.5 -94t105 -34.5z" />
    <glyph glyph-name="ntilde" unicode="&#xf1;" horiz-adv-x="1155" 
d="M41 0v12q82 0 112.5 32t30.5 110v508q0 78 -30.5 109.5t-112.5 31.5v12l373 41v-174q167 176 334 176q107 0 175 -66.5t68 -203.5v-434q0 -78 31 -110t113 -32v-12h-510v12q73 0 103 32.5t30 109.5v452q0 83 -35 125.5t-100 42.5q-59 0 -107.5 -29.5t-97.5 -78.5v-512
q0 -77 30 -109.5t103 -32.5v-12h-510zM285 995q3 35 6.5 60.5t11 63t19 63.5t29 51t43.5 38t59 13q44 0 101.5 -27.5t116.5 -55t105 -27.5q25 0 44.5 8t30.5 19t18.5 29t10.5 33t5 35l10 -2q-3 -44 -8.5 -79.5t-18 -75.5t-29.5 -67.5t-46 -45.5t-66 -18q-43 0 -100 27.5
t-116 55t-105 27.5q-31 0 -53 -11t-33 -32t-16 -38.5t-9 -43.5h-10z" />
    <glyph glyph-name="ograve" unicode="&#xf2;" horiz-adv-x="1087" 
d="M543 -23q-124 0 -229 50.5t-171.5 153t-66.5 237.5q0 102 38.5 186.5t103.5 139t149 84.5t176 30t176 -30t149 -84.5t103.5 -139t38.5 -186.5q0 -135 -66.5 -237.5t-171.5 -153t-229 -50.5zM543 -6q217 0 217 424t-217 424q-215 0 -215 -424t215 -424zM709 967
q-52 28 -143.5 75t-137 72.5t-68.5 44.5q-36 32 -41.5 70t19.5 67q25 30 65 30t76 -32q17 -15 44 -49.5t50 -68.5t67 -98.5t73 -106.5z" />
    <glyph glyph-name="oacute" unicode="&#xf3;" horiz-adv-x="1087" 
d="M543 -23q-124 0 -229 50.5t-171.5 153t-66.5 237.5q0 102 38.5 186.5t103.5 139t149 84.5t176 30t176 -30t149 -84.5t103.5 -139t38.5 -186.5q0 -135 -66.5 -237.5t-171.5 -153t-229 -50.5zM543 -6q217 0 217 424t-217 424q-215 0 -215 -424t215 -424zM383 969l-4 4
q29 42 73 105.5t67.5 97.5t50.5 68.5t44 49.5q36 32 75.5 32t66.5 -30q25 -29 19 -67t-44 -70q-17 -15 -54.5 -37t-74 -41t-105 -53.5t-114.5 -58.5z" />
    <glyph glyph-name="ocircumflex" unicode="&#xf4;" horiz-adv-x="1087" 
d="M543 -23q-124 0 -229 50.5t-171.5 153t-66.5 237.5q0 102 38.5 186.5t103.5 139t149 84.5t176 30t176 -30t149 -84.5t103.5 -139t38.5 -186.5q0 -135 -66.5 -237.5t-171.5 -153t-229 -50.5zM543 -6q217 0 217 424t-217 424q-215 0 -215 -424t215 -424zM246 954l-4 4
l229 295q27 41 74 41q43 0 73 -41l228 -295l-4 -4l-297 164z" />
    <glyph glyph-name="otilde" unicode="&#xf5;" horiz-adv-x="1087" 
d="M543 -23q-124 0 -229 50.5t-171.5 153t-66.5 237.5q0 102 38.5 186.5t103.5 139t149 84.5t176 30t176 -30t149 -84.5t103.5 -139t38.5 -186.5q0 -135 -66.5 -237.5t-171.5 -153t-229 -50.5zM543 -6q217 0 217 424t-217 424q-215 0 -215 -424t215 -424zM238 995
q3 35 6.5 60.5t11 63t19 63.5t29 51t43.5 38t59 13q44 0 101.5 -27.5t116.5 -55t105 -27.5q25 0 44.5 8t30.5 19t18.5 29t10.5 33t5 35l10 -2q-3 -44 -8.5 -79.5t-18 -75.5t-29.5 -67.5t-46 -45.5t-66 -18q-43 0 -100.5 27.5t-116.5 55t-105 27.5q-31 0 -52.5 -11t-33 -32
t-16 -38.5t-8.5 -43.5h-10z" />
    <glyph glyph-name="odieresis" unicode="&#xf6;" horiz-adv-x="1087" 
d="M543 -23q-124 0 -229 50.5t-171.5 153t-66.5 237.5q0 102 38.5 186.5t103.5 139t149 84.5t176 30t176 -30t149 -84.5t103.5 -139t38.5 -186.5q0 -135 -66.5 -237.5t-171.5 -153t-229 -50.5zM543 -6q217 0 217 424t-217 424q-215 0 -215 -424t215 -424zM362 1006
q-51 0 -87.5 36t-36.5 88t35 88.5t87 36.5t88.5 -36.5t36.5 -88.5t-36 -88t-87 -36zM727 1006q-51 0 -88 36t-37 88t35.5 88.5t87.5 36.5q53 0 89 -36.5t36 -88.5t-36 -88t-87 -36z" />
    <glyph glyph-name="divide" unicode="&#xf7;" horiz-adv-x="1187" 
d="M594 743q-39 0 -67.5 29t-28.5 68q0 40 28 68t68 28t68 -28t28 -68q0 -39 -28.5 -68t-67.5 -29zM594 70q-39 0 -67.5 28.5t-28.5 67.5q0 40 28 67t68 27t68 -27t28 -67q0 -39 -28.5 -67.5t-67.5 -28.5zM137 492v20h912v-20h-912z" />
    <glyph glyph-name="oslash" unicode="&#xf8;" horiz-adv-x="1087" 
d="M543 -23q-169 0 -295 91l-94 -107l-13 10l92 107q-157 124 -157 340q0 102 38.5 186.5t103.5 139t149 84.5t176 30q167 0 295 -92l94 108l12 -10l-94 -108q75 -57 117.5 -144t42.5 -194q0 -135 -66.5 -237.5t-171.5 -153t-229 -50.5zM543 -6q217 0 217 424q0 126 -27 211
l-375 -441q45 -194 185 -194zM543 842q-215 0 -215 -424q0 -135 24 -211l375 440q-48 195 -184 195z" />
    <glyph glyph-name="ugrave" unicode="&#xf9;" 
d="M408 -23q-107 0 -175.5 67t-68.5 204v409q0 79 -31.5 112.5t-112.5 33.5v12l377 41v-627q0 -168 135 -168q58 0 106 29t99 78v489q0 78 -30 112t-103 34v12l367 41v-698q0 -79 31 -112.5t112 -33.5v-12h-373v152q-170 -175 -333 -175zM690 967q-51 27 -143.5 74.5
t-137 73t-67.5 44.5q-36 32 -42 70t19 67q25 30 65.5 30t76.5 -32q17 -15 43.5 -49.5t50 -69t66.5 -98t73 -106.5z" />
    <glyph glyph-name="uacute" unicode="&#xfa;" 
d="M408 -23q-107 0 -175.5 67t-68.5 204v409q0 79 -31.5 112.5t-112.5 33.5v12l377 41v-627q0 -168 135 -168q58 0 106 29t99 78v489q0 78 -30 112t-103 34v12l367 41v-698q0 -79 31 -112.5t112 -33.5v-12h-373v152q-170 -175 -333 -175zM401 969l-4 4q28 40 73 105
t68.5 98.5t50.5 68t44 49.5q36 32 75 32t66 -30q25 -29 19.5 -67t-43.5 -70q-22 -19 -66 -44t-140.5 -73.5t-142.5 -72.5z" />
    <glyph glyph-name="ucircumflex" unicode="&#xfb;" 
d="M408 -23q-107 0 -175.5 67t-68.5 204v409q0 79 -31.5 112.5t-112.5 33.5v12l377 41v-627q0 -168 135 -168q58 0 106 29t99 78v489q0 78 -30 112t-103 34v12l367 41v-698q0 -79 31 -112.5t112 -33.5v-12h-373v152q-170 -175 -333 -175zM252 954l-4 4l229 295q27 41 74 41
q44 0 74 -41l227 -295l-4 -4l-297 164z" />
    <glyph glyph-name="udieresis" unicode="&#xfc;" 
d="M408 -23q-107 0 -175.5 67t-68.5 204v409q0 79 -31.5 112.5t-112.5 33.5v12l377 41v-627q0 -168 135 -168q58 0 106 29t99 78v489q0 78 -30 112t-103 34v12l367 41v-698q0 -79 31 -112.5t112 -33.5v-12h-373v152q-170 -175 -333 -175zM371 1006q-51 0 -88 36t-37 88
t35.5 88.5t87.5 36.5q51 0 88 -36.5t37 -88.5t-36.5 -88t-86.5 -36zM733 1006q-51 0 -87 36t-36 88t35.5 88.5t87.5 36.5q51 0 88 -36.5t37 -88.5t-37 -88t-88 -36z" />
    <glyph glyph-name="yacute" unicode="&#xfd;" horiz-adv-x="1009" 
d="M182 -356q-100 0 -100 80q0 42 33.5 64t85 30.5t106 17.5t105 38t73.5 79l17 37l-305 639q-43 97 -92 144.5t-123 47.5v15h567v-15q-68 0 -101 -21t-32.5 -60t24.5 -95l174 -401l74 174q94 236 94 301q0 102 -131 102v15h396v-15q-135 0 -209 -123q-7 -11 -14.5 -24
t-17 -32.5t-16.5 -33.5t-19.5 -43t-19.5 -44.5t-24 -55t-25 -57.5l-208 -476q-128 -288 -312 -288zM403 969l-4 4q38 52 94 133.5t88 125t54 62.5q36 32 76 32t65 -30q25 -29 19.5 -67t-41.5 -70q-18 -15 -56 -37t-74 -40.5t-106 -54t-115 -58.5z" />
    <glyph glyph-name="thorn" unicode="&#xfe;" horiz-adv-x="1089" 
d="M588 -23q-149 0 -221 72v-233q0 -76 35 -107t118 -31v-12h-530v12q81 0 112 33.5t31 112.5v1350q0 78 -30.5 109.5t-112.5 31.5v12l377 41v-645q111 135 274 135q110 0 196 -61.5t130.5 -161.5t44.5 -217q0 -190 -115 -315.5t-309 -125.5zM539 -6q74 0 127 63.5t75.5 154
t22.5 194.5q0 170 -56.5 278.5t-168.5 108.5q-99 0 -172 -95v-553q9 -62 56.5 -106.5t115.5 -44.5z" />
    <glyph glyph-name="ydieresis" unicode="&#xff;" horiz-adv-x="1009" 
d="M182 -356q-100 0 -100 80q0 42 33.5 64t85 30.5t106 17.5t105 38t73.5 79l17 37l-305 639q-43 97 -92 144.5t-123 47.5v15h567v-15q-68 0 -101 -21t-32.5 -60t24.5 -95l174 -401l74 174q94 236 94 301q0 102 -131 102v15h396v-15q-135 0 -209 -123q-7 -11 -14.5 -24
t-17 -32.5t-16.5 -33.5t-19.5 -43t-19.5 -44.5t-24 -55t-25 -57.5l-208 -476q-128 -288 -312 -288zM371 1006q-51 0 -88 36t-37 88t35.5 88.5t87.5 36.5q51 0 88 -36.5t37 -88.5t-36.5 -88t-86.5 -36zM733 1006q-51 0 -87 36t-36 88t35.5 88.5t87.5 36.5q51 0 88 -36.5
t37 -88.5t-37 -88t-88 -36z" />
    <glyph glyph-name="Amacron" unicode="&#x100;" horiz-adv-x="1363" 
d="M-74 0v12q33 0 63 7t54.5 17.5t48.5 30.5t41 37t36.5 46t31.5 49.5t29 56t25.5 56.5t25 59.5t24.5 56.5l363 846h12l450 -989q27 -59 51 -101t58 -84.5t76.5 -65t91.5 -22.5v-12h-674v12q109 0 142 69t-19 189l-70 156h-458l-17 -43q-143 -371 152 -371v-12h-537z
M338 446h440l-225 512zM385 1434v69h571v-69h-571z" />
    <glyph glyph-name="amacron" unicode="&#x101;" horiz-adv-x="1048" 
d="M362 -23q-128 0 -206 63.5t-78 170.5q0 117 95.5 176t244.5 59q122 0 229 -34v206q0 108 -39 168t-137 60q-122 0 -190 -103q36 -13 58.5 -46t22.5 -72q0 -53 -35 -88t-89 -35q-56 0 -89.5 39t-33.5 92q0 93 103.5 159t262.5 66q59 0 114.5 -10t108 -33.5t91.5 -57.5
t62.5 -86.5t23.5 -117.5v-451q0 -71 57 -71q70 0 137 119l12 -9q-43 -73 -97.5 -116t-139.5 -43q-77 0 -128.5 37.5t-66.5 101.5q-103 -144 -293 -144zM465 27q99 0 182 108v260q-97 27 -145 27q-88 0 -135.5 -51t-47.5 -152q0 -89 38 -140.5t108 -51.5zM211 1024v70h569
v-70h-569z" />
    <glyph glyph-name="Abreve" unicode="&#x102;" horiz-adv-x="1363" 
d="M-74 0v12q33 0 63 7t54.5 17.5t48.5 30.5t41 37t36.5 46t31.5 49.5t29 56t25.5 56.5t25 59.5t24.5 56.5l363 846h12l450 -989q27 -59 51 -101t58 -84.5t76.5 -65t91.5 -22.5v-12h-674v12q109 0 142 69t-19 189l-70 156h-458l-17 -43q-143 -371 152 -371v-12h-537z
M338 446h440l-225 512zM672 1384q-70 0 -120.5 33.5t-76 87.5t-36.5 107t-11 108h4q16 -72 72 -121t168 -49q201 0 239 170h7q0 -54 -11.5 -107.5t-37 -107.5t-76.5 -87.5t-121 -33.5z" />
    <glyph glyph-name="abreve" unicode="&#x103;" horiz-adv-x="1048" 
d="M362 -23q-128 0 -206 63.5t-78 170.5q0 117 95.5 176t244.5 59q122 0 229 -34v206q0 108 -39 168t-137 60q-122 0 -190 -103q36 -13 58.5 -46t22.5 -72q0 -53 -35 -88t-89 -35q-56 0 -89.5 39t-33.5 92q0 93 103.5 159t262.5 66q59 0 114.5 -10t108 -33.5t91.5 -57.5
t62.5 -86.5t23.5 -117.5v-451q0 -71 57 -71q70 0 137 119l12 -9q-43 -73 -97.5 -116t-139.5 -43q-77 0 -128.5 37.5t-66.5 101.5q-103 -144 -293 -144zM465 27q99 0 182 108v260q-97 27 -145 27q-88 0 -135.5 -51t-47.5 -152q0 -89 38 -140.5t108 -51.5zM496 975
q-70 0 -121 33.5t-76.5 87.5t-37 107.5t-11.5 107.5h6q16 -72 72 -121t168 -49q201 0 239 170h4q0 -55 -11 -108t-36 -107t-75.5 -87.5t-120.5 -33.5z" />
    <glyph glyph-name="Aogonek" unicode="&#x104;" horiz-adv-x="1363" 
d="M1061 -442q-100 0 -157.5 42.5t-57.5 120.5q0 29 9.5 56t23 47t38.5 41t44.5 34t54 30t54 25.5t57 24t51.5 21.5h-445v12q109 0 142 69t-19 189l-70 156h-458l-17 -43q-143 -371 152 -371v-12h-537v12q33 0 63 7t54.5 17.5t48.5 30.5t41 37t36.5 46t31.5 49.5t29 56
t25.5 56.5t25 59.5t24.5 56.5l363 846h12l450 -989q27 -59 51 -101t58 -84.5t76.5 -65t91.5 -22.5v-12h-199q-80 -42 -127 -96t-47 -144q0 -159 160 -159q52 0 102 16l4 -10q-114 -49 -239 -49zM338 446h440l-225 512z" />
    <glyph glyph-name="aogonek" unicode="&#x105;" horiz-adv-x="1048" 
d="M362 -23q-128 0 -206 63.5t-78 170.5q0 117 95.5 176t244.5 59q122 0 229 -34v206q0 108 -39 168t-137 60q-122 0 -190 -103q36 -13 58.5 -46t22.5 -72q0 -53 -35 -88t-89 -35q-56 0 -89.5 39t-33.5 92q0 93 103.5 159t262.5 66q59 0 114.5 -10t108 -33.5t91.5 -57.5
t62.5 -86.5t23.5 -117.5v-451q0 -71 57 -71q70 0 137 119l12 -9q-40 -68 -90.5 -111t-128.5 -44q-68 -40 -107.5 -92.5t-39.5 -133.5q0 -159 160 -159q52 0 102 16l4 -10q-111 -49 -237 -49q-100 0 -157.5 42.5t-57.5 120.5q0 41 18.5 77.5t43.5 61t69.5 50.5t75 39.5
t81.5 34.5q-66 6 -109.5 42.5t-58.5 94.5q-103 -144 -293 -144zM465 27q99 0 182 108v260q-97 27 -145 27q-88 0 -135.5 -51t-47.5 -152q0 -89 38 -140.5t108 -51.5z" />
    <glyph glyph-name="Cacute" unicode="&#x106;" horiz-adv-x="1390" 
d="M811 -25q-169 0 -306 49.5t-228 136.5t-140 206.5t-49 259.5q0 195 91.5 346t254.5 234t371 83q52 0 120.5 -6t116 -11t107.5 -2.5t111 15.5l34 -416l-10 -2q-88 212 -201 310t-270 98q-95 0 -171.5 -35.5t-127.5 -95.5t-85 -143t-49 -175.5t-15 -195.5q0 -102 14.5 -193
t47.5 -174.5t82.5 -144t124 -96t167.5 -35.5q327 0 510 432h10l-68 -383q-85 -26 -210 -44t-232 -18zM633 1378l-4 4q39 54 94 134.5t87 124.5t54 63q36 32 76.5 32t65.5 -30q25 -29 19 -67t-42 -70q-15 -12 -38.5 -27t-60.5 -34.5t-69.5 -36.5t-88 -45t-93.5 -48z" />
    <glyph glyph-name="cacute" unicode="&#x107;" horiz-adv-x="960" 
d="M508 -23q-133 0 -232.5 60t-149.5 157.5t-50 217.5q0 102 38 187t102 141t147 87t174 31q155 0 251.5 -79t96.5 -179q0 -61 -36.5 -100t-92.5 -39q-55 0 -92 38t-37 93q0 49 30.5 85t77.5 44q-20 52 -63 87.5t-109 35.5q-62 0 -110 -34.5t-75.5 -94t-41.5 -130.5
t-14 -151q0 -195 73 -304.5t203 -109.5q94 0 169 54.5t120 138.5l12 -6q-24 -43 -56 -80.5t-78.5 -73t-113 -56t-143.5 -20.5zM375 969l-4 4q29 42 73 105.5t67.5 97.5t50.5 68.5t44 49.5q36 32 75.5 32t66.5 -30q25 -29 19 -67t-44 -70q-17 -15 -54.5 -37t-74 -41
t-105 -53.5t-114.5 -58.5z" />
    <glyph glyph-name="Ccircumflex" unicode="&#x108;" horiz-adv-x="1390" 
d="M811 -25q-169 0 -306 49.5t-228 136.5t-140 206.5t-49 259.5q0 195 91.5 346t254.5 234t371 83q52 0 120.5 -6t116 -11t107.5 -2.5t111 15.5l34 -416l-10 -2q-88 212 -201 310t-270 98q-95 0 -171.5 -35.5t-127.5 -95.5t-85 -143t-49 -175.5t-15 -195.5q0 -102 14.5 -193
t47.5 -174.5t82.5 -144t124 -96t167.5 -35.5q327 0 510 432h10l-68 -383q-85 -26 -210 -44t-232 -18zM498 1364l-4 4l229 295q27 41 74 41q43 0 73 -41l228 -295l-4 -4l-297 164z" />
    <glyph glyph-name="ccircumflex" unicode="&#x109;" horiz-adv-x="960" 
d="M508 -23q-133 0 -232.5 60t-149.5 157.5t-50 217.5q0 102 38 187t102 141t147 87t174 31q155 0 251.5 -79t96.5 -179q0 -61 -36.5 -100t-92.5 -39q-55 0 -92 38t-37 93q0 49 30.5 85t77.5 44q-20 52 -63 87.5t-109 35.5q-62 0 -110 -34.5t-75.5 -94t-41.5 -130.5
t-14 -151q0 -195 73 -304.5t203 -109.5q94 0 169 54.5t120 138.5l12 -6q-24 -43 -56 -80.5t-78.5 -73t-113 -56t-143.5 -20.5zM205 954l-4 4l227 295q30 41 74 41q46 0 73 -41l230 -295l-4 -4l-299 164z" />
    <glyph glyph-name="Cdotaccent" unicode="&#x10a;" horiz-adv-x="1390" 
d="M811 -25q-169 0 -306 49.5t-228 136.5t-140 206.5t-49 259.5q0 195 91.5 346t254.5 234t371 83q52 0 120.5 -6t116 -11t107.5 -2.5t111 15.5l34 -416l-10 -2q-88 212 -201 310t-270 98q-95 0 -171.5 -35.5t-127.5 -95.5t-85 -143t-49 -175.5t-15 -195.5q0 -102 14.5 -193
t47.5 -174.5t82.5 -144t124 -96t167.5 -35.5q327 0 510 432h10l-68 -383q-85 -26 -210 -44t-232 -18zM799 1415q-54 0 -92.5 38.5t-38.5 92.5t38.5 92.5t92.5 38.5t92.5 -38.5t38.5 -92.5t-38.5 -92.5t-92.5 -38.5z" />
    <glyph glyph-name="cdotaccent" unicode="&#x10b;" horiz-adv-x="960" 
d="M508 -23q-133 0 -232.5 60t-149.5 157.5t-50 217.5q0 102 38 187t102 141t147 87t174 31q155 0 251.5 -79t96.5 -179q0 -61 -36.5 -100t-92.5 -39q-55 0 -92 38t-37 93q0 49 30.5 85t77.5 44q-20 52 -63 87.5t-109 35.5q-62 0 -110 -34.5t-75.5 -94t-41.5 -130.5
t-14 -151q0 -195 73 -304.5t203 -109.5q94 0 169 54.5t120 138.5l12 -6q-24 -43 -56 -80.5t-78.5 -73t-113 -56t-143.5 -20.5zM522 1006q-54 0 -92.5 38.5t-38.5 92.5t38.5 92.5t92.5 38.5t92.5 -38.5t38.5 -92.5t-38.5 -92.5t-92.5 -38.5z" />
    <glyph glyph-name="Ccaron" unicode="&#x10c;" horiz-adv-x="1390" 
d="M811 -25q-169 0 -306 49.5t-228 136.5t-140 206.5t-49 259.5q0 195 91.5 346t254.5 234t371 83q52 0 120.5 -6t116 -11t107.5 -2.5t111 15.5l34 -416l-10 -2q-88 212 -201 310t-270 98q-95 0 -171.5 -35.5t-127.5 -95.5t-85 -143t-49 -175.5t-15 -195.5q0 -102 14.5 -193
t47.5 -174.5t82.5 -144t124 -96t167.5 -35.5q327 0 510 432h10l-68 -383q-85 -26 -210 -44t-232 -18zM809 1362q-47 0 -74 41l-229 295l4 4l299 -164l297 164l4 -4l-227 -295q-30 -41 -74 -41z" />
    <glyph glyph-name="ccaron" unicode="&#x10d;" horiz-adv-x="960" 
d="M508 -23q-133 0 -232.5 60t-149.5 157.5t-50 217.5q0 102 38 187t102 141t147 87t174 31q155 0 251.5 -79t96.5 -179q0 -61 -36.5 -100t-92.5 -39q-55 0 -92 38t-37 93q0 49 30.5 85t77.5 44q-20 52 -63 87.5t-109 35.5q-62 0 -110 -34.5t-75.5 -94t-41.5 -130.5
t-14 -151q0 -195 73 -304.5t203 -109.5q94 0 169 54.5t120 138.5l12 -6q-24 -43 -56 -80.5t-78.5 -73t-113 -56t-143.5 -20.5zM512 952q-47 0 -74 41l-229 295l4 4l299 -164l297 164l4 -4l-227 -295q-30 -41 -74 -41z" />
    <glyph glyph-name="Dcaron" unicode="&#x10e;" horiz-adv-x="1536" 
d="M59 0v12q116 0 150.5 39.5t34.5 153.5v854q0 58 -6.5 91.5t-26.5 58t-55.5 33.5t-96.5 9v15h658q336 0 532.5 -171.5t196.5 -461.5t-196 -461.5t-533 -171.5h-658zM500 14h190q101 0 182.5 33t136 90t91 136.5t53 169t16.5 190.5t-16.5 189.5t-53 168t-91 136t-136 89.5
t-182.5 33h-190v-1235zM780 1362q-46 0 -73 41l-230 295l4 4l299 -164l297 164l4 -4l-227 -295q-30 -41 -74 -41z" />
    <glyph glyph-name="dcaron" unicode="&#x10f;" horiz-adv-x="1155" 
d="M1102 928l-6 2q3 41 6.5 109.5t5.5 107t7 78.5t11 59q12 39 48 60t73 8q36 -13 49.5 -50t-2.5 -77q-5 -15 -17.5 -37.5t-33.5 -54t-40 -59t-50 -72.5t-51 -74zM449 -23q-165 0 -268 128t-103 309q0 192 117.5 318t308.5 126q138 0 219 -74v390q0 83 -38 112t-126 29v12
l397 41v-1214q0 -78 31 -110t113 -32v-12h-373v117q-112 -140 -278 -140zM553 41q98 0 170 94v555q-11 62 -58 106t-114 44q-73 0 -126 -64.5t-76 -156t-23 -193.5q0 -106 22.5 -190.5t75 -139.5t129.5 -55z" />
    <glyph glyph-name="Dcroat" unicode="&#x110;" horiz-adv-x="1538" 
d="M61 0v12q116 0 150.5 39.5t34.5 153.5v422h-160v18h160v414q0 58 -6.5 91.5t-26.5 58t-55.5 33.5t-96.5 9v15h656q337 0 534 -171.5t197 -461.5t-197 -461.5t-534 -171.5h-656zM500 14h190q126 0 221 50t150.5 137.5t82.5 195.5t27 236q0 101 -16.5 189.5t-53 168
t-91 136t-136 89.5t-182.5 33h-192v-604h354v-18h-354v-613z" />
    <glyph glyph-name="dcroat" unicode="&#x111;" horiz-adv-x="1124" 
d="M420 1024v18h303v132q0 83 -38 112t-126 29v12l397 41v-326h142v-18h-142v-870q0 -78 31 -110t113 -32v-12h-373v117q-112 -140 -278 -140q-165 0 -268 128t-103 309q0 192 117.5 318t308.5 126q138 0 219 -74v240h-303zM553 41q98 0 170 94v555q-11 62 -58 106t-114 44
q-73 0 -126 -64.5t-76 -156t-23 -193.5q0 -106 22.5 -190.5t75 -139.5t129.5 -55z" />
    <glyph glyph-name="Emacron" unicode="&#x112;" horiz-adv-x="1290" 
d="M59 0v12q116 0 150.5 39.5t34.5 153.5v854q0 58 -6.5 91.5t-26.5 58t-55.5 33.5t-96.5 9v15h1078l28 -396l-10 -2q-21 94 -54.5 160.5t-91 118.5t-147.5 77t-215 25h-147v-610h47q185 0 271.5 67.5t115.5 215.5h10v-580h-10q-29 147 -116 214t-271 67h-47v-609h166
q104 0 185 23t133 58.5t91.5 92.5t61 110t41.5 126l10 -2l-39 -422h-1090zM375 1434v69h569v-69h-569z" />
    <glyph glyph-name="emacron" unicode="&#x113;" horiz-adv-x="997" 
d="M520 -23q-106 0 -191.5 36.5t-140 98.5t-83.5 141t-29 167q0 192 126 315t318 123q113 0 202.5 -44t144 -134.5t57.5 -214.5h-602q-5 -207 69 -326t217 -119q100 0 176.5 56.5t124.5 136.5l13 -8q-142 -228 -402 -228zM518 844q-46 0 -83 -31.5t-60 -84t-36.5 -115
t-16.5 -130.5h362q0 40 -2.5 79t-12.5 93t-26.5 93.5t-49 67.5t-75.5 28zM229 1024v70h570v-70h-570z" />
    <glyph glyph-name="Ebreve" unicode="&#x114;" horiz-adv-x="1290" 
d="M59 0v12q116 0 150.5 39.5t34.5 153.5v854q0 58 -6.5 91.5t-26.5 58t-55.5 33.5t-96.5 9v15h1078l28 -396l-10 -2q-21 94 -54.5 160.5t-91 118.5t-147.5 77t-215 25h-147v-610h47q185 0 271.5 67.5t115.5 215.5h10v-580h-10q-29 147 -116 214t-271 67h-47v-609h166
q104 0 185 23t133 58.5t91.5 92.5t61 110t41.5 126l10 -2l-39 -422h-1090zM668 1384q-70 0 -120.5 33.5t-76 87.5t-36.5 107t-11 108h4q16 -72 72 -121t168 -49q201 0 239 170h6q0 -42 -6.5 -84.5t-23.5 -89t-43.5 -81.5t-71 -58t-100.5 -23z" />
    <glyph glyph-name="ebreve" unicode="&#x115;" horiz-adv-x="997" 
d="M520 -23q-106 0 -191.5 36.5t-140 98.5t-83.5 141t-29 167q0 192 126 315t318 123q113 0 202.5 -44t144 -134.5t57.5 -214.5h-602q-5 -207 69 -326t217 -119q100 0 176.5 56.5t124.5 136.5l13 -8q-142 -228 -402 -228zM518 844q-46 0 -83 -31.5t-60 -84t-36.5 -115
t-16.5 -130.5h362q0 40 -2.5 79t-12.5 93t-26.5 93.5t-49 67.5t-75.5 28zM518 975q-70 0 -121 33.5t-76.5 87.5t-37 107.5t-11.5 107.5h7q16 -72 71.5 -121t167.5 -49q202 0 240 170h4q0 -55 -11 -108t-36.5 -107t-76 -87.5t-120.5 -33.5z" />
    <glyph glyph-name="Edotaccent" unicode="&#x116;" horiz-adv-x="1290" 
d="M59 0v12q116 0 150.5 39.5t34.5 153.5v854q0 58 -6.5 91.5t-26.5 58t-55.5 33.5t-96.5 9v15h1078l28 -396l-10 -2q-21 94 -54.5 160.5t-91 118.5t-147.5 77t-215 25h-147v-610h47q185 0 271.5 67.5t115.5 215.5h10v-580h-10q-29 147 -116 214t-271 67h-47v-609h166
q104 0 185 23t133 58.5t91.5 92.5t61 110t41.5 126l10 -2l-39 -422h-1090zM674 1415q-55 0 -93 38.5t-38 92.5t38 92.5t93 38.5q54 0 92.5 -38.5t38.5 -92.5t-38.5 -92.5t-92.5 -38.5z" />
    <glyph glyph-name="edotaccent" unicode="&#x117;" horiz-adv-x="997" 
d="M520 -23q-106 0 -191.5 36.5t-140 98.5t-83.5 141t-29 167q0 192 126 315t318 123q113 0 202.5 -44t144 -134.5t57.5 -214.5h-602q-5 -207 69 -326t217 -119q100 0 176.5 56.5t124.5 136.5l13 -8q-142 -228 -402 -228zM518 844q-46 0 -83 -31.5t-60 -84t-36.5 -115
t-16.5 -130.5h362q0 40 -2.5 79t-12.5 93t-26.5 93.5t-49 67.5t-75.5 28zM516 1006q-55 0 -93 38.5t-38 92.5t38 92.5t93 38.5q54 0 92.5 -38.5t38.5 -92.5t-38.5 -92.5t-92.5 -38.5z" />
    <glyph glyph-name="Eogonek" unicode="&#x118;" horiz-adv-x="1290" 
d="M59 0v12q116 0 150.5 39.5t34.5 153.5v854q0 58 -6.5 91.5t-26.5 58t-55.5 33.5t-96.5 9v15h1078l28 -396l-10 -2q-21 94 -54.5 160.5t-91 118.5t-147.5 77t-215 25h-147v-610h47q185 0 271.5 67.5t115.5 215.5h10v-580h-10q-29 147 -116 214t-271 67h-47v-609h166
q104 0 185 23t133 58.5t91.5 92.5t61 110t41.5 126l10 -2l-39 -422h-119q-80 -42 -127 -96t-47 -144q0 -159 160 -159q52 0 102 16l4 -10q-114 -49 -239 -49q-100 0 -157.5 42.5t-57.5 120.5q0 29 9.5 56t22.5 47t38.5 41t44.5 34t53.5 30t53.5 25.5t57 24t52 21.5h-940z
" />
    <glyph glyph-name="eogonek" unicode="&#x119;" horiz-adv-x="997" 
d="M575 -442q-99 0 -157 42.5t-58 120.5q0 35 14 66t33.5 53t54 46t61.5 38.5t71 38t68 37.5q-67 -23 -142 -23q-106 0 -191.5 36.5t-140 98.5t-83.5 141t-29 167q0 192 126 315t318 123q113 0 202.5 -44t144 -134.5t57.5 -214.5h-602q-5 -207 69 -326t217 -119
q100 0 176.5 56.5t124.5 136.5l13 -8q-42 -68 -81 -104.5t-108 -73.5q-29 -16 -49 -29.5t-48 -38t-45 -50.5t-29.5 -64.5t-12.5 -82.5q0 -161 160 -161q52 0 102 16l4 -10q-114 -49 -240 -49zM518 844q-46 0 -83 -31.5t-60 -84t-36.5 -115t-16.5 -130.5h362q0 40 -2.5 79
t-12.5 93t-26.5 93.5t-49 67.5t-75.5 28z" />
    <glyph glyph-name="Ecaron" unicode="&#x11a;" horiz-adv-x="1290" 
d="M59 0v12q116 0 150.5 39.5t34.5 153.5v854q0 58 -6.5 91.5t-26.5 58t-55.5 33.5t-96.5 9v15h1078l28 -396l-10 -2q-21 94 -54.5 160.5t-91 118.5t-147.5 77t-215 25h-147v-610h47q185 0 271.5 67.5t115.5 215.5h10v-580h-10q-29 147 -116 214t-271 67h-47v-609h166
q104 0 185 23t133 58.5t91.5 92.5t61 110t41.5 126l10 -2l-39 -422h-1090zM684 1362q-47 0 -74 41l-229 295l4 4l299 -164l297 164l4 -4l-227 -295q-30 -41 -74 -41z" />
    <glyph glyph-name="ecaron" unicode="&#x11b;" horiz-adv-x="997" 
d="M520 -23q-106 0 -191.5 36.5t-140 98.5t-83.5 141t-29 167q0 192 126 315t318 123q113 0 202.5 -44t144 -134.5t57.5 -214.5h-602q-5 -207 69 -326t217 -119q100 0 176.5 56.5t124.5 136.5l13 -8q-142 -228 -402 -228zM518 844q-46 0 -83 -31.5t-60 -84t-36.5 -115
t-16.5 -130.5h362q0 40 -2.5 79t-12.5 93t-26.5 93.5t-49 67.5t-75.5 28zM516 952q-47 0 -74 41l-229 295l4 4l299 -164l297 164l4 -4l-227 -295q-30 -41 -74 -41z" />
    <glyph glyph-name="Gcircumflex" unicode="&#x11c;" horiz-adv-x="1574" 
d="M846 -25q-153 0 -279.5 34.5t-214 94.5t-148 142t-88.5 176.5t-28 198.5q0 151 59 278t159.5 212t234.5 132t284 47q49 0 122.5 -6t127.5 -11t119.5 -2.5t116.5 15.5l35 -405l-11 -2q-77 200 -206.5 298.5t-290.5 98.5q-96 0 -175.5 -35t-134 -96t-92 -145t-54.5 -180
t-17 -204q0 -127 25.5 -235.5t78.5 -198t145 -141t215 -51.5q152 0 306 82v309q0 115 -39 160t-160 45v14h625v-14q-59 0 -94 -8.5t-54 -32.5t-25 -56.5t-6 -91.5v-334q-280 -88 -536 -88zM522 1364l-4 4l230 295q27 41 73 41q44 0 74 -41l227 -295l-4 -4l-297 164z" />
    <glyph glyph-name="gcircumflex" unicode="&#x11d;" horiz-adv-x="1046" 
d="M449 -356q-121 0 -214 18.5t-149.5 59t-56.5 98.5q0 38 23.5 68t61.5 47t71.5 26t68.5 14q-64 16 -98.5 46.5t-34.5 82.5q0 116 172 177q-102 35 -158.5 107t-56.5 167q0 132 108.5 217.5t284.5 85.5q109 0 193 -35q37 9 91.5 22t78.5 19t51.5 10.5t44.5 4.5
q42 0 67 -21.5t25 -56.5q0 -34 -24 -58t-60 -24q-37 0 -116.5 42.5t-135.5 51.5q83 -38 129.5 -105.5t46.5 -152.5q0 -133 -107 -218t-284 -85q-93 0 -166 24q-53 -22 -53 -61q0 -25 29 -38.5t77 -17t108.5 -7t124.5 -6t124.5 -16t108.5 -36t77 -67t29 -107.5
q0 -130 -121.5 -203t-359.5 -73zM471 846q-55 0 -91 -39.5t-50.5 -102.5t-14.5 -149t14.5 -149t50.5 -102.5t91 -39.5t91 39.5t50.5 102.5t14.5 149t-14.5 149t-50.5 102.5t-91 39.5zM465 -344q91 0 158 17t101 45t49 55.5t15 56.5q0 43 -33.5 68.5t-93 35t-122 13
t-139.5 9.5t-126 17q-112 -39 -112 -135q0 -84 73 -133t230 -49zM172 965l-4 4l229 295q27 41 74 41q44 0 74 -41l227 -295l-4 -4l-297 163z" />
    <glyph glyph-name="Gbreve" unicode="&#x11e;" horiz-adv-x="1574" 
d="M846 -25q-153 0 -279.5 34.5t-214 94.5t-148 142t-88.5 176.5t-28 198.5q0 151 59 278t159.5 212t234.5 132t284 47q49 0 122.5 -6t127.5 -11t119.5 -2.5t116.5 15.5l35 -405l-11 -2q-77 200 -206.5 298.5t-290.5 98.5q-96 0 -175.5 -35t-134 -96t-92 -145t-54.5 -180
t-17 -204q0 -127 25.5 -235.5t78.5 -198t145 -141t215 -51.5q152 0 306 82v309q0 115 -39 160t-160 45v14h625v-14q-59 0 -94 -8.5t-54 -32.5t-25 -56.5t-6 -91.5v-334q-280 -88 -536 -88zM846 1384q-70 0 -120.5 33.5t-76 87.5t-36.5 107t-11 108h4q16 -72 72 -121t168 -49
q201 0 239 170h7q0 -54 -11.5 -107.5t-37 -107.5t-76.5 -87.5t-121 -33.5z" />
    <glyph glyph-name="gbreve" unicode="&#x11f;" horiz-adv-x="958" 
d="M449 -356q-121 0 -214 18.5t-149.5 59t-56.5 98.5q0 38 23.5 68t61.5 47t71.5 26t68.5 14q-64 16 -98.5 46.5t-34.5 82.5q0 116 172 177q-102 35 -158.5 107t-56.5 167q0 132 108.5 217.5t284.5 85.5q112 0 209 -41q20 38 43 83.5t34 68t25.5 46t26.5 35t27 17.5
q28 15 59.5 4.5t46.5 -39.5q30 -54 -16 -100q-14 -13 -40.5 -28.5t-51.5 -27t-70 -32t-72 -33.5q80 -40 125 -107t45 -149q0 -133 -107 -218t-284 -85q-93 0 -166 24q-53 -22 -53 -61q0 -25 29 -38.5t77 -17t108.5 -7t124.5 -6t124.5 -16t108.5 -36t77 -67t29 -107.5
q0 -130 -121.5 -203t-359.5 -73zM471 846q-55 0 -91 -39.5t-50.5 -102.5t-14.5 -149t14.5 -149t50.5 -102.5t91 -39.5t91 39.5t50.5 102.5t14.5 149t-14.5 149t-50.5 102.5t-91 39.5zM465 -344q91 0 158 17t101 45t49 55.5t15 56.5q0 43 -33.5 68.5t-93 35t-122 13
t-139.5 9.5t-126 17q-112 -39 -112 -135q0 -84 73 -133t230 -49zM469 975q-70 0 -120.5 33.5t-76 87.5t-36.5 107t-11 108h4q16 -72 72 -121t168 -49q202 0 240 170h6q0 -54 -11.5 -107.5t-37 -107.5t-76.5 -87.5t-121 -33.5z" />
    <glyph glyph-name="Gdotaccent" unicode="&#x120;" horiz-adv-x="1574" 
d="M846 -25q-153 0 -279.5 34.5t-214 94.5t-148 142t-88.5 176.5t-28 198.5q0 151 59 278t159.5 212t234.5 132t284 47q49 0 122.5 -6t127.5 -11t119.5 -2.5t116.5 15.5l35 -405l-11 -2q-77 200 -206.5 298.5t-290.5 98.5q-96 0 -175.5 -35t-134 -96t-92 -145t-54.5 -180
t-17 -204q0 -127 25.5 -235.5t78.5 -198t145 -141t215 -51.5q152 0 306 82v309q0 115 -39 160t-160 45v14h625v-14q-59 0 -94 -8.5t-54 -32.5t-25 -56.5t-6 -91.5v-334q-280 -88 -536 -88zM842 1415q-55 0 -93 38.5t-38 92.5t38 92.5t93 38.5q54 0 92.5 -38.5t38.5 -92.5
t-38.5 -92.5t-92.5 -38.5z" />
    <glyph glyph-name="gdotaccent" unicode="&#x121;" horiz-adv-x="958" 
d="M449 -356q-121 0 -214 18.5t-149.5 59t-56.5 98.5q0 38 23.5 68t61.5 47t71.5 26t68.5 14q-64 16 -98.5 46.5t-34.5 82.5q0 116 172 177q-102 35 -158.5 107t-56.5 167q0 132 108.5 217.5t284.5 85.5q112 0 209 -41q20 38 43 83.5t34 68t25.5 46t26.5 35t27 17.5
q28 15 59.5 4.5t46.5 -39.5q30 -54 -16 -100q-14 -13 -40.5 -28.5t-51.5 -27t-70 -32t-72 -33.5q80 -40 125 -107t45 -149q0 -133 -107 -218t-284 -85q-93 0 -166 24q-53 -22 -53 -61q0 -25 29 -38.5t77 -17t108.5 -7t124.5 -6t124.5 -16t108.5 -36t77 -67t29 -107.5
q0 -130 -121.5 -203t-359.5 -73zM471 846q-55 0 -91 -39.5t-50.5 -102.5t-14.5 -149t14.5 -149t50.5 -102.5t91 -39.5t91 39.5t50.5 102.5t14.5 149t-14.5 149t-50.5 102.5t-91 39.5zM465 -344q91 0 158 17t101 45t49 55.5t15 56.5q0 43 -33.5 68.5t-93 35t-122 13
t-139.5 9.5t-126 17q-112 -39 -112 -135q0 -84 73 -133t230 -49zM469 1006q-55 0 -93 38.5t-38 92.5t38 92.5t93 38.5q54 0 92.5 -38.5t38.5 -92.5t-38.5 -92.5t-92.5 -38.5z" />
    <glyph glyph-name="uni0122" unicode="&#x122;" horiz-adv-x="1574" 
d="M846 -25q-153 0 -279.5 34.5t-214 94.5t-148 142t-88.5 176.5t-28 198.5q0 151 59 278t159.5 212t234.5 132t284 47q49 0 122.5 -6t127.5 -11t119.5 -2.5t116.5 15.5l35 -405l-11 -2q-77 200 -206.5 298.5t-290.5 98.5q-96 0 -175.5 -35t-134 -96t-92 -145t-54.5 -180
t-17 -204q0 -127 25.5 -235.5t78.5 -198t145 -141t215 -51.5q152 0 306 82v309q0 115 -39 160t-160 45v14h625v-14q-59 0 -94 -8.5t-54 -32.5t-25 -56.5t-6 -91.5v-334q-280 -88 -536 -88zM682 -653l-6 10q91 32 154.5 105t64.5 157q-28 -22 -70 -22q-49 0 -83.5 34
t-34.5 82q0 50 37 84.5t92 34.5q60 0 95.5 -43t35.5 -111q0 -99 -73.5 -190.5t-211.5 -140.5z" />
    <glyph glyph-name="uni0123" unicode="&#x123;" horiz-adv-x="958" 
d="M449 -356q-121 0 -214 18.5t-149.5 59t-56.5 98.5q0 38 23.5 68t61.5 47t71.5 26t68.5 14q-64 16 -98.5 46.5t-34.5 82.5q0 116 172 177q-102 35 -158.5 107t-56.5 167q0 132 108.5 217.5t284.5 85.5q112 0 209 -41q20 38 43 83.5t34 68t25.5 46t26.5 35t27 17.5
q28 15 59.5 4.5t46.5 -39.5q30 -54 -16 -100q-14 -13 -40.5 -28.5t-51.5 -27t-70 -32t-72 -33.5q80 -40 125 -107t45 -149q0 -133 -107 -218t-284 -85q-93 0 -166 24q-53 -22 -53 -61q0 -25 29 -38.5t77 -17t108.5 -7t124.5 -6t124.5 -16t108.5 -36t77 -67t29 -107.5
q0 -130 -121.5 -203t-359.5 -73zM471 846q-55 0 -91 -39.5t-50.5 -102.5t-14.5 -149t14.5 -149t50.5 -102.5t91 -39.5t91 39.5t50.5 102.5t14.5 149t-14.5 149t-50.5 102.5t-91 39.5zM465 -344q91 0 158 17t101 45t49 55.5t15 56.5q0 43 -33.5 68.5t-93 35t-122 13
t-139.5 9.5t-126 17q-112 -39 -112 -135q0 -84 73 -133t230 -49zM627 1477l6 -11q-91 -34 -154.5 -106t-64.5 -156q30 23 69 23q49 0 84 -34.5t35 -84.5t-37 -84.5t-92 -34.5q-60 0 -95.5 44t-35.5 112q0 97 73.5 189.5t211.5 142.5z" />
    <glyph glyph-name="Hcircumflex" unicode="&#x124;" horiz-adv-x="1624" 
d="M59 0v12q116 0 150.5 39.5t34.5 153.5v854q0 58 -6.5 91.5t-26.5 58t-55.5 33.5t-96.5 9v15h625v-15q-116 0 -150 -39t-34 -153v-408h624v408q0 114 -34 153t-150 39v15h625v-15q-61 0 -96.5 -9t-55.5 -33.5t-26.5 -58t-6.5 -91.5v-854q0 -114 34.5 -153.5t150.5 -39.5
v-12h-625v12q61 0 96.5 9t55.5 34t26 58t6 92v428h-624v-428q0 -59 6 -92t26 -58t55.5 -34t96.5 -9v-12h-625zM514 1364l-4 4l227 295q30 41 74 41q47 0 74 -41l229 -295l-4 -4l-299 164z" />
    <glyph glyph-name="hcircumflex" unicode="&#x125;" 
d="M27 0v12q82 0 112.5 32t30.5 110v1020q0 78 -30.5 109.5t-112.5 31.5v12l376 41v-682q167 172 330 172q106 0 175 -67t69 -203v-434q0 -78 30.5 -110t112.5 -32v-12h-510v12q73 0 103 32.5t30 109.5v452q0 83 -35 125.5t-100 42.5q-101 0 -205 -108v-512q0 -78 31 -110
t113 -32v-12h-520zM248 1440l-4 4l229 297q30 41 74 41q41 0 74 -41l227 -297l-4 -4l-297 164z" />
    <glyph glyph-name="Hbar" unicode="&#x126;" horiz-adv-x="1624" 
d="M90 926v18h154v115q0 58 -6.5 91.5t-26.5 58t-55.5 33.5t-96.5 9v15h625v-15q-116 0 -150 -39t-34 -153v-115h624v115q0 114 -34 153t-150 39v15h625v-15q-61 0 -96.5 -9t-55.5 -33.5t-26.5 -58t-6.5 -91.5v-115h154v-18h-154v-721q0 -114 34.5 -153.5t150.5 -39.5v-12
h-625v12q61 0 96.5 9t55.5 34t26 58t6 92v428h-624v-428q0 -59 6 -92t26 -58t55.5 -34t96.5 -9v-12h-625v12q116 0 150.5 39.5t34.5 153.5v721h-154zM500 651h624v275h-624v-275z" />
    <glyph glyph-name="hbar" unicode="&#x127;" 
d="M29 1024v18h141v132q0 78 -30.5 109.5t-112.5 31.5v12l376 41v-326h302v-18h-302v-338q167 172 330 172q106 0 175 -67t69 -203v-434q0 -78 30.5 -110t112.5 -32v-12h-510v12q73 0 103 32.5t30 109.5v452q0 83 -35 125.5t-100 42.5q-101 0 -205 -108v-512q0 -78 31 -110
t113 -32v-12h-520v12q82 0 112.5 32t30.5 110v870h-141z" />
    <glyph glyph-name="Itilde" unicode="&#x128;" horiz-adv-x="743" 
d="M59 0v12q116 0 150.5 39.5t34.5 153.5v854q0 58 -6.5 91.5t-26.5 58t-55.5 33.5t-96.5 9v15h625v-15q-116 0 -150 -39t-34 -153v-854q0 -59 6 -92t26 -58t55.5 -34t96.5 -9v-12h-625zM74 1405q4 43 8 73.5t16 75t28 72t45.5 48t68.5 20.5q53 0 160.5 -55.5t162.5 -55.5
q31 0 53 10.5t33 31.5t16 38.5t9 44.5l10 -2q-5 -57 -14 -100t-26.5 -89.5t-50 -72t-77.5 -25.5q-44 0 -101.5 27.5t-116.5 55.5t-105 28q-31 0 -53 -11t-33 -31.5t-15.5 -39t-7.5 -43.5h-10z" />
    <glyph glyph-name="itilde" unicode="&#x129;" horiz-adv-x="591" 
d="M43 0v12q82 0 112.5 32t30.5 110v508q0 78 -30.5 109.5t-112.5 31.5v12l377 41v-702q0 -78 30.5 -110t112.5 -32v-12h-520zM-16 995q3 35 6.5 60.5t11 63t19 63.5t29 51t43.5 38t59 13q44 0 101.5 -27.5t116.5 -55t105 -27.5q25 0 44.5 8t30.5 19t18.5 29t10.5 33t5 35
l10 -2q-3 -44 -8.5 -79.5t-18 -75.5t-29.5 -67.5t-46 -45.5t-66 -18q-43 0 -100.5 27.5t-116.5 55t-105 27.5q-31 0 -52.5 -11t-33 -32t-16 -38.5t-8.5 -43.5h-10z" />
    <glyph glyph-name="Imacron" unicode="&#x12a;" horiz-adv-x="743" 
d="M59 0v12q116 0 150.5 39.5t34.5 153.5v854q0 58 -6.5 91.5t-26.5 58t-55.5 33.5t-96.5 9v15h625v-15q-116 0 -150 -39t-34 -153v-854q0 -59 6 -92t26 -58t55.5 -34t96.5 -9v-12h-625zM86 1434v69h571v-69h-571z" />
    <glyph glyph-name="imacron" unicode="&#x12b;" horiz-adv-x="591" 
d="M43 0v12q82 0 112.5 32t30.5 110v508q0 78 -30.5 109.5t-112.5 31.5v12l377 41v-702q0 -78 30.5 -110t112.5 -32v-12h-520zM6 1024v70h569v-70h-569z" />
    <glyph glyph-name="Ibreve" unicode="&#x12c;" horiz-adv-x="743" 
d="M59 0v12q116 0 150.5 39.5t34.5 153.5v854q0 58 -6.5 91.5t-26.5 58t-55.5 33.5t-96.5 9v15h625v-15q-116 0 -150 -39t-34 -153v-854q0 -59 6 -92t26 -58t55.5 -34t96.5 -9v-12h-625zM371 1384q-70 0 -120.5 33.5t-76 87.5t-36.5 107t-11 108h4q16 -72 72 -121t168 -49
q201 0 239 170h6q0 -42 -6.5 -84.5t-23.5 -89t-43.5 -81.5t-71 -58t-100.5 -23z" />
    <glyph glyph-name="ibreve" unicode="&#x12d;" horiz-adv-x="591" 
d="M43 0v12q82 0 112.5 32t30.5 110v508q0 78 -30.5 109.5t-112.5 31.5v12l377 41v-702q0 -78 30.5 -110t112.5 -32v-12h-520zM295 975q-70 0 -120.5 33.5t-76 87.5t-36.5 107t-11 108h4q16 -72 72 -121t168 -49q202 0 240 170h6q0 -54 -11.5 -107.5t-37 -107.5t-76.5 -87.5
t-121 -33.5z" />
    <glyph glyph-name="Iogonek" unicode="&#x12e;" horiz-adv-x="743" 
d="M59 0v12q116 0 150.5 39.5t34.5 153.5v854q0 58 -6.5 91.5t-26.5 58t-55.5 33.5t-96.5 9v15h625v-15q-116 0 -150 -39t-34 -153v-854q0 -59 6 -92t26 -58t55.5 -34t96.5 -9v-12h-184q-80 -42 -127 -96t-47 -144q0 -159 159 -159q53 0 103 16l4 -10q-114 -49 -240 -49
q-100 0 -157.5 42.5t-57.5 120.5q0 29 9.5 56t23 47t38.5 41t44.5 34t54 30t54 25.5t57 24t51.5 21.5h-410z" />
    <glyph glyph-name="iogonek" unicode="&#x12f;" horiz-adv-x="593" 
d="M45 0v12q82 0 112.5 32t30.5 110v508q0 78 -30.5 109.5t-112.5 31.5v12l377 41v-702q0 -78 30.5 -110t112.5 -32v-12h-133q-80 -42 -127 -96t-47 -144q0 -159 160 -159q52 0 102 16l4 -10q-114 -49 -239 -49q-100 0 -157.5 42.5t-57.5 120.5q0 29 9.5 56t22.5 47t38.5 41
t44.5 34t53.5 30t53.5 25.5t57 24t52 21.5h-356zM295 1001q-61 0 -103 39.5t-42 100.5q0 60 42 98.5t103 38.5q62 0 103.5 -38t41.5 -99t-41.5 -100.5t-103.5 -39.5z" />
    <glyph glyph-name="Idotaccent" unicode="&#x130;" horiz-adv-x="743" 
d="M59 0v12q116 0 150.5 39.5t34.5 153.5v854q0 58 -6.5 91.5t-26.5 58t-55.5 33.5t-96.5 9v15h625v-15q-116 0 -150 -39t-34 -153v-854q0 -59 6 -92t26 -58t55.5 -34t96.5 -9v-12h-625zM371 1415q-55 0 -93 38.5t-38 92.5t38 92.5t93 38.5q54 0 92.5 -38.5t38.5 -92.5
t-38.5 -92.5t-92.5 -38.5z" />
    <glyph glyph-name="dotlessi" unicode="&#x131;" horiz-adv-x="591" 
d="M43 0v12q82 0 112.5 32t30.5 110v508q0 78 -30.5 109.5t-112.5 31.5v12l377 41v-702q0 -78 30.5 -110t112.5 -32v-12h-520z" />
    <glyph glyph-name="Jcircumflex" unicode="&#x134;" horiz-adv-x="716" 
d="M29 -342l-6 8q64 33 107 74t64 89.5t29 94.5t8 105v1030q0 114 -34 153t-150 39v15h623v-15q-61 0 -96.5 -9t-55.5 -33.5t-26.5 -58t-6.5 -91.5v-985q0 -64 -25.5 -121.5t-68 -101.5t-101.5 -82t-123.5 -64.5t-137.5 -46.5zM59 1364l-4 4l230 295q27 41 73 41
q44 0 74 -41l227 -295l-4 -4l-297 164z" />
    <glyph glyph-name="jcircumflex" unicode="&#x135;" horiz-adv-x="557" 
d="M6 -360l-6 6q51 29 85.5 61.5t52.5 60.5t27.5 69.5t11 70.5t1.5 80v674q0 78 -34.5 109.5t-118.5 31.5v12l387 41v-825q0 -77 -34.5 -142t-95 -112t-128 -79.5t-148.5 -57.5zM-16 954l-4 4l227 295q30 41 74 41q46 0 73 -41l230 -295l-4 -4l-299 164z" />
    <glyph glyph-name="uni0136" unicode="&#x136;" horiz-adv-x="1449" 
d="M59 0v12q116 0 150.5 39.5t34.5 153.5v854q0 58 -6.5 91.5t-26.5 58t-55.5 33.5t-96.5 9v15h625v-15q-116 0 -150 -39t-34 -153v-531l360 363q180 180 180 272q0 88 -159 88v15h573v-15q-150 0 -303 -112q-80 -60 -272 -252l-76 -80l430 -617q68 -97 127.5 -137.5
t124.5 -40.5v-12h-432l-430 629l-123 -125v-299q0 -59 6 -92t26 -58t55.5 -34t96.5 -9v-12h-625zM643 -653l-6 10q91 32 154.5 105t64.5 157q-28 -22 -70 -22q-49 0 -83.5 34t-34.5 82q0 50 37 84.5t92 34.5q60 0 95.5 -43t35.5 -111q0 -99 -73.5 -190.5t-211.5 -140.5z" />
    <glyph glyph-name="uni0137" unicode="&#x137;" horiz-adv-x="1093" 
d="M27 0v12q82 0 112.5 32t30.5 110v1020q0 78 -30.5 109.5t-112.5 31.5v12l376 41v-1008l193 193q125 122 125 190q0 78 -135 78v15h477v-15q-133 0 -250 -88q-85 -62 -160 -141l-20 -21l289 -430q43 -64 91.5 -96.5t110.5 -32.5v-12h-374l-279 408l-68 -68v-186
q0 -78 31 -110t113 -32v-12h-520zM446 -653l-6 10q90 32 153 105t66 157q-31 -22 -69 -22q-49 0 -84 34.5t-35 81.5q0 50 36 84.5t91 34.5q61 0 96 -43t35 -111q0 -64 -29.5 -125.5t-95 -117t-158.5 -88.5z" />
    <glyph glyph-name="kgreenlandic" unicode="&#x138;" horiz-adv-x="1107" 
d="M41 0v12q82 0 112.5 32t30.5 110v508q0 78 -30.5 109.5t-112.5 31.5v12l377 41v-496l192 193q125 122 125 190q0 78 -133 78v15h475v-15q-131 0 -248 -88q-67 -47 -161 -141l-21 -21l289 -430q87 -129 203 -129v-12h-373l-279 408l-69 -68v-186q0 -78 30.5 -110
t112.5 -32v-12h-520z" />
    <glyph glyph-name="Lacute" unicode="&#x139;" horiz-adv-x="1212" 
d="M59 0v12q116 0 150.5 39.5t34.5 153.5v854q0 58 -6.5 91.5t-26.5 58t-55.5 33.5t-96.5 9v15h646v-15q-120 0 -162.5 -41t-42.5 -161v-1035h131q122 0 213.5 31.5t150.5 91.5t94 132t56 167l10 -2l-29 -434h-1067zM324 1378l-5 4q29 41 73 105t68 98.5t51 69t44 49.5
q36 32 75 32t66 -30q25 -29 19.5 -67t-43.5 -70q-17 -15 -54.5 -37t-73.5 -41t-106 -54.5t-114 -58.5z" />
    <glyph glyph-name="lacute" unicode="&#x13a;" horiz-adv-x="577" 
d="M29 0v12q82 0 112.5 32t30.5 110v1020q0 78 -30.5 109.5t-112.5 31.5v12l377 41v-1214q0 -78 30.5 -110t112.5 -32v-12h-520zM106 1440l-4 4q34 48 93 133.5t90 127t53 60.5q36 33 76 33t65 -31q25 -27 19.5 -66t-41.5 -71q-23 -18 -68.5 -43.5t-137 -71.5t-145.5 -75z
" />
    <glyph glyph-name="uni013B" unicode="&#x13b;" horiz-adv-x="1212" 
d="M59 0v12q116 0 150.5 39.5t34.5 153.5v854q0 58 -6.5 91.5t-26.5 58t-55.5 33.5t-96.5 9v15h646v-15q-120 0 -162.5 -41t-42.5 -161v-1035h131q122 0 213.5 31.5t150.5 91.5t94 132t56 167l10 -2l-29 -434h-1067zM526 -653l-6 10q91 32 154.5 105t64.5 157
q-28 -22 -69 -22q-49 0 -84 34.5t-35 81.5q0 50 37 84.5t92 34.5q60 0 95.5 -43t35.5 -111q0 -99 -73.5 -190.5t-211.5 -140.5z" />
    <glyph glyph-name="uni013C" unicode="&#x13c;" horiz-adv-x="577" 
d="M29 0v12q82 0 112.5 32t30.5 110v1020q0 78 -30.5 109.5t-112.5 31.5v12l377 41v-1214q0 -78 30.5 -110t112.5 -32v-12h-520zM141 -653l-6 10q90 32 153 105t66 157q-31 -22 -69 -22q-49 0 -84 34.5t-35 81.5q0 50 36 84.5t91 34.5q61 0 96 -43t35 -111
q0 -64 -29.5 -125.5t-95 -117t-158.5 -88.5z" />
    <glyph glyph-name="Lcaron" unicode="&#x13d;" horiz-adv-x="1216" 
d="M883 856l-6 2q3 41 6.5 109.5t5.5 107t7 78.5t11 59q12 39 48 60t73 8q36 -13 49.5 -50t-2.5 -77q-5 -15 -17.5 -37.5t-33.5 -54t-40 -59t-50 -72.5t-51 -74zM59 0v12q116 0 150.5 39.5t34.5 153.5v854q0 58 -6.5 91.5t-26.5 58t-55.5 33.5t-96.5 9v15h646v-15
q-120 0 -162.5 -41t-42.5 -161v-1035h131q122 0 213.5 31.5t150.5 91.5t94 132t56 167l10 -2l-29 -434h-1067z" />
    <glyph glyph-name="lcaron" unicode="&#x13e;" horiz-adv-x="606" 
d="M551 928l-6 2q3 41 6.5 109.5t5.5 107t7 78.5t11 59q12 39 48 60t73 8q36 -13 49.5 -50t-2.5 -77q-5 -15 -17.5 -37.5t-33.5 -54t-40 -59t-50 -72.5t-51 -74zM29 0v12q82 0 112.5 32t30.5 110v1020q0 78 -30.5 109.5t-112.5 31.5v12l377 41v-1214q0 -78 30.5 -110
t112.5 -32v-12h-520z" />
    <glyph glyph-name="Ldot" unicode="&#x13f;" horiz-adv-x="1212" 
d="M59 0v12q116 0 150.5 39.5t34.5 153.5v854q0 58 -6.5 91.5t-26.5 58t-55.5 33.5t-96.5 9v15h646v-15q-120 0 -162.5 -41t-42.5 -161v-1035h131q122 0 213.5 31.5t150.5 91.5t94 132t56 167l10 -2l-29 -434h-1067zM938 602q-55 0 -93 38.5t-38 92.5t38 92.5t93 38.5
q54 0 92.5 -38.5t38.5 -92.5t-38.5 -92.5t-92.5 -38.5z" />
    <glyph glyph-name="ldot" unicode="&#x140;" horiz-adv-x="745" 
d="M29 0v12q82 0 112.5 32t30.5 110v1020q0 78 -30.5 109.5t-112.5 31.5v12l377 41v-1214q0 -78 30.5 -110t112.5 -32v-12h-520zM659 479q-54 0 -92.5 38.5t-38.5 92.5t38.5 92.5t92.5 38.5t93 -38.5t39 -92.5t-39 -92.5t-93 -38.5z" />
    <glyph glyph-name="Lslash" unicode="&#x141;" horiz-adv-x="1214" 
d="M61 516l-6 19l191 69v455q0 58 -6.5 91.5t-26.5 58t-55.5 33.5t-96.5 9v15h646v-15q-120 0 -162.5 -41t-42.5 -161v-355l301 111l6 -19l-307 -112v-660h131q122 0 213.5 31.5t150.5 91.5t94 132t56 167l10 -2l-29 -434h-1067v12q116 0 150.5 39.5t34.5 153.5v379z" />
    <glyph glyph-name="lslash" unicode="&#x142;" horiz-adv-x="591" 
d="M25 520l-9 17l164 75v562q0 78 -30.5 109.5t-112.5 31.5v12l377 41v-653l159 73l9 -16l-168 -78v-540q0 -78 30.5 -110t112.5 -32v-12h-520v12q82 0 112.5 32t30.5 110v438z" />
    <glyph glyph-name="Nacute" unicode="&#x143;" horiz-adv-x="1482" 
d="M31 0v12q47 0 80.5 5t61.5 22.5t45.5 37.5t31 62.5t20.5 83.5t11 116t5 144.5t1 182.5v276q0 164 -51.5 236.5t-194.5 72.5v15h414l745 -871v203q0 113 -1 182.5t-5 144.5t-11 116t-20.5 83.5t-31 62t-45.5 37t-61.5 22.5t-80.5 5v15h533v-15q-47 0 -80.5 -5t-61.5 -22.5
t-45.5 -37t-31 -62t-20.5 -83.5t-11 -116t-5 -144.5t-1 -182.5v-608l-11 -4l-903 1048v-368q0 -113 1 -182.5t5 -144.5t11 -116t20.5 -83.5t31 -62.5t45.5 -37.5t61.5 -22.5t80.5 -5v-12h-532zM662 1378l-5 4q29 41 73 105t68 98.5t51 69t44 49.5q36 32 75 32t66 -30
q25 -29 19.5 -67t-43.5 -70q-17 -15 -54.5 -37t-73.5 -41t-106 -54.5t-114 -58.5z" />
    <glyph glyph-name="nacute" unicode="&#x144;" horiz-adv-x="1155" 
d="M41 0v12q82 0 112.5 32t30.5 110v508q0 78 -30.5 109.5t-112.5 31.5v12l373 41v-174q167 176 334 176q107 0 175 -66.5t68 -203.5v-434q0 -78 31 -110t113 -32v-12h-510v12q73 0 103 32.5t30 109.5v452q0 83 -35 125.5t-100 42.5q-59 0 -107.5 -29.5t-97.5 -78.5v-512
q0 -77 30 -109.5t103 -32.5v-12h-510zM428 969l-4 4q29 42 73 105.5t67.5 97.5t50.5 68.5t44 49.5q36 32 75.5 32t66.5 -30q25 -29 19 -67t-44 -70q-17 -15 -54.5 -37t-74 -41t-105 -53.5t-114.5 -58.5z" />
    <glyph glyph-name="uni0145" unicode="&#x145;" horiz-adv-x="1482" 
d="M31 0v12q47 0 80.5 5t61.5 22.5t45.5 37.5t31 62.5t20.5 83.5t11 116t5 144.5t1 182.5v276q0 164 -51.5 236.5t-194.5 72.5v15h414l745 -871v203q0 113 -1 182.5t-5 144.5t-11 116t-20.5 83.5t-31 62t-45.5 37t-61.5 22.5t-80.5 5v15h533v-15q-47 0 -80.5 -5t-61.5 -22.5
t-45.5 -37t-31 -62t-20.5 -83.5t-11 -116t-5 -144.5t-1 -182.5v-608l-11 -4l-903 1048v-368q0 -113 1 -182.5t5 -144.5t11 -116t20.5 -83.5t31 -62.5t45.5 -37.5t61.5 -22.5t80.5 -5v-12h-532zM623 -653l-7 10q90 32 153.5 105t66.5 157q-31 -22 -70 -22q-49 0 -84 34.5
t-35 81.5q0 50 36 84.5t91 34.5q61 0 96 -43t35 -111q0 -99 -72.5 -191t-209.5 -140z" />
    <glyph glyph-name="uni0146" unicode="&#x146;" horiz-adv-x="1155" 
d="M41 0v12q82 0 112.5 32t30.5 110v508q0 78 -30.5 109.5t-112.5 31.5v12l373 41v-174q167 176 334 176q107 0 175 -66.5t68 -203.5v-434q0 -78 31 -110t113 -32v-12h-510v12q73 0 103 32.5t30 109.5v452q0 83 -35 125.5t-100 42.5q-59 0 -107.5 -29.5t-97.5 -78.5v-512
q0 -77 30 -109.5t103 -32.5v-12h-510zM446 -653l-6 10q90 32 153 105t66 157q-31 -22 -69 -22q-49 0 -84 34.5t-35 81.5q0 50 36 84.5t91 34.5q61 0 96 -43t35 -111q0 -64 -29.5 -125.5t-95 -117t-158.5 -88.5z" />
    <glyph glyph-name="Ncaron" unicode="&#x147;" horiz-adv-x="1482" 
d="M31 0v12q47 0 80.5 5t61.5 22.5t45.5 37.5t31 62.5t20.5 83.5t11 116t5 144.5t1 182.5v276q0 164 -51.5 236.5t-194.5 72.5v15h414l745 -871v203q0 113 -1 182.5t-5 144.5t-11 116t-20.5 83.5t-31 62t-45.5 37t-61.5 22.5t-80.5 5v15h533v-15q-47 0 -80.5 -5t-61.5 -22.5
t-45.5 -37t-31 -62t-20.5 -83.5t-11 -116t-5 -144.5t-1 -182.5v-608l-11 -4l-903 1048v-368q0 -113 1 -182.5t5 -144.5t11 -116t20.5 -83.5t31 -62.5t45.5 -37.5t61.5 -22.5t80.5 -5v-12h-532zM784 1362q-43 0 -73 41l-228 295l4 4l297 -164l299 164l4 -4l-229 -295
q-27 -41 -74 -41z" />
    <glyph glyph-name="ncaron" unicode="&#x148;" horiz-adv-x="1155" 
d="M41 0v12q82 0 112.5 32t30.5 110v508q0 78 -30.5 109.5t-112.5 31.5v12l373 41v-174q167 176 334 176q107 0 175 -66.5t68 -203.5v-434q0 -78 31 -110t113 -32v-12h-510v12q73 0 103 32.5t30 109.5v452q0 83 -35 125.5t-100 42.5q-59 0 -107.5 -29.5t-97.5 -78.5v-512
q0 -77 30 -109.5t103 -32.5v-12h-510zM586 952q-44 0 -74 41l-227 295l4 4l297 -164l299 164l4 -4l-230 -295q-27 -41 -73 -41z" />
    <glyph glyph-name="Eng" unicode="&#x14a;" horiz-adv-x="1482" 
d="M31 0v12q47 0 80.5 5t61.5 22.5t45.5 37.5t31 62.5t20.5 83.5t11 116t5 144.5t1 182.5v276q0 164 -51.5 236.5t-194.5 72.5v15h414l745 -871v203q0 113 -1 182.5t-5 144.5t-11 116t-20.5 83.5t-31 62t-45.5 37t-61.5 22.5t-80.5 5v15h533v-15q-47 0 -80.5 -5t-61.5 -22.5
t-45.5 -37t-31 -62t-20.5 -83.5t-11 -116t-5 -144.5t-1 -182.5v-504q0 -84 -35.5 -156t-99.5 -125.5t-144.5 -92t-177.5 -62.5l-6 10q165 62 233 155.5t68 229.5v103l-752 878v-368q0 -113 1 -182.5t5 -144.5t11 -116t20.5 -83.5t31 -62.5t45.5 -37.5t61.5 -22.5t80.5 -5
v-12h-532z" />
    <glyph glyph-name="eng" unicode="&#x14b;" horiz-adv-x="1118" 
d="M43 0v12q82 0 112.5 32t30.5 110v508q0 78 -30.5 109.5t-112.5 31.5v12l371 41v-174q171 176 336 176q105 0 174 -67t69 -203v-557q0 -77 -34 -142t-95 -112t-128 -79.5t-148 -57.5l-6 6q51 29 85.5 61.5t52.5 60.5t27.5 69.5t11 70.5t1.5 80v618q0 83 -35 125.5
t-100 42.5q-101 0 -205 -108v-512q0 -77 30 -109.5t103 -32.5v-12h-510z" />
    <glyph glyph-name="Omacron" unicode="&#x14c;" horiz-adv-x="1550" 
d="M774 -25q-197 0 -354.5 85.5t-245.5 236t-88 336.5q0 139 52 260.5t142 209t218.5 137.5t275.5 50q148 0 276.5 -50t218.5 -137.5t141.5 -209t51.5 -260.5q0 -186 -88 -336.5t-245.5 -236t-354.5 -85.5zM774 -8q92 0 163.5 36t117.5 95.5t76 143.5t42.5 174t12.5 192
q0 103 -12 192.5t-42 173t-76 143t-118 95t-164 35.5t-164 -36t-117.5 -95.5t-74.5 -143.5t-41 -173t-12 -191t12 -191.5t41.5 -173.5t75 -144t117.5 -96t163 -36zM489 1434v69h570v-69h-570z" />
    <glyph glyph-name="omacron" unicode="&#x14d;" horiz-adv-x="1087" 
d="M543 -23q-124 0 -229 50.5t-171.5 153t-66.5 237.5q0 102 38.5 186.5t103.5 139t149 84.5t176 30t176 -30t149 -84.5t103.5 -139t38.5 -186.5q0 -135 -66.5 -237.5t-171.5 -153t-229 -50.5zM543 -6q217 0 217 424t-217 424q-215 0 -215 -424t215 -424zM258 1024v70h571
v-70h-571z" />
    <glyph glyph-name="Obreve" unicode="&#x14e;" horiz-adv-x="1550" 
d="M774 -25q-197 0 -354.5 85.5t-245.5 236t-88 336.5q0 139 52 260.5t142 209t218.5 137.5t275.5 50q148 0 276.5 -50t218.5 -137.5t141.5 -209t51.5 -260.5q0 -186 -88 -336.5t-245.5 -236t-354.5 -85.5zM774 -8q92 0 163.5 36t117.5 95.5t76 143.5t42.5 174t12.5 192
q0 103 -12 192.5t-42 173t-76 143t-118 95t-164 35.5t-164 -36t-117.5 -95.5t-74.5 -143.5t-41 -173t-12 -191t12 -191.5t41.5 -173.5t75 -144t117.5 -96t163 -36zM774 1384q-70 0 -121 33.5t-76.5 87.5t-37 107.5t-11.5 107.5h7q16 -72 71.5 -121t167.5 -49q202 0 240 170
h4q0 -55 -11 -108t-36.5 -107t-76 -87.5t-120.5 -33.5z" />
    <glyph glyph-name="obreve" unicode="&#x14f;" horiz-adv-x="1087" 
d="M543 -23q-124 0 -229 50.5t-171.5 153t-66.5 237.5q0 102 38.5 186.5t103.5 139t149 84.5t176 30t176 -30t149 -84.5t103.5 -139t38.5 -186.5q0 -135 -66.5 -237.5t-171.5 -153t-229 -50.5zM543 -6q217 0 217 424t-217 424q-215 0 -215 -424t215 -424zM543 975
q-70 0 -120.5 33.5t-76 87.5t-36.5 107t-11 108h4q16 -72 72 -121t168 -49q201 0 239 170h6q0 -42 -6.5 -84.5t-23.5 -89t-43.5 -81.5t-71 -58t-100.5 -23z" />
    <glyph glyph-name="Ohungarumlaut" unicode="&#x150;" horiz-adv-x="1550" 
d="M774 -25q-197 0 -354.5 85.5t-245.5 236t-88 336.5q0 139 52 260.5t142 209t218.5 137.5t275.5 50q148 0 276.5 -50t218.5 -137.5t141.5 -209t51.5 -260.5q0 -186 -88 -336.5t-245.5 -236t-354.5 -85.5zM774 -8q92 0 163.5 36t117.5 95.5t76 143.5t42.5 174t12.5 192
q0 103 -12 192.5t-42 173t-76 143t-118 95t-164 35.5t-164 -36t-117.5 -95.5t-74.5 -143.5t-41 -173t-12 -191t12 -191.5t41.5 -173.5t75 -144t117.5 -96t163 -36zM537 1374l-5 2q20 42 48.5 106.5t44 100t34 70.5t31.5 51q26 34 61 41t62 -14q28 -22 31.5 -53.5
t-25.5 -71.5q-11 -14 -29.5 -31.5t-49 -42t-56 -44.5t-72 -55.5t-75.5 -58.5zM868 1374l-4 2q20 42 48.5 106.5t44 100t34 70.5t31.5 51q26 34 61 41t62 -14q28 -22 31.5 -53.5t-25.5 -71.5q-11 -14 -30 -31.5t-49 -41.5t-56.5 -45t-72 -55.5t-75.5 -58.5z" />
    <glyph glyph-name="ohungarumlaut" unicode="&#x151;" horiz-adv-x="1087" 
d="M543 -23q-124 0 -229 50.5t-171.5 153t-66.5 237.5q0 102 38.5 186.5t103.5 139t149 84.5t176 30t176 -30t149 -84.5t103.5 -139t38.5 -186.5q0 -135 -66.5 -237.5t-171.5 -153t-229 -50.5zM543 -6q217 0 217 424t-217 424q-215 0 -215 -424t215 -424zM291 965l-4 2
q22 48 60 134.5t58.5 129.5t36.5 63q27 34 62 41t61 -14q28 -22 31.5 -53.5t-23.5 -71.5q-11 -14 -29.5 -31.5t-48.5 -41.5t-56.5 -44.5t-71.5 -55t-76 -58.5zM623 965l-5 2q15 32 38.5 86t36.5 83.5t29.5 65t29 57.5t22.5 35q27 34 62 41t61 -14q28 -22 31.5 -53.5
t-23.5 -71.5q-14 -17 -44 -43t-60.5 -49.5t-86 -66.5t-91.5 -72z" />
    <glyph glyph-name="OE" unicode="&#x152;" horiz-adv-x="2127" 
d="M774 -25q-197 0 -353.5 83t-244.5 233.5t-88 341.5q0 190 88 340t244.5 233.5t353.5 83.5q33 0 159.5 -12t164.5 -12h876l29 -396l-10 -2q-21 94 -54.5 160.5t-91 118.5t-147.5 77t-215 25h-148v-610h47q185 0 272 67.5t116 215.5h10v-580h-10q-29 146 -116 213.5
t-272 67.5h-47v-609h166q104 0 185 23t133 58.5t91.5 92.5t61 110t41.5 126l10 -2l-38 -422h-887q-32 0 -160.5 -12.5t-165.5 -12.5zM774 -8q307 0 307 233v813q0 234 -307 234q-92 0 -164 -36t-117.5 -95.5t-74.5 -143.5t-41 -173t-12 -191t12 -191.5t41 -173.5t74.5 -144
t117.5 -96t164 -36z" />
    <glyph glyph-name="oe" unicode="&#x153;" horiz-adv-x="1683" 
d="M545 -23q-94 0 -178.5 30t-149.5 84.5t-103 139.5t-38 187q0 136 65.5 237.5t171 152t232.5 50.5q103 0 192 -38t148 -109q56 70 139.5 108.5t183.5 38.5q171 0 284 -103.5t116 -289.5h-602q-3 -207 71.5 -326t214.5 -119q102 0 178.5 57t122.5 136l13 -8
q-137 -228 -402 -228q-212 0 -323 140q-61 -68 -148.5 -104t-187.5 -36zM545 -6q217 0 217 424t-217 424t-217 -424t217 -424zM1202 844q-46 0 -82.5 -31.5t-59.5 -84.5t-36 -115t-16 -130h366q-1 33 -3 64.5t-8.5 76t-18.5 80.5t-30 69t-47 52t-65 19z" />
    <glyph glyph-name="Racute" unicode="&#x154;" horiz-adv-x="1423" 
d="M59 0v12q116 0 150.5 39.5t34.5 153.5v854q0 58 -6.5 91.5t-26.5 58t-55.5 33.5t-96.5 9v15h633q277 0 419 -86t142 -246q0 -302 -512 -320v-8q73 -1 129 -6.5t98.5 -17.5t72 -25t52 -37t36.5 -45t26.5 -57t20.5 -65t21.5 -77.5t25.5 -85.5q34 -103 73.5 -140.5
t126.5 -37.5v-12h-399q-35 69 -74 215q-8 30 -21 84q-39 153 -64 201q-39 73 -119 93q-42 11 -105 11h-141v-399q0 -59 6 -92t26 -58t55.5 -34t96.5 -9v-12h-625zM500 618h162q162 0 244.5 90t82.5 228q0 139 -84 226t-252 87h-153v-631zM563 1378l-4 4q38 53 94 134.5
t88 125t54 62.5q36 32 76 32t65 -30q25 -29 19 -67t-42 -70q-15 -12 -38.5 -27t-60.5 -34.5t-69.5 -36.5t-88 -45t-93.5 -48z" />
    <glyph glyph-name="racute" unicode="&#x155;" horiz-adv-x="849" 
d="M41 0v12q81 0 112 33.5t31 112.5v499q0 79 -31 112.5t-112 33.5v12l373 41v-266q39 113 111 190.5t161 77.5q67 0 104 -41t37 -98t-38.5 -96t-92.5 -39q-60 0 -99 43.5t-32 105.5q-94 -35 -147 -158v-417q0 -81 34.5 -113.5t118.5 -32.5v-12h-530zM317 969l-4 4
q38 52 94 133.5t88 125t54 62.5q36 32 76 32t65 -30q25 -29 19.5 -67t-41.5 -70q-18 -15 -56 -37t-74 -40.5t-106 -54t-115 -58.5z" />
    <glyph glyph-name="uni0156" unicode="&#x156;" horiz-adv-x="1423" 
d="M59 0v12q116 0 150.5 39.5t34.5 153.5v854q0 58 -6.5 91.5t-26.5 58t-55.5 33.5t-96.5 9v15h633q277 0 419 -86t142 -246q0 -302 -512 -320v-8q73 -1 129 -6.5t98.5 -17.5t72 -25t52 -37t36.5 -45t26.5 -57t20.5 -65t21.5 -77.5t25.5 -85.5q34 -103 73.5 -140.5
t126.5 -37.5v-12h-399q-35 69 -74 215q-8 30 -21 84q-39 153 -64 201q-39 73 -119 93q-42 11 -105 11h-141v-399q0 -59 6 -92t26 -58t55.5 -34t96.5 -9v-12h-625zM500 618h162q162 0 244.5 90t82.5 228q0 139 -84 226t-252 87h-153v-631zM612 -653l-6 10q91 32 154.5 105
t64.5 157q-28 -22 -69 -22q-49 0 -84 34.5t-35 81.5q0 50 37 84.5t92 34.5q60 0 95.5 -43t35.5 -111q0 -99 -73.5 -190.5t-211.5 -140.5z" />
    <glyph glyph-name="uni0157" unicode="&#x157;" horiz-adv-x="849" 
d="M41 0v12q81 0 112 33.5t31 112.5v499q0 79 -31 112.5t-112 33.5v12l373 41v-266q39 113 111 190.5t161 77.5q67 0 104 -41t37 -98t-38.5 -96t-92.5 -39q-60 0 -99 43.5t-32 105.5q-94 -35 -147 -158v-417q0 -81 34.5 -113.5t118.5 -32.5v-12h-530zM152 -653l-7 10
q91 32 155 105t65 157q-28 -22 -70 -22q-49 0 -84 34.5t-35 81.5q0 50 37 84.5t92 34.5q60 0 95.5 -43t35.5 -111q0 -64 -30 -125.5t-95.5 -117t-158.5 -88.5z" />
    <glyph glyph-name="Rcaron" unicode="&#x158;" horiz-adv-x="1423" 
d="M59 0v12q116 0 150.5 39.5t34.5 153.5v854q0 58 -6.5 91.5t-26.5 58t-55.5 33.5t-96.5 9v15h633q277 0 419 -86t142 -246q0 -302 -512 -320v-8q73 -1 129 -6.5t98.5 -17.5t72 -25t52 -37t36.5 -45t26.5 -57t20.5 -65t21.5 -77.5t25.5 -85.5q34 -103 73.5 -140.5
t126.5 -37.5v-12h-399q-35 69 -74 215q-8 30 -21 84q-39 153 -64 201q-39 73 -119 93q-42 11 -105 11h-141v-399q0 -59 6 -92t26 -58t55.5 -34t96.5 -9v-12h-625zM500 618h162q162 0 244.5 90t82.5 228q0 139 -84 226t-252 87h-153v-631zM702 1362q-46 0 -73 41l-230 295
l4 4l299 -164l297 164l5 -4l-228 -295q-30 -41 -74 -41z" />
    <glyph glyph-name="rcaron" unicode="&#x159;" horiz-adv-x="849" 
d="M41 0v12q81 0 112 33.5t31 112.5v499q0 79 -31 112.5t-112 33.5v12l373 41v-266q39 113 111 190.5t161 77.5q67 0 104 -41t37 -98t-38.5 -96t-92.5 -39q-60 0 -99 43.5t-32 105.5q-94 -35 -147 -158v-417q0 -81 34.5 -113.5t118.5 -32.5v-12h-530zM459 952q-44 0 -74 41
l-227 295l4 4l297 -164l299 164l4 -4l-230 -295q-27 -41 -73 -41z" />
    <glyph glyph-name="Sacute" unicode="&#x15a;" horiz-adv-x="1163" 
d="M563 -25q-180 0 -428 54l-22 385l12 2q63 -165 105 -233q100 -163 268 -188q33 -5 69 -5q145 0 220 69t75 174q0 59 -25 105.5t-67.5 78.5t-97.5 58.5t-116 50t-121.5 47.5t-115.5 57t-97.5 73t-67.5 100t-25 135q0 161 114.5 256.5t336.5 95.5q52 0 112 -6t100 -11
t91 -4.5t98 11.5l25 -397l-11 -2q-63 155 -106 222q-114 172 -303 173q-125 0 -192.5 -64.5t-67.5 -160.5q0 -56 25 -100.5t68 -75.5t98 -57t116 -49.5t122.5 -48.5t116.5 -59t98 -75.5t68 -102.5t25 -137q0 -172 -127.5 -271.5t-372.5 -99.5zM479 1378l-4 4q38 53 94 134.5
t88 125t54 62.5q36 32 76 32t65 -30q25 -29 19 -67t-42 -70q-15 -12 -38.5 -27t-60.5 -34.5t-69.5 -36.5t-88 -45t-93.5 -48z" />
    <glyph glyph-name="sacute" unicode="&#x15b;" horiz-adv-x="870" 
d="M422 -23q-131 0 -316 37l-12 262l10 3q17 -39 26.5 -59.5t28.5 -56t34.5 -55.5t40.5 -46t50.5 -39t60 -23t73.5 -10q95 0 140.5 45.5t45.5 105.5q0 41 -21.5 72.5t-57 51t-80.5 39t-92 34.5t-92 39t-80.5 52t-57 73.5t-21.5 103.5q0 118 86 185t248 67q44 0 107.5 -6.5
t94 -8t93.5 8.5l14 -274l-10 -3q-18 41 -34 73t-43 71.5t-56 65t-70.5 43.5t-87.5 18q-80 0 -121.5 -42.5t-41.5 -101.5q0 -45 28 -78t72.5 -54.5t98.5 -40.5t107.5 -42t98 -52.5t72.5 -79.5t28 -115q0 -124 -95 -193.5t-269 -69.5zM289 969l-4 4q29 42 73 105.5t67.5 97.5
t50.5 68.5t44 49.5q36 32 75.5 32t66.5 -30q25 -29 19 -67t-44 -70q-17 -15 -54.5 -37t-74 -41t-105 -53.5t-114.5 -58.5z" />
    <glyph glyph-name="Scircumflex" unicode="&#x15c;" horiz-adv-x="1163" 
d="M563 -25q-180 0 -428 54l-22 385l12 2q63 -165 105 -233q100 -163 268 -188q33 -5 69 -5q145 0 220 69t75 174q0 59 -25 105.5t-67.5 78.5t-97.5 58.5t-116 50t-121.5 47.5t-115.5 57t-97.5 73t-67.5 100t-25 135q0 161 114.5 256.5t336.5 95.5q52 0 112 -6t100 -11
t91 -4.5t98 11.5l25 -397l-11 -2q-63 155 -106 222q-114 172 -303 173q-125 0 -192.5 -64.5t-67.5 -160.5q0 -56 25 -100.5t68 -75.5t98 -57t116 -49.5t122.5 -48.5t116.5 -59t98 -75.5t68 -102.5t25 -137q0 -172 -127.5 -271.5t-372.5 -99.5zM299 1364l-4 4l227 295
q30 41 74 41q47 0 74 -41l229 -295l-4 -4l-299 164z" />
    <glyph glyph-name="scircumflex" unicode="&#x15d;" horiz-adv-x="870" 
d="M422 -23q-131 0 -316 37l-12 262l10 3q17 -39 26.5 -59.5t28.5 -56t34.5 -55.5t40.5 -46t50.5 -39t60 -23t73.5 -10q95 0 140.5 45.5t45.5 105.5q0 41 -21.5 72.5t-57 51t-80.5 39t-92 34.5t-92 39t-80.5 52t-57 73.5t-21.5 103.5q0 118 86 185t248 67q44 0 107.5 -6.5
t94 -8t93.5 8.5l14 -274l-10 -3q-18 41 -34 73t-43 71.5t-56 65t-70.5 43.5t-87.5 18q-80 0 -121.5 -42.5t-41.5 -101.5q0 -45 28 -78t72.5 -54.5t98.5 -40.5t107.5 -42t98 -52.5t72.5 -79.5t28 -115q0 -124 -95 -193.5t-269 -69.5zM141 954l-4 4l230 295q27 41 73 41
q44 0 74 -41l227 -295l-4 -4l-297 164z" />
    <glyph glyph-name="Scedilla" unicode="&#x15e;" horiz-adv-x="1163" 
d="M547 -449q-145 0 -238 66l6 10q70 -45 160 -45q74 0 118 41t44 105q0 58 -34 94.5t-95 36.5q-36 0 -78 -17l-4 4l117 129q-163 2 -408 54l-22 385l12 2q63 -165 105 -233q100 -163 268 -188q33 -5 69 -5q145 0 220 69t75 174q0 59 -25 105.5t-67.5 78.5t-97.5 58.5
t-116 50t-121.5 47.5t-115.5 57t-97.5 73t-67.5 100t-25 135q0 161 114.5 256.5t336.5 95.5q52 0 112 -6t100 -11t91 -4.5t98 11.5l25 -397l-11 -2q-63 155 -106 222q-114 172 -303 173q-125 0 -192.5 -64.5t-67.5 -160.5q0 -56 25 -100.5t68 -75.5t98 -57t116 -49.5
t122.5 -48.5t116.5 -59t98 -75.5t68 -102.5t25 -137q0 -172 -126 -271t-372 -100l-96 -106q47 14 113 14q106 0 169.5 -41.5t63.5 -117.5q0 -46 -24 -80.5t-63.5 -54t-85.5 -29t-95 -9.5z" />
    <glyph glyph-name="scedilla" unicode="&#x15f;" horiz-adv-x="870" 
d="M387 -449q-144 0 -237 66l6 10q70 -45 159 -45q74 0 118 41t44 105q0 58 -34 94.5t-95 36.5q-36 0 -78 -17l-4 4l121 131q-114 5 -281 37l-12 262l10 3q17 -39 26.5 -59.5t28.5 -56t34.5 -55.5t40.5 -46t50.5 -39t60 -23t73.5 -10q95 0 140.5 45.5t45.5 105.5
q0 41 -21.5 72.5t-57 51t-80.5 39t-92 34.5t-92 39t-80.5 52t-57 73.5t-21.5 103.5q0 118 86 185t248 67q44 0 107.5 -6.5t94 -8t93.5 8.5l14 -274l-10 -3q-18 41 -34 73t-43 71.5t-56 65t-70.5 43.5t-87.5 18q-80 0 -121.5 -42.5t-41.5 -101.5q0 -45 28 -78t72.5 -54.5
t98.5 -40.5t107.5 -42t98 -52.5t72.5 -79.5t28 -115q0 -125 -97.5 -194.5t-280.5 -68.5l-99 -108q47 14 113 14q106 0 169.5 -41.5t63.5 -117.5q0 -46 -24 -80.5t-63.5 -54t-85.5 -29t-95 -9.5z" />
    <glyph glyph-name="Scaron" unicode="&#x160;" horiz-adv-x="1163" 
d="M563 -25q-180 0 -428 54l-22 385l12 2q63 -165 105 -233q100 -163 268 -188q33 -5 69 -5q145 0 220 69t75 174q0 59 -25 105.5t-67.5 78.5t-97.5 58.5t-116 50t-121.5 47.5t-115.5 57t-97.5 73t-67.5 100t-25 135q0 161 114.5 256.5t336.5 95.5q52 0 112 -6t100 -11
t91 -4.5t98 11.5l25 -397l-11 -2q-63 155 -106 222q-114 172 -303 173q-125 0 -192.5 -64.5t-67.5 -160.5q0 -56 25 -100.5t68 -75.5t98 -57t116 -49.5t122.5 -48.5t116.5 -59t98 -75.5t68 -102.5t25 -137q0 -172 -127.5 -271.5t-372.5 -99.5zM598 1382q-47 0 -74 41
l-229 295l4 4l299 -163l297 163l4 -4l-227 -295q-30 -41 -74 -41z" />
    <glyph glyph-name="scaron" unicode="&#x161;" horiz-adv-x="870" 
d="M422 -23q-131 0 -316 37l-12 262l10 3q17 -39 26.5 -59.5t28.5 -56t34.5 -55.5t40.5 -46t50.5 -39t60 -23t73.5 -10q95 0 140.5 45.5t45.5 105.5q0 41 -21.5 72.5t-57 51t-80.5 39t-92 34.5t-92 39t-80.5 52t-57 73.5t-21.5 103.5q0 118 86 185t248 67q44 0 107.5 -6.5
t94 -8t93.5 8.5l14 -274l-10 -3q-18 41 -34 73t-43 71.5t-56 65t-70.5 43.5t-87.5 18q-80 0 -121.5 -42.5t-41.5 -101.5q0 -45 28 -78t72.5 -54.5t98.5 -40.5t107.5 -42t98 -52.5t72.5 -79.5t28 -115q0 -124 -95 -193.5t-269 -69.5zM436 952q-44 0 -74 41l-227 295l4 4
l297 -164l299 164l4 -4l-229 -295q-27 -41 -74 -41z" />
    <glyph glyph-name="uni0162" unicode="&#x162;" horiz-adv-x="1335" 
d="M336 0v12q120 0 162.5 42t42.5 161v1034h-17q-66 0 -120.5 -12.5t-95 -32.5t-74.5 -53.5t-56.5 -66.5t-43.5 -81.5t-33.5 -87.5t-28.5 -96l-13 2l37 445h1143l37 -445l-12 -2q-16 56 -29 95.5t-34 88t-43.5 81.5t-56.5 66.5t-74.5 53.5t-95 32.5t-120.5 12.5h-16v-1034
q0 -119 42 -161t162 -42v-12h-354l-100 -111q51 15 112 15q106 0 170 -42t64 -118q0 -60 -42.5 -100.5t-100 -56t-125.5 -15.5q-142 0 -238 66l8 10q67 -45 158 -45q75 0 118.5 40.5t43.5 104.5q0 58 -33.5 94.5t-95.5 36.5q-36 0 -76 -16l-6 4l123 133h-289z" />
    <glyph glyph-name="uni0163" unicode="&#x163;" horiz-adv-x="696" 
d="M369 -449q-142 0 -238 66l8 10q67 -45 158 -45q75 0 118.5 41t43.5 105q0 58 -33.5 94.5t-95.5 36.5q-34 0 -76 -17l-6 4l125 136q-93 12 -146 74.5t-53 172.5v582h-145v25h145v217l234 43v-260h254v-25h-254v-612q0 -158 112 -158q94 0 185 117l10 -8
q-149 -185 -322 -168l-102 -113q47 14 112 14q106 0 170 -41.5t64 -117.5q0 -46 -24 -80.5t-63.5 -54t-85.5 -29t-95 -9.5z" />
    <glyph glyph-name="Tcaron" unicode="&#x164;" horiz-adv-x="1335" 
d="M336 0v12q120 0 162.5 42t42.5 161v1034h-17q-66 0 -120.5 -12.5t-95 -32.5t-74.5 -53.5t-56.5 -66.5t-43.5 -81.5t-33.5 -87.5t-28.5 -96l-13 2l37 445h1143l37 -445l-12 -2q-16 56 -29 95.5t-34 88t-43.5 81.5t-56.5 66.5t-74.5 53.5t-95 32.5t-120.5 12.5h-16v-1034
q0 -119 42 -161t162 -42v-12h-663zM668 1362q-44 0 -74 41l-227 295l4 4l297 -164l299 164l4 -4l-230 -295q-27 -41 -73 -41z" />
    <glyph glyph-name="tcaron" unicode="&#x165;" horiz-adv-x="696" 
d="M553 965l-6 2q4 50 9 140.5t9.5 140t12.5 73.5q14 39 49 60t71 8q37 -12 51 -49t-1 -78q-6 -15 -18 -37t-34.5 -55.5t-39 -57.5t-51.5 -73.5t-52 -73.5zM414 -20q-109 0 -174.5 64t-65.5 185v582h-145v25h145v217l234 43v-260h254v-25h-254v-612q0 -158 112 -158
q94 0 185 117l10 -8q-59 -76 -130.5 -123t-170.5 -47z" />
    <glyph glyph-name="Tbar" unicode="&#x166;" horiz-adv-x="1337" 
d="M256 610v19h285v620h-15q-66 0 -120.5 -12.5t-95 -32.5t-74.5 -53.5t-57 -66.5t-44 -81t-34 -88t-29 -96l-11 2l35 445h1145l35 -445l-10 -2q-16 56 -29 96t-34 88t-44 81t-57.5 66.5t-75 53.5t-95 32.5t-120.5 12.5h-14v-620h286v-19h-286v-395q0 -119 42 -161t162 -42
v-12h-665v12q120 0 162.5 42t42.5 161v395h-285z" />
    <glyph glyph-name="tbar" unicode="&#x167;" horiz-adv-x="698" 
d="M41 487v19h133v305h-143v25h143v217l234 43v-260h256v-25h-256v-305h237v-19h-237v-288q0 -158 114 -158q54 0 98 32t87 85l10 -8q-41 -49 -75.5 -81.5t-95.5 -60.5t-130 -28q-111 0 -176.5 64t-65.5 185v258h-133z" />
    <glyph glyph-name="Utilde" unicode="&#x168;" horiz-adv-x="1429" 
d="M725 -25q-104 0 -192 24.5t-160 76t-113 141.5t-41 211v614q0 59 -6.5 94.5t-25.5 63.5t-55.5 39.5t-96.5 11.5v15h624v-15q-60 0 -96.5 -11.5t-55.5 -39.5t-25.5 -63.5t-6.5 -94.5v-659q0 -377 318 -377q170 0 271 106t101 304v207q0 107 -1 177t-6 140t-12 111
t-20.5 80t-31.5 59t-45 35.5t-60 20.5t-78 5v15h529v-15q-37 0 -65 -3.5t-52.5 -13.5t-42.5 -22t-32.5 -36t-24 -47.5t-16.5 -64.5t-11 -80t-6.5 -100.5t-3 -118.5t-0.5 -142v-207q0 -216 -118.5 -328.5t-342.5 -112.5zM461 1405q4 43 8 73.5t16 75t28 72t45.5 48t68.5 20.5
q53 0 160.5 -55.5t162.5 -55.5q31 0 53 10.5t33 31.5t16 38.5t9 44.5l10 -2q-5 -57 -14 -100t-26.5 -89.5t-50 -72t-77.5 -25.5q-44 0 -101.5 27.5t-116.5 55.5t-105 28q-31 0 -53 -11t-33 -31.5t-15.5 -39t-7.5 -43.5h-10z" />
    <glyph glyph-name="utilde" unicode="&#x169;" 
d="M408 -23q-107 0 -175.5 67t-68.5 204v409q0 79 -31.5 112.5t-112.5 33.5v12l377 41v-627q0 -168 135 -168q58 0 106 29t99 78v489q0 78 -30 112t-103 34v12l367 41v-698q0 -79 31 -112.5t112 -33.5v-12h-373v152q-170 -175 -333 -175zM250 995q4 43 8 73.5t16 75t28 72
t45.5 48t68.5 20.5q53 0 160.5 -55t162.5 -55q31 0 53 10.5t33 31t16 38.5t9 44l10 -2q-5 -57 -14 -100t-26.5 -89t-50 -71.5t-77.5 -25.5q-44 0 -101.5 27.5t-116.5 55t-105 27.5q-31 0 -53 -11t-33 -31.5t-15.5 -39t-7.5 -43.5h-10z" />
    <glyph glyph-name="Umacron" unicode="&#x16a;" horiz-adv-x="1429" 
d="M725 -25q-104 0 -192 24.5t-160 76t-113 141.5t-41 211v614q0 59 -6.5 94.5t-25.5 63.5t-55.5 39.5t-96.5 11.5v15h624v-15q-60 0 -96.5 -11.5t-55.5 -39.5t-25.5 -63.5t-6.5 -94.5v-659q0 -377 318 -377q170 0 271 106t101 304v207q0 107 -1 177t-6 140t-12 111
t-20.5 80t-31.5 59t-45 35.5t-60 20.5t-78 5v15h529v-15q-37 0 -65 -3.5t-52.5 -13.5t-42.5 -22t-32.5 -36t-24 -47.5t-16.5 -64.5t-11 -80t-6.5 -100.5t-3 -118.5t-0.5 -142v-207q0 -216 -118.5 -328.5t-342.5 -112.5zM475 1434v69h572v-69h-572z" />
    <glyph glyph-name="umacron" unicode="&#x16b;" 
d="M408 -23q-107 0 -175.5 67t-68.5 204v409q0 79 -31.5 112.5t-112.5 33.5v12l377 41v-627q0 -168 135 -168q58 0 106 29t99 78v489q0 78 -30 112t-103 34v12l367 41v-698q0 -79 31 -112.5t112 -33.5v-12h-373v152q-170 -175 -333 -175zM256 1024v70h571v-70h-571z" />
    <glyph glyph-name="Ubreve" unicode="&#x16c;" horiz-adv-x="1429" 
d="M725 -25q-104 0 -192 24.5t-160 76t-113 141.5t-41 211v614q0 59 -6.5 94.5t-25.5 63.5t-55.5 39.5t-96.5 11.5v15h624v-15q-60 0 -96.5 -11.5t-55.5 -39.5t-25.5 -63.5t-6.5 -94.5v-659q0 -377 318 -377q170 0 271 106t101 304v207q0 107 -1 177t-6 140t-12 111
t-20.5 80t-31.5 59t-45 35.5t-60 20.5t-78 5v15h529v-15q-37 0 -65 -3.5t-52.5 -13.5t-42.5 -22t-32.5 -36t-24 -47.5t-16.5 -64.5t-11 -80t-6.5 -100.5t-3 -118.5t-0.5 -142v-207q0 -216 -118.5 -328.5t-342.5 -112.5zM760 1384q-70 0 -121 33.5t-76.5 87.5t-37 107.5
t-11.5 107.5h6q16 -72 72 -121t168 -49q201 0 239 170h5q0 -55 -11 -108t-36.5 -107t-76 -87.5t-120.5 -33.5z" />
    <glyph glyph-name="ubreve" unicode="&#x16d;" 
d="M408 -23q-107 0 -175.5 67t-68.5 204v409q0 79 -31.5 112.5t-112.5 33.5v12l377 41v-627q0 -168 135 -168q58 0 106 29t99 78v489q0 78 -30 112t-103 34v12l367 41v-698q0 -79 31 -112.5t112 -33.5v-12h-373v152q-170 -175 -333 -175zM547 975q-70 0 -120.5 33.5
t-76 87.5t-36.5 107t-11 108h4q16 -72 72 -121t168 -49q201 0 239 170h7q0 -54 -11.5 -107.5t-37 -107.5t-76.5 -87.5t-121 -33.5z" />
    <glyph glyph-name="Uring" unicode="&#x16e;" horiz-adv-x="1429" 
d="M725 -25q-104 0 -192 24.5t-160 76t-113 141.5t-41 211v614q0 59 -6.5 94.5t-25.5 63.5t-55.5 39.5t-96.5 11.5v15h624v-15q-60 0 -96.5 -11.5t-55.5 -39.5t-25.5 -63.5t-6.5 -94.5v-659q0 -377 318 -377q170 0 271 106t101 304v207q0 107 -1 177t-6 140t-12 111
t-20.5 80t-31.5 59t-45 35.5t-60 20.5t-78 5v15h529v-15q-37 0 -65 -3.5t-52.5 -13.5t-42.5 -22t-32.5 -36t-24 -47.5t-16.5 -64.5t-11 -80t-6.5 -100.5t-3 -118.5t-0.5 -142v-207q0 -216 -118.5 -328.5t-342.5 -112.5zM760 1360q-102 0 -169 56t-67 145q0 90 67 146t169 56
t167.5 -56t65.5 -146q0 -89 -65.5 -145t-167.5 -56zM760 1368q80 0 80 193q0 192 -80 192q-84 0 -84 -192q0 -193 84 -193z" />
    <glyph glyph-name="uring" unicode="&#x16f;" 
d="M408 -23q-107 0 -175.5 67t-68.5 204v409q0 79 -31.5 112.5t-112.5 33.5v12l377 41v-627q0 -168 135 -168q58 0 106 29t99 78v489q0 78 -30 112t-103 34v12l367 41v-698q0 -79 31 -112.5t112 -33.5v-12h-373v152q-170 -175 -333 -175zM549 950q-102 0 -168 56t-66 145
q0 90 66 146.5t168 56.5t168.5 -56.5t66.5 -146.5q0 -89 -66.5 -145t-168.5 -56zM549 958q82 0 82 193q0 192 -82 192t-82 -192q0 -193 82 -193z" />
    <glyph glyph-name="Uhungarumlaut" unicode="&#x170;" horiz-adv-x="1429" 
d="M725 -25q-104 0 -192 24.5t-160 76t-113 141.5t-41 211v614q0 59 -6.5 94.5t-25.5 63.5t-55.5 39.5t-96.5 11.5v15h624v-15q-60 0 -96.5 -11.5t-55.5 -39.5t-25.5 -63.5t-6.5 -94.5v-659q0 -377 318 -377q170 0 271 106t101 304v207q0 107 -1 177t-6 140t-12 111
t-20.5 80t-31.5 59t-45 35.5t-60 20.5t-78 5v15h529v-15q-37 0 -65 -3.5t-52.5 -13.5t-42.5 -22t-32.5 -36t-24 -47.5t-16.5 -64.5t-11 -80t-6.5 -100.5t-3 -118.5t-0.5 -142v-207q0 -216 -118.5 -328.5t-342.5 -112.5zM508 1374l-4 2q20 42 48.5 106.5t44 100t34 70.5
t31.5 51q26 34 60.5 41t61.5 -14q28 -22 32 -53.5t-25 -71.5q-11 -14 -30 -31.5t-49 -41.5t-56.5 -45t-72 -55.5t-75.5 -58.5zM840 1374l-4 2q20 44 48 107l44 99t34 71t31 51q26 34 61 41t62 -14q28 -22 31.5 -53.5t-25.5 -71.5q-11 -14 -29.5 -31.5t-49 -42t-56 -44.5
t-72 -55.5t-75.5 -58.5z" />
    <glyph glyph-name="uhungarumlaut" unicode="&#x171;" 
d="M408 -23q-107 0 -175.5 67t-68.5 204v409q0 79 -31.5 112.5t-112.5 33.5v12l377 41v-627q0 -168 135 -168q58 0 106 29t99 78v489q0 78 -30 112t-103 34v12l367 41v-698q0 -79 31 -112.5t112 -33.5v-12h-373v152q-170 -175 -333 -175zM283 965l-4 2q22 48 60 134.5
t58.5 129.5t36.5 63q27 34 62 41t61 -14q28 -22 31.5 -53.5t-23.5 -71.5q-11 -14 -29.5 -31.5t-48.5 -41.5t-56.5 -44.5t-71.5 -55t-76 -58.5zM614 965l-4 2q15 32 38.5 86t36.5 83.5t29.5 65t29 57.5t22.5 35q27 34 62 41t61 -14q28 -22 31.5 -53.5t-23.5 -71.5
q-18 -21 -54 -51.5t-114 -90t-115 -89.5z" />
    <glyph glyph-name="Uogonek" unicode="&#x172;" horiz-adv-x="1429" 
d="M774 -442q-100 0 -157.5 42.5t-57.5 120.5q0 30 10 57.5t24 48.5t40.5 42.5t47 35.5t56 31t56 26t57.5 24q-54 -11 -125 -11q-104 0 -192 24.5t-160 76t-113 141.5t-41 211v614q0 59 -6.5 94.5t-25.5 63.5t-55.5 39.5t-96.5 11.5v15h624v-15q-60 0 -96.5 -11.5
t-55.5 -39.5t-25.5 -63.5t-6.5 -94.5v-659q0 -377 318 -377q170 0 271 106t101 304v207q0 107 -1.5 178t-6 140.5t-12 111t-21 80t-31.5 58.5t-45 35t-59.5 20t-77.5 5v15h529v-15q-37 0 -65 -3.5t-52.5 -13.5t-42.5 -22t-32.5 -36t-24 -47.5t-16.5 -64.5t-11 -80
t-6.5 -100.5t-3 -118.5t-0.5 -142v-207q0 -305 -250 -410q-30 -13 -47.5 -22t-48.5 -31t-49 -45t-32 -61.5t-14 -84.5q0 -161 160 -161q53 0 103 16l4 -10q-111 -49 -238 -49z" />
    <glyph glyph-name="uogonek" unicode="&#x173;" 
d="M848 -442q-100 0 -157.5 42.5t-57.5 120.5q0 29 9.5 56t22.5 47t38 41t44 34t54 30t53.5 25.5t57 24t51.5 21.5h-222v152q-170 -175 -333 -175q-107 0 -175.5 67t-68.5 204v409q0 79 -31.5 112.5t-112.5 33.5v12l377 41v-627q0 -168 135 -168q58 0 106 29t99 78v489
q0 78 -30 112t-103 34v12l367 41v-698q0 -79 31 -112.5t112 -33.5v-12h-119q-38 -20 -65 -39t-54.5 -47.5t-42 -67t-14.5 -86.5q0 -159 160 -159q52 0 102 16l4 -10q-111 -49 -237 -49z" />
    <glyph glyph-name="Wcircumflex" unicode="&#x174;" horiz-adv-x="1996" 
d="M647 -10l-414 993q-19 47 -33 76.5t-39.5 70t-51.5 64t-64.5 40.5t-83.5 17v15h639v-15q-75 0 -110 -29.5t-34 -80t31 -125.5l281 -705l233 598l-26 74q-49 128 -111.5 198t-154.5 70v15h651v-15q-215 0 -125 -256l242 -671l170 456q75 205 75 316q0 155 -176 155v15h518
v-15q-163 0 -254 -147q-8 -12 -15.5 -25.5t-15.5 -31t-14.5 -30.5t-16 -35.5t-15 -36t-16.5 -41.5t-16 -41t-18 -46.5t-18 -46.5l-297 -780h-14l-340 887l-352 -887h-15zM739 1364l-4 4l228 295q30 41 73 41q47 0 74 -41l229 -295l-4 -4l-299 164z" />
    <glyph glyph-name="wcircumflex" unicode="&#x175;" horiz-adv-x="1515" 
d="M502 -14l-307 643q-45 97 -94 144.5t-124 47.5v15h543v-15q-61 0 -88.5 -21.5t-25.5 -59t28 -95.5l176 -401l150 362l-17 35q-41 94 -77 137t-97 43v15h527v-15q-99 0 -123 -46.5t14 -129.5l150 -387l73 191q82 212 82 276q0 96 -127 96v15h385v-15q-136 0 -204 -110
q-9 -14 -19 -33.5t-17 -34.5t-19.5 -45t-18.5 -44.5t-22.5 -56.5t-22.5 -57l-187 -454h-12l-256 592l-258 -592h-12zM508 954l-4 4l227 295q30 41 74 41q47 0 74 -41l229 -295l-4 -4l-299 164z" />
    <glyph glyph-name="Ycircumflex" unicode="&#x176;" horiz-adv-x="1366" 
d="M365 0v12q63 0 103.5 13.5t62.5 44.5t30 72t8 104v268l-305 500q-71 114 -138 175.5t-149 61.5v15h664v-15q-109 0 -132 -60.5t40 -164.5l256 -428h4l106 180q85 145 120.5 223.5t35.5 128.5q0 121 -174 121v15h535v-15q-89 0 -154 -33.5t-119 -99.5q-31 -36 -74.5 -103
t-129.5 -206q-16 -27 -25 -41l-107 -178v-344q0 -126 41.5 -180t163.5 -54v-12h-663zM428 1364l-4 4l227 295q30 41 74 41q47 0 74 -41l229 -295l-4 -4l-299 164z" />
    <glyph glyph-name="ycircumflex" unicode="&#x177;" horiz-adv-x="1009" 
d="M182 -356q-100 0 -100 80q0 42 33.5 64t85 30.5t106 17.5t105 38t73.5 79l17 37l-305 639q-43 97 -92 144.5t-123 47.5v15h567v-15q-68 0 -101 -21t-32.5 -60t24.5 -95l174 -401l74 174q94 236 94 301q0 102 -131 102v15h396v-15q-135 0 -209 -123q-7 -11 -14.5 -24
t-17 -32.5t-16.5 -33.5t-19.5 -43t-19.5 -44.5t-24 -55t-25 -57.5l-208 -476q-128 -288 -312 -288zM250 954l-4 4l227 295q30 41 74 41q47 0 74 -41l229 -295l-4 -4l-299 164z" />
    <glyph glyph-name="Ydieresis" unicode="&#x178;" horiz-adv-x="1366" 
d="M365 0v12q63 0 103.5 13.5t62.5 44.5t30 72t8 104v268l-305 500q-71 114 -138 175.5t-149 61.5v15h664v-15q-109 0 -132 -60.5t40 -164.5l256 -428h4l106 180q85 145 120.5 223.5t35.5 128.5q0 121 -174 121v15h535v-15q-89 0 -154 -33.5t-119 -99.5q-31 -36 -74.5 -103
t-129.5 -206q-16 -27 -25 -41l-107 -178v-344q0 -126 41.5 -180t163.5 -54v-12h-663zM549 1415q-51 0 -88 36.5t-37 88.5t35.5 88.5t87.5 36.5q53 0 89 -36.5t36 -88.5t-36 -88.5t-87 -36.5zM913 1415q-51 0 -88 36.5t-37 88.5t35.5 88.5t87.5 36.5q53 0 89 -36.5t36 -88.5
t-36 -88.5t-87 -36.5z" />
    <glyph glyph-name="Zacute" unicode="&#x179;" horiz-adv-x="1251" 
d="M63 0l-2 4l799 1245h-342q-81 0 -149.5 -33.5t-117 -93t-82.5 -128t-58 -150.5h-11l31 422h1026l4 -4l-801 -1246h388q283 0 409 418l10 -2l-39 -432h-1065zM535 1378l-5 4q38 53 94 134.5t88 125t54 62.5q36 32 76 32t65 -30q25 -29 19.5 -67t-41.5 -70
q-15 -12 -38.5 -27t-60.5 -34.5t-69.5 -36.5t-88 -45t-93.5 -48z" />
    <glyph glyph-name="zacute" unicode="&#x17a;" horiz-adv-x="935" 
d="M76 0l-6 6l518 815h-176q-60 0 -113 -29t-91.5 -78t-65.5 -102t-44 -112h-12l33 336h725l6 -9l-516 -811h190q52 0 98.5 21t80 53t63 76.5t48 83t34.5 82.5l12 -2l-35 -330h-749zM360 969l-4 4q38 52 94 133.5t88 125t54 62.5q36 32 76 32t65 -30q25 -29 19.5 -67
t-41.5 -70q-18 -15 -56 -37t-74 -40.5t-106 -54t-115 -58.5z" />
    <glyph glyph-name="Zdotaccent" unicode="&#x17b;" horiz-adv-x="1251" 
d="M63 0l-2 4l799 1245h-342q-81 0 -149.5 -33.5t-117 -93t-82.5 -128t-58 -150.5h-11l31 422h1026l4 -4l-801 -1246h388q283 0 409 418l10 -2l-39 -432h-1065zM655 1415q-55 0 -93 38.5t-38 92.5t38 92.5t93 38.5q54 0 92.5 -38.5t38.5 -92.5t-38.5 -92.5t-92.5 -38.5z" />
    <glyph glyph-name="zdotaccent" unicode="&#x17c;" horiz-adv-x="935" 
d="M76 0l-6 6l518 815h-176q-60 0 -113 -29t-91.5 -78t-65.5 -102t-44 -112h-12l33 336h725l6 -9l-516 -811h190q52 0 98.5 21t80 53t63 76.5t48 83t34.5 82.5l12 -2l-35 -330h-749zM489 1006q-54 0 -92.5 38.5t-38.5 92.5t38.5 92.5t92.5 38.5t93 -38.5t39 -92.5t-39 -92.5
t-93 -38.5z" />
    <glyph glyph-name="Zcaron" unicode="&#x17d;" horiz-adv-x="1251" 
d="M63 0l-2 4l799 1245h-342q-81 0 -149.5 -33.5t-117 -93t-82.5 -128t-58 -150.5h-11l31 422h1026l4 -4l-801 -1246h388q283 0 409 418l10 -2l-39 -432h-1065zM647 1362q-47 0 -74 41l-229 295l4 4l299 -164l297 164l4 -4l-227 -295q-30 -41 -74 -41z" />
    <glyph glyph-name="zcaron" unicode="&#x17e;" horiz-adv-x="935" 
d="M76 0l-6 6l518 815h-176q-60 0 -113 -29t-91.5 -78t-65.5 -102t-44 -112h-12l33 336h725l6 -9l-516 -811h190q52 0 98.5 21t80 53t63 76.5t48 83t34.5 82.5l12 -2l-35 -330h-749zM485 952q-46 0 -73 41l-230 295l4 4l299 -164l297 164l4 -4l-227 -295q-30 -41 -74 -41z
" />
    <glyph glyph-name="AEacute" unicode="&#x1fc;" horiz-adv-x="2039" 
d="M-84 0v12q44 0 87.5 13.5t79.5 33t76.5 55t69.5 65t67.5 78.5t61.5 80t60 83l545 780q-34 51 -154 51v15h1077l29 -396l-10 -2q-21 94 -54.5 160.5t-91 118.5t-147.5 77t-215 25h-148v-610h47q185 0 271.5 67.5t115.5 215.5h11v-580h-11q-29 147 -116 214t-271 67h-47
v-609h166q104 0 185 23t133 58.5t91.5 92.5t61 110t41.5 126l10 -2l-39 -422h-1089v12q61 0 96.5 9t55.5 34t26 58t6 92v248h-528l-31 -47q-59 -84 -90 -153t-32 -124t42 -86t129 -31v-12h-567zM477 471h516v588q0 93 -20 125zM1221 1378l-4 4q30 42 73 105t67 98t51 69.5
t44 49.5q36 32 75 32t66 -30q25 -29 19.5 -67t-43.5 -70q-17 -15 -54.5 -37t-73.5 -41t-106 -54.5t-114 -58.5z" />
    <glyph glyph-name="aeacute" unicode="&#x1fd;" horiz-adv-x="1552" 
d="M367 -23q-133 0 -212 63.5t-79 170.5q0 117 95.5 176t244.5 59q122 0 229 -34v206q0 109 -38.5 168.5t-137.5 59.5q-124 0 -188 -103q36 -13 58.5 -46t22.5 -72q0 -52 -35.5 -87.5t-88.5 -35.5q-56 0 -89.5 39t-33.5 92q0 93 102.5 159t261.5 66q206 0 303 -117
q117 117 295 117q111 0 200 -44t144 -134.5t58 -214.5h-602q-5 -207 69 -326t217 -119q100 0 176.5 56.5t124.5 136.5l13 -8q-142 -228 -404 -228q-247 0 -358 181q-133 -181 -348 -181zM479 27q126 0 226 147q-57 96 -60 221q-97 27 -143 27q-87 0 -136 -50.5t-49 -146.5
q0 -92 43.5 -145t118.5 -53zM1073 844q-46 0 -83 -31.5t-60 -84t-36.5 -115t-16.5 -130.5h366q0 39 -3 79t-13.5 93.5t-28 93t-50 67.5t-75.5 28zM653 969l-4 4q38 52 94 133.5t88 125t54 62.5q36 32 76 32t65 -30q25 -29 19.5 -67t-41.5 -70q-18 -15 -56 -37t-74 -40.5
t-106 -54t-115 -58.5z" />
    <glyph glyph-name="Oslashacute" unicode="&#x1fe;" horiz-adv-x="1550" 
d="M598 1399l-4 4q39 53 94 134t87 124.5t54 62.5q36 32 76.5 32t65.5 -30q25 -29 19 -67t-42 -70q-18 -15 -56 -37t-73 -40.5t-106.5 -54.5t-114.5 -58zM776 -25q-247 0 -430 134l-131 -154l-14 12l129 154q-115 90 -178.5 222t-63.5 290q0 139 51.5 260.5t141.5 209
t218.5 137.5t276.5 50q246 0 428 -135l131 154l17 -15l-129 -151q114 -90 177.5 -222.5t63.5 -287.5q0 -186 -88 -336.5t-245.5 -236t-354.5 -85.5zM776 -8q92 0 163.5 36t117 95.5t75.5 143.5t42 173.5t12 192.5q0 233 -68 387l-678 -799q102 -229 336 -229zM776 1272
q-92 0 -164 -36t-118 -95.5t-75.5 -143t-41.5 -173t-12 -191.5q0 -230 67 -391l678 800q-102 230 -334 230z" />
    <glyph glyph-name="oslashacute" unicode="&#x1ff;" horiz-adv-x="1087" 
d="M381 969l-4 4q39 53 94 134t87 124.5t54 62.5q36 32 76.5 32t65.5 -30q25 -29 19 -67t-42 -70q-18 -15 -56 -37t-73 -40.5t-106.5 -54.5t-114.5 -58zM543 -23q-169 0 -295 91l-94 -107l-13 10l92 107q-157 124 -157 340q0 102 38.5 186.5t103.5 139t149 84.5t176 30
q167 0 295 -92l94 108l12 -10l-94 -108q75 -57 117.5 -144t42.5 -194q0 -135 -66.5 -237.5t-171.5 -153t-229 -50.5zM543 -6q217 0 217 424q0 126 -27 211l-375 -441q45 -194 185 -194zM543 842q-215 0 -215 -424q0 -135 24 -211l375 440q-48 195 -184 195z" />
    <glyph glyph-name="uni0218" unicode="&#x218;" horiz-adv-x="1163" 
d="M563 -25q-180 0 -428 54l-22 385l12 2q63 -165 105 -233q100 -163 268 -188q33 -5 69 -5q145 0 220 69t75 174q0 59 -25 105.5t-67.5 78.5t-97.5 58.5t-116 50t-121.5 47.5t-115.5 57t-97.5 73t-67.5 100t-25 135q0 161 114.5 256.5t336.5 95.5q52 0 112 -6t100 -11
t91 -4.5t98 11.5l25 -397l-11 -2q-63 155 -106 222q-114 172 -303 173q-125 0 -192.5 -64.5t-67.5 -160.5q0 -56 25 -100.5t68 -75.5t98 -57t116 -49.5t122.5 -48.5t116.5 -59t98 -75.5t68 -102.5t25 -137q0 -172 -127.5 -271.5t-372.5 -99.5zM446 -653l-6 10
q91 32 154.5 105t64.5 157q-28 -22 -69 -22q-49 0 -84 34.5t-35 81.5q0 50 37 84.5t92 34.5q60 0 95.5 -43t35.5 -111q0 -99 -73.5 -190.5t-211.5 -140.5z" />
    <glyph glyph-name="uni0219" unicode="&#x219;" horiz-adv-x="870" 
d="M422 -23q-131 0 -316 37l-12 262l10 3q17 -39 26.5 -59.5t28.5 -56t34.5 -55.5t40.5 -46t50.5 -39t60 -23t73.5 -10q95 0 140.5 45.5t45.5 105.5q0 41 -21.5 72.5t-57 51t-80.5 39t-92 34.5t-92 39t-80.5 52t-57 73.5t-21.5 103.5q0 118 86 185t248 67q44 0 107.5 -6.5
t94 -8t93.5 8.5l14 -274l-10 -3q-18 41 -34 73t-43 71.5t-56 65t-70.5 43.5t-87.5 18q-80 0 -121.5 -42.5t-41.5 -101.5q0 -45 28 -78t72.5 -54.5t98.5 -40.5t107.5 -42t98 -52.5t72.5 -79.5t28 -115q0 -124 -95 -193.5t-269 -69.5zM301 -653l-6 10q90 32 153 105t66 157
q-31 -22 -70 -22q-49 0 -83.5 34t-34.5 82q0 50 36 84.5t91 34.5q61 0 96 -43t35 -111q0 -64 -29.5 -125.5t-95 -117t-158.5 -88.5z" />
    <glyph glyph-name="uni021A" unicode="&#x21a;" horiz-adv-x="1335" 
d="M336 0v12q120 0 162.5 42t42.5 161v1034h-17q-66 0 -120.5 -12.5t-95 -32.5t-74.5 -53.5t-56.5 -66.5t-43.5 -81.5t-33.5 -87.5t-28.5 -96l-13 2l37 445h1143l37 -445l-12 -2q-16 56 -29 95.5t-34 88t-43.5 81.5t-56.5 66.5t-74.5 53.5t-95 32.5t-120.5 12.5h-16v-1034
q0 -119 42 -161t162 -42v-12h-663zM528 -653l-6 10q90 32 153 105t66 157q-31 -22 -69 -22q-49 0 -84 34.5t-35 81.5q0 50 36 84.5t91 34.5q61 0 96 -43t35 -111q0 -64 -29.5 -125.5t-95 -117t-158.5 -88.5z" />
    <glyph glyph-name="uni021B" unicode="&#x21b;" horiz-adv-x="696" 
d="M414 -20q-109 0 -174.5 64t-65.5 185v582h-145v25h145v217l234 43v-260h254v-25h-254v-612q0 -158 112 -158q94 0 185 117l10 -8q-59 -76 -130.5 -123t-170.5 -47zM258 -653l-6 10q90 32 153 105t66 157q-31 -22 -70 -22q-49 0 -83.5 34t-34.5 82q0 50 36 84.5t91 34.5
q61 0 96 -43t35 -111q0 -64 -29.5 -125.5t-95 -117t-158.5 -88.5z" />
    <glyph glyph-name="circumflex" unicode="&#x2c6;" horiz-adv-x="905" 
d="M156 954l-4 4l229 295q27 41 74 41q43 0 73 -41l228 -295l-4 -4l-297 164z" />
    <glyph glyph-name="caron" unicode="&#x2c7;" horiz-adv-x="886" 
d="M455 952q-47 0 -74 41l-229 295l4 4l299 -164l297 164l4 -4l-228 -295q-30 -41 -73 -41z" />
    <glyph glyph-name="breve" unicode="&#x2d8;" horiz-adv-x="722" 
d="M365 975q-70 0 -120.5 33.5t-76 87.5t-36.5 107t-11 108h4q16 -72 72 -121t168 -49q201 0 239 170h6q0 -42 -6.5 -84.5t-23.5 -89t-43.5 -81.5t-71 -58t-100.5 -23z" />
    <glyph glyph-name="dotaccent" unicode="&#x2d9;" horiz-adv-x="598" 
d="M309 1006q-55 0 -93 38.5t-38 92.5t38 92.5t93 38.5q54 0 92.5 -38.5t38.5 -92.5t-38.5 -92.5t-92.5 -38.5z" />
    <glyph glyph-name="ring" unicode="&#x2da;" horiz-adv-x="673" 
d="M336 950q-102 0 -168 56t-66 145q0 90 66 146.5t168 56.5t168.5 -56.5t66.5 -146.5q0 -89 -66.5 -145t-168.5 -56zM336 958q82 0 82 193q0 192 -82 192t-82 -192q0 -193 82 -193z" />
    <glyph glyph-name="ogonek" unicode="&#x2db;" horiz-adv-x="702" 
d="M348 -442q-100 0 -157.5 42.5t-57.5 120.5q0 42 20 79t48.5 62.5t72.5 50.5t79.5 40t83.5 34.5t71 30.5l6 -10q-42 -21 -68.5 -38.5t-59 -47.5t-48.5 -70.5t-16 -91.5q0 -159 159 -159q53 0 103 16l4 -10q-114 -49 -240 -49z" />
    <glyph glyph-name="tilde" unicode="&#x2dc;" horiz-adv-x="829" 
d="M119 995q3 35 6.5 60.5t11 63t19 63.5t29 51t43.5 38t59 13q44 0 101.5 -27.5t116.5 -55t105 -27.5q25 0 44.5 8t30.5 19t18.5 29t10.5 33t5 35l10 -2q-3 -44 -8.5 -79.5t-18 -75.5t-29.5 -67.5t-46 -45.5t-66 -18q-43 0 -100 27.5t-116 55t-105 27.5q-31 0 -53 -11
t-33 -32t-16 -38.5t-9 -43.5h-10z" />
    <glyph glyph-name="hungarumlaut" unicode="&#x2dd;" horiz-adv-x="944" 
d="M162 965l-4 2q20 43 48 106.5t44 99t34 70.5t31 51q26 34 61 41t62 -14q28 -22 31.5 -53.5t-25.5 -71.5q-11 -14 -29.5 -31.5t-48.5 -41.5t-56.5 -44.5t-71.5 -55t-76 -58.5zM494 965l-5 2q19 42 48 106.5t44.5 99.5t34 70t31.5 51q26 34 61 41t62 -14q28 -22 31.5 -53.5
t-25.5 -71.5q-11 -14 -29.5 -31.5t-48.5 -41.5t-56.5 -44.5t-71.5 -55t-76 -58.5z" />
    <glyph glyph-name="Wgrave" unicode="&#x1e80;" horiz-adv-x="1996" 
d="M647 -10l-414 993q-19 47 -33 76.5t-39.5 70t-51.5 64t-64.5 40.5t-83.5 17v15h639v-15q-75 0 -110 -29.5t-34 -80t31 -125.5l281 -705l233 598l-26 74q-49 128 -111.5 198t-154.5 70v15h651v-15q-215 0 -125 -256l242 -671l170 456q75 205 75 316q0 155 -176 155v15h518
v-15q-163 0 -254 -147q-8 -12 -15.5 -25.5t-15.5 -31t-14.5 -30.5t-16 -35.5t-15 -36t-16.5 -41.5t-16 -41t-18 -46.5t-18 -46.5l-297 -780h-14l-340 887l-352 -887h-15zM1176 1376q-47 25 -114.5 60t-105 54.5t-74.5 41.5t-55 37q-36 32 -41.5 70t19.5 67q25 30 65 30
t76 -32q17 -15 43.5 -49.5t50.5 -69.5t67 -98.5t73 -106.5z" />
    <glyph glyph-name="wgrave" unicode="&#x1e81;" horiz-adv-x="1515" 
d="M502 -14l-307 643q-45 97 -94 144.5t-124 47.5v15h543v-15q-61 0 -88.5 -21.5t-25.5 -59t28 -95.5l176 -401l150 362l-17 35q-41 94 -77 137t-97 43v15h527v-15q-99 0 -123 -46.5t14 -129.5l150 -387l73 191q82 212 82 276q0 96 -127 96v15h385v-15q-136 0 -204 -110
q-9 -14 -19 -33.5t-17 -34.5t-19.5 -45t-18.5 -44.5t-22.5 -56.5t-22.5 -57l-187 -454h-12l-256 592l-258 -592h-12zM922 967q-47 25 -115.5 60t-105.5 54t-74 41t-54 37q-38 32 -43.5 70t19.5 67q27 30 66 30t75 -32q22 -19 53.5 -61.5t89 -127t93.5 -134.5z" />
    <glyph glyph-name="Wacute" unicode="&#x1e82;" horiz-adv-x="1996" 
d="M647 -10l-414 993q-19 47 -33 76.5t-39.5 70t-51.5 64t-64.5 40.5t-83.5 17v15h639v-15q-75 0 -110 -29.5t-34 -80t31 -125.5l281 -705l233 598l-26 74q-49 128 -111.5 198t-154.5 70v15h651v-15q-215 0 -125 -256l242 -671l170 456q75 205 75 316q0 155 -176 155v15h518
v-15q-163 0 -254 -147q-8 -12 -15.5 -25.5t-15.5 -31t-14.5 -30.5t-16 -35.5t-15 -36t-16.5 -41.5t-16 -41t-18 -46.5t-18 -46.5l-297 -780h-14l-340 887l-352 -887h-15zM909 1378l-4 4q29 41 73 105t68 98.5t51 69t44 49.5q36 32 75 32t66 -30q25 -29 19 -67t-44 -70
q-17 -15 -54.5 -37t-73.5 -41t-106 -54.5t-114 -58.5z" />
    <glyph glyph-name="wacute" unicode="&#x1e83;" horiz-adv-x="1515" 
d="M502 -14l-307 643q-45 97 -94 144.5t-124 47.5v15h543v-15q-61 0 -88.5 -21.5t-25.5 -59t28 -95.5l176 -401l150 362l-17 35q-41 94 -77 137t-97 43v15h527v-15q-99 0 -123 -46.5t14 -129.5l150 -387l73 191q82 212 82 276q0 96 -127 96v15h385v-15q-136 0 -204 -110
q-9 -14 -19 -33.5t-17 -34.5t-19.5 -45t-18.5 -44.5t-22.5 -56.5t-22.5 -57l-187 -454h-12l-256 592l-258 -592h-12zM682 969l-4 4q29 42 73 105.5t67.5 97.5t50.5 68.5t44 49.5q36 32 75.5 32t66.5 -30q25 -29 19 -67t-44 -70q-17 -15 -54.5 -37t-74 -41t-105 -53.5
t-114.5 -58.5z" />
    <glyph glyph-name="Wdieresis" unicode="&#x1e84;" horiz-adv-x="1996" 
d="M647 -10l-414 993q-19 47 -33 76.5t-39.5 70t-51.5 64t-64.5 40.5t-83.5 17v15h639v-15q-75 0 -110 -29.5t-34 -80t31 -125.5l281 -705l233 598l-26 74q-49 128 -111.5 198t-154.5 70v15h651v-15q-215 0 -125 -256l242 -671l170 456q75 205 75 316q0 155 -176 155v15h518
v-15q-163 0 -254 -147q-8 -12 -15.5 -25.5t-15.5 -31t-14.5 -30.5t-16 -35.5t-15 -36t-16.5 -41.5t-16 -41t-18 -46.5t-18 -46.5l-297 -780h-14l-340 887l-352 -887h-15zM854 1415q-51 0 -88 36.5t-37 88.5t35.5 88.5t87.5 36.5q51 0 88 -36.5t37 -88.5t-36.5 -88.5
t-86.5 -36.5zM1217 1415q-51 0 -87 36.5t-36 88.5t35.5 88.5t87.5 36.5q51 0 87.5 -36.5t36.5 -88.5t-36.5 -88.5t-87.5 -36.5z" />
    <glyph glyph-name="wdieresis" unicode="&#x1e85;" horiz-adv-x="1515" 
d="M502 -14l-307 643q-45 97 -94 144.5t-124 47.5v15h543v-15q-61 0 -88.5 -21.5t-25.5 -59t28 -95.5l176 -401l150 362l-17 35q-41 94 -77 137t-97 43v15h527v-15q-99 0 -123 -46.5t14 -129.5l150 -387l73 191q82 212 82 276q0 96 -127 96v15h385v-15q-136 0 -204 -110
q-9 -14 -19 -33.5t-17 -34.5t-19.5 -45t-18.5 -44.5t-22.5 -56.5t-22.5 -57l-187 -454h-12l-256 592l-258 -592h-12zM600 1006q-51 0 -88 36t-37 88t35.5 88.5t87.5 36.5q51 0 88 -36.5t37 -88.5t-36.5 -88t-86.5 -36zM963 1006q-51 0 -87 36t-36 88t35.5 88.5t87.5 36.5
q51 0 87.5 -36.5t36.5 -88.5t-36.5 -88t-87.5 -36z" />
    <glyph glyph-name="Ygrave" unicode="&#x1ef2;" horiz-adv-x="1366" 
d="M365 0v12q63 0 103.5 13.5t62.5 44.5t30 72t8 104v268l-305 500q-71 114 -138 175.5t-149 61.5v15h664v-15q-109 0 -132 -60.5t40 -164.5l256 -428h4l106 180q85 145 120.5 223.5t35.5 128.5q0 121 -174 121v15h535v-15q-89 0 -154 -33.5t-119 -99.5q-31 -36 -74.5 -103
t-129.5 -206q-16 -27 -25 -41l-107 -178v-344q0 -126 41.5 -180t163.5 -54v-12h-663zM842 1376q-47 25 -114.5 60t-104.5 54.5t-74 41.5t-55 37q-36 32 -42 70t19 67q25 30 65 30t76 -32q17 -15 43.5 -49.5t50.5 -69.5t67 -98.5t73 -106.5z" />
    <glyph glyph-name="ygrave" unicode="&#x1ef3;" horiz-adv-x="1009" 
d="M182 -356q-100 0 -100 80q0 42 33.5 64t85 30.5t106 17.5t105 38t73.5 79l17 37l-305 639q-43 97 -92 144.5t-123 47.5v15h567v-15q-68 0 -101 -21t-32.5 -60t24.5 -95l174 -401l74 174q94 236 94 301q0 102 -131 102v15h396v-15q-135 0 -209 -123q-7 -11 -14.5 -24
t-17 -32.5t-16.5 -33.5t-19.5 -43t-19.5 -44.5t-24 -55t-25 -57.5l-208 -476q-128 -288 -312 -288zM676 967q-51 27 -143.5 74.5t-137 73t-67.5 44.5q-36 32 -42 70t19 67q25 30 65 30t76 -32q17 -15 44 -49.5t50 -68.5t67 -98.5t73 -106.5z" />
    <glyph glyph-name="endash" unicode="&#x2013;" horiz-adv-x="1181" 
d="M121 442v74h938v-74h-938z" />
    <glyph glyph-name="emdash" unicode="&#x2014;" horiz-adv-x="1787" 
d="M121 442v74h1544v-74h-1544z" />
    <glyph glyph-name="quoteleft" unicode="&#x2018;" horiz-adv-x="475" 
d="M395 1366l6 -10q-99 -35 -168.5 -115t-72.5 -172q36 25 78 25q55 0 94 -38.5t39 -92.5q0 -55 -41.5 -93.5t-102.5 -38.5q-66 0 -105.5 48t-39.5 122q0 108 81 210t232 155z" />
    <glyph glyph-name="quoteright" unicode="&#x2019;" horiz-adv-x="487" 
d="M106 829l-6 11q99 35 169 114.5t73 171.5q-34 -24 -78 -24q-55 0 -94 38.5t-39 92.5q0 55 41 93t102 38q66 0 106 -48t40 -122q0 -108 -81.5 -210t-232.5 -155z" />
    <glyph glyph-name="quotesinglbase" unicode="&#x201a;" horiz-adv-x="499" 
d="M80 -272l-6 10q98 35 167 114.5t72 172.5q-31 -25 -77 -25q-54 0 -93 38.5t-39 92.5q0 55 40.5 93t101.5 38q67 0 106 -48t39 -122q0 -108 -80.5 -209.5t-230.5 -154.5z" />
    <glyph glyph-name="quotedblleft" unicode="&#x201c;" horiz-adv-x="888" 
d="M395 1366l6 -10q-99 -35 -168.5 -115t-72.5 -172q36 25 78 25q55 0 94 -38.5t39 -92.5q0 -55 -41.5 -93.5t-102.5 -38.5q-66 0 -105.5 48t-39.5 122q0 108 81 210t232 155zM809 1366l6 -10q-99 -35 -169 -115t-73 -172q36 25 78 25q55 0 94 -38.5t39 -92.5
q0 -55 -41 -93.5t-102 -38.5q-66 0 -105.5 48t-39.5 122q0 108 81 210t232 155z" />
    <glyph glyph-name="quotedblright" unicode="&#x201d;" horiz-adv-x="901" 
d="M106 829l-6 11q99 35 169 114.5t73 171.5q-34 -24 -78 -24q-55 0 -94 38.5t-39 92.5q0 55 41 93t102 38q66 0 106 -48t40 -122q0 -108 -81.5 -210t-232.5 -155zM520 829l-6 11q99 35 169 114.5t73 171.5q-34 -24 -78 -24q-55 0 -94 38.5t-39 92.5q0 55 41 93t102 38
q66 0 106 -48t40 -122q0 -108 -81.5 -210t-232.5 -155z" />
    <glyph glyph-name="quotedblbase" unicode="&#x201e;" horiz-adv-x="913" 
d="M80 -272l-6 10q98 35 167 114.5t72 172.5q-31 -25 -77 -25q-54 0 -93 38.5t-39 92.5q0 55 40.5 93t101.5 38q67 0 106 -48t39 -122q0 -108 -80.5 -209.5t-230.5 -154.5zM494 -272l-7 10q99 35 168 114.5t72 172.5q-31 -25 -78 -25q-54 0 -92.5 38.5t-38.5 92.5
q0 55 40 93t101 38q67 0 106.5 -48t39.5 -122q0 -108 -80.5 -209.5t-230.5 -154.5z" />
    <glyph glyph-name="dagger" unicode="&#x2020;" horiz-adv-x="1050" 
d="M524 -354q-110 0 -110 145q0 53 15.5 152.5t35 206.5t36 292t17.5 389q-45 0 -81.5 -1.5t-66 -6t-51.5 -7.5t-39.5 -12t-29 -14t-20.5 -19t-14 -21t-9.5 -26t-6 -28.5t-5.5 -33.5q-2 -19 -13 -19q-27 0 -56.5 65t-29.5 126q0 47 22.5 73.5t61.5 26.5q32 0 86 -22
t121 -44.5t131 -23.5q-2 64 -25.5 142.5t-46 145.5t-22.5 105q0 53 27.5 83t72.5 30t74 -30t29 -83q0 -38 -23.5 -105t-47 -145.5t-24.5 -142.5q62 1 128.5 23.5t121 44.5t88.5 22q37 0 59.5 -26.5t22.5 -73.5q0 -60 -29.5 -125.5t-54.5 -65.5q-12 0 -14 19q-12 75 -27 99
q-31 48 -140 62q-59 7 -155 8q1 -203 17 -388t35 -292t35 -207.5t16 -154.5q0 -143 -111 -143z" />
    <glyph glyph-name="daggerdbl" unicode="&#x2021;" horiz-adv-x="1050" 
d="M524 -373q-45 0 -72.5 30t-27.5 83q0 41 46 176.5t48 214.5q-64 -1 -131 -23t-121 -43.5t-86 -21.5q-39 0 -61.5 25.5t-22.5 74.5q0 60 30 124.5t56 64.5q11 0 13 -19q12 -75 28 -100q31 -48 143 -61q59 -7 152 -7q-3 64 -37.5 177t-34.5 165q0 51 34.5 165t37.5 179
q-45 0 -81.5 -1.5t-66 -6t-51.5 -7.5t-39.5 -12t-29 -14t-20.5 -19t-14 -21t-9.5 -26t-6 -28.5t-5.5 -33.5q-2 -19 -13 -19q-27 0 -56.5 65t-29.5 126q0 47 22.5 73.5t61.5 26.5q32 0 86 -22t121 -44.5t131 -23.5q-2 64 -25.5 142.5t-46 145.5t-22.5 105q0 53 27.5 83
t72.5 30t74 -30t29 -83q0 -38 -23.5 -105t-47 -145.5t-24.5 -142.5q62 1 128.5 23.5t121 44.5t88.5 22q37 0 59.5 -26.5t22.5 -73.5q0 -60 -29.5 -125.5t-54.5 -65.5q-12 0 -14 19q-12 75 -27 99q-31 48 -140 62q-59 7 -155 8q2 -64 42 -177t40 -167q0 -52 -40 -165
t-42 -177q110 0 172.5 7.5t93.5 33t39 47t16 75.5q1 3 1 5q2 19 14 19q25 0 54.5 -65t29.5 -124q0 -48 -22 -74t-60 -26q-34 0 -88.5 21.5t-121 43.5t-128.5 23q1 -63 24.5 -141t47 -145.5t23.5 -104.5q0 -53 -29 -83t-74 -30z" />
    <glyph glyph-name="bullet" unicode="&#x2022;" horiz-adv-x="724" 
d="M362 295q-85 0 -143.5 59t-58.5 144q0 84 59 143t143 59q83 0 143 -59.5t60 -142.5q0 -84 -59.5 -143.5t-143.5 -59.5z" />
    <glyph glyph-name="ellipsis" unicode="&#x2026;" horiz-adv-x="1634" 
d="M244 -16q-59 0 -99.5 40.5t-40.5 98.5t40.5 98.5t99.5 40.5q58 0 98.5 -40t40.5 -99t-40.5 -99t-98.5 -40zM817 -16q-59 0 -99 40t-40 99t40 99t99 40t99 -40t40 -99t-40 -99t-99 -40zM1391 -16q-59 0 -99.5 40.5t-40.5 98.5t40.5 98.5t99.5 40.5t99 -40t40 -99t-40 -99
t-99 -40z" />
    <glyph glyph-name="perthousand" unicode="&#x2030;" horiz-adv-x="2232" 
d="M393 614q-133 0 -229 91.5t-96 244.5t96 244.5t229 91.5q86 0 161.5 -41t119.5 -115q71 -22 137 -22q71 0 160 22.5t170 59.5q9 17 19 47.5t19.5 45.5t26.5 15q14 0 23.5 -9.5t9.5 -26.5q0 -49 -82 -82l-868 -1198l-17 12l852 1171q-160 -73 -309 -73q-73 0 -131 18
q35 -72 35 -160q0 -153 -96 -244.5t-230 -91.5zM1839 -20q-133 0 -229.5 91t-96.5 244t96.5 244.5t229.5 91.5q134 0 230 -91.5t96 -244.5t-96 -244t-230 -91zM1087 -20q-133 0 -229 91t-96 244t96 244.5t229 91.5q134 0 230 -91.5t96 -244.5t-96 -244t-230 -91zM1839 -8
q143 0 143 323q0 322 -143 322q-141 0 -141 -322q0 -323 141 -323zM1087 -8q144 0 144 323q0 322 -144 322q-141 0 -141 -322q0 -323 141 -323zM393 627q144 0 144 323q0 177 -41 252q-40 36 -64 60q-17 10 -39 10q-141 0 -141 -322q0 -323 141 -323z" />
    <glyph glyph-name="guilsinglleft" unicode="&#x2039;" horiz-adv-x="720" 
d="M643 47l-592 408v6l592 409l6 -10l-438 -401l438 -404z" />
    <glyph glyph-name="guilsinglright" unicode="&#x203a;" horiz-adv-x="720" 
d="M78 47l-6 8l436 404l-436 401l6 10l592 -409v-6z" />
    <glyph glyph-name="fraction" unicode="&#x2044;" horiz-adv-x="327" 
d="M-279 -18l-14 8l897 1294l14 -8z" />
    <glyph glyph-name="uni2070" unicode="&#x2070;" horiz-adv-x="821" 
d="M410 672q-159 0 -251.5 113.5t-92.5 293.5q0 179 93 293.5t251 114.5q159 0 251.5 -114.5t92.5 -293.5q0 -181 -92 -294t-252 -113zM410 680q149 0 149 399q0 398 -149 398q-44 0 -75 -35t-46.5 -96t-22 -126t-6.5 -141q0 -399 150 -399z" />
    <glyph glyph-name="uni2074" unicode="&#x2074;" horiz-adv-x="757" 
d="M276 686v8q75 0 108.5 28t33.5 103v66h-404l-2 6l121 117q54 49 93.5 125.5t39.5 154.5q0 128 -102 191q126 3 221.5 -39t95.5 -117q0 -54 -48 -103t-145.5 -114.5t-137.5 -99.5l-119 -109h387v129l172 156h6v-285q49 0 77 7.5t29 7.5q11 0 18 -6.5t7 -14.5
q0 -7 -8 -12.5t-17 -5.5q-4 0 -14.5 3t-33.5 6t-58 3v-74q0 -74 29 -98.5t100 -24.5v-8h-449z" />
    <glyph glyph-name="uni2075" unicode="&#x2075;" horiz-adv-x="745" 
d="M344 672q-132 0 -214.5 50t-82.5 122q0 42 28 71t70 29t68.5 -27.5t26.5 -66.5t-22 -65t-54 -31q47 -72 133 -72q96 0 146.5 70.5t50.5 167.5t-51.5 153.5t-143.5 56.5q-87 0 -166 -43q-10 -43 -31 -43q-18 0 -18 19q0 22 41 35l35 372q9 0 65.5 -4.5t91 -6t93.5 -1t98 6
t78 19.5t59 36q19 -59 19 -93q0 -68 -48 -99.5t-118 -31.5t-149.5 28t-184.5 81l-31 -305q111 51 223 51q141 0 236.5 -63.5t95.5 -174.5q0 -112 -98 -176.5t-246 -64.5z" />
    <glyph glyph-name="uni2076" unicode="&#x2076;" horiz-adv-x="806" 
d="M418 672q-76 0 -137 22.5t-100.5 60t-66 88.5t-37.5 105t-11 113q0 184 103 305t280 121q116 0 189 -51t73 -123q0 -41 -26.5 -70t-68.5 -29q-41 0 -68.5 27.5t-27.5 67.5q0 34 19.5 59t50.5 33q-30 76 -119 76q-64 0 -112 -42.5t-72.5 -112t-34.5 -147.5t-6 -159
q18 77 76 122.5t149 45.5q118 0 194 -71t76 -179q0 -113 -87.5 -187.5t-235.5 -74.5zM410 680q41 0 72 22.5t48 60t25 80t8 89.5q0 103 -34.5 166t-104.5 63t-123 -60t-53 -179q2 -101 44.5 -171.5t117.5 -70.5z" />
    <glyph glyph-name="uni2077" unicode="&#x2077;" horiz-adv-x="655" 
d="M203 686q4 39 14.5 78.5t20 69.5t34.5 73.5t36 64.5t47 69.5t46.5 62.5t54.5 69.5t52 65.5q11 13 34.5 37t40.5 44.5t29 41.5l-4 2q-23 -32 -37.5 -48.5t-46 -32t-71.5 -15.5q-33 0 -124.5 18.5t-140.5 18.5q-64 0 -92 -32t-33 -106h-10v303h10l9 -202h2q5 51 12 83
t21 66.5t39.5 51t62.5 16.5q35 0 69.5 -16.5t63 -39.5t56 -46t59 -39.5t61.5 -16.5q53 0 82 40.5t29 78.5q0 12 -4 24h12q2 -8 2 -24q0 -37 -13.5 -72t-44.5 -86.5t-40 -68.5q-69 -136 -104 -255t-44 -278h-190z" />
    <glyph glyph-name="uni2078" unicode="&#x2078;" horiz-adv-x="829" 
d="M414 672q-178 0 -263 61.5t-85 153.5q0 85 71 143t221 68q-131 9 -200.5 59.5t-69.5 128.5q0 91 85.5 146t240.5 55q156 0 241.5 -55t85.5 -146q0 -78 -69.5 -128.5t-200.5 -59.5q149 -10 221 -68t72 -143q0 -92 -86 -153.5t-264 -61.5zM414 680q75 0 115 55t40 152
q0 95 -40 151t-115 56t-115.5 -56t-40.5 -151q0 -97 40.5 -152t115.5 -55zM414 1477q-68 0 -100.5 -50.5t-32.5 -136.5q0 -87 32.5 -137.5t100.5 -50.5t101.5 50.5t33.5 137.5q0 86 -33.5 136.5t-101.5 50.5z" />
    <glyph glyph-name="uni2079" unicode="&#x2079;" horiz-adv-x="808" 
d="M356 672q-118 0 -191 50.5t-73 121.5q0 41 25.5 69.5t68.5 28.5q41 0 70 -27t29 -67q0 -33 -21 -58.5t-51 -33.5q33 -76 125 -76q50 0 89 23t62 61.5t39.5 87t22 100t9 101.5t-0.5 90q-18 -74 -75.5 -118t-147.5 -44q-117 0 -193.5 68.5t-76.5 175.5q0 115 88 188.5
t235 73.5q94 0 164.5 -33.5t110.5 -90.5t59.5 -124t19.5 -143q0 -87 -25 -163t-72.5 -134.5t-122 -92.5t-167.5 -34zM399 1477q-54 0 -90.5 -38.5t-50.5 -91t-14 -114.5q0 -111 41.5 -168t107.5 -57q68 0 116 56.5t48 172.5q0 101 -40.5 170.5t-117.5 69.5z" />
    <glyph glyph-name="uni2080" unicode="&#x2080;" horiz-adv-x="821" 
d="M410 -219q-159 0 -251.5 113.5t-92.5 293.5q0 179 93 293.5t251 114.5q159 0 251.5 -114.5t92.5 -293.5q0 -181 -92 -294t-252 -113zM410 -211q149 0 149 399q0 398 -149 398q-44 0 -75 -35t-46.5 -96t-22 -126t-6.5 -141q0 -399 150 -399z" />
    <glyph glyph-name="uni2081" unicode="&#x2081;" horiz-adv-x="503" 
d="M41 -205v8q75 0 107 28t32 103v488q0 33 -12 49t-45 16h-92v7q187 16 323 88l6 -2v-654q0 -74 29 -98.5t100 -24.5v-8h-448z" />
    <glyph glyph-name="uni2082" unicode="&#x2082;" horiz-adv-x="763" 
d="M88 -205q-15 61 -6 108.5t47 92.5q27 36 75.5 75t93 71.5t87.5 71.5t68.5 90t25.5 112q0 75 -38 121.5t-113 46.5q-60 0 -101 -30t-61 -73q37 -5 61.5 -31.5t24.5 -62.5q0 -41 -28 -68.5t-68 -27.5q-44 0 -71.5 30t-27.5 72q0 75 86 139t228 64q128 0 214.5 -56.5
t86.5 -154.5q0 -62 -39 -107t-103 -75t-133 -56t-142.5 -66t-117.5 -89q-29 -32 -41 -74q41 90 180 90q54 0 144.5 -24.5t134.5 -24.5q119 0 119 107q0 22 -6 49h10q14 -46 14 -119q0 -41 -7 -76.5t-23 -67.5t-46 -50.5t-71 -18.5q-42 0 -80 19.5t-68 47.5t-58.5 56
t-63.5 47.5t-72 19.5q-53 0 -82 -34.5t-29 -88.5q0 -39 8 -55h-12z" />
    <glyph glyph-name="uni2083" unicode="&#x2083;" horiz-adv-x="768" 
d="M367 -219q-136 0 -223 50.5t-87 121.5q0 41 27.5 70.5t69.5 29.5q41 0 69.5 -28t28.5 -68q0 -35 -22 -62.5t-56 -33.5q40 -70 141 -70q95 0 145 58.5t50 148.5q0 96 -52.5 144.5t-152.5 50.5q-29 1 -49.5 -2.5t-31.5 -7t-15 -3.5q-25 0 -25 19q0 7 6.5 13.5t16.5 6.5
q3 0 32.5 -8t61.5 -8q92 0 138 57.5t46 140.5t-42 133t-119 50q-91 0 -136 -72q34 -6 55 -32.5t21 -61.5q0 -40 -27.5 -67t-68.5 -27t-67.5 28t-26.5 68q0 74 83.5 125t215.5 51q135 0 221 -53t86 -146t-90.5 -144.5t-231.5 -51.5h-8v-4h8q96 0 171.5 -19.5t125.5 -66.5
t50 -115q0 -103 -98 -159t-240 -56z" />
    <glyph glyph-name="uni2084" unicode="&#x2084;" horiz-adv-x="757" 
d="M274 -205v8q77 0 109.5 28t32.5 103v66h-402l-4 6l123 117q54 49 93.5 125.5t39.5 154.5q0 126 -102 191q126 3 221.5 -39t95.5 -117q0 -42 -35 -85.5t-79 -74t-111 -77.5t-106 -80l-119 -109h385v129l172 156h6v-285q50 0 78.5 7.5t29.5 7.5q10 0 17.5 -6.5t7.5 -14.5
q0 -7 -8.5 -12.5t-16.5 -5.5l-30 6q-30 6 -78 6v-74q0 -74 29.5 -98.5t101.5 -24.5v-8h-451z" />
    <glyph glyph-name="uni2085" unicode="&#x2085;" horiz-adv-x="745" 
d="M344 -219q-132 0 -214.5 50t-82.5 122q0 42 28 71t70 29t68.5 -27.5t26.5 -66.5t-22 -65t-54 -31q47 -72 133 -72q96 0 146.5 70.5t50.5 167.5t-51.5 154t-143.5 57q-87 0 -166 -43q-10 -43 -31 -43q-18 0 -18 18q0 22 41 35l35 373q10 -1 65.5 -5t91 -6t93.5 -1.5
t97.5 6t78.5 19.5t59 36q19 -59 19 -92q0 -68 -48 -99.5t-118 -31.5q-120 0 -334 108l-31 -305q111 51 223 51q142 0 237 -63t95 -174q0 -112 -98 -177t-246 -65z" />
    <glyph glyph-name="uni2086" unicode="&#x2086;" horiz-adv-x="806" 
d="M418 -219q-76 0 -137 22.5t-100.5 60t-66 88.5t-37.5 105t-11 113q0 184 103 305t280 121q116 0 189 -51t73 -123q0 -41 -26.5 -69.5t-68.5 -28.5q-41 0 -68.5 27t-27.5 67q0 34 19.5 59t50.5 33q-30 76 -119 76q-64 0 -112 -42.5t-72.5 -112t-34.5 -147.5t-6 -159
q18 77 76 122.5t149 45.5q118 0 194 -71t76 -179q0 -113 -87.5 -187.5t-235.5 -74.5zM410 -211q41 0 72 22.5t48 60t25 80t8 89.5q0 103 -34.5 166t-104.5 63t-123 -60t-53 -179q2 -101 44.5 -171.5t117.5 -70.5z" />
    <glyph glyph-name="uni2087" unicode="&#x2087;" horiz-adv-x="655" 
d="M203 -205q4 39 14.5 78.5t20 69.5t34.5 73.5t36 64.5t47 69.5t46.5 62.5t54.5 69.5t52 65.5q11 13 34.5 37t40.5 44.5t29 41.5l-4 2q-23 -32 -37.5 -48.5t-46 -32t-71.5 -15.5q-33 0 -124.5 18.5t-140.5 18.5q-64 0 -92 -32t-33 -106h-10v304h10l9 -203h2q5 51 12 83
t21 66.5t39.5 51t62.5 16.5q35 0 69.5 -16.5t63 -39.5t56 -46t59 -39.5t61.5 -16.5q53 0 82 40.5t29 78.5q0 13 -4 25h12q2 -8 2 -25q0 -37 -13.5 -72t-44.5 -86.5t-40 -68.5q-69 -136 -104 -255t-44 -278h-190z" />
    <glyph glyph-name="uni2088" unicode="&#x2088;" horiz-adv-x="829" 
d="M414 -219q-178 0 -263 61.5t-85 153.5q0 85 71 143t221 68q-131 9 -200.5 59.5t-69.5 128.5q0 91 85.5 146t240.5 55q156 0 241.5 -55t85.5 -146q0 -78 -69.5 -128.5t-200.5 -59.5q149 -10 221 -68t72 -143q0 -92 -86 -153.5t-264 -61.5zM414 -211q75 0 115 55t40 152
q0 95 -40 151t-115 56t-115.5 -56t-40.5 -151q0 -97 40.5 -152t115.5 -55zM414 586q-68 0 -100.5 -50.5t-32.5 -136.5q0 -87 32.5 -137.5t100.5 -50.5t101.5 50.5t33.5 137.5q0 86 -33.5 136.5t-101.5 50.5z" />
    <glyph glyph-name="uni2089" unicode="&#x2089;" horiz-adv-x="808" 
d="M356 -219q-118 0 -191 50.5t-73 121.5q0 41 25.5 69.5t68.5 28.5q41 0 70 -27t29 -67q0 -33 -21 -58.5t-51 -33.5q33 -76 125 -76q50 0 89 23t62 61.5t39.5 87t22 100t9 101.5t-0.5 90q-18 -74 -75.5 -118t-147.5 -44q-117 0 -193.5 68.5t-76.5 175.5q0 115 88 188.5
t235 73.5q94 0 164.5 -33.5t110.5 -90.5t59.5 -124t19.5 -143q0 -87 -25 -163t-72.5 -134.5t-122 -92.5t-167.5 -34zM399 586q-54 0 -90.5 -38.5t-50.5 -91t-14 -114.5q0 -111 41.5 -168t107.5 -57q68 0 116 56.5t48 172.5q0 101 -40.5 170.5t-117.5 69.5z" />
    <glyph glyph-name="Euro" unicode="&#x20ac;" horiz-adv-x="1349" 
d="M778 -25q-226 0 -382 140t-191 381h-135v18h133q-4 70 -4 107q0 91 12 147h-141v18h143q46 230 207 367t387 137q105 0 191 -30.5t137.5 -79t79.5 -104t28 -109.5q0 -68 -41 -112t-100 -44q-58 0 -98.5 42.5t-40.5 102.5q0 57 35 98.5t89 47.5q-62 172 -243 172
q-86 0 -155 -37.5t-115 -105.5t-75 -154t-42 -191h432v-18h-434q-6 -71 -6 -137q0 -35 4 -117h436v-18h-434q8 -79 24.5 -148t47 -133.5t72 -111t102 -74t133.5 -27.5q136 0 238 87.5t169 240.5l14 -6q-78 -174 -190 -261.5t-287 -87.5z" />
    <glyph glyph-name="uni2116" unicode="&#x2116;" horiz-adv-x="2342" 
d="M1853 350q-99 0 -182 39.5t-136.5 120.5t-53.5 188q0 160 109.5 255.5t262.5 95.5t263 -95.5t110 -255.5q0 -107 -53.5 -188t-137 -120.5t-182.5 -39.5zM283 -250q-97 0 -159.5 78.5t-62.5 196.5q87 -84 203 -84q131 0 192.5 86t61.5 262v653q0 164 -51.5 236.5
t-194.5 72.5v15h404l633 -871v617q0 109 14.5 198.5t44 160t80 110t117.5 39.5q96 0 158.5 -76.5t62.5 -192.5q-93 78 -203 78q-131 0 -192.5 -86.5t-61.5 -261.5v-991l-12 -4l-778 1048v-776q0 -146 -25 -257t-84 -181t-147 -70zM1853 362q152 0 152 336q0 166 -36 251
t-116 85q-151 0 -151 -336t151 -336zM1470 74v18h768v-18h-768zM1470 217v19h768v-19h-768z" />
    <glyph glyph-name="uni2117" unicode="&#x2117;" horiz-adv-x="1501" 
d="M420 270v6q63 0 83.5 24t20.5 89v485q0 66 -20.5 89.5t-83.5 23.5v8h399q164 0 244 -58t80 -153t-77.5 -150.5t-246.5 -55.5h-63v8h26q90 0 129 56.5t39 141.5q0 39 -8 73t-26.5 64t-52.5 47t-81 17h-75v-596q0 -65 20.5 -89t81.5 -24v-6h-389zM750 -25
q-178 0 -329.5 88.5t-240 240t-88.5 329.5t88.5 329.5t240 239.5t329.5 88q134 0 256 -52t210 -140t139.5 -210t51.5 -255q0 -178 -87.5 -329.5t-239 -240t-330.5 -88.5zM750 -6q130 0 248 50.5t204 136.5t136.5 204t50.5 248t-50.5 248t-136.5 204t-204 136.5t-248 50.5
q-129 0 -247 -50.5t-203.5 -136.5t-136 -204t-50.5 -248t50.5 -248t136 -204t203.5 -136.5t247 -50.5z" />
    <glyph glyph-name="trademark" unicode="&#x2122;" horiz-adv-x="1714" 
d="M227 682q54 0 74.5 19.5t20.5 80.5v475h-9q-47 0 -82 -15.5t-58 -46.5t-36.5 -62.5t-27.5 -77.5h-7l17 211h549l16 -211h-6q-15 47 -28.5 77.5t-37 62t-59.5 47t-84 15.5h-6v-475q0 -61 20.5 -80.5t75.5 -19.5v-6h-332v6zM731 682q52 0 79 22t41.5 77.5t22.5 170.5
l11 148q5 83 -19 120t-96 37v9h244l190 -400l168 400h203v-9q-51 0 -67 -27.5t-13 -86.5l14 -344q3 -64 22.5 -90.5t70.5 -26.5v-6h-312v6q50 0 67 26t15 83l-22 391l-209 -494h-4l-236 479l-16 -213q-11 -110 -3.5 -170.5t29.5 -81t74 -20.5v-6h-254v6z" />
    <glyph glyph-name="minus" unicode="&#x2212;" horiz-adv-x="1173" 
d="M131 494v18h911v-18h-911z" />
    <glyph glyph-name="notequal" unicode="&#x2260;" horiz-adv-x="1175" 
d="M256 -4l-16 10l194 330h-309v18h321l248 418h-569v21h582l202 342l17 -11l-197 -331h307v-21h-319l-248 -418h567v-18h-579z" />
    <glyph glyph-name="s_t" unicode="&#xfb06;" horiz-adv-x="1521" 
d="M422 -23q-131 0 -316 37l-12 262l10 3q17 -39 26.5 -59.5t28.5 -56t34.5 -55.5t40.5 -46t50.5 -39t60 -23t73.5 -10q95 0 140.5 45.5t45.5 105.5q0 41 -21.5 72.5t-57 51t-80.5 39t-92 34.5t-92 39t-80.5 52t-57 73.5t-21.5 103.5q0 118 86 185t248 67q19 0 148 -12
q-80 93 -80 221q0 151 107 258t261 107q148 0 253.5 -99t105.5 -246v-251h256v-25h-256v-612q0 -158 115 -158q54 0 97.5 32t86.5 85l10 -8q-41 -49 -75.5 -81.5t-95.5 -60.5t-130 -28q-111 0 -176.5 64t-65.5 185v582h-106v16q158 0 239.5 56t81.5 202q0 140 -101.5 235
t-238.5 95q-143 0 -246.5 -104t-103.5 -242q0 -125 90 -225q60 -3 119 8l14 -274l-10 -3q-18 41 -34 73t-43 71.5t-56 65t-70.5 43.5t-87.5 18q-80 0 -121.5 -42.5t-41.5 -101.5q0 -45 28 -78t72.5 -54.5t98.5 -40.5t107.5 -42t98 -52.5t72.5 -79.5t28 -115
q0 -124 -95 -193.5t-269 -69.5z" />
    <glyph glyph-name="c_k" horiz-adv-x="2007" 
d="M508 -23q-133 0 -232.5 60t-149.5 157.5t-50 217.5q0 102 38 187t102 141t147 87t174 31q57 0 106 -12q-40 41 -58 75t-18 72q0 34 14 63.5t44.5 54.5t60.5 43.5t83 38.5t88.5 32.5t98.5 31.5q36 11 89.5 28t75.5 23.5t55.5 17.5t47 16.5t33 14t31 16t23.5 16.5l6 -5
v-1024l192 193q125 122 125 190q0 78 -133 78v15h475v-15q-73 0 -129 -22t-118 -66q-79 -58 -162 -141l-21 -21l289 -430q87 -129 203 -129v-12h-373l-279 408l-69 -68v-186q0 -78 30.5 -110t112.5 -32v-12h-520v12q82 0 112.5 32t30.5 110v1126q-21 -8 -62.5 -21t-55.5 -18
q-43 -13 -63.5 -19.5t-60 -20t-60 -22t-52 -23t-48.5 -26t-38 -28t-31.5 -32.5t-18 -36t-7.5 -41q0 -40 21.5 -75t68.5 -82q97 -30 153 -96.5t56 -139.5q0 -61 -36.5 -100t-92.5 -39q-55 0 -92 38t-37 93q0 49 30.5 85t77.5 44q-20 52 -63 87.5t-109 35.5q-62 0 -110 -34.5
t-75.5 -94t-41.5 -130.5t-14 -151q0 -195 73 -304.5t203 -109.5q94 0 169 54.5t120 138.5l12 -6q-24 -43 -56 -80.5t-78.5 -73t-113 -56t-143.5 -20.5z" />
    <glyph glyph-name="c_t" horiz-adv-x="1617" 
d="M508 -23q-133 0 -232.5 60t-149.5 157.5t-50 217.5q0 102 38 187t102 141t147 87t174 31q83 0 159 -29q-96 96 -96 238q0 151 107 258t262 107q148 0 253 -99t105 -246v-251h256v-25h-256v-612q0 -158 115 -158q54 0 97.5 32t86.5 85l10 -8q-41 -49 -75.5 -81.5
t-95.5 -60.5t-130 -28q-111 0 -176 64t-65 185v582h-107v16q158 0 240 56t82 202q0 140 -101.5 235t-238.5 95q-143 0 -247 -104t-104 -242q0 -155 134 -266q62 -38 97.5 -92.5t35.5 -110.5q0 -61 -36.5 -100t-92.5 -39q-55 0 -92 38t-37 93q0 49 30.5 85t77.5 44
q-20 52 -63 87.5t-109 35.5q-62 0 -110 -34.5t-75.5 -94t-41.5 -130.5t-14 -151q0 -195 73 -304.5t203 -109.5q94 0 169 54.5t120 138.5l12 -6q-24 -43 -56 -80.5t-78.5 -73t-113 -56t-143.5 -20.5z" />
    <glyph glyph-name="r_k" horiz-adv-x="1888" 
d="M41 0v12q81 0 112 33.5t31 112.5v499q0 79 -31 112.5t-112 33.5v12l373 41v-266q28 84 77 151t111 97q-82 85 -82 163q0 50 25.5 90.5t74.5 71t98.5 51.5t119.5 43q38 12 106 33t103.5 32.5t77.5 29.5t67 37l6 -5v-1024l193 193q125 122 125 190q0 78 -134 78v15h476v-15
q-73 0 -129.5 -22t-118.5 -66q-79 -58 -162 -141l-21 -21l289 -430q87 -129 203 -129v-12h-373l-278 408l-70 -68v-186q0 -78 30.5 -110t112.5 -32v-12h-520v12q82 0 113 32t31 110v1126q-90 -31 -119 -39q-148 -46 -227.5 -101t-79.5 -141q0 -41 19 -74.5t63 -78.5
q30 12 65 12q67 0 104 -41t37 -98t-38.5 -96t-92.5 -39q-60 0 -99 43.5t-32 105.5q-94 -35 -147 -158v-417q0 -81 34.5 -113.5t118.5 -32.5v-12h-530z" />
    <glyph glyph-name="t_t" horiz-adv-x="1357" 
d="M414 -20q-109 0 -174.5 64t-65.5 185v582h-145v25h145v217l234 43v-260h426v217l233 43v-260h256v-25h-256v-612q0 -158 115 -158q54 0 97.5 32t86.5 85l10 -8q-41 -49 -75.5 -81.5t-95.5 -60.5t-130 -28q-111 0 -176 64t-65 185v582h-426v-612q0 -158 112 -158
q94 0 185 117l10 -8q-59 -76 -130.5 -123t-170.5 -47z" />
    <glyph glyph-name="F_i" horiz-adv-x="2084" 
d="M520 0v12q116 0 150.5 39.5t34.5 153.5v1009q-110 13 -138 13q-336 0 -336 -242q0 -140 119 -227q-63 8 -118.5 26.5t-102.5 48t-74.5 75t-27.5 100.5q0 82 61 136.5t162 77.5t242 23q117 0 256.5 -18t245.5 -39.5t225.5 -39.5t201.5 -18q93 0 160 21.5t101.5 58.5
t49.5 77.5t15 88.5q0 131 -119 221q86 -11 156 -38.5t119 -82.5t49 -128q0 -62 -33 -107.5t-94.5 -73.5t-142 -41.5t-181.5 -13.5q-87 0 -196 12t-159 21t-185 33v-555h43q182 0 270 71.5t115 220.5h10v-600h-10q-28 148 -115.5 219.5t-269.5 71.5h-43v-391q0 -119 42 -161
t162 -42v-12h-645zM1536 0v12q82 0 112.5 32t30.5 110v508q0 78 -30.5 109.5t-112.5 31.5v12l377 41v-702q0 -78 30.5 -110t112.5 -32v-12h-520z" />
    <glyph glyph-name="T_h" horiz-adv-x="2447" 
d="M498 12q120 0 162 42t42 161v1034q-111 15 -157 15q-74 0 -131 -14t-91 -37t-56 -56t-30 -66t-8 -71q0 -138 119 -225q-63 7 -118.5 25t-102.5 47.5t-74.5 75t-27.5 101.5q0 61 34 107.5t95.5 74t142.5 41t180 13.5q154 0 447.5 -43t390.5 -43q93 0 158.5 21t98.5 57.5
t46.5 75.5t13.5 86q0 133 -119 229q86 -11 156 -39t119 -83t49 -128q0 -116 -127 -178v-549q167 172 330 172q106 0 175 -67t69 -203v-434q0 -78 30.5 -110t112.5 -32v-12h-510v12q73 0 103 32.5t30 109.5v452q0 83 -35 125.5t-100 42.5q-101 0 -205 -108v-512
q0 -78 30.5 -110t112.5 -32v-12h-520v12q82 0 113 32t31 110v1032q-41 -10 -111 -10q-140 0 -408 38v-999q0 -119 42.5 -161t162.5 -42v-12h-665v12z" />
    <glyph glyph-name="C_o" horiz-adv-x="2297" 
d="M1446 74v18h766v-18h-766zM1829 350q-154 0 -263.5 94t-109.5 254q0 107 53 188.5t137 122t183 40.5q153 0 263 -95.5t110 -255.5q0 -107 -53.5 -188t-137 -120.5t-182.5 -39.5zM1829 362q151 0 151 336t-151 336q-80 0 -116 -85t-36 -251q0 -336 152 -336zM1446 217v19
h766v-19h-766zM811 -25q-169 0 -306 49.5t-228 136.5t-140 206.5t-49 259.5q0 195 91.5 346t254.5 234t371 83q52 0 120.5 -6t116 -11t107.5 -2.5t111 15.5l34 -416l-10 -2q-88 212 -201 310t-270 98q-95 0 -171.5 -35.5t-127.5 -95.5t-85 -143t-49 -175.5t-15 -195.5
q0 -102 14.5 -193t47.5 -174.5t82.5 -144t124 -96t167.5 -35.5q327 0 510 432h10l-68 -383q-85 -26 -210 -44t-232 -18z" />
    <glyph glyph-name="zero.op" horiz-adv-x="1226" 
d="M612 -25q-224 0 -367 150.5t-143 380.5t143 381t367 151t367 -151t143 -381t-143 -380.5t-367 -150.5zM612 -10q65 0 114.5 40.5t78.5 112.5t43 163t14 200q0 110 -14 201t-43 163.5t-78.5 113t-114.5 40.5t-114 -40.5t-77.5 -113t-42 -163.5t-13.5 -201
q0 -109 13.5 -199.5t42 -163t77.5 -113t114 -40.5z" />
    <glyph glyph-name="one.op" horiz-adv-x="819" 
d="M115 0v12q121 0 169 43.5t48 159.5v553q0 52 -19.5 78t-72.5 26h-146v11q284 23 471 135l10 -4v-809q0 -114 44.5 -153.5t160.5 -39.5v-12h-665z" />
    <glyph glyph-name="two.op" horiz-adv-x="1128" 
d="M147 0q-44 154 46 272q28 39 73.5 75t94 64t101.5 57t99.5 61t84 69t59.5 88t22 111q0 101 -59 163t-166 62q-166 0 -244 -148q52 -6 86.5 -44t34.5 -91q0 -58 -39 -96.5t-96 -38.5q-61 0 -98 43t-37 101q0 50 30.5 100.5t85.5 93.5t143 69.5t193 26.5q181 0 303.5 -76
t122.5 -206q0 -64 -32 -111.5t-87 -78.5t-122.5 -55t-144.5 -46.5t-147.5 -47.5t-137 -64.5t-107.5 -90.5q-27 -34 -35 -69q60 102 225 102q84 1 218.5 -42.5t199.5 -43.5q87 0 129.5 41t42.5 115q0 38 -8 71h16q19 -82 19 -155q0 -45 -6.5 -86t-22 -80t-39 -67.5t-60.5 -46
t-83 -17.5q-50 0 -96.5 20t-81.5 49.5t-73.5 64.5t-72.5 64.5t-78.5 49.5t-91.5 20q-68 0 -107.5 -39.5t-47.5 -103.5q-7 -53 10 -109h-19z" />
    <glyph glyph-name="three.op" horiz-adv-x="1165" 
d="M553 -276q-204 0 -333.5 81.5t-129.5 194.5q0 63 39 107.5t98 44.5t100.5 -42.5t41.5 -103.5q0 -53 -33.5 -93.5t-83.5 -49.5q29 -52 88 -87.5t152 -35.5q78 0 138 26.5t96.5 73.5t54.5 106.5t18 129.5q0 155 -84.5 233.5t-237.5 81.5q-65 -1 -107 -11.5t-44 -10.5
q-14 0 -26.5 8.5t-12.5 21.5t10.5 23t28.5 10q8 0 22 -6.5t45 -12t82 -3.5q139 3 211 93t72 226q0 129 -66 210t-190 81q-151 0 -226 -123q50 -9 82.5 -49t32.5 -92q0 -61 -39.5 -102.5t-99.5 -41.5t-98.5 41.5t-38.5 106.5q0 116 125 197t323 81t329.5 -83t131.5 -232
q0 -147 -130.5 -230.5t-340.5 -86.5h-12v-9h12q103 0 192 -18t162.5 -55.5t115.5 -101.5t42 -148q0 -86 -42.5 -154t-115 -110t-163 -64t-191.5 -22z" />
    <glyph glyph-name="four.op" horiz-adv-x="1144" 
d="M444 -254v14q122 0 170 43t48 158v119h-619l-4 10l201 207q79 77 140.5 200t61.5 248q0 102 -41 175t-110 114q122 2 223.5 -25.5t165 -84t63.5 -131.5q0 -51 -29 -102t-83 -100.5t-110 -93t-130.5 -102t-124.5 -104.5l-196 -195h592v221l233 228h10v-449q77 1 120.5 13
t45.5 12q18 0 28.5 -10t10.5 -23t-12.5 -22t-26.5 -9q-7 0 -24 5.5t-53 10.5t-89 5v-125q0 -114 44.5 -153.5t160.5 -39.5v-14h-666z" />
    <glyph glyph-name="five.op" horiz-adv-x="1138" 
d="M524 -276q-198 0 -323 82t-125 196q0 65 40 108.5t101 43.5q60 0 98.5 -42t38.5 -102q0 -56 -33 -96.5t-83 -48.5q69 -123 227 -123q83 0 146 33t98.5 88.5t53 120t17.5 135.5q0 163 -83 255.5t-230 92.5q-126 0 -260 -68q-5 -34 -15.5 -51.5t-33.5 -17.5q-29 0 -29 28
q0 33 64 56l57 600q27 -1 105 -4.5t124.5 -5t121.5 -2t125 4t104.5 13.5t90.5 26t54 41q33 -86 33 -139q0 -51 -19 -88t-52.5 -58t-74.5 -30.5t-90 -9.5q-208 0 -514 151l-51 -495q166 76 336 76q219 0 361.5 -102t142.5 -275q0 -119 -70.5 -209.5t-188.5 -137t-264 -46.5z
" />
    <glyph glyph-name="six.op" horiz-adv-x="1224" 
d="M635 -25q-116 0 -209 37.5t-153 99.5t-100 145.5t-56.5 170.5t-16.5 180q0 141 39.5 265t112 216.5t183.5 146.5t245 54q175 0 285 -81.5t110 -192.5q0 -65 -39 -108.5t-100 -43.5q-60 0 -99.5 41t-39.5 101q0 52 31 91t79 48q-52 131 -198 131q-87 0 -154.5 -47
t-106.5 -121t-62.5 -173.5t-30 -197.5t-1.5 -200q25 120 119.5 192t235.5 72q183 0 300 -116.5t117 -287.5q0 -181 -134.5 -301.5t-356.5 -120.5zM625 -12q64 0 114.5 35t80 94t44.5 130t15 150q0 104 -22.5 184t-77 131.5t-136.5 51.5q-116 0 -202 -97.5t-85 -281.5
q1 -101 30 -189t91.5 -148t147.5 -60z" />
    <glyph glyph-name="seven.op" horiz-adv-x="1028" 
d="M326 -254q12 113 45 216.5t105.5 225t118.5 188.5t159 219q36 50 55 75q6 7 26.5 30.5t29.5 34.5t24 30.5t26.5 37t20.5 35.5l-4 2q-42 -65 -88.5 -99t-128.5 -34q-58 0 -199.5 31.5t-214.5 31.5q-103 0 -146 -52t-46 -163h-19v457h19l8 -310h2q8 76 18.5 127t32.5 101
t60.5 75t93.5 25q54 0 107 -25.5t96 -61.5t84.5 -72t90.5 -61.5t97 -25.5q42 0 75.5 20t51.5 50.5t27.5 60.5t9.5 56q0 29 -2 41h18q2 -10 2 -37q0 -42 -14 -88t-29 -77t-45 -85.5t-43 -81.5q-122 -234 -180.5 -432.5t-75.5 -464.5h-268z" />
    <glyph glyph-name="eight.op" horiz-adv-x="1245" 
d="M623 -25q-132 0 -234.5 28.5t-164.5 77.5t-93 111t-31 134q0 65 26.5 121.5t78.5 102.5t138 76t198 38q-195 15 -300.5 96.5t-105.5 208.5q0 145 130.5 233t357.5 88t357 -88t130 -233q0 -127 -105 -208.5t-300 -96.5q218 -16 329 -109.5t111 -228.5
q0 -150 -132.5 -250.5t-389.5 -100.5zM623 -10q130 0 194 91.5t64 240.5t-64 242t-194 93q-131 0 -194.5 -92.5t-63.5 -242.5q0 -149 63.5 -240.5t194.5 -91.5zM623 1276q-116 0 -171 -84t-55 -219t55 -219t171 -84q78 0 130 42t73.5 108t21.5 153t-21.5 153t-73.5 108
t-130 42z" />
    <glyph glyph-name="nine.op" horiz-adv-x="1224" 
d="M539 -276q-179 0 -289.5 80.5t-110.5 191.5q0 67 38 110.5t99 43.5q60 0 101 -42t41 -102q0 -52 -32.5 -91t-80.5 -48q63 -129 213 -129q61 0 112 21.5t86.5 59.5t64 88.5t44 109t28 121t15 124.5t4.5 119.5t-2 105.5q-27 -121 -118.5 -192.5t-235.5 -71.5
q-183 0 -299.5 111.5t-116.5 283.5q0 183 135 301.5t355 118.5q116 0 208.5 -36.5t152.5 -97.5t99.5 -143.5t56.5 -169.5t17 -181q0 -140 -37.5 -262.5t-109 -217.5t-184.5 -150.5t-254 -55.5zM604 1024q-85 0 -144.5 -59.5t-85.5 -147t-26 -192.5q0 -170 65 -265.5
t179 -95.5q53 0 101 22t87 65t62.5 114.5t23.5 163.5q0 102 -26.5 188.5t-87.5 146.5t-148 60z" />
    <glyph glyph-name="A.alt" horiz-adv-x="2246" 
d="M498 -322q-213 0 -352.5 101.5t-139.5 263.5q0 119 78 209t197 129.5t245 24.5q-130 -34 -202 -126.5t-72 -226.5q0 -150 85.5 -244t235.5 -94q92 0 170.5 38t143.5 112.5t116.5 164.5t104.5 214l430 1005h-266q-138 0 -214.5 -77t-76.5 -189q0 -64 26 -125t76 -102
q-130 11 -211 79t-81 169q0 121 121 191.5t325 70.5h330l446 -981q21 -47 39 -81t44.5 -72.5t53.5 -63t63.5 -40.5t76.5 -16v-12h-674v12q109 0 142 69t-21 189l-70 156h-457l-77 -184q-32 -76 -57.5 -130t-61.5 -117t-71 -106.5t-82.5 -86t-99.5 -68t-119 -41t-144 -15.5z
M1219 446h440l-225 512z" />
    <glyph glyph-name="B.alt" horiz-adv-x="1734" 
d="M440 0v12q116 0 150.5 39.5t34.5 153.5v1044h-115q-138 0 -214.5 -77t-76.5 -189q0 -63 26.5 -124.5t76.5 -102.5q-130 11 -211.5 79t-81.5 169q0 121 121 191.5t325 70.5h606q518 0 518 -310q0 -137 -108 -212.5t-342 -84.5v-6q258 -7 375.5 -88.5t117.5 -228.5
q0 -156 -124 -246t-392 -90h-686zM881 14h194q146 0 221.5 94.5t75.5 231.5q0 136 -77.5 220.5t-235.5 84.5h-178v-631zM881 662h147q155 0 229 79t74 213q0 57 -14 107t-44 93.5t-85.5 69t-130.5 25.5h-176v-587z" />
    <glyph glyph-name="C.alt" horiz-adv-x="1390" 
d="M791 -25q-156 0 -288.5 49.5t-223.5 136.5t-142 208t-51 260q0 192 93.5 343.5t255.5 234.5t364 83q122 0 223.5 -32t164 -82t96.5 -107.5t34 -112.5q0 -62 -38.5 -107.5t-100.5 -45.5q-60 0 -101 42t-41 103q0 54 33 95.5t84 48.5q-46 79 -130 131.5t-208 52.5
q-118 0 -207 -53t-141 -145.5t-77 -206.5t-25 -248q0 -99 13 -187.5t45.5 -172t81.5 -143.5t126.5 -96t175.5 -36q123 0 211 50.5t137 125.5q-50 11 -81.5 50t-31.5 93q0 60 41 102t101 42q63 0 102 -46t39 -108q0 -55 -36.5 -111t-101.5 -103.5t-169 -77.5t-227 -30z" />
    <glyph glyph-name="D.alt" horiz-adv-x="1916" 
d="M440 0v12q116 0 150.5 39.5t34.5 153.5v1044h-115q-138 0 -214.5 -77t-76.5 -189q0 -63 26.5 -124.5t76.5 -102.5q-130 11 -211.5 79t-81.5 169q0 121 121 191.5t325 70.5h623q336 0 532.5 -171.5t196.5 -461.5t-196 -461.5t-533 -171.5h-658zM881 14h190q101 0 182.5 33
t136 90t91 136.5t53 169t16.5 190.5t-16.5 189.5t-53 168t-91 136t-136 89.5t-182.5 33h-190v-1235z" />
    <glyph glyph-name="E.alt" horiz-adv-x="1671" 
d="M440 0v12q116 0 150.5 39.5t34.5 153.5v1044h-115q-138 0 -214.5 -77t-76.5 -189q0 -63 26.5 -124.5t76.5 -102.5q-130 11 -211.5 79t-81.5 169q0 121 121 191.5t325 70.5h1043l28 -396l-10 -2q-21 94 -54.5 160.5t-91 118.5t-147.5 77t-215 25h-147v-610h47
q185 0 271.5 67.5t115.5 215.5h10v-580h-10q-29 147 -116 214t-271 67h-47v-609h166q104 0 185 23t133 58.5t91.5 92.5t61 110t41.5 126l10 -2l-39 -422h-1090z" />
    <glyph glyph-name="F.alt" horiz-adv-x="1595" 
d="M440 0v12q116 0 150.5 39.5t34.5 153.5v1044h-115q-138 0 -214.5 -77t-76.5 -189q0 -63 26.5 -124.5t76.5 -102.5q-130 11 -211.5 79t-81.5 169q0 121 121 191.5t325 70.5h1038l27 -410l-10 -2q-21 94 -55.5 163t-92.5 123t-147.5 81.5t-210.5 27.5h-143v-626h43
q182 0 270 71.5t115 220.5h10v-600h-10q-28 148 -115.5 219.5t-269.5 71.5h-43v-391q0 -119 42 -161t162 -42v-12h-645z" />
    <glyph glyph-name="G.alt" horiz-adv-x="1579" 
d="M844 -25q-153 0 -279.5 34.5t-214 94.5t-148 142t-88.5 175.5t-28 196.5q0 151 61.5 279t166 213t244 132.5t294.5 47.5q124 0 229 -30t171 -78.5t102.5 -105.5t36.5 -113q0 -60 -38 -108t-102 -48q-61 0 -102 41.5t-41 103.5q0 54 32.5 94t82.5 48q-47 77 -138 129.5
t-221 52.5q-125 0 -222 -52.5t-156.5 -144.5t-90 -210t-30.5 -257q0 -99 15.5 -187.5t50.5 -169t87.5 -138.5t132 -92.5t178.5 -34.5q149 0 306 82v309q0 115 -39 160t-160 45v14h623v-14q-59 0 -93 -8.5t-53 -32.5t-25 -57t-6 -91v-534q0 -80 -36.5 -148.5t-101.5 -119.5
t-142.5 -87.5t-169.5 -62.5l-6 8q64 33 107 74t64.5 89.5t29.5 94.5t8 105v188q-167 -29 -291 -29z" />
    <glyph glyph-name="H.alt" horiz-adv-x="2338" 
d="M573 -322q-264 0 -411.5 105.5t-147.5 267.5q0 87 44.5 158t117.5 114t164.5 63.5t187.5 12.5q-131 -33 -200.5 -121.5t-69.5 -232.5q0 -72 18.5 -133.5t55.5 -111t100.5 -77.5t147.5 -28q185 0 281.5 138.5t96.5 418.5v997h-114q-138 0 -214.5 -77t-76.5 -189
q0 -64 26 -125t76 -102q-130 11 -211.5 79t-81.5 169q0 121 121.5 191.5t325.5 70.5h590v-15q-61 0 -96.5 -9t-55.5 -33.5t-26.5 -58t-6.5 -91.5v-408h625v408q0 114 -34 153t-150 39v15h624v-15q-116 0 -150 -39t-34 -153v-854q0 -59 6 -92t26 -58t55.5 -34t96.5 -9v-12
h-624v12q61 0 96.5 9t55.5 34t26 58t6 92v428h-625v-381q0 -270 -166.5 -422t-474.5 -152z" />
    <glyph glyph-name="I.alt" horiz-adv-x="1124" 
d="M440 0v12q116 0 150.5 39.5t34.5 153.5v1044h-115q-138 0 -214.5 -77t-76.5 -189q0 -63 26.5 -124.5t76.5 -102.5q-130 11 -211.5 79t-81.5 169q0 121 121 191.5t325 70.5h590v-15q-116 0 -150 -39t-34 -153v-854q0 -59 6 -92t26 -58t55.5 -34t96.5 -9v-12h-625z" />
    <glyph glyph-name="J.alt" horiz-adv-x="1443" 
d="M573 -322q-264 0 -411.5 105.5t-147.5 267.5q0 87 44.5 158t117.5 114t164.5 63.5t187.5 12.5q-131 -33 -200.5 -121.5t-69.5 -232.5q0 -72 18.5 -133.5t55.5 -111t100.5 -77.5t147.5 -28q185 0 281.5 138.5t96.5 418.5v997h-114q-138 0 -214.5 -77t-76.5 -189
q0 -64 26 -125t76 -102q-130 11 -211.5 79t-81.5 169q0 121 121.5 191.5t325.5 70.5h590v-15q-61 0 -96.5 -9t-55.5 -33.5t-26.5 -58t-6.5 -91.5v-807q0 -270 -166.5 -422t-474.5 -152z" />
    <glyph glyph-name="K.alt" horiz-adv-x="1779" 
d="M440 0v12q116 0 150.5 39.5t34.5 153.5v1044h-115q-138 0 -214.5 -77t-76.5 -189q0 -63 26.5 -124.5t76.5 -102.5q-130 11 -211.5 79t-81.5 169q0 121 121 191.5t325 70.5h590v-15q-116 0 -150 -39t-34 -153v-531l360 363q180 180 180 272q0 88 -159 88v15h573v-15
q-152 0 -301 -112q-39 -28 -87.5 -71.5t-79.5 -74t-107 -106.5l-78 -82l463 -653q7 -11 39.5 -58t47.5 -68.5t50.5 -70t58.5 -75t62 -69.5t69 -68t71.5 -55.5t78.5 -47t80 -28t86 -11.5q67 0 157 39l4 -11q-168 -86 -338 -86q-199 0 -357 111t-316 344l-434 631l-123 -125
v-299q0 -59 6 -92t26 -58t55.5 -34t96.5 -9v-12h-625z" />
    <glyph glyph-name="L.alt" horiz-adv-x="1189" 
d="M459 -168v14q98 0 131 38t33 161v1204h-115q-138 0 -214.5 -77t-76.5 -189q0 -64 26 -125t76 -102q-130 11 -211 79t-81 169q0 121 121 191.5t325 70.5h610v-15q-120 0 -162 -41t-42 -161v-1250q183 -42 458 -213q33 -21 109.5 -71.5t118.5 -75.5t106 -57.5t122.5 -47
t117.5 -14.5q157 0 248.5 102t91.5 259q0 142 -68 225q144 -48 212.5 -138.5t68.5 -195.5q0 -140 -110.5 -236t-297.5 -96q-78 0 -150.5 16.5t-152.5 56t-131 69.5t-150 95t-147 95q-196 123 -382 193.5t-386 70.5q-36 0 -98 -4z" />
    <glyph glyph-name="M.alt" horiz-adv-x="2670" 
d="M514 -322q-220 0 -362 101.5t-142 265.5q0 120 78.5 209.5t196.5 128t245 23.5q-129 -35 -201.5 -124t-72.5 -225q0 -150 89.5 -241.5t248.5 -91.5q92 0 176 33.5t153.5 99.5t114.5 174t54 245l63 973h-250q-138 0 -214.5 -77t-76.5 -189q0 -63 26.5 -124.5t76.5 -102.5
q-128 11 -209.5 79t-81.5 169q0 121 121 191.5t325 70.5h490l436 -910l377 910h405v-15q-117 0 -153 -57.5t-29 -177.5l37 -772q6 -128 46.5 -180t152.5 -52v-12h-633v12q111 0 147.5 53.5t30.5 167.5l-45 881l-451 -1077h-12l-508 1034l-49 -797q-19 -281 -175 -438.5
t-425 -157.5z" />
    <glyph glyph-name="N.alt" horiz-adv-x="2283" 
d="M518 -322q-144 0 -259 45t-181 129.5t-66 192.5q0 119 78.5 208.5t197 128.5t244.5 24q-129 -34 -201.5 -123.5t-72.5 -223.5q0 -150 90.5 -242.5t247.5 -92.5q94 0 180.5 35.5t157.5 103t113.5 177.5t42.5 247v962h-203q-138 0 -214.5 -77t-76.5 -189q0 -64 26 -125
t76 -102q-128 11 -209 79t-81 169q0 121 121 191.5t325 70.5h403l746 -871v203q0 113 -1 182.5t-5 144.5t-11 116t-20.5 83.5t-31 62t-45.5 37t-61.5 22.5t-80.5 5v15h532v-15q-47 0 -80.5 -5t-61.5 -22.5t-45.5 -37t-31 -62t-20.5 -83.5t-11 -116t-5 -144.5t-1 -182.5v-608
l-12 -4l-901 1048v-749q0 -279 -159.5 -443t-432.5 -164z" />
    <glyph glyph-name="O.alt" horiz-adv-x="1552" 
d="M776 -25q-193 0 -350 83t-247.5 234t-90.5 341t89.5 340t248.5 233.5t358 83.5q198 0 328.5 -75t130.5 -209q0 -63 -29.5 -112t-79 -78t-110.5 -43.5t-129 -14.5q-53 0 -94 8q117 17 178 88t61 174q0 37 -7 70.5t-25 66t-46.5 55.5t-75 37.5t-106.5 14.5
q-94 0 -166.5 -35.5t-119 -94.5t-76 -142.5t-41.5 -172.5t-12 -192t12 -193t42 -174.5t76 -144t117.5 -95.5t163.5 -36q91 0 162.5 35.5t117.5 94.5t75.5 141t42 169t12.5 184q0 75 -10 160q131 84 131 232q0 26 -11 63q168 -179 168 -438q0 -190 -90.5 -341t-247.5 -234
t-350 -83z" />
    <glyph glyph-name="P.alt" horiz-adv-x="1648" 
d="M440 0v12q116 0 150.5 39.5t34.5 153.5v1044h-115q-138 0 -214.5 -77t-76.5 -189q0 -63 26.5 -124.5t76.5 -102.5q-130 11 -211.5 79t-81.5 169q0 121 121 191.5t325 70.5h594q141 0 246 -28t167 -78t92 -115t30 -144q0 -166 -129.5 -264t-405.5 -98h-92v14h47
q81 0 142 29t96 79t52 110t17 130q0 55 -10 104t-33.5 94.5t-58 78t-87.5 52t-118 19.5h-143v-1044q0 -59 6 -92t26 -58t55.5 -34t96.5 -9v-12h-625z" />
    <glyph glyph-name="Q.alt" horiz-adv-x="1529" 
d="M1690 -737q-87 0 -169 23.5t-160 71.5t-136.5 93t-137.5 115q-28 25 -81 73t-81.5 72.5t-74 62.5t-77.5 57.5t-72.5 41t-78.5 30.5t-77 9q-52 0 -95.5 -18t-73.5 -36t-48 -18q-15 0 -25 8t-10 23q0 20 22 27t73 12t85 14q51 15 129 45q95 37 172.5 80t153 107.5
t126.5 141.5t82 183t31 230q0 78 -11.5 152.5t-41 150t-74.5 131.5t-118 91.5t-166 35.5q-90 0 -163.5 -33.5t-120 -87.5t-78.5 -126t-45 -145t-13 -149q0 -122 36 -220.5t96.5 -159t136 -92.5t159.5 -32q58 0 117 19q-41 -37 -112.5 -56.5t-150.5 -19.5q-152 0 -276.5 66.5
t-198 188.5t-73.5 275q0 124 50 233t139 187.5t219 124t282 45.5q153 0 282 -46t217.5 -126t137.5 -190.5t49 -237.5q0 -116 -44 -217t-120 -179t-188 -145t-236.5 -116.5t-277.5 -91.5q92 18 192 18q140 0 249 -56.5t263 -195.5q185 -165 230 -201q157 -126 276 -146
q28 -5 57 -5q74 0 135 33t125 100l9 -6q-34 -42 -66.5 -73t-85 -68t-122.5 -57.5t-152 -20.5z" />
    <glyph glyph-name="R.alt" horiz-adv-x="1806" 
d="M440 12q116 0 150.5 39.5t34.5 153.5v1044h-115q-138 0 -214.5 -77t-76.5 -189q0 -63 26.5 -124.5t76.5 -102.5q-130 11 -211.5 79t-81.5 169q0 121 121 191.5t325 70.5h598q277 0 419 -86t142 -246q0 -302 -512 -320v-6h49q67 0 114.5 -5t87.5 -21.5t66.5 -34.5
t57 -57.5t52 -75.5t57.5 -103q23 -44 56 -108.5t54 -106.5t52 -98.5t53.5 -94t54 -82.5t59 -74t63 -58.5t70.5 -46t77 -27t87 -10.5q50 0 117 18l2 -8q-133 -57 -287 -57q-86 0 -161 24t-135 65t-117.5 106.5t-103.5 138t-97 169.5q-50 93 -164 338q-17 35 -23 47
t-19.5 38.5t-20 35t-20 26t-23.5 23t-26 15t-32.5 12.5t-37.5 5.5t-46 2.5h-157v-399q0 -59 6 -92t26 -58t55.5 -34t96.5 -9v-12h-625v12zM1044 618q159 0 242.5 90.5t83.5 227.5q0 139 -84 226t-252 87h-153v-631h163z" />
    <glyph glyph-name="S.alt" horiz-adv-x="1171" 
d="M580 -25q-219 0 -357.5 87t-138.5 202q0 63 40.5 107.5t100.5 44.5q58 0 99 -42t41 -102q0 -54 -32.5 -94t-82.5 -49q42 -58 120 -98.5t193 -40.5q147 0 227 69.5t80 176.5q0 73 -40.5 127.5t-105 89.5t-142.5 65.5t-156.5 64t-143 76t-105 111.5t-40.5 160
q0 165 122.5 262.5t338.5 97.5q197 0 321.5 -80t124.5 -194q0 -65 -38.5 -106.5t-98.5 -41.5q-58 0 -97.5 40.5t-39.5 99.5q0 52 29.5 90.5t77.5 50.5q-91 127 -269 127q-130 0 -202 -65.5t-72 -161.5q0 -55 25 -99t68 -75t98 -57.5t116 -50t122.5 -49t116.5 -59t98 -74.5
t68 -101t25 -134q0 -172 -130.5 -273.5t-360.5 -101.5z" />
    <glyph glyph-name="T.alt" horiz-adv-x="1638" 
d="M498 0v12q120 0 162 42t42 161v1030q-153 17 -188 17q-81 0 -139 -21.5t-88.5 -58t-44 -77t-13.5 -87.5q0 -139 119 -223q-88 11 -157.5 38.5t-117.5 82.5t-48 128q0 81 58.5 135.5t149.5 77.5t209 23q134 0 424 -43t375 -43q82 0 141 22t90 59t44.5 76.5t13.5 84.5
q0 131 -119 227q137 -17 230.5 -80.5t93.5 -169.5q0 -118 -117 -178.5t-299 -60.5q-139 0 -361 32v-991q0 -119 42.5 -161t162.5 -42v-12h-665z" />
    <glyph glyph-name="U.alt" horiz-adv-x="1814" 
d="M1108 -25q-103 0 -190.5 24.5t-159.5 76t-113 141.5t-41 211v821h-98q-138 0 -214.5 -77t-76.5 -189q0 -64 26 -125t76 -102q-128 11 -209 79t-81 169q0 121 121 191.5t325 70.5h569v-15q-60 0 -96.5 -11.5t-55.5 -39.5t-25.5 -63.5t-6.5 -94.5v-659q0 -377 318 -377
q172 0 273 106t101 304v207q0 106 -1.5 177t-6 140t-12 111t-21.5 80.5t-31.5 58.5t-45 35.5t-60.5 20.5t-78 5v15h531v-15q-62 0 -102.5 -9.5t-70 -42t-45 -69.5t-24 -119t-10.5 -162.5t-2 -225.5v-207q0 -216 -119.5 -328.5t-343.5 -112.5z" />
    <glyph glyph-name="V.alt" horiz-adv-x="1325" 
d="M668 -10l-435 993q-28 65 -47.5 102t-52.5 81t-75.5 64.5t-96.5 20.5v15h670v-15q-79 -1 -118 -33.5t-37 -89t32 -133.5l317 -764q52 86 89.5 151t90.5 170.5t86.5 192.5t58 189.5t24.5 189.5q0 180 -101 261t-301 42q47 74 115.5 118t152.5 44q107 0 178.5 -74
t71.5 -223q0 -76 -20.5 -167.5t-51.5 -177t-80 -188.5t-92 -182.5t-103.5 -179.5t-98 -159t-91 -141t-69.5 -107h-16z" />
    <glyph glyph-name="W.alt" horiz-adv-x="1972" 
d="M647 -10l-414 993q-19 47 -33 76.5t-39.5 70t-51.5 64t-64.5 40.5t-83.5 17v15h639v-15q-75 0 -110 -29.5t-34 -80t31 -125.5l281 -705l233 598l-26 74q-97 268 -266 268v15h651v-15q-215 0 -125 -256l272 -759q75 133 136.5 265t113 305.5t51.5 307.5q0 193 -103 272
t-308 41q47 74 116 118t154 44q51 0 95.5 -17t81.5 -51.5t59 -95.5t22 -141q0 -116 -46.5 -274t-107 -294t-149 -298t-140.5 -247.5t-112 -180.5h-16l-340 887l-352 -887h-15z" />
    </font>
</defs>
</svg>
