<?xml version="1.0" standalone="no"?>
<!DOCTYPE svg PUBLIC "-//W3C//DTD SVG 1.1//EN" "http://www.w3.org/Graphics/SVG/1.1/DTD/svg11.dtd" >
<svg xmlns="http://www.w3.org/2000/svg" xmlns:xlink="http://www.w3.org/1999/xlink" version="1.1">
<metadata>
Created by FontForge 20170731 at Mon Nov 29 12:38:28 2021
 By Aleksey,,,
Joe Prince (c)2015. All Rights Reserved.
</metadata>
<defs>
<font id="MajestiBanner-HeavyItalic" horiz-adv-x="1382" >
  <font-face 
    font-family="Majesti Banner Heavy"
    font-weight="900"
    font-style="italic"
    font-stretch="normal"
    units-per-em="2048"
    panose-1="2 0 0 0 0 0 0 0 0 0"
    ascent="1536"
    descent="-512"
    x-height="874"
    cap-height="1266"
    bbox="-1554 -1012 2853 1968"
    underline-thickness="102"
    underline-position="-307"
    unicode-range="U+0020-FB06"
  />
<missing-glyph horiz-adv-x="563" 
 />
    <glyph glyph-name="fi" unicode="fi" horiz-adv-x="1308" 
d="M-72 -334q-137 0 -198.5 53.5t-61.5 126.5q0 63 42.5 102.5t101.5 39.5t95 -41t36 -99q0 -52 -29.5 -90t-69.5 -51q13 -26 47 -26q41 0 73 29.5t44 80.5l244 1032h-168l6 29h170l29 123q38 165 197 270t366 105q177 0 282 -75.5t105 -178.5q0 -70 -48.5 -123t-119.5 -53
q-70 0 -120 51t-50 123q0 58 32.5 103.5t86.5 62.5q-46 75 -143 75q-82 0 -143 -53t-87 -166l-61 -264h444q100 0 136 -59t12 -164l-111 -494q-9 -40 3 -61t40 -21t104 35l-2 -12q-173 -101 -313 -101q-100 0 -135.5 59.5t-11.5 164.5l122 542q9 40 -3 61t-40 21h-253
l-193 -821q-37 -158 -162 -247t-295 -89z" />
    <glyph glyph-name="fl" unicode="fl" horiz-adv-x="1316" 
d="M-72 -334q-137 0 -198.5 53.5t-61.5 126.5q0 63 42.5 102.5t101.5 39.5t95 -41t36 -99q0 -52 -29.5 -90t-69.5 -51q13 -26 47 -26q41 0 73 29.5t44 80.5l244 1032h-168l6 29h170l29 123q38 165 193 270t354 105q197 0 299 -105l202 123h11l-281 -1233q-9 -40 3 -61
t40 -21t104 35l-2 -12q-173 -101 -313 -101q-100 0 -135.5 60.5t-11.5 163.5l176 755q-68 55 -68 140q0 60 33.5 105.5t89.5 62.5q-37 73 -125 73q-80 0 -134 -60t-77 -159l-61 -264h235l-6 -29h-237l-193 -821q-37 -158 -162 -247t-295 -89z" />
    <glyph glyph-name="f_j" unicode="fj" horiz-adv-x="1280" 
d="M-72 -334q-137 0 -198.5 53.5t-61.5 126.5q0 63 42.5 102.5t101.5 39.5t95 -41t36 -99q0 -52 -29.5 -90t-69.5 -51q13 -26 47 -26q41 0 73 29.5t44 80.5l244 1032h-168l6 29h170l29 123q38 165 197 270t366 105q177 0 282 -75.5t105 -178.5q0 -70 -48.5 -123t-119.5 -53
q-70 0 -120 51t-50 123q0 58 32.5 103.5t86.5 62.5q-46 75 -143 75q-82 0 -143 -53t-87 -166l-61 -264h444q100 0 136 -59t12 -164l-144 -627q-38 -158 -162.5 -247t-293.5 -89q-72 0 -125 16t-81.5 43t-41.5 57t-13 62v6q-64 -89 -165.5 -136.5t-223.5 -47.5zM385 2
l-12 -43q40 29 88 29q59 0 95 -41t36 -99q0 -53 -28.5 -90.5t-69.5 -50.5q13 -26 47 -26q41 0 72.5 29.5t43.5 80.5l217 950q9 40 -3 61t-40 21h-253z" />
    <glyph glyph-name="f_y" unicode="fy" horiz-adv-x="1679" 
d="M-72 -334q-72 0 -125 16t-81 43t-41 57t-13 62q0 64 42.5 104t101.5 40t95 -41t36 -99q0 -52 -29.5 -90t-69.5 -51q13 -26 47 -26q41 0 73 29.5t44 80.5l244 1032h-168l6 29h170l29 123q39 168 170 271.5t317 103.5q91 0 159.5 -26t104 -67.5t52 -82.5t16.5 -80
q0 -68 -46 -113t-108 -45q-63 0 -107 46t-44 112q0 56 32.5 98.5t84.5 54.5q-30 88 -103 88q-63 0 -105 -61t-65 -158l-61 -264h434q138 0 154 -107l88 -557q254 212 276 379q-27 -10 -63 -10q-70 0 -114 45.5t-44 110.5q0 68 46.5 114.5t119.5 46.5q56 0 93.5 -30t51.5 -69
t14 -81q0 -73 -48.5 -161t-134 -177.5t-190 -175t-227.5 -168.5l-53 -37q-29 -20 -72 -64.5t-85 -87.5t-92 -85t-109 -68t-119 -26q-51 0 -81 25t-30 63q0 54 37.5 84t100.5 41.5t131.5 18.5t144.5 26.5t125 54.5l64 45l-158 784q-6 37 -45 37h-223l-193 -821
q-37 -158 -162 -247t-295 -89z" />
    <glyph glyph-name=".notdef" horiz-adv-x="563" 
 />
    <glyph glyph-name=".null" horiz-adv-x="0" 
 />
    <glyph glyph-name="nonmarkingreturn" horiz-adv-x="682" 
 />
    <glyph glyph-name="space" unicode=" " horiz-adv-x="456" 
 />
    <glyph glyph-name="exclam" unicode="!" horiz-adv-x="571" 
d="M258 420q17 204 8 300t-28 194.5t-19 138.5q0 106 68 171.5t162 65.5q73 0 123.5 -41t50.5 -116q0 -44 -20.5 -88t-57 -97t-79 -116.5t-96.5 -172.5t-98 -239h-14zM205 -18q-73 0 -125.5 52t-52.5 126t52.5 126t125.5 52t125.5 -52t52.5 -126t-52.5 -126t-125.5 -52z" />
    <glyph glyph-name="quotedbl" unicode="&#x22;" horiz-adv-x="823" 
d="M250 711q-4 94 -24.5 226t-20.5 167q0 80 46 133t126 53q65 0 101 -34t36 -82q0 -45 -34.5 -105.5t-101 -163t-112.5 -194.5h-16zM637 711q-4 94 -24.5 226t-20.5 167q0 80 46 133t126 53q65 0 101 -34t36 -82q0 -45 -34.5 -105.5t-101 -163t-112.5 -194.5h-16z" />
    <glyph glyph-name="numbersign" unicode="#" horiz-adv-x="1101" 
d="M51 0l168 369h-184l4 18h188l226 496h-203l4 18h207l166 365h22l-166 -365h432l166 365h23l-166 -365h184l-4 -18h-188l-225 -496h202l-4 -18h-207l-168 -369h-22l168 369h-432l-168 -369h-23zM250 387h432l225 496h-432z" />
    <glyph glyph-name="dollar" unicode="$" horiz-adv-x="1208" 
d="M422 -215l43 192q-198 10 -316 94t-118 197q0 70 45.5 119t118.5 49t120 -48t47 -120q0 -64 -38 -111.5t-97 -58.5q63 -101 242 -106l117 506q-10 4 -29 13q-38 17 -57.5 26t-55 26.5t-55.5 30t-49.5 33.5t-46 39t-36 43.5t-30 51.5t-17.5 59t-7 69q0 71 24 132t66 105.5
t97 78t118.5 52.5t130 27t131.5 4l31 137h20l-33 -137q182 -12 289 -93.5t107 -193.5q0 -72 -45.5 -122t-118.5 -50t-120.5 48t-47.5 120q0 63 38 110.5t95 59.5q-50 95 -199 105l-108 -463q19 -9 61.5 -27t64.5 -28t60 -29t60 -34.5t51.5 -38.5t46.5 -47t33.5 -54t24 -65.5
t7.5 -75.5q0 -190 -159 -314.5t-443 -120.5l-43 -190h-20zM834 250q0 44 -17 79.5t-52 64.5t-71 49.5t-90 45.5l-115 -497q79 1 141 18.5t99.5 44t62 62t33.5 68t9 65.5zM453 1049q0 -82 53 -134t153 -98l107 457q-87 1 -151 -18.5t-97.5 -54t-49 -72.5t-15.5 -80z" />
    <glyph glyph-name="percent" unicode="%" horiz-adv-x="1601" 
d="M481 604q-57 0 -110.5 16t-101 49t-76.5 91.5t-29 134.5q0 90 41.5 166.5t106.5 124t141.5 74t150.5 26.5q92 0 172 -40.5t117 -121.5q55 -10 102 -10q76 0 182 22.5t199 59.5q14 14 29 43.5t29 47.5t34 18q27 0 27 -29q0 -54 -106 -96l-1186 -1198l-13 14l1170 1178
q-201 -78 -361 -78q-57 0 -98 8q19 -49 19 -107q0 -73 -27 -138t-72 -110.5t-102 -79t-118 -49.5t-120 -16zM1053 -20q-57 0 -110.5 16t-101.5 48.5t-77 91t-29 134.5q0 90 41.5 166.5t107 124.5t142 74.5t150.5 26.5q58 0 111.5 -16.5t100.5 -49t75 -90.5t28 -133
q0 -91 -41 -168t-106 -124.5t-141 -74t-150 -26.5zM1040 -8q49 0 92.5 53.5t71 133t43 166.5t15.5 159q0 145 -74 145q-63 0 -116 -91t-79 -207.5t-26 -215.5q0 -78 18.5 -110.5t54.5 -32.5zM469 616q49 0 92.5 53.5t70.5 133t42.5 166.5t15.5 159q0 58 -12 93
q-33 33 -47 51q-4 2 -15 2q-63 0 -116 -91t-79 -207.5t-26 -215.5q0 -144 74 -144z" />
    <glyph glyph-name="ampersand" unicode="&#x26;" horiz-adv-x="1624" 
d="M502 -25q-215 0 -350.5 75.5t-135.5 207.5q0 48 18.5 90t56 75.5t79.5 60t103 51t111.5 41t119.5 36.5l-39 52q-113 141 -113 270q0 111 73.5 193t196 122.5t275.5 40.5q196 0 305 -64.5t109 -166.5q0 -36 -15.5 -69t-38 -57t-61 -47t-70.5 -37.5t-80.5 -30.5t-78.5 -24
t-77 -20t-63 -16l330 -412q68 103 94 182q9 25 11.5 43t-3.5 38.5t-25 33t-58 21t-97 8.5l4 14h488l-4 -14q-49 0 -83.5 -3t-63 -14.5t-46.5 -21.5t-39 -36t-34 -46.5t-39 -63.5q-45 -77 -97 -151l156 -195q59 -75 101.5 -101t107.5 -26l-4 -14h-529l-71 88
q-176 -113 -424 -113zM627 10q145 0 286 92l-403 502q-66 -46 -114 -129t-48 -192q0 -126 72 -199.5t207 -73.5zM893 1276q-105 0 -164 -67t-59 -160q0 -50 21.5 -98.5t76.5 -116.5l53 -68q103 63 171.5 156t68.5 190q0 75 -42.5 119.5t-125.5 44.5z" />
    <glyph glyph-name="quotesingle" unicode="'" horiz-adv-x="436" 
d="M250 711q-4 94 -24.5 226t-20.5 167q0 80 46 133t126 53q65 0 101 -34t36 -82q0 -45 -34.5 -105.5t-101 -163t-112.5 -194.5h-16z" />
    <glyph glyph-name="parenleft" unicode="(" horiz-adv-x="727" 
d="M535 -373q-27 27 -92 85.5t-108.5 99t-101.5 110.5t-93.5 134.5t-61 154.5t-25.5 186q0 106 29.5 206.5t76.5 180.5t117 159t137 136.5t151.5 117.5t147.5 98.5t137 83.5t107 67l5 -8q-83 -52 -162.5 -123.5t-164 -180.5t-147 -235t-103 -294t-40.5 -349
q0 -234 58.5 -389t140.5 -232z" />
    <glyph glyph-name="parenright" unicode=")" horiz-adv-x="727" 
d="M-219 -373l-4 8q82 52 162 123.5t164 180.5t147 235t103 294t40 349q0 234 -58 389t-140 232l8 8q27 -27 92 -85.5t108 -99t101 -110.5t93.5 -134.5t61 -154.5t25.5 -186q0 -106 -29.5 -206.5t-76.5 -180.5t-117 -159t-137 -136.5t-151.5 -117.5t-147.5 -98.5t-137 -83.5
t-107 -67z" />
    <glyph glyph-name="asterisk" unicode="*" horiz-adv-x="882" 
d="M618 1298q41 0 64 -21.5t23 -55.5q0 -30 -15.5 -56t-59.5 -84.5t-83 -122.5h-10q-9 64 -27 131.5t-18 90.5q0 48 36 83t90 35zM446 551q-39 0 -60 21.5t-21 56.5q0 30 14.5 55.5t58 84t82.5 122.5h10q9 -65 28.5 -132t19.5 -89q0 -50 -38.5 -84.5t-93.5 -34.5zM252 1110
q33 41 74 52t73 -11q18 -12 29.5 -35t33 -72.5t50.5 -97.5l-6 -10q-59 11 -117 15t-86.5 7t-46.5 15q-33 22 -35 58.5t31 78.5zM813 737q-33 -40 -73 -51t-70 10q-19 13 -31 36.5t-33 73t-49 97.5l6 8q59 -10 117 -13t86.5 -6t46.5 -15q33 -22 33 -61t-33 -79zM166 737
q-13 40 5.5 79t61.5 61q23 12 53 14.5t90 6t124 13.5l2 -8q-51 -48 -95.5 -97.5t-67.5 -73t-46 -36.5q-39 -21 -75.5 -10t-51.5 51zM901 1110q13 -41 -5 -79t-60 -58q-23 -12 -53 -15t-90 -6.5t-124 -13.5l-2 8q49 47 93.5 97t67 73t46.5 35q41 22 77.5 11t49.5 -52z" />
    <glyph glyph-name="plus" unicode="+" horiz-adv-x="1052" 
d="M412 47l102 447h-446l4 18h446l103 446h18l-102 -446h446l-4 -18h-447l-102 -447h-18z" />
    <glyph glyph-name="comma" unicode="," horiz-adv-x="548" 
d="M-86 -293l-2 8q104 36 200.5 118.5t135.5 184.5q-37 -16 -74 -16q-73 0 -117.5 48.5t-44.5 113.5q0 72 53.5 123t133.5 51q82 0 131 -53.5t49 -130.5q0 -83 -58.5 -170.5t-166 -162t-240.5 -114.5z" />
    <glyph glyph-name="hyphen" unicode="-" horiz-adv-x="776" 
d="M100 442l19 84h540l-18 -84h-541z" />
    <glyph glyph-name="period" unicode="." horiz-adv-x="530" 
d="M190 -18q-74 0 -126 52t-52 126t52 126t126 52t126.5 -52.5t52.5 -125.5t-52.5 -125.5t-126.5 -52.5z" />
    <glyph glyph-name="slash" unicode="/" horiz-adv-x="901" 
d="M-131 -334l-14 8l1189 1760l17 -9z" />
    <glyph glyph-name="zero" unicode="0" horiz-adv-x="1357" 
d="M584 -25q-223 0 -348 134t-125 378q0 157 53.5 302.5t146 256.5t229 177.5t291.5 66.5q222 0 347 -133t125 -377q0 -157 -53.5 -303.5t-146.5 -257.5t-228.5 -177.5t-290.5 -66.5zM567 -10q71 0 136.5 67.5t113.5 178t84.5 246.5t55 277.5t18.5 266.5q0 121 -29.5 185.5
t-99.5 64.5t-135.5 -67t-114 -176.5t-85 -245t-55 -278t-18.5 -269.5q0 -77 11 -130t40.5 -86.5t77.5 -33.5z" />
    <glyph glyph-name="one" unicode="1" horiz-adv-x="888" 
d="M-45 0l2 12q119 0 186 47.5t97 180.5l174 753q13 59 -1.5 85t-68.5 26h-141l4 10q328 30 604 156l10 -4l-241 -1045q-11 -46 -13 -80.5t6 -57.5t20.5 -37t35.5 -21.5t47 -10t59 -2.5l-2 -12h-778z" />
    <glyph glyph-name="two" unicode="2" horiz-adv-x="1259" 
d="M16 0q4 119 42 197t128 155q55 47 138.5 101.5t154.5 96t147.5 97.5t130 110.5t88 131t34.5 162.5q0 107 -51 165t-154 58q-94 0 -166.5 -45t-114.5 -115q58 -14 95.5 -62t37.5 -112q0 -75 -50 -126.5t-122 -51.5q-75 0 -122.5 55t-47.5 127q0 62 38.5 122.5t108 111
t178 81.5t236.5 31q94 0 177 -17.5t153 -53t111 -99t41 -147.5q0 -70 -30 -126t-80.5 -93.5t-122 -71.5t-150 -58t-169 -55t-174 -61.5t-170.5 -78.5t-153 -105q-53 -48 -90 -107q113 158 361 158q88 0 224 -26.5t201 -26.5q117 0 184 56.5t70 192.5h15q1 -61 -8.5 -134
t-36 -156t-66.5 -150t-106 -111.5t-148 -44.5q-71 0 -128.5 33.5t-98 81t-79 95t-90 81t-112.5 33.5q-76 0 -131.5 -45.5t-80 -111.5t-23.5 -142h-19z" />
    <glyph glyph-name="three" unicode="3" horiz-adv-x="1265" 
d="M510 -25q-238 0 -361.5 79.5t-123.5 197.5q0 79 51 134.5t125 55.5q71 0 118.5 -51t47.5 -125q0 -68 -39.5 -117t-100.5 -61q57 -90 195 -90q82 0 148.5 32t108 86t63.5 122.5t22 144.5q0 124 -66 189t-211 65q-58 0 -100.5 -11.5t-44.5 -11.5q-11 0 -21 8t-10 19
q0 13 13.5 25t31.5 12q9 0 22.5 -6t42.5 -12.5t77 -6.5q78 0 142.5 22.5t107 60.5t71.5 89t42 105t13 112q0 226 -206 226q-144 0 -230 -105q52 -18 84.5 -63.5t32.5 -104.5q0 -74 -47.5 -123t-120.5 -49q-74 0 -119 51t-45 119q0 83 68.5 151t191 107t273.5 39
q219 0 351 -82.5t132 -222.5q0 -86 -51.5 -152t-141.5 -105t-202 -58t-242 -19h-20l-2 -10h20q152 0 268 -31.5t187 -102t71 -173.5q0 -88 -51.5 -158t-139 -113t-196 -65.5t-229.5 -22.5z" />
    <glyph glyph-name="four" unicode="4" horiz-adv-x="1273" 
d="M336 0l2 12q119 0 185 47.5t98 180.5l20 90h-655l-2 8l211 151q143 103 241.5 249t98.5 294q0 81 -30 148.5t-77 109.5q94 4 183 -8t166 -39.5t124 -79t47 -119.5q0 -58 -35 -113t-90 -97.5t-134 -89.5t-153.5 -84.5t-164 -86.5t-150.5 -90l-203 -137h627l41 178l406 307
h10l-113 -485q59 1 97.5 7t55.5 12t25 6q14 0 22.5 -8t8.5 -19q0 -16 -15 -26.5t-30 -10.5q-7 0 -23 5.5t-52.5 10.5t-92.5 5l-24 -107q-11 -46 -13 -80.5t6 -57.5t20.5 -37t35.5 -21.5t47 -10t59 -2.5l-2 -12h-778z" />
    <glyph glyph-name="five" unicode="5" horiz-adv-x="1234" 
d="M487 -25q-228 0 -350.5 80t-122.5 203q0 78 48 131t126 53q76 0 122 -50t46 -124q0 -71 -41 -121t-104 -59q54 -92 178 -92q90 0 162 43t114.5 112.5t64.5 149t22 160.5q0 262 -234 262q-71 0 -146 -22.5t-128 -55.5q-27 -70 -64 -70q-24 0 -24 23q0 35 73 59l195 609
q423 -27 599 -8.5t249 92.5q2 -25 2 -78q0 -77 -24 -138t-62.5 -98t-90 -61t-101.5 -33.5t-103 -9.5q-118 0 -218.5 49t-271.5 170l-157 -487q185 96 383 96q97 0 183 -22t155 -64.5t109 -113t40 -161.5q0 -132 -85.5 -229.5t-226.5 -146t-317 -48.5z" />
    <glyph glyph-name="six" unicode="6" horiz-adv-x="1333" 
d="M598 -25q-252 0 -374 132t-122 360q0 126 36 247.5t105.5 225t165 182t222 123.5t268.5 45q197 0 300.5 -79t103.5 -199q0 -79 -45.5 -131t-122.5 -52q-75 0 -123.5 49t-48.5 123q0 64 37 112.5t96 60.5q-29 100 -138 100q-111 0 -214 -100t-175.5 -260.5t-107.5 -352.5
q50 109 145 178.5t240 69.5q163 0 269 -90t106 -246q0 -98 -44.5 -187.5t-123.5 -159t-197.5 -110.5t-257.5 -41zM561 -10q68 0 126.5 44t96.5 110.5t65 148t38.5 154.5t11.5 131q0 190 -143 190q-96 0 -178.5 -77.5t-129.5 -201.5t-47 -260q0 -239 160 -239z" />
    <glyph glyph-name="seven" unicode="7" horiz-adv-x="1083" 
d="M195 0q46 138 134 267.5t210.5 253.5t328.5 304q12 10 46 39.5t46.5 40.5t39.5 35t40.5 37.5t33.5 33t35.5 37t29.5 35.5l-6 4q-44 -49 -71.5 -75.5t-69.5 -57.5t-87.5 -45t-99.5 -14q-47 0 -187.5 21.5t-216.5 21.5q-103 0 -162 -44.5t-96 -178.5h-16l127 551h20
l-67 -351h4q19 57 34 95.5t37 86.5t45 79t52 59t65 41.5t78 13.5q57 0 108.5 -27t90.5 -66t77 -78t83.5 -66t93.5 -27q53 0 98 27.5t72 68t42.5 78t18.5 66.5h21q-7 -59 -40 -125t-66 -110.5t-97.5 -124.5t-95.5 -122q-262 -349 -383 -784h-350z" />
    <glyph glyph-name="eight" unicode="8" horiz-adv-x="1376" 
d="M602 -25q-119 0 -215 17t-159 46t-105 69t-60 84t-18 94q0 48 16.5 94.5t59 95.5t106.5 87.5t167 66t233 35.5q-396 28 -396 264q0 70 35.5 133t106.5 115t191 83t274 31q243 0 379.5 -74.5t136.5 -207.5q0 -138 -141.5 -233.5t-395.5 -110.5q221 -13 323.5 -90.5
t102.5 -200.5q0 -53 -17 -104.5t-62.5 -106t-115 -95t-184.5 -66.5t-262 -26zM561 -10q59 0 111 30t89.5 79t65 111t41 126.5t13.5 124.5q0 196 -154 196q-75 0 -138.5 -46t-102 -117t-59.5 -150.5t-21 -153.5q0 -200 155 -200zM856 1276q-54 0 -100 -29t-76 -75t-51 -103
t-30 -111t-9 -102q0 -184 143 -184q58 0 105 31t75.5 77.5t47.5 105t26.5 110t7.5 96.5q0 184 -139 184z" />
    <glyph glyph-name="nine" unicode="9" horiz-adv-x="1333" 
d="M496 -25q-195 0 -304.5 80t-109.5 197q0 80 48.5 132t123.5 52q74 0 121 -49t47 -121q0 -67 -39.5 -116t-99.5 -60q50 -98 174 -98q348 0 477 741q-110 -254 -387 -254q-163 0 -270 84.5t-107 239.5q0 95 42.5 182.5t119 155.5t194 108.5t256.5 40.5q256 0 380 -131
t124 -356q0 -121 -34 -240.5t-102 -225t-161 -186.5t-221 -128.5t-272 -47.5zM813 1276q-58 0 -110 -35t-88 -91.5t-63 -127t-39.5 -142t-12.5 -135.5q0 -65 13.5 -111t37 -69t48.5 -33t54 -10q123 0 219.5 140.5t96.5 357.5q0 256 -156 256z" />
    <glyph glyph-name="colon" unicode=":" horiz-adv-x="569" 
d="M203 -18q-73 0 -125.5 52t-52.5 126t52.5 126t125.5 52t125.5 -52t52.5 -126t-52.5 -126t-125.5 -52zM319 489q-73 0 -125.5 52.5t-52.5 126.5t52.5 126t125.5 52q74 0 126.5 -52.5t52.5 -125.5q0 -74 -53 -126.5t-126 -52.5z" />
    <glyph glyph-name="semicolon" unicode=";" horiz-adv-x="587" 
d="M-92 -293l-2 8q104 36 200.5 118.5t135.5 184.5q-37 -16 -74 -16q-73 0 -117.5 48.5t-44.5 113.5q0 72 53.5 123t133.5 51q82 0 131 -53.5t49 -130.5q0 -83 -58.5 -170.5t-166 -162t-240.5 -114.5zM352 489q-73 0 -125.5 52.5t-52.5 126.5t52 126t126 52t126 -52t52 -126
t-52.5 -126.5t-125.5 -52.5z" />
    <glyph glyph-name="less" unicode="&#x3c;" horiz-adv-x="956" 
d="M756 88l-701 408l2 12l889 407l-4 -22l-858 -393l678 -389z" />
    <glyph glyph-name="equal" unicode="=" horiz-adv-x="1179" 
d="M176 719l4 18h912l-5 -18h-911zM72 268l4 19h911l-4 -19h-911z" />
    <glyph glyph-name="greater" unicode="&#x3e;" horiz-adv-x="956" 
d="M4 88l4 23l858 393l-678 389l7 22l700 -407l-2 -12z" />
    <glyph glyph-name="question" unicode="?" horiz-adv-x="1189" 
d="M506 420l37 196q338 94 338 383q0 55 -13 101.5t-40.5 86.5t-77 62.5t-117.5 22.5q-84 0 -148.5 -32.5t-103.5 -86.5q54 -14 88.5 -61.5t34.5 -110.5q0 -74 -47.5 -125t-116.5 -51q-73 0 -118.5 55.5t-45.5 124.5q0 124 145.5 214.5t372.5 90.5q238 0 380.5 -101
t142.5 -245q0 -59 -26 -107t-72.5 -79.5t-100 -54.5t-120.5 -38t-122 -24.5t-115.5 -18.5t-89.5 -16l-53 -186h-12zM461 -18q-73 0 -125.5 52t-52.5 126t52.5 126t125.5 52t125.5 -52t52.5 -126t-52.5 -126t-125.5 -52z" />
    <glyph glyph-name="at" unicode="@" horiz-adv-x="1636" 
d="M608 102q-109 0 -166 68t-57 178q0 86 36.5 170.5t99 152t156.5 109t200 41.5q118 0 163 -57l260 51l9 -10l-146 -455q-28 -95 -28 -141q0 -39 16 -59.5t57 -20.5q52 0 105.5 32.5t97.5 89t72 142t28 182.5q0 121 -43 229.5t-118.5 189t-186.5 128t-239 47.5
q-150 0 -289.5 -63.5t-243 -171t-165.5 -256.5t-62 -311q0 -169 63.5 -305t189 -218t292.5 -82q117 0 238 40.5t224 113.5l7 -12q-212 -164 -476 -164q-177 0 -321 80t-226.5 225.5t-82.5 327.5q0 171 75 327t195 264t273.5 172t308.5 64q135 0 251 -49.5t195.5 -134.5
t124.5 -200t45 -245q0 -202 -103 -334.5t-288 -132.5q-95 0 -163 37.5t-85 106.5q-146 -146 -293 -146zM750 182q64 0 149 82q-4 20 -4 41q0 44 25 127l100 324q-26 39 -82 39q-61 0 -116 -53t-89.5 -130t-55 -156.5t-20.5 -138.5q0 -58 22.5 -96.5t70.5 -38.5z" />
    <glyph glyph-name="A" unicode="A" 
d="M-209 0l2 12q49 0 94.5 15t88.5 47t79 66t78 89t72.5 97.5t75.5 109.5q7 10 10 15l557 827h14l258 -1002q14 -54 28.5 -94.5t38.5 -82.5t58.5 -64.5t77.5 -22.5l-2 -12h-729l2 12q73 0 118 39.5t54 98t-4 126.5l-31 132h-446l-6 -9q-45 -60 -67.5 -126.5t-18 -125t52 -97
t135.5 -38.5l-2 -12h-588zM297 428h428l-111 467z" />
    <glyph glyph-name="B" unicode="B" horiz-adv-x="1458" 
d="M-61 0l2 12q96 0 140 42t73 167l190 823q28 126 4 167.5t-121 41.5l4 13h713q498 0 498 -267q0 -55 -21 -104t-68.5 -92t-118 -74t-175 -49t-234.5 -18l-2 -9q272 0 394 -69.5t122 -202.5q0 -77 -38.5 -144t-113.5 -121t-200.5 -85t-286.5 -31h-761zM461 14h147
q73 0 134 24t102 63.5t70 92t42 108t13 112.5q0 233 -226 233h-137zM610 662h88q95 0 167.5 29.5t116 81.5t65.5 118t22 143q0 217 -178 217h-146z" />
    <glyph glyph-name="C" unicode="C" horiz-adv-x="1449" 
d="M741 -25q-323 0 -485 142t-162 387q0 165 73 311.5t197 250.5t295 164t361 60q56 0 127.5 -6t120.5 -11t111.5 -2.5t117.5 15.5l-65 -446l-11 -2q-39 235 -135.5 337.5t-245.5 102.5q-101 0 -188 -43t-148.5 -116t-109 -163.5t-75.5 -191t-42 -193t-14 -174.5
q0 -65 9 -122.5t30 -111t53 -91.5t82 -61t113 -23q157 0 318 131.5t296 343.5l6 -2l-166 -424q-230 -62 -463 -62z" />
    <glyph glyph-name="D" unicode="D" horiz-adv-x="1619" 
d="M-61 0l2 12q96 0 140 42t73 167l190 823q28 126 4 167.5t-121 41.5l4 13h717q290 0 459.5 -136t169.5 -389q0 -156 -66.5 -292t-185.5 -235.5t-292.5 -156.5t-377.5 -57h-716zM461 14h145q109 0 201 37.5t156 102t112.5 146t77 174t42 180t13.5 171.5q0 89 -16.5 163
t-51.5 134.5t-98 94.5t-149 34h-148z" />
    <glyph glyph-name="E" unicode="E" horiz-adv-x="1335" 
d="M-61 0l2 12q96 0 140 42t73 167l190 823q28 126 4 167.5t-121 41.5l4 13h1131l-70 -432l-8 -3q0 91 -22 165.5t-67 132.5t-122 90t-180 32h-148l-141 -612h64q77 0 147 26t123 71.5t93 98.5t69 115h8l-145 -633h-9q-2 61 -17.5 113.5t-48 97.5t-90 71t-134.5 26h-64
l-139 -611h157q360 0 599 451l8 -2l-146 -463h-1140z" />
    <glyph glyph-name="F" unicode="F" horiz-adv-x="1259" 
d="M-61 0l2 12q96 0 140 42t73 167l190 823q28 126 4 167.5t-121 41.5l4 13h1121l-70 -432l-8 -3q0 186 -100 303t-291 117h-138l-145 -633h53q77 0 146.5 26t122.5 72t93 99t70 115h9l-148 -633h-8q-1 61 -16.5 113.5t-47.5 97t-90 70.5t-135 26h-53l-84 -362
q-13 -57 -13 -98.5t10.5 -67t33.5 -40t51.5 -19.5t69.5 -5l-2 -12h-723z" />
    <glyph glyph-name="G" unicode="G" horiz-adv-x="1628" 
d="M762 -25q-339 0 -504.5 138t-165.5 383q0 142 54 269.5t146.5 222t213.5 163.5t258 104t276 35q52 0 130 -6t135.5 -11t128 -2.5t125.5 15.5l-62 -426l-10 -2q-13 112 -53 195t-97.5 130.5t-123 70t-140.5 22.5q-102 0 -192.5 -41t-156 -110.5t-118 -158.5t-84.5 -188.5
t-48.5 -196.5t-16.5 -186q0 -84 15.5 -153.5t49.5 -128.5t96 -92t148 -33q120 0 248 57l78 334q29 126 1.5 174.5t-128.5 48.5l2 12h682l-2 -12q-96 0 -139 -42t-72 -167l-76 -330q-334 -88 -598 -88z" />
    <glyph glyph-name="H" unicode="H" horiz-adv-x="1699" 
d="M-61 0l2 12q96 0 140 42t73 167l190 823q28 126 4 167.5t-121 41.5l4 13h682l-4 -13q-96 0 -139 -42t-72 -167l-92 -397h549l92 397q28 126 4 167.5t-121 41.5l5 13h682l-5 -13q-96 0 -138.5 -42t-71.5 -167l-191 -823q-28 -126 -4.5 -167.5t119.5 -41.5l-2 -12h-682
l2 12q96 0 140 42t73 167l94 408h-549l-94 -408q-28 -126 -4.5 -167.5t119.5 -41.5l-2 -12h-682z" />
    <glyph glyph-name="I" unicode="I" horiz-adv-x="796" 
d="M-61 0l2 12q96 0 140 42t73 167l190 823q28 126 4 167.5t-121 41.5l4 13h682l-4 -13q-96 0 -139 -42t-72 -167l-190 -823q-28 -126 -4.5 -167.5t119.5 -41.5l-2 -12h-682z" />
    <glyph glyph-name="J" unicode="J" horiz-adv-x="778" 
d="M-178 -342l-4 10q54 25 95.5 52.5t70.5 59t48.5 58.5t34 65.5t22 65t17.5 70.5l234 1005q28 126 4 167.5t-121 41.5l4 13h682l-4 -13q-96 0 -140 -42t-73 -167l-217 -946q-19 -83 -83 -156t-157 -126.5t-196 -92.5t-217 -65z" />
    <glyph glyph-name="K" unicode="K" horiz-adv-x="1515" 
d="M-61 0l2 12q96 0 140 42t73 167l190 823q28 126 4 167.5t-121 41.5l4 13h682l-4 -13q-96 0 -139 -42t-72 -167l-120 -518l399 320q278 223 278 332q0 75 -135 75l4 13h584l-4 -13q-79 0 -162 -36t-188 -107q-45 -32 -99.5 -72.5t-129.5 -97.5t-119 -90l-17 -14l268 -646
q39 -93 80 -135.5t95 -42.5l-2 -12h-476l-243 612l-138 -110l-65 -281q-28 -126 -4.5 -167.5t119.5 -41.5l-2 -12h-682z" />
    <glyph glyph-name="L" unicode="L" horiz-adv-x="1257" 
d="M-61 0l2 12q96 0 140 42t73 167l190 823q28 126 4 167.5t-121 41.5l4 13h723l-4 -13q-106 0 -166 -46t-92 -183l-233 -1010h125q101 0 196.5 37t172 100.5t136.5 143t101 170.5l8 -2l-139 -463h-1120z" />
    <glyph glyph-name="M" unicode="M" horiz-adv-x="1933" 
d="M-135 0l2 12q155 0 244 104t176 382l123 395q29 92 36.5 154.5t-7 111t-61.5 71.5t-128 23l4 13h532l211 -842l557 842h459l-4 -13q-100 0 -149 -66t-74 -202l-125 -698q-17 -93 -14.5 -154t35 -91t102.5 -30l-2 -12h-703l2 12q98 0 148.5 61.5t73.5 192.5l137 791
l-690 -1041h-9l-266 1020l-170 -538q-36 -114 -53 -192.5t-18 -137.5t20 -92t60.5 -48.5t103.5 -15.5l-2 -12h-551z" />
    <glyph glyph-name="N" unicode="N" horiz-adv-x="1495" 
d="M-106 0l2 12q86 0 143.5 23t100 81.5t70 138t58.5 212.5l101 436q26 114 24 191.5t-48.5 118t-141.5 40.5l4 13h403l594 -815l82 348q20 89 30.5 149.5t12 115t-9 87.5t-35 57.5t-63.5 34.5t-97 10l4 13h553l-4 -13q-69 0 -119.5 -16.5t-87.5 -47t-66 -88t-51 -126.5
t-46 -176l-189 -815l-10 -2l-707 970l-112 -485q-20 -89 -30.5 -149.5t-12.5 -115.5t8.5 -88t34.5 -57.5t63 -34.5t97 -10l-3 -12h-552z" />
    <glyph glyph-name="O" unicode="O" horiz-adv-x="1624" 
d="M715 -25q-181 0 -320.5 64.5t-219 189.5t-79.5 293q0 156 70.5 299t188 245.5t277.5 163t333 60.5q181 0 320.5 -64.5t218.5 -189.5t79 -293q0 -156 -70 -299t-187.5 -245.5t-277.5 -163t-333 -60.5zM680 -10q111 0 214 81t175.5 211t116 297t43.5 334q0 176 -54 269.5
t-174 93.5q-113 0 -216.5 -82.5t-175 -213.5t-114 -297t-42.5 -331q0 -175 53 -268.5t174 -93.5z" />
    <glyph glyph-name="P" unicode="P" horiz-adv-x="1368" 
d="M-61 0l2 12q96 0 140 42t73 167l190 823q28 126 4 167.5t-121 41.5l4 13h713q239 0 359 -87.5t120 -232.5q0 -63 -21 -121.5t-70.5 -114.5t-123 -97t-185.5 -66t-251 -25h-123l2 13h39q79 0 143 30.5t104 78t67 110t38 123t11 120.5q0 254 -197 254h-111l-237 -1030
q-28 -126 -4.5 -167.5t119.5 -41.5l-2 -12h-682z" />
    <glyph glyph-name="Q" unicode="Q" horiz-adv-x="1624" 
d="M715 -25q-181 0 -320.5 64.5t-219 189.5t-79.5 293q0 156 70.5 299t188 245.5t277.5 163t333 60.5q181 0 320.5 -64.5t218.5 -189.5t79 -293q0 -148 -62.5 -284t-169 -236t-252 -165t-306.5 -78l-213 -132q12 2 41 2q71 0 172.5 -31t188.5 -68t198 -68t200 -31
q133 0 224 86l6 -6q-31 -49 -52 -79.5t-61 -77t-77 -73t-90 -47t-109 -20.5q-73 0 -188.5 34.5t-218.5 76t-225 76t-206 34.5q-104 0 -203 -59l-47 -27l-8 12l629 395q-12 -2 -39 -2zM680 -10q111 0 214 81t175.5 211t116 297t43.5 334q0 176 -54 269.5t-174 93.5
q-113 0 -216.5 -82.5t-175 -213.5t-114 -297t-42.5 -331q0 -175 53 -268.5t174 -93.5z" />
    <glyph glyph-name="R" unicode="R" horiz-adv-x="1517" 
d="M-61 0l2 12q96 0 140 42t73 167l190 823q28 126 4 167.5t-121 41.5l4 13h723q502 0 502 -301q0 -334 -629 -361l-2 -6q78 1 133.5 -1t100 -9t73 -16t49.5 -27t32 -36.5t18 -50t10 -62.5t6 -78q5 -80 10 -128q5 -53 12 -83.5t24 -54t45.5 -32t74.5 -8.5l-2 -12h-487
q-14 41 -18.5 108t-4.5 220q0 59 -1.5 93.5t-7.5 68.5t-16 50.5t-29.5 30.5t-45.5 19t-66 6h-141l-86 -375q-28 -126 -4.5 -167.5t119.5 -41.5l-2 -12h-682zM598 608h147q75 0 136.5 25.5t100.5 66t65.5 94.5t37.5 107t11 107q0 110 -51 176.5t-168 66.5h-132z" />
    <glyph glyph-name="S" unicode="S" horiz-adv-x="1226" 
d="M500 -25q-230 0 -484 54l72 389l10 2q14 -83 33.5 -146t50.5 -118.5t73.5 -91t103 -56t137.5 -20.5q85 0 150 23.5t100.5 62.5t53 83t17.5 91q0 64 -33.5 112t-87 78.5t-118 57.5t-129 58.5t-118 71t-87 106t-33.5 153.5q0 187 145 296t414 109q57 0 125 -5.5t113 -10.5
t102.5 -3.5t110.5 13.5l-78 -420l-8 -2q-20 106 -45 177.5t-66 128t-102 83.5t-146 27q-143 0 -221 -67t-78 -162q0 -59 34.5 -104t89.5 -74.5t121 -57t132.5 -62t121.5 -78.5t89.5 -116t34.5 -166q0 -198 -151.5 -307t-448.5 -109z" />
    <glyph glyph-name="T" unicode="T" horiz-adv-x="1402" 
d="M201 0l4 12q52 0 88.5 9t70.5 33t58.5 70.5t40.5 117.5l233 1009h-18q-92 0 -173.5 -35.5t-149 -102.5t-120 -141t-104.5 -171l-8 2l139 463h1227l-74 -463l-8 -2q-7 77 -18.5 138t-36 121.5t-60.5 100.5t-92.5 65t-130.5 25h-18l-234 -1009q-13 -57 -13 -98.5t10.5 -67
t33.5 -40t51.5 -19.5t69.5 -5l-4 -12h-764z" />
    <glyph glyph-name="U" unicode="U" horiz-adv-x="1466" 
d="M623 -25q-118 0 -209.5 27t-154.5 83t-82.5 143.5t5.5 209.5l131 574q32 126 8.5 183.5t-116.5 57.5l4 13h682l-4 -13q-93 0 -141 -55.5t-78 -185.5l-154 -664q-78 -336 215 -336q76 0 145.5 23.5t131.5 71t109.5 127.5t72.5 186l86 379q20 89 30.5 149.5t12 115t-9 87.5
t-35 57.5t-63.5 34.5t-97 10l4 13h553l-4 -13q-69 0 -119.5 -16.5t-87.5 -47t-66 -88.5t-51 -126.5t-47 -175.5l-88 -379q-105 -445 -583 -445z" />
    <glyph glyph-name="V" unicode="V" horiz-adv-x="1353" 
d="M559 -12l-237 1001q-30 123 -55 169q-50 95 -148 95l2 13h733l-2 -13q-72 0 -117.5 -40t-54.5 -98.5t2 -125.5l131 -614l252 397q139 215 139 350q0 131 -143 131l2 13h547l-2 -13q-88 0 -160.5 -43t-142.5 -127q-68 -79 -224 -321l-506 -774h-16z" />
    <glyph glyph-name="W" unicode="W" horiz-adv-x="2043" 
d="M524 -12l-200 1001q-6 33 -10 51.5t-14.5 55t-24.5 59.5t-34.5 48t-50.5 37.5t-67 12.5l2 13h688l-2 -13q-50 0 -83 -20t-45.5 -52.5t-16 -72t5.5 -78.5l112 -622l326 524l-8 57q-15 80 -36.5 135t-62 92t-96.5 37l2 13h729l-2 -13q-56 0 -95.5 -25t-57 -64t-25 -85.5
t1.5 -89.5l84 -569l217 352q137 223 137 352t-145 129l2 13h547l-2 -13q-165 0 -309 -174q-18 -22 -38 -48.5t-34.5 -47t-37 -56t-33 -51.5t-36.5 -59t-34 -55l-484 -774h-14l-164 915l-579 -915h-13z" />
    <glyph glyph-name="X" unicode="X" horiz-adv-x="1480" 
d="M-178 0l2 12q140 0 358 162q139 103 305 262l136 129l-177 420q-25 59 -48 101.5t-55 83.5t-71.5 62t-85.5 21l4 13h756l-4 -13q-54 0 -89.5 -20.5t-49 -53t-12.5 -70t16 -73.5l113 -274l92 92q194 191 194 305q0 45 -33.5 69.5t-93.5 24.5l4 13h609l-4 -13
q-134 0 -334 -135q-155 -108 -336 -280l-92 -88l196 -471q47 -113 115.5 -190t155.5 -77l-2 -12h-754l2 12q88 0 125.5 59t-0.5 156l-137 324l-127 -127q-176 -176 -176 -295q0 -56 40 -86.5t109 -30.5l-2 -12h-649z" />
    <glyph glyph-name="Y" unicode="Y" 
d="M199 0l2 12q52 0 88.5 9t70.5 33t58.5 70.5t40.5 117.5l71 309l-200 506q-39 98 -87.5 147t-111.5 49l2 13h711l-2 -13q-92 0 -128 -61.5t-3 -149.5l166 -440h6l213 260q151 187 151 289t-151 102l2 13h530l-2 -13q-142 0 -283 -135q-85 -82 -233 -266l-217 -262
l-80 -348q-13 -57 -13 -98.5t10.5 -67t33.5 -40t51.5 -19.5t69.5 -5l-2 -12h-764z" />
    <glyph glyph-name="Z" unicode="Z" horiz-adv-x="1325" 
d="M-57 0l-2 4l1042 1247h-209q-93 0 -186 -39.5t-169 -106t-137.5 -143.5t-105.5 -161l-10 2l145 463h1102l4 -4l-1042 -1248h246q93 0 186 40t169 106.5t137.5 143.5t105.5 161l10 -2l-146 -463h-1140z" />
    <glyph glyph-name="bracketleft" unicode="[" horiz-adv-x="700" 
d="M-68 -344l408 1761h578l-5 -12h-192q-96 0 -117 -88l-360 -1563q-21 -88 75 -88h193l-2 -10h-578z" />
    <glyph glyph-name="backslash" unicode="\" horiz-adv-x="901" 
d="M639 -334l-379 1759l16 7l381 -1760z" />
    <glyph glyph-name="bracketright" unicode="]" horiz-adv-x="702" 
d="M-205 -344l4 12h193q96 0 117 88l360 1563q21 88 -76 88h-192l2 10h577l-407 -1761h-578z" />
    <glyph glyph-name="asciicircum" unicode="^" horiz-adv-x="948" 
d="M129 680l-6 6l532 614h13l250 -614l-11 -6l-309 344z" />
    <glyph glyph-name="underscore" unicode="_" horiz-adv-x="1056" 
d="M-145 -119l4 19h1056l-4 -19h-1056z" />
    <glyph glyph-name="grave" unicode="`" horiz-adv-x="747" 
d="M791 973q-60 42 -135.5 89t-108.5 71.5t-53 52.5q-33 44 -30.5 92.5t40.5 75.5q38 28 85 14t79 -61q14 -22 30 -58.5t27.5 -69.5t33 -96.5t36.5 -105.5z" />
    <glyph glyph-name="a" unicode="a" horiz-adv-x="1202" 
d="M324 -23q-96 0 -162.5 48t-96.5 123t-30 169q0 84 24.5 165t73 151.5t114.5 124.5t154 85t187 31q142 0 227 -75l295 73l6 -2l-164 -735q-9 -40 3 -61t40 -21q29 0 105 35l-2 -12q-173 -101 -314 -101q-150 0 -157 134q-144 -132 -303 -132zM494 63q57 0 127 62l143 633
q-10 42 -37 70t-70 28q-63 0 -119.5 -65.5t-92 -160t-56 -192.5t-20.5 -170q0 -88 32 -146.5t93 -58.5z" />
    <glyph glyph-name="b" unicode="b" horiz-adv-x="1155" 
d="M487 -23q-26 0 -51.5 1.5t-62 7t-69 15t-67.5 26.5t-63 39.5t-51 57t-35 76t-12 98.5t16 124l168 721q12 52 14 90t-21.5 60t-76.5 22l4 12l457 41l-145 -633q150 139 311 139q72 0 126.5 -27t85.5 -74.5t46.5 -105t15.5 -124.5q0 -107 -38 -206.5t-109.5 -180.5
t-186.5 -130t-256 -49zM436 -8q62 0 115.5 48t87.5 119.5t58.5 156.5t35 157.5t10.5 124.5q0 80 -28 135t-88 55q-66 0 -140 -67l-141 -619q-9 -42 12 -76t78 -34z" />
    <glyph glyph-name="c" unicode="c" horiz-adv-x="1019" 
d="M428 -23q-99 0 -175.5 30t-122.5 82t-69.5 117t-23.5 140q0 109 49 208t130 168.5t187 110.5t218 41q162 0 256 -79.5t94 -184.5q0 -73 -44.5 -124.5t-119.5 -51.5q-72 0 -116 47t-44 115q0 62 37.5 108t95.5 56q-27 100 -121 100q-59 0 -109 -37.5t-82.5 -96.5
t-55.5 -133t-33 -144.5t-10 -133.5q0 -137 52 -208.5t152 -71.5q154 0 316 153l8 -8q-213 -203 -469 -203z" />
    <glyph glyph-name="d" unicode="d" horiz-adv-x="1204" 
d="M324 -23q-96 0 -162.5 48t-96.5 123t-30 169q0 84 24.5 165t73 151.5t114.5 124.5t154 85t187 31q121 0 194 -49l74 318q21 92 -9.5 132t-115.5 40l4 12l498 41l-281 -1233q-9 -40 3 -61t40 -21q29 0 105 35l-2 -12q-173 -101 -314 -101q-150 0 -157 134
q-144 -132 -303 -132zM494 63q57 0 127 62l145 629q-12 44 -39 73t-70 29q-63 0 -119.5 -65.5t-92 -160t-56 -192.5t-20.5 -170q0 -88 32 -146.5t93 -58.5z" />
    <glyph glyph-name="e" unicode="e" horiz-adv-x="1048" 
d="M442 -23q-103 0 -182.5 29t-127.5 79.5t-72.5 114.5t-24.5 138q0 105 47.5 203.5t127 171.5t189.5 117t230 44q156 0 265.5 -67t109.5 -172q0 -52 -30 -91.5t-83.5 -62t-115.5 -37t-136.5 -18.5t-136 -3.5t-123.5 5.5q-10 -56 -10 -123q0 -123 56 -195.5t165 -72.5
q154 0 317 151l8 -8q-43 -40 -84 -70.5t-100 -63.5t-133 -51t-156 -18zM633 864q-59 0 -112.5 -67t-87 -159t-52.5 -196q88 -2 155.5 22.5t105.5 68t56.5 95t18.5 109.5q0 127 -84 127z" />
    <glyph glyph-name="f" unicode="f" horiz-adv-x="741" 
d="M-72 -334q-72 0 -125 16t-81 43t-41 57t-13 62q0 64 42.5 104t101.5 40t95 -41t36 -99q0 -52 -29.5 -90t-69.5 -51q13 -26 47 -26q41 0 73 29.5t44 80.5l244 1032h-168l6 29h170l29 123q39 168 170 271.5t317 103.5q91 0 159.5 -26t104 -67.5t52 -82.5t16.5 -80
q0 -68 -46 -113t-108 -45q-63 0 -107 46t-44 112q0 56 32.5 98.5t84.5 54.5q-30 88 -103 88q-63 0 -105 -61t-65 -158l-61 -264h235l-6 -29h-237l-193 -821q-37 -158 -162 -247t-295 -89z" />
    <glyph glyph-name="g" unicode="g" horiz-adv-x="1011" 
d="M311 -356q-195 0 -320.5 38t-125.5 113q0 33 24.5 60t63.5 44t73 26t66 14q-84 38 -84 116q0 73 67.5 133.5t182.5 100.5q-87 32 -135.5 91t-48.5 142q0 144 138.5 248t356.5 104q80 0 152 -16q20 51 46.5 98t61 91t78 70t88.5 26q60 0 100 -41t40 -98t-40.5 -98.5
t-95.5 -41.5t-94 40t-39 95q0 13 4 37q-77 -38 -139 -182q105 -28 165 -92t60 -156q0 -101 -69.5 -182.5t-182.5 -124.5t-243 -43q-111 0 -191 29q-63 -28 -63 -66q0 -25 37 -37.5t95.5 -16.5t129.5 -7t142.5 -14t130 -32t95.5 -67t37 -113q0 -47 -17.5 -88t-58.5 -78
t-104.5 -64t-161 -42.5t-221.5 -15.5zM342 -346q86 0 149.5 11.5t94.5 26.5t49 35.5t21 32t3 23.5q0 48 -63 72t-145.5 28t-186.5 16t-162 35q-82 -50 -82 -124q0 -156 322 -156zM578 864q-61 0 -111.5 -70t-76 -168t-25.5 -194q0 -166 90 -166q60 0 110 69t75.5 167.5
t25.5 197.5q0 164 -88 164z" />
    <glyph glyph-name="h" unicode="h" horiz-adv-x="1204" 
d="M16 0l267 1143q12 52 14 90t-21.5 60t-76.5 22l4 12l456 41l-163 -706q108 99 202.5 155.5t190.5 56.5q103 0 158 -69t24 -211l-102 -459q-9 -40 3 -61t40 -21t104 35l-2 -12q-173 -101 -313 -101q-100 0 -136 60.5t-12 163.5l109 465q22 98 -57 98q-46 0 -96 -32
t-120 -91l-147 -639h-326z" />
    <glyph glyph-name="i" unicode="i" horiz-adv-x="641" 
d="M231 -25q-100 0 -135.5 60.5t-11.5 163.5l117 516q9 40 -3 61t-40 21q-29 0 -105 -35l2 12q171 100 314 100q100 0 135.5 -60t11.5 -163l-117 -516q-9 -40 3 -61t40 -21q29 0 105 35l-2 -12q-173 -101 -314 -101zM461 977q-79 0 -134 51t-55 129q0 77 55 127.5t134 50.5
t133.5 -50.5t54.5 -127.5q0 -78 -54.5 -129t-133.5 -51z" />
    <glyph glyph-name="j" unicode="j" horiz-adv-x="626" 
d="M-78 -334q-72 0 -125 16t-81 43t-41 57t-13 62q0 64 42 104t101 40t95.5 -41t36.5 -99q0 -53 -29 -90.5t-70 -50.5q13 -26 47 -26q41 0 73 29.5t44 80.5l213 924q9 40 -3 61t-40 21t-104 -35l2 12q171 100 313 100q100 0 135.5 -60t11.5 -163l-151 -649
q-37 -158 -162 -247t-295 -89zM475 977q-79 0 -133.5 51t-54.5 129q0 77 54.5 127.5t133.5 50.5t134 -50.5t55 -127.5q0 -78 -55 -129t-134 -51z" />
    <glyph glyph-name="k" unicode="k" horiz-adv-x="1105" 
d="M18 0l265 1143q12 52 14 90t-21.5 60t-76.5 22l4 12l456 41l-221 -954q351 31 436 151q-58 11 -103.5 48.5t-45.5 103.5q0 65 45.5 112.5t110.5 47.5q61 0 109 -43.5t48 -114.5q0 -82 -70.5 -145t-193.5 -105l144 -389q10 -27 40 -27q29 0 105 35l-2 -12
q-173 -101 -311 -101q-120 0 -154 93l-123 338q-30 -5 -37 -5l-92 -401h-326z" />
    <glyph glyph-name="l" unicode="l" horiz-adv-x="632" 
d="M215 -25q-100 0 -135.5 60.5t-11.5 163.5l219 944q12 52 14 90t-21.5 60t-76.5 22l4 12l457 41l-281 -1233q-9 -40 3 -61t40 -21t104 35l-2 -12q-173 -101 -313 -101z" />
    <glyph glyph-name="m" unicode="m" horiz-adv-x="1751" 
d="M49 0l162 715q9 40 -3 61t-40 21q-29 0 -105 -35l3 12q171 100 309 100q182 0 143 -206q98 96 184.5 151t180.5 55q88 0 140.5 -53t45.5 -162q104 101 191 158t182 57q48 0 85.5 -15t65.5 -48.5t34 -87t-9 -129.5l-102 -457q-9 -40 3 -61t40 -21t104 35l-2 -12
q-173 -101 -309 -101q-100 0 -132.5 60t-7.5 164l107 463q11 46 -3 72t-52 26q-32 0 -70 -21.5t-58 -39t-69 -62.5l-141 -639h-322l156 664q11 46 -3 72t-52 26q-31 0 -67 -19t-61 -39.5t-65 -58.5l-145 -645h-318z" />
    <glyph glyph-name="n" unicode="n" horiz-adv-x="1234" 
d="M49 0l162 715q9 40 -3 61t-40 21q-29 0 -105 -35l3 12q171 100 313 100q96 0 132.5 -56t16.5 -154q107 98 201.5 154t190.5 56q103 0 158 -69t24 -211l-103 -459q-9 -40 3 -61t40 -21q29 0 105 35l-2 -12q-173 -101 -314 -101q-100 0 -135.5 60.5t-11.5 163.5l109 465
q11 46 -4 72t-54 26q-32 0 -72 -20.5t-65.5 -40.5t-73.5 -60l-145 -641h-330z" />
    <glyph glyph-name="o" unicode="o" horiz-adv-x="1169" 
d="M479 -23q-122 0 -220.5 40t-160 125.5t-61.5 205.5q0 142 84 264t224.5 192t301.5 70q85 0 161.5 -21t141.5 -63.5t103.5 -115.5t38.5 -168q0 -144 -84.5 -266.5t-225.5 -192.5t-303 -70zM461 -8q55 0 104 38.5t83 101.5t61.5 139t43.5 155t24.5 145.5t8.5 114.5
q0 174 -116 174q-65 0 -121.5 -55t-92.5 -137t-62.5 -179.5t-38 -180.5t-11.5 -142q0 -174 117 -174z" />
    <glyph glyph-name="p" unicode="p" horiz-adv-x="1200" 
d="M-156 -334l2 12q76 0 110 44.5t56 134.5l199 858q9 40 -3 61t-40 21q-29 0 -105 -35l3 12q171 100 313 100q146 0 156 -129q140 129 299 129q142 0 216 -96.5t74 -242.5q0 -142 -67 -268.5t-196 -208t-292 -81.5q-118 0 -192 46l-43 -183q-20 -80 3.5 -121t100.5 -41
l-2 -12h-592zM668 788q-56 0 -125 -57l-135 -581q-17 -71 9 -112.5t85 -41.5q66 0 123 67t92 164t54.5 194.5t19.5 168.5q0 88 -31.5 143t-91.5 55z" />
    <glyph glyph-name="q" unicode="q" horiz-adv-x="1175" 
d="M373 -334l4 12q79 0 120.5 44.5t63.5 134.5l60 260q-147 -140 -312 -140q-72 0 -126.5 27t-85.5 74.5t-46.5 105t-15.5 123.5q0 109 41 210.5t114 181t185 127.5t243 48q47 0 105.5 -7.5t103 -14t120 -5t165.5 16.5l6 -2l-231 -1005q-11 -43 -13.5 -72t3.5 -55t29 -39
t63 -13l-4 -12h-592zM676 860q-62 0 -115.5 -48t-87.5 -119.5t-58.5 -156.5t-35 -157.5t-10.5 -124.5q0 -80 28 -135.5t88 -55.5q66 0 140 70l145 629q5 39 -18 68.5t-76 29.5z" />
    <glyph glyph-name="r" unicode="r" horiz-adv-x="954" 
d="M49 0l162 715q9 40 -3 61t-40 21q-29 0 -105 -35l3 12q171 100 311 100q97 0 130 -59t9 -162l-24 -108q23 63 53 118t69 104t89 78t104 29q73 0 120.5 -50.5t47.5 -121.5q0 -72 -48.5 -122t-117.5 -50t-117.5 49.5t-48.5 120.5q0 15 4 35q-83 -45 -149 -211l-123 -524
h-326z" />
    <glyph glyph-name="s" unicode="s" horiz-adv-x="929" 
d="M346 -23q-151 0 -248.5 61.5t-97.5 147.5q0 54 37 96t94 42q55 0 90 -37t35 -92q0 -41 -20 -72.5t-54 -46.5q42 -86 158 -86q88 0 150.5 43.5t62.5 109.5q0 39 -24.5 68.5t-63.5 48t-86.5 35.5t-95 38t-86.5 47.5t-63.5 72t-24.5 104.5q0 139 120 228t301 89
q149 0 245.5 -59.5t96.5 -144.5q0 -54 -36.5 -96t-90.5 -42q-52 0 -88 38t-36 92q0 38 19.5 68.5t53.5 43.5q-43 88 -147 88q-79 0 -140 -41t-61 -106q0 -38 25 -66.5t64.5 -47t88 -35t96.5 -37t87.5 -47t64.5 -71.5t25 -104q0 -97 -63.5 -173.5t-165.5 -116.5t-222 -40z
" />
    <glyph glyph-name="t" unicode="t" horiz-adv-x="755" 
d="M307 -23q-125 0 -181.5 72.5t-23.5 212.5l129 561h-125l7 29h125l51 221l340 64l-66 -285h250l-6 -29h-252l-141 -616q-18 -75 -0.5 -107t67.5 -32q95 0 221 114l9 -8q-92 -86 -190 -141.5t-214 -55.5z" />
    <glyph glyph-name="u" unicode="u" horiz-adv-x="1232" 
d="M287 -23q-113 0 -169 69.5t-24 211.5l101 457q9 40 -3 61t-40 21q-29 0 -105 -35l2 12q171 100 313 100q101 0 136.5 -60t11.5 -163l-100 -430q-16 -72 5.5 -106.5t71.5 -34.5q74 0 172 76l160 696h326l-162 -717q-9 -40 3 -61t40 -21t104 35l-2 -12q-173 -101 -313 -101
q-85 0 -124 43.5t-34 120.5q-191 -162 -370 -162z" />
    <glyph glyph-name="v" unicode="v" horiz-adv-x="991" 
d="M326 -8h-7l-155 768q-6 37 -45 37q-29 0 -105 -35l2 12q171 100 314 100q68 0 106.5 -28t46.5 -78l92 -580q255 212 277 379q-27 -10 -64 -10q-70 0 -113.5 45.5t-43.5 110.5q0 68 46.5 114.5t119.5 46.5q56 0 93.5 -30t51.5 -69t14 -81q0 -76 -51.5 -166.5
t-141.5 -182.5t-199.5 -180t-237.5 -173z" />
    <glyph glyph-name="w" unicode="w" horiz-adv-x="1490" 
d="M309 -8h-6l-139 768q-6 37 -45 37q-29 0 -105 -35l2 12q171 100 314 100q130 0 143 -106l80 -590q129 104 203 195l-88 479h315l90 -670q258 218 279 385q-27 -10 -64 -10q-70 0 -114 45.5t-44 110.5q0 68 46.5 114.5t119.5 46.5q42 0 74.5 -17t50.5 -45t26.5 -57.5
t8.5 -60.5q0 -100 -90 -226.5t-226 -243.5t-309 -232h-6l-65 352q-156 -156 -451 -352z" />
    <glyph glyph-name="x" unicode="x" horiz-adv-x="1071" 
d="M113 -23q-70 0 -118 41.5t-48 112.5q0 70 46.5 116t108.5 46q66 0 113 -50t43 -139q78 35 145 209l-161 447q-13 37 -56 37q-28 0 -104 -35l2 12q171 100 313 100q64 0 96.5 -26.5t51.5 -79.5l76 -215q111 324 297 324q70 0 117.5 -41.5t47.5 -112.5q0 -70 -46.5 -116
t-108.5 -46q-65 0 -112.5 51t-43.5 138q-79 -39 -145 -209l164 -449q13 -37 55 -37q28 0 104 35l-2 -12q-173 -101 -313 -101q-64 0 -96 27.5t-52 79.5l-79 219q-52 -151 -122.5 -238.5t-172.5 -87.5z" />
    <glyph glyph-name="y" unicode="y" horiz-adv-x="991" 
d="M-174 -356q-51 0 -81 25t-30 63q0 54 37.5 84t100.5 41.5t131.5 18.5t144.5 26.5t125 54.5l63 45l-153 758q-6 37 -45 37q-29 0 -105 -35l2 12q171 100 314 100q68 0 106.5 -28t46.5 -78l92 -580q255 212 277 379q-27 -10 -64 -10q-70 0 -113.5 45.5t-43.5 110.5
q0 68 46.5 114.5t119.5 46.5q56 0 93.5 -30t51.5 -69t14 -81q0 -73 -48.5 -161t-134 -177.5t-190 -175t-227.5 -168.5l-53 -37q-29 -20 -72 -64.5t-85 -87.5t-92 -85t-109 -68t-119 -26z" />
    <glyph glyph-name="z" unicode="z" horiz-adv-x="1015" 
d="M94 -16q-62 0 -93.5 30.5t-31.5 79.5q0 75 69.5 126.5t194.5 51.5h15l452 306q-36 3 -170 20.5t-208 17.5q-98 0 -150.5 -30t-81.5 -115l-8 2q8 46 21 93t38 105t56 101t79.5 72.5t104.5 29.5q43 0 75.5 -16.5t56.5 -46t46 -62t55 -72.5t72 -69q-14 102 42.5 180
t152.5 78q62 0 93.5 -30.5t31.5 -79.5q0 -75 -70 -126.5t-193 -51.5h-16l-453 -308q29 -2 153 -18t212 -16q47 0 79.5 4.5t67.5 18.5t59.5 44t39.5 76l8 -2q-8 -46 -21 -93.5t-38 -105t-56 -101t-79.5 -73t-104.5 -29.5q-52 0 -92 27.5t-63.5 64t-64.5 88.5t-87 87
q11 -101 -41 -179.5t-152 -78.5z" />
    <glyph glyph-name="braceleft" unicode="{" horiz-adv-x="757" 
d="M543 -356q-86 0 -151 5t-122.5 18.5t-94 35.5t-57 57t-20.5 82q0 48 22 104.5t48 103t48 115.5t22 138q0 121 -66 174t-199 53l2 13q161 0 258.5 72t137.5 245q18 76 22.5 181.5t12.5 142.5q16 73 60.5 122t118 76t161 37.5t208.5 10.5l-2 -9q-78 -2 -129 -18t-89 -55.5
t-55 -109t-17 -175.5q0 -23 1 -95t1 -83q0 -78 -23.5 -135.5t-67 -96t-113.5 -62.5t-155.5 -35t-200.5 -13l-2 -15q228 -16 336.5 -57t108.5 -133q0 -48 -31 -122.5t-68.5 -141.5t-68.5 -148t-31 -141q0 -63 42.5 -96.5t154.5 -36.5z" />
    <glyph glyph-name="bar" unicode="|" horiz-adv-x="280" 
d="M-68 -344l408 1761h18l-407 -1761h-19z" />
    <glyph glyph-name="braceright" unicode="}" horiz-adv-x="753" 
d="M-188 -356l2 8q78 2 129 18t89 55.5t55 109t17 175.5q0 24 -1 95t-1 83q0 78 23.5 135.5t67 96t113.5 62.5t155.5 35t200.5 13l2 15q-228 16 -336.5 57t-108.5 133q0 48 31 122.5t68.5 141.5t68.5 148t31 141q0 63 -42.5 96.5t-154.5 36.5l2 9q86 0 151.5 -5.5t122.5 -19
t93.5 -35.5t57 -57t20.5 -82q0 -48 -22 -104.5t-48 -103t-48 -115.5t-22 -138q0 -121 66 -174t199 -53l-2 -13q-161 0 -258.5 -72t-137.5 -245q-18 -76 -22.5 -181.5t-12.5 -142.5q-16 -73 -60.5 -122t-118 -75.5t-161 -37t-208.5 -10.5z" />
    <glyph glyph-name="asciitilde" unicode="~" horiz-adv-x="950" 
d="M100 362l-8 3q39 89 65 140t60.5 97.5t72.5 66t87 19.5q57 0 163.5 -42t161.5 -42q103 0 160 103l8 -2q-68 -158 -102 -210q-78 -111 -180 -114q-57 0 -165 42t-163 42q-100 0 -160 -103z" />
    <glyph glyph-name="exclamdown" unicode="&#xa1;" horiz-adv-x="548" 
d="M66 -463q-73 0 -124 41.5t-51 116.5q0 44 20.5 88t57 97t79 116.5t96.5 172.5t98 239h14q-17 -204 -8 -300t28 -194.5t19 -138.5q0 -106 -68 -172t-161 -66zM309 846q73 0 125.5 -52t52.5 -126t-52.5 -126.5t-125.5 -52.5t-125.5 52.5t-52.5 126.5t52.5 126t125.5 52z
" />
    <glyph glyph-name="cent" unicode="&#xa2;" horiz-adv-x="1062" 
d="M469 14l45 197q-103 0 -182.5 30t-126.5 82t-70.5 117t-23.5 140q0 150 88.5 276t230 193t295.5 57l41 174h16l-41 -174q142 -13 222.5 -89.5t80.5 -172.5q0 -73 -44 -124.5t-119 -51.5q-72 0 -116 46.5t-44 114.5q0 62 37.5 108t95.5 56q-28 101 -121 101
q-73 0 -132 -56.5t-92 -142.5t-50 -176t-17 -170q0 -137 52.5 -209t152.5 -72q153 0 316 154l8 -8q-201 -192 -441 -203l-45 -197h-16z" />
    <glyph glyph-name="sterling" unicode="&#xa3;" horiz-adv-x="1343" 
d="M205 -14q-84 0 -127 40.5t-43 104.5q0 87 79 134.5t218 47.5q50 0 112 -6q-4 55 -24.5 111.5t-55.5 127t-51 111.5h-209l5 19h198q-31 88 -31 168q0 137 83.5 240t219.5 154.5t302 51.5q100 0 180.5 -20.5t131 -53t84 -76.5t47 -87t13.5 -88q0 -85 -47 -139t-119 -54
t-122 51t-50 125q0 67 42.5 116.5t105.5 57.5q-49 150 -203 150q-67 0 -118.5 -26t-88 -77t-61.5 -115t-45 -153q-12 -51 -43 -225h319l-4 -19h-317q-24 -142 -45 -239q-17 -77 -29 -117q34 -3 124 -12.5t148 -14t101 -4.5q139 0 212.5 62.5t114.5 218.5h13
q-7 -52 -14.5 -93.5t-22.5 -104.5t-32.5 -111t-45.5 -100.5t-61.5 -87t-81.5 -57t-103 -22.5q-53 0 -95 19.5t-72.5 52t-58 67t-65 73t-79.5 61.5q-89 -262 -289 -262zM205 0q61 0 108 25.5t74.5 67t42 86.5t16.5 91q-73 25 -143 25t-124.5 -16t-90 -54t-35.5 -94t37 -93.5
t115 -37.5z" />
    <glyph glyph-name="yen" unicode="&#xa5;" horiz-adv-x="1579" 
d="M291 0l2 12q52 0 88.5 9t70.5 33t58.5 70.5t40.5 117.5l37 164h-299l4 18h299l29 125l-54 135h-213l4 18h203l-141 355q-39 98 -87.5 147t-111.5 49l2 13h692l-2 -13q-92 0 -128 -61.5t-3 -149.5l160 -428h4l201 248q151 187 151 289t-151 102l2 13h530l-2 -13
q-81 0 -151 -36.5t-144 -110.5q-59 -57 -221 -254l-123 -150h250l-4 -18h-262l-66 -80l-41 -180h308l-4 -18h-308l-37 -164q-13 -57 -13 -98.5t10.5 -67t33.5 -40t51.5 -19.5t69.5 -5l-2 -12h-733z" />
    <glyph glyph-name="brokenbar" unicode="&#xa6;" horiz-adv-x="296" 
d="M-59 -344l188 819h18l-188 -819h-18zM182 700l166 717h19l-166 -717h-19z" />
    <glyph glyph-name="section" unicode="&#xa7;" horiz-adv-x="1026" 
d="M383 -145q-186 0 -283.5 66t-97.5 153q0 53 36 86t87 33q52 0 87.5 -36t35.5 -87q0 -44 -26 -78t-66 -43q50 -84 204 -84q70 0 119 17.5t71.5 45.5t31 53t8.5 50q0 44 -26.5 77.5t-69.5 55t-94.5 40.5t-103 40.5t-94.5 47.5t-69.5 68.5t-26.5 98.5q0 51 21.5 93
t67.5 77.5t93.5 61.5t123.5 61q-75 38 -117.5 92t-42.5 137q0 134 111.5 221.5t312.5 87.5q91 0 160 -19.5t107.5 -51.5t57.5 -68.5t19 -75.5q0 -58 -37 -90.5t-86 -32.5q-52 0 -87.5 36t-35.5 87q0 45 27 79.5t69 43.5q-42 82 -174 82q-109 0 -164 -50t-55 -118
q0 -44 26.5 -77t69 -54.5t94 -40.5t102.5 -41t93.5 -50t69 -73t26.5 -104q0 -88 -64 -149t-228 -136q70 -38 109.5 -90.5t39.5 -132.5q0 -133 -110 -221t-322 -88zM657 393q4 3 20 13.5t23.5 15.5t20 17t19 22.5t11.5 26t5 32.5q0 37 -19.5 65.5t-57 49.5t-75 36t-91.5 36
t-89 38q-115 -52 -115 -133q0 -44 35.5 -77t80 -50t117 -43.5t115.5 -48.5z" />
    <glyph glyph-name="dieresis" unicode="&#xa8;" horiz-adv-x="1003" 
d="M582 1006q-59 0 -102.5 43t-43.5 104q0 59 41.5 101t102.5 42q60 0 102.5 -42t42.5 -103q0 -60 -42 -102.5t-101 -42.5zM975 1006q-59 0 -102.5 43t-43.5 104q0 59 41.5 101t102.5 42q60 0 102.5 -42t42.5 -103q0 -60 -42 -102.5t-101 -42.5z" />
    <glyph glyph-name="copyright" unicode="&#xa9;" horiz-adv-x="1505" 
d="M762 258q-201 0 -311.5 81.5t-110.5 227.5q0 123 76 225t203 159t274 57q38 0 105 -5.5t99.5 -6t96.5 9.5l-41 -267l-6 -2q-23 139 -86.5 200.5t-147.5 61.5q-60 0 -109.5 -29t-82 -77t-56.5 -104t-36.5 -116.5t-18.5 -108.5t-6 -85q0 -95 39.5 -154t120.5 -59
q177 0 360 289l4 -4l-104 -258q-138 -35 -262 -35zM711 -25q-167 0 -303 80t-212.5 217.5t-76.5 302.5q0 143 60.5 276t160.5 228.5t234 153t276 57.5q167 0 303 -79.5t212.5 -217t76.5 -303.5q0 -143 -60 -275.5t-159.5 -228.5t-234 -153.5t-277.5 -57.5zM713 -6
q186 0 350 93.5t263 254.5t99 346q0 161 -74.5 295.5t-207 212.5t-295.5 78q-111 0 -217.5 -35.5t-195 -100.5t-156 -150t-105 -191.5t-37.5 -218.5q0 -160 74.5 -294t207 -212t294.5 -78z" />
    <glyph glyph-name="ordfeminine" unicode="&#xaa;" horiz-adv-x="1110" 
d="M406 578q-94 0 -155 43.5t-61 126.5q0 108 101 164.5t256 56.5q89 0 164 -23l41 176q19 78 -5.5 126t-103.5 48q-54 0 -99.5 -20.5t-66.5 -50.5q34 -15 54 -48t20 -71q0 -54 -36.5 -88.5t-90.5 -34.5q-58 0 -91.5 38t-33.5 87q0 85 100.5 142t249.5 57q56 0 109.5 -8.5
t105 -29t87 -51t51.5 -77.5t2 -105l-82 -356q-9 -43 30 -43q19 0 43 14t39 28t41 40l8 -8q-55 -61 -113.5 -96t-138.5 -35q-142 0 -163 112q-110 -114 -262 -114zM547 643q55 0 106 55l56 236q-40 12 -74 12q-46 0 -80.5 -20t-52 -52t-25.5 -64t-8 -65q0 -102 78 -102z
M100 434l4 19h883l-4 -19h-883z" />
    <glyph glyph-name="guillemotleft" unicode="&#xab;" horiz-adv-x="1193" 
d="M532 47l-497 408l2 8l686 407l4 -8l-508 -403l322 -404zM1010 47l-498 408l2 8l686 407l4 -8l-508 -403l322 -404z" />
    <glyph glyph-name="uni00AD" unicode="&#xad;" horiz-adv-x="776" 
d="M100 442l19 84h540l-18 -84h-541z" />
    <glyph glyph-name="registered" unicode="&#xae;" horiz-adv-x="823" 
d="M561 942q0 40 -10.5 51t-42.5 11h-25l-20 -93q-6 -32 0 -40.5t29 -8.5l-3 -6h-174l2 6q24 0 33.5 9t16.5 40l49 205q7 32 1 40.5t-30 8.5l2 6h186q125 0 125 -75q0 -83 -157 -88v-2q27 0 45.5 -1t30.5 -6t18.5 -8.5t9.5 -14.5t3.5 -18t1 -25t1.5 -30q2 -24 9 -32.5
t30 -8.5l-2 -6h-123q-6 21 -6 86zM606 1110q0 55 -53 55h-33l-35 -155h37q42 0 63 32.5t21 67.5zM492 694q-125 0 -208 84t-83 207q0 141 106.5 244.5t247.5 103.5q125 0 207 -84t82 -207q0 -141 -106.5 -244.5t-245.5 -103.5zM494 711q132 0 232.5 97.5t100.5 231.5
q0 117 -78 197t-196 80q-133 0 -234.5 -98t-101.5 -232q0 -116 79 -196t198 -80z" />
    <glyph glyph-name="macron" unicode="&#xaf;" horiz-adv-x="907" 
d="M385 1024l18 82h615l-19 -82h-614z" />
    <glyph glyph-name="degree" unicode="&#xb0;" horiz-adv-x="796" 
d="M481 780q-54 0 -104 12.5t-94.5 38t-71.5 73t-27 110.5q0 90 53.5 159.5t136.5 104.5t179 35q42 0 81.5 -7t79 -24t68.5 -42.5t47.5 -67t18.5 -93.5q0 -134 -109.5 -216.5t-257.5 -82.5zM459 791q52 0 92 52t59.5 126t29 134.5t9.5 96.5q0 42 -18.5 72.5t-57.5 30.5
q-50 0 -89.5 -51t-60 -123t-30.5 -134.5t-10 -101.5q0 -44 18 -73t58 -29z" />
    <glyph glyph-name="plusminus" unicode="&#xb1;" horiz-adv-x="1144" 
d="M508 211l102 446h-446l4 19h446l105 446h18l-104 -446h446l-4 -19h-446l-103 -446h-18zM12 0l4 18h912l-4 -18h-912z" />
    <glyph glyph-name="twosuperior" unicode="&#xb2;" horiz-adv-x="829" 
d="M121 686q5 84 31 135.5t90 98.5q39 29 106.5 67t120 69t105 71.5t81.5 93.5t29 116q0 140 -133 140q-58 0 -105 -27t-75 -70q36 -8 62 -39.5t26 -76.5q0 -51 -33.5 -85t-83.5 -34t-82.5 36.5t-32.5 84.5q0 85 103.5 153t271.5 68q87 0 157 -18.5t118.5 -66t48.5 -118.5
q0 -69 -46 -114t-125 -71.5t-165.5 -48.5t-187.5 -62t-171 -95q-54 -44 -61 -64q75 101 252 101q51 0 141.5 -11.5t130.5 -11.5q79 0 124 34t48 122h8q1 -38 -4.5 -85t-23 -102.5t-44 -100.5t-71.5 -75t-102 -30q-47 0 -85.5 21.5t-65.5 52t-53 60.5t-61 51.5t-77 21.5
q-70 0 -111 -55t-43 -136h-12z" />
    <glyph glyph-name="threesuperior" unicode="&#xb3;" horiz-adv-x="833" 
d="M451 672q-161 0 -243.5 49t-82.5 123q0 52 34.5 89.5t86.5 37.5q49 0 80.5 -34.5t31.5 -84.5q0 -43 -25.5 -75.5t-66.5 -43.5q35 -47 121 -47q104 0 162.5 70t58.5 168q0 76 -42 115.5t-138 39.5q-29 0 -49.5 -3.5t-30.5 -7t-14 -3.5q-8 0 -15.5 4.5t-7.5 11.5
q0 10 10 16.5t21 6.5q3 0 28 -8.5t62 -8.5q66 0 116 22t78.5 59t42 78.5t13.5 86.5q0 137 -135 137q-94 0 -144 -57q31 -11 54.5 -43t23.5 -72q0 -47 -32 -79.5t-82 -32.5q-51 0 -81 34.5t-30 77.5q0 82 100 135.5t254 53.5q149 0 236.5 -53t87.5 -142q0 -55 -34.5 -96
t-95.5 -64t-135.5 -34t-162.5 -11h-14l-3 -6h17q158 0 256 -48t98 -142q0 -72 -59.5 -123t-149.5 -73.5t-200 -22.5z" />
    <glyph glyph-name="acute" unicode="&#xb4;" horiz-adv-x="747" 
d="M385 975l-4 4q250 289 307 336q50 39 94.5 37.5t73.5 -37.5q24 -29 22 -61t-17.5 -58t-39.5 -45q-28 -22 -91.5 -48t-173.5 -65t-171 -63z" />
    <glyph glyph-name="mu" unicode="&#xb5;" horiz-adv-x="1263" 
d="M96 -410q-42 0 -69.5 21t-37.5 62t-12.5 84t6.5 105.5t17.5 106t22.5 105.5l178 770l331 28l-151 -651q-16 -72 6 -106.5t72 -34.5q74 0 172 76l157 686l332 30l-166 -737q-9 -40 3 -61t40 -21q29 0 105 35l-2 -12q-173 -101 -314 -101q-85 0 -123.5 43.5t-33.5 120.5
q-191 -162 -371 -162q-90 0 -145.5 43.5t-59.5 131.5l-14 -68q-12 -51 1.5 -97t42 -82t58 -68t52 -68t22.5 -70q0 -44 -30.5 -76.5t-88.5 -32.5z" />
    <glyph glyph-name="paragraph" unicode="&#xb6;" horiz-adv-x="1032" 
d="M383 -121l154 662q-189 0 -290.5 84t-101.5 213q0 116 73.5 214.5t199.5 156t274 57.5h434l-4 -15h-123l-317 -1372h-16l317 1372h-264l-318 -1372h-18z" />
    <glyph glyph-name="periodcentered" unicode="&#xb7;" horiz-adv-x="544" 
d="M272 348q-74 0 -126 52t-52 126t52.5 126.5t125.5 52.5q74 0 126.5 -52.5t52.5 -126.5q0 -73 -52.5 -125.5t-126.5 -52.5z" />
    <glyph glyph-name="cedilla" unicode="&#xb8;" horiz-adv-x="700" 
d="M242 -477q-83 0 -155 18t-112 49l11 11q23 -19 74.5 -32t101.5 -13q92 0 140 50.5t48 127.5q0 56 -26 93.5t-84 37.5q-38 0 -80 -17l-4 7l188 143l14 -6l-153 -119q59 16 135 16q113 0 177.5 -39t64.5 -118q0 -69 -50 -118t-125 -70t-165 -21z" />
    <glyph glyph-name="onesuperior" unicode="&#xb9;" horiz-adv-x="565" 
d="M61 686v8q80 0 123.5 29.5t65.5 118.5l112 454q9 36 -0.5 52t-44.5 16h-94l4 8q233 25 410 101l6 -3l-156 -643q-8 -31 -9.5 -53.5t4.5 -36.5t14 -23t24 -13.5t30.5 -5.5t37.5 -1l-2 -8h-525z" />
    <glyph glyph-name="ordmasculine" unicode="&#xba;" horiz-adv-x="1081" 
d="M588 578q-104 0 -188.5 33t-137.5 105t-53 173q0 172 139 295t346 123q165 0 272 -83.5t107 -230.5q0 -171 -139.5 -293t-345.5 -122zM565 590q72 0 129.5 87t86 208t28.5 241q0 81 -19 124.5t-71 43.5q-54 0 -102 -51.5t-78.5 -131.5t-48 -173t-17.5 -180
q0 -80 19.5 -124t72.5 -44zM121 434l4 19h807l-4 -19h-807z" />
    <glyph glyph-name="guillemotright" unicode="&#xbb;" horiz-adv-x="1193" 
d="M-33 47l-4 8l508 404l-321 403l8 8l497 -407l-2 -8zM444 47l-4 8l508 404l-321 403l8 8l498 -407l-3 -8z" />
    <glyph glyph-name="onequarter" unicode="&#xbc;" horiz-adv-x="1910" 
d="M80 481v8q80 0 123 29.5t65 118.5l113 455q9 36 -0.5 51.5t-44.5 15.5h-94l4 8q232 25 409 101l7 -2l-156 -643q-9 -37 -8.5 -62t7 -39t23.5 -21.5t33.5 -9.5t44.5 -2l-2 -8h-524zM381 -16l-12 8l1155 1294l12 -8zM1200 0v8q79 0 122.5 29.5t66.5 118.5l12 49h-434l-2 6
l131 78q99 60 163 154t64 186q0 102 -74 172q65 3 125.5 -3.5t115 -24t87.5 -52t33 -82.5t-33.5 -90.5t-93 -78t-119 -63.5t-134.5 -62t-116 -58l-121 -72h410l27 98l280 213h6l-74 -311q39 -1 64 2t37 6.5t16 3.5q10 0 16.5 -5t6.5 -11q0 -10 -10 -15.5t-21 -5.5
q-5 0 -15.5 3t-34.5 6t-61 2l-14 -60q-8 -31 -9.5 -53.5t4 -37t13 -23t23.5 -13t30.5 -5.5t38.5 -1l-2 -8h-524z" />
    <glyph glyph-name="onehalf" unicode="&#xbd;" horiz-adv-x="1912" 
d="M63 481v8q80 0 123.5 29.5t65.5 118.5l113 455q9 36 -1 51.5t-45 15.5h-94l4 8q233 25 410 101l6 -2l-156 -643q-9 -37 -8.5 -62t7 -39t23.5 -21.5t34 -9.5t45 -2l-2 -8h-525zM365 -16l-13 8l1155 1294l13 -8zM1036 0q5 84 31 135t90 98q39 29 106.5 67t120 69t105 72
t81.5 94t29 116q0 140 -133 140q-58 0 -105 -27t-75 -70q36 -8 62 -39.5t26 -76.5q0 -51 -33.5 -85t-83.5 -34t-82 36.5t-32 84.5q0 85 103.5 153t271.5 68q64 0 119.5 -11t102.5 -34t74 -63.5t27 -94.5q0 -69 -46 -114t-125 -71.5t-165 -48.5t-187 -62t-171 -95
q-56 -45 -62 -64q75 101 252 101q51 0 142 -11.5t131 -11.5q79 0 124 34t48 122h8q1 -38 -5 -85t-23 -102.5t-44 -100.5t-72 -75t-102 -30q-47 0 -85.5 21t-65.5 51.5t-53 61t-61 51.5t-77 21q-70 0 -110.5 -54.5t-42.5 -135.5h-13z" />
    <glyph glyph-name="threequarters" unicode="&#xbe;" horiz-adv-x="2039" 
d="M510 -16l-12 8l1155 1294l12 -8zM1329 0v8q79 0 122.5 29.5t66.5 118.5l12 49h-434l-2 6l131 78q99 60 163 154t64 186q0 102 -74 172q65 3 125.5 -3.5t115 -24t87.5 -52t33 -82.5t-33.5 -90.5t-93 -78t-119 -63.5t-134.5 -62t-116 -58l-121 -72h410l27 98l280 213h6
l-73 -311q39 -1 64 2t36.5 6.5t15.5 3.5q10 0 16.5 -5t6.5 -11q0 -10 -10 -15.5t-21 -5.5q-5 0 -15.5 3t-34.5 6t-61 2l-14 -60q-8 -31 -9.5 -53.5t4 -37t13 -23t23.5 -13t30.5 -5.5t38.5 -1l-2 -8h-524zM440 467q-161 0 -243 49t-82 123q0 52 34.5 89.5t86.5 37.5
q49 0 80.5 -34.5t31.5 -84.5q0 -43 -25.5 -75.5t-66.5 -43.5q35 -47 121 -47q104 0 162.5 70t58.5 168q0 76 -42 115.5t-138 39.5q-29 0 -49.5 -3.5t-31 -7t-13.5 -3.5q-8 0 -15.5 5t-7.5 12q0 10 9.5 16t21.5 6q3 0 28 -8t62 -8q66 0 116 22t78.5 58.5t42 78t13.5 86.5
q0 138 -135 138q-93 0 -144 -58q32 -11 55 -42.5t23 -71.5q0 -47 -32.5 -80t-82.5 -33q-51 0 -80.5 34.5t-29.5 78.5q0 82 100 135t254 53q149 0 236.5 -53t87.5 -142q0 -55 -34.5 -95.5t-95.5 -63.5t-135.5 -34t-162.5 -11h-15l-2 -6h17q158 0 256 -48.5t98 -142.5
q0 -72 -59.5 -123t-150 -73.5t-200.5 -22.5z" />
    <glyph glyph-name="questiondown" unicode="&#xbf;" horiz-adv-x="1175" 
d="M440 -463q-237 0 -379.5 101t-142.5 245q0 52 21 95t55 73t82.5 54t98 39t108 27.5t105 19t97 14.5t76.5 14l55 189h13l-37 -197q-338 -94 -338 -383q0 -55 13 -101.5t40.5 -86t77 -62t117.5 -22.5q83 0 148 32.5t102 85.5q-54 13 -87.5 61t-33.5 111q0 74 47.5 125.5
t116.5 51.5q72 0 117.5 -56t45.5 -125q0 -124 -145.5 -214.5t-372.5 -90.5zM674 846q74 0 126 -52t52 -126t-52.5 -126.5t-125.5 -52.5t-125.5 52.5t-52.5 126.5t52 126t126 52z" />
    <glyph glyph-name="Agrave" unicode="&#xc0;" 
d="M-209 0l2 12q49 0 94.5 15t88.5 47t79 66t78 89t72.5 97.5t75.5 109.5q7 10 10 15l557 827h14l258 -1002q14 -54 28.5 -94.5t38.5 -82.5t58.5 -64.5t77.5 -22.5l-2 -12h-729l2 12q73 0 118 39.5t54 98t-4 126.5l-31 132h-446l-6 -9q-45 -60 -67.5 -126.5t-18 -125t52 -97
t135.5 -38.5l-2 -12h-588zM297 428h428l-111 467zM1014 1382q-60 42 -135.5 89t-108.5 71.5t-53 52.5q-33 44 -30.5 92.5t40.5 75.5q38 28 85 14t79 -61q14 -22 30 -58.5t27.5 -69.5t33 -96.5t36.5 -105.5z" />
    <glyph glyph-name="Aacute" unicode="&#xc1;" 
d="M-209 0l2 12q49 0 94.5 15t88.5 47t79 66t78 89t72.5 97.5t75.5 109.5q7 10 10 15l557 827h14l258 -1002q14 -54 28.5 -94.5t38.5 -82.5t58.5 -64.5t77.5 -22.5l-2 -12h-729l2 12q73 0 118 39.5t54 98t-4 126.5l-31 132h-446l-6 -9q-45 -60 -67.5 -126.5t-18 -125t52 -97
t135.5 -38.5l-2 -12h-588zM297 428h428l-111 467zM680 1384l-4 5q247 285 307 335q50 39 94.5 37.5t73.5 -37.5q24 -29 22 -60.5t-17.5 -57.5t-39.5 -45q-28 -22 -91.5 -48t-174 -65.5t-170.5 -63.5z" />
    <glyph glyph-name="Acircumflex" unicode="&#xc2;" 
d="M-209 0l2 12q49 0 94.5 15t88.5 47t79 66t78 89t72.5 97.5t75.5 109.5q7 10 10 15l557 827h14l258 -1002q14 -54 28.5 -94.5t38.5 -82.5t58.5 -64.5t77.5 -22.5l-2 -12h-729l2 12q73 0 118 39.5t54 98t-4 126.5l-31 132h-446l-6 -9q-45 -60 -67.5 -126.5t-18 -125t52 -97
t135.5 -38.5l-2 -12h-588zM297 428h428l-111 467zM551 1356l-4 4l305 321q49 52 100 52q53 0 76 -52l158 -321l-4 -4l-277 170z" />
    <glyph glyph-name="Atilde" unicode="&#xc3;" 
d="M-209 0l2 12q49 0 94.5 15t88.5 47t79 66t78 89t72.5 97.5t75.5 109.5q7 10 10 15l557 827h14l258 -1002q14 -54 28.5 -94.5t38.5 -82.5t58.5 -64.5t77.5 -22.5l-2 -12h-729l2 12q73 0 118 39.5t54 98t-4 126.5l-31 132h-446l-6 -9q-45 -60 -67.5 -126.5t-18 -125t52 -97
t135.5 -38.5l-2 -12h-588zM297 428h428l-111 467zM553 1399q4 13 14.5 49.5t18.5 60t22 59t30 59t37.5 47t49.5 35t61 11.5q52 0 157 -48t161 -48q34 0 60 11t42 31.5t24.5 37.5t16.5 39l10 -2q-3 -9 -13 -41t-14 -45t-14.5 -42.5t-17.5 -43.5l-19.5 -39t-23 -37.5t-26 -29
t-31 -24.5t-35 -14t-41.5 -6q-51 0 -154 48.5t-161 48.5q-34 0 -60 -11t-43 -31.5t-25.5 -37t-17.5 -39.5z" />
    <glyph glyph-name="Adieresis" unicode="&#xc4;" 
d="M-209 0l2 12q49 0 94.5 15t88.5 47t79 66t78 89t72.5 97.5t75.5 109.5q7 10 10 15l557 827h14l258 -1002q14 -54 28.5 -94.5t38.5 -82.5t58.5 -64.5t77.5 -22.5l-2 -12h-729l2 12q73 0 118 39.5t54 98t-4 126.5l-31 132h-446l-6 -9q-45 -60 -67.5 -126.5t-18 -125t52 -97
t135.5 -38.5l-2 -12h-588zM297 428h428l-111 467zM711 1415q-59 0 -102.5 43.5t-43.5 104.5q0 59 41.5 101t102.5 42q60 0 102.5 -42t42.5 -103q0 -60 -42 -103t-101 -43zM1104 1415q-59 0 -102.5 43.5t-43.5 104.5q0 59 41.5 101t102.5 42q60 0 102.5 -42t42.5 -103
q0 -60 -42 -103t-101 -43z" />
    <glyph glyph-name="Aring" unicode="&#xc5;" 
d="M-209 0l2 12q49 0 94.5 15t88.5 47t79 66t78 89t72.5 97.5t75.5 109.5q7 10 10 15l557 827h14l258 -1002q14 -54 28.5 -94.5t38.5 -82.5t58.5 -64.5t77.5 -22.5l-2 -12h-729l2 12q73 0 118 39.5t54 98t-4 126.5l-31 132h-446l-6 -9q-45 -60 -67.5 -126.5t-18 -125t52 -97
t135.5 -38.5l-2 -12h-588zM297 428h428l-111 467zM877 1360q-105 0 -174.5 50t-69.5 136q0 101 89 173.5t218 72.5q106 0 176 -50t70 -138q0 -100 -89.5 -172t-219.5 -72zM868 1368q31 0 57 39t41 95t23 108.5t8 87.5q0 86 -49 86q-33 0 -59.5 -40t-40.5 -96.5t-21.5 -108
t-7.5 -85.5q0 -86 49 -86z" />
    <glyph glyph-name="AE" unicode="&#xc6;" horiz-adv-x="2103" 
d="M-213 0l2 12q121 0 284.5 116t344.5 306l708 744q-6 42 -37 58.5t-94 16.5l4 13h1131l-70 -432l-8 -3q0 91 -22 165.5t-67 132.5t-122 90t-180 32h-148l-141 -612h64q77 0 147 26t123 71.5t93 98.5t69 115h8l-145 -633h-9q-2 61 -17.5 113.5t-48 97.5t-90 71t-134.5 26
h-64l-139 -611h157q360 0 599 451l8 -2l-146 -463h-1140l2 12q96 0 140 42t73 167l53 236h-508l-31 -33q-241 -254 -179 -356q35 -56 161 -56l-2 -12h-629zM485 477h496l131 567q16 75 16 113z" />
    <glyph glyph-name="Ccedilla" unicode="&#xc7;" horiz-adv-x="1449" 
d="M541 -477q-83 0 -155 18t-112 49l11 11q23 -19 74.5 -32t101.5 -13q92 0 140 50.5t48 127.5q0 56 -26 93.5t-84 37.5q-37 0 -80 -17l-4 7l166 127q-263 26 -395 163t-132 359q0 165 73 311.5t197 250.5t295 164t361 60q56 0 127.5 -6t120.5 -11t111.5 -2.5t117.5 15.5
l-65 -446l-11 -2q-39 235 -135.5 337.5t-245.5 102.5q-101 0 -188 -43t-148.5 -116t-109 -163.5t-75.5 -191t-42 -193t-14 -174.5q0 -65 9 -122.5t30 -111t53 -91.5t82 -61t113 -23q157 0 318 131.5t296 343.5l6 -2l-166 -424q-230 -62 -463 -62q-61 0 -100 5l-137 -107
q59 16 135 16q113 0 177.5 -39t64.5 -118q0 -69 -50 -118t-125 -70t-165 -21z" />
    <glyph glyph-name="Egrave" unicode="&#xc8;" horiz-adv-x="1335" 
d="M-61 0l2 12q96 0 140 42t73 167l190 823q28 126 4 167.5t-121 41.5l4 13h1131l-70 -432l-8 -3q0 91 -22 165.5t-67 132.5t-122 90t-180 32h-148l-141 -612h64q77 0 147 26t123 71.5t93 98.5t69 115h8l-145 -633h-9q-2 61 -17.5 113.5t-48 97.5t-90 71t-134.5 26h-64
l-139 -611h157q360 0 599 451l8 -2l-146 -463h-1140zM1018 1382q-60 42 -135.5 89t-108.5 71.5t-53 52.5q-33 44 -30.5 92.5t40.5 75.5q38 28 85 14t79 -61q14 -22 30 -58.5t27.5 -69.5t33 -96.5t36.5 -105.5z" />
    <glyph glyph-name="Eacute" unicode="&#xc9;" horiz-adv-x="1335" 
d="M-61 0l2 12q96 0 140 42t73 167l190 823q28 126 4 167.5t-121 41.5l4 13h1131l-70 -432l-8 -3q0 91 -22 165.5t-67 132.5t-122 90t-180 32h-148l-141 -612h64q77 0 147 26t123 71.5t93 98.5t69 115h8l-145 -633h-9q-2 61 -17.5 113.5t-48 97.5t-90 71t-134.5 26h-64
l-139 -611h157q360 0 599 451l8 -2l-146 -463h-1140zM696 1384l-4 5q247 285 307 335q50 39 94.5 37.5t73.5 -37.5q24 -29 22 -60.5t-17 -57.5t-39 -45q-28 -22 -91.5 -48t-174.5 -65.5t-171 -63.5z" />
    <glyph glyph-name="Ecircumflex" unicode="&#xca;" horiz-adv-x="1335" 
d="M-61 0l2 12q96 0 140 42t73 167l190 823q28 126 4 167.5t-121 41.5l4 13h1131l-70 -432l-8 -3q0 91 -22 165.5t-67 132.5t-122 90t-180 32h-148l-141 -612h64q77 0 147 26t123 71.5t93 98.5t69 115h8l-145 -633h-9q-2 61 -17.5 113.5t-48 97.5t-90 71t-134.5 26h-64
l-139 -611h157q360 0 599 451l8 -2l-146 -463h-1140zM555 1356l-4 4l305 321q49 52 100 52q53 0 76 -52l158 -321l-4 -4l-277 170z" />
    <glyph glyph-name="Edieresis" unicode="&#xcb;" horiz-adv-x="1335" 
d="M-61 0l2 12q96 0 140 42t73 167l190 823q28 126 4 167.5t-121 41.5l4 13h1131l-70 -432l-8 -3q0 91 -22 165.5t-67 132.5t-122 90t-180 32h-148l-141 -612h64q77 0 147 26t123 71.5t93 98.5t69 115h8l-145 -633h-9q-2 61 -17.5 113.5t-48 97.5t-90 71t-134.5 26h-64
l-139 -611h157q360 0 599 451l8 -2l-146 -463h-1140zM717 1415q-59 0 -102.5 43.5t-43.5 104.5q0 59 41.5 101t102.5 42q60 0 102.5 -42t42.5 -103q0 -60 -42 -103t-101 -43zM1110 1415q-59 0 -102 43.5t-43 104.5q0 59 41 101t102 42q60 0 102.5 -42t42.5 -103
q0 -60 -42 -103t-101 -43z" />
    <glyph glyph-name="Igrave" unicode="&#xcc;" horiz-adv-x="796" 
d="M-61 0l2 12q96 0 140 42t73 167l190 823q28 126 4 167.5t-121 41.5l4 13h682l-4 -13q-96 0 -139 -42t-72 -167l-190 -823q-28 -126 -4.5 -167.5t119.5 -41.5l-2 -12h-682zM729 1382q-60 42 -135.5 89t-108.5 71.5t-53 52.5q-33 44 -30.5 92.5t40.5 75.5q38 28 85 14
t79 -61q14 -22 30 -58.5t27.5 -69.5t33 -96.5t36.5 -105.5z" />
    <glyph glyph-name="Iacute" unicode="&#xcd;" horiz-adv-x="796" 
d="M-61 0l2 12q96 0 140 42t73 167l190 823q28 126 4 167.5t-121 41.5l4 13h682l-4 -13q-96 0 -139 -42t-72 -167l-190 -823q-28 -126 -4.5 -167.5t119.5 -41.5l-2 -12h-682zM434 1384l-4 5q247 285 307 335q50 39 94.5 37.5t73.5 -37.5q24 -29 22 -60.5t-17.5 -57.5
t-39.5 -45q-28 -22 -91.5 -48t-174 -65.5t-170.5 -63.5z" />
    <glyph glyph-name="Icircumflex" unicode="&#xce;" horiz-adv-x="796" 
d="M-61 0l2 12q96 0 140 42t73 167l190 823q28 126 4 167.5t-121 41.5l4 13h682l-4 -13q-96 0 -139 -42t-72 -167l-190 -823q-28 -126 -4.5 -167.5t119.5 -41.5l-2 -12h-682zM279 1356l-5 4l306 321q49 52 100 52q53 0 76 -52l157 -321l-4 -4l-276 170z" />
    <glyph glyph-name="Idieresis" unicode="&#xcf;" horiz-adv-x="796" 
d="M-61 0l2 12q96 0 140 42t73 167l190 823q28 126 4 167.5t-121 41.5l4 13h682l-4 -13q-96 0 -139 -42t-72 -167l-190 -823q-28 -126 -4.5 -167.5t119.5 -41.5l-2 -12h-682zM449 1415q-59 0 -102.5 43.5t-43.5 104.5q0 59 41 101t102 42q60 0 103 -42t43 -103
q0 -60 -42 -103t-101 -43zM842 1415q-59 0 -102.5 43.5t-43.5 104.5q0 59 41.5 101t102.5 42q60 0 102.5 -42t42.5 -103q0 -60 -42 -103t-101 -43z" />
    <glyph glyph-name="Eth" unicode="&#xd0;" horiz-adv-x="1619" 
d="M-61 0l2 12q96 0 140 42t73 167l94 406h-162l4 18h162l92 399q28 126 4 167.5t-121 41.5l4 13h717q299 0 464 -134t165 -368q0 -168 -66.5 -310t-186 -242t-292 -156t-377.5 -56h-716zM461 14h145q93 0 175 30t142 81t109 119.5t81 143.5t54 156t31.5 153.5t9.5 138.5
q0 84 -16.5 155.5t-51.5 131.5t-98 94t-149 34h-148l-139 -606h312l-5 -18h-311z" />
    <glyph glyph-name="Ntilde" unicode="&#xd1;" horiz-adv-x="1495" 
d="M-106 0l2 12q86 0 143.5 23t100 81.5t70 138t58.5 212.5l101 436q26 114 24 191.5t-48.5 118t-141.5 40.5l4 13h403l594 -815l82 348q20 89 30.5 149.5t12 115t-9 87.5t-35 57.5t-63.5 34.5t-97 10l4 13h553l-4 -13q-69 0 -119.5 -16.5t-87.5 -47t-66 -88t-51 -126.5
t-46 -176l-189 -815l-10 -2l-707 970l-112 -485q-20 -89 -30.5 -149.5t-12.5 -115.5t8.5 -88t34.5 -57.5t63 -34.5t97 -10l-3 -12h-552zM655 1399q4 12 14.5 49t18.5 60t22 59t30.5 59.5t37.5 47t49.5 35t61.5 11.5q52 0 156.5 -48t160.5 -48q34 0 60 11t42.5 31.5t25 37.5
t16.5 39l10 -2q-2 -8 -12.5 -41.5t-14.5 -44.5t-15 -42t-17.5 -44t-19.5 -38.5t-23 -37.5t-26 -29.5t-31.5 -25t-35 -13.5t-41.5 -6q-51 0 -154 48.5t-161 48.5q-34 0 -60 -11t-42.5 -32t-25 -37t-17.5 -39z" />
    <glyph glyph-name="Ograve" unicode="&#xd2;" horiz-adv-x="1624" 
d="M715 -25q-181 0 -320.5 64.5t-219 189.5t-79.5 293q0 156 70.5 299t188 245.5t277.5 163t333 60.5q181 0 320.5 -64.5t218.5 -189.5t79 -293q0 -156 -70 -299t-187.5 -245.5t-277.5 -163t-333 -60.5zM680 -10q111 0 214 81t175.5 211t116 297t43.5 334q0 176 -54 269.5
t-174 93.5q-113 0 -216.5 -82.5t-175 -213.5t-114 -297t-42.5 -331q0 -175 53 -268.5t174 -93.5zM1159 1403q-60 42 -135.5 89t-108.5 71.5t-53 52.5q-33 44 -30.5 92.5t40.5 75.5q38 28 85 14t79 -61q14 -22 30 -58.5t27.5 -69.5t33 -96.5t36.5 -105.5z" />
    <glyph glyph-name="Oacute" unicode="&#xd3;" horiz-adv-x="1624" 
d="M715 -25q-181 0 -320.5 64.5t-219 189.5t-79.5 293q0 156 70.5 299t188 245.5t277.5 163t333 60.5q181 0 320.5 -64.5t218.5 -189.5t79 -293q0 -156 -70 -299t-187.5 -245.5t-277.5 -163t-333 -60.5zM680 -10q111 0 214 81t175.5 211t116 297t43.5 334q0 176 -54 269.5
t-174 93.5q-113 0 -216.5 -82.5t-175 -213.5t-114 -297t-42.5 -331q0 -175 53 -268.5t174 -93.5zM838 1405l-4 4q250 289 307 336q50 39 94.5 37.5t73.5 -37.5q24 -29 22 -61t-17.5 -58t-39.5 -45q-28 -22 -91.5 -48t-173.5 -65t-171 -63z" />
    <glyph glyph-name="Ocircumflex" unicode="&#xd4;" horiz-adv-x="1624" 
d="M715 -25q-181 0 -320.5 64.5t-219 189.5t-79.5 293q0 156 70.5 299t188 245.5t277.5 163t333 60.5q181 0 320.5 -64.5t218.5 -189.5t79 -293q0 -156 -70 -299t-187.5 -245.5t-277.5 -163t-333 -60.5zM680 -10q111 0 214 81t175.5 211t116 297t43.5 334q0 176 -54 269.5
t-174 93.5q-113 0 -216.5 -82.5t-175 -213.5t-114 -297t-42.5 -331q0 -175 53 -268.5t174 -93.5zM700 1376l-4 4l305 322q48 51 101 51t76 -51l157 -322l-4 -4l-276 170z" />
    <glyph glyph-name="Otilde" unicode="&#xd5;" horiz-adv-x="1624" 
d="M715 -25q-181 0 -320.5 64.5t-219 189.5t-79.5 293q0 156 70.5 299t188 245.5t277.5 163t333 60.5q181 0 320.5 -64.5t218.5 -189.5t79 -293q0 -156 -70 -299t-187.5 -245.5t-277.5 -163t-333 -60.5zM680 -10q111 0 214 81t175.5 211t116 297t43.5 334q0 176 -54 269.5
t-174 93.5q-113 0 -216.5 -82.5t-175 -213.5t-114 -297t-42.5 -331q0 -175 53 -268.5t174 -93.5zM713 1419q4 13 14.5 49.5t18.5 60t22 59.5t30 59.5t37.5 47t49.5 35t61 11.5q52 0 157 -48t161 -48q34 0 60 11t42 31t24.5 37t16.5 39l10 -2q-3 -9 -13 -41t-14 -44.5
t-14.5 -42.5t-17.5 -44t-19.5 -38.5t-23 -37t-26 -29t-31 -24.5t-35 -14t-41.5 -6q-51 0 -154.5 48t-161.5 48q-34 0 -60 -11t-42.5 -32t-25 -37t-17.5 -39z" />
    <glyph glyph-name="Odieresis" unicode="&#xd6;" horiz-adv-x="1624" 
d="M715 -25q-181 0 -320.5 64.5t-219 189.5t-79.5 293q0 156 70.5 299t188 245.5t277.5 163t333 60.5q181 0 320.5 -64.5t218.5 -189.5t79 -293q0 -156 -70 -299t-187.5 -245.5t-277.5 -163t-333 -60.5zM680 -10q111 0 214 81t175.5 211t116 297t43.5 334q0 176 -54 269.5
t-174 93.5q-113 0 -216.5 -82.5t-175 -213.5t-114 -297t-42.5 -331q0 -175 53 -268.5t174 -93.5zM868 1436q-59 0 -102 43t-43 104q0 59 41 101t102 42q60 0 103 -42t43 -103q0 -60 -42.5 -102.5t-101.5 -42.5zM1262 1436q-59 0 -102.5 43t-43.5 104q0 59 41.5 101t102.5 42
q60 0 102.5 -42t42.5 -103q0 -60 -42 -102.5t-101 -42.5z" />
    <glyph glyph-name="multiply" unicode="&#xd7;" horiz-adv-x="940" 
d="M4 115l-12 12l465 377l-289 373l14 10l289 -373l459 373l8 -13l-459 -372l287 -375l-12 -10l-287 375z" />
    <glyph glyph-name="Oslash" unicode="&#xd8;" horiz-adv-x="1624" 
d="M715 -25q-259 0 -426 129l-160 -149l-14 14l157 148q-176 149 -176 405q0 156 70.5 299t188 245.5t277.5 163t333 60.5q258 0 428 -131l159 150l15 -15l-160 -147q176 -149 176 -404q0 -156 -70 -299t-187.5 -245.5t-277.5 -163t-333 -60.5zM1001 1276
q-113 0 -216.5 -82.5t-175 -213.5t-114 -297t-42.5 -331q0 -45 2 -65l770 717q-26 272 -224 272zM680 -10q111 0 214 81t175.5 211t116 297t43.5 334q0 12 -1 33t-1 31l-770 -717q23 -270 223 -270z" />
    <glyph glyph-name="Ugrave" unicode="&#xd9;" horiz-adv-x="1466" 
d="M623 -25q-118 0 -209.5 27t-154.5 83t-82.5 143.5t5.5 209.5l131 574q32 126 8.5 183.5t-116.5 57.5l4 13h682l-4 -13q-93 0 -141 -55.5t-78 -185.5l-154 -664q-78 -336 215 -336q76 0 145.5 23.5t131.5 71t109.5 127.5t72.5 186l86 379q20 89 30.5 149.5t12 115t-9 87.5
t-35 57.5t-63.5 34.5t-97 10l4 13h553l-4 -13q-69 0 -119.5 -16.5t-87.5 -47t-66 -88.5t-51 -126.5t-47 -175.5l-88 -379q-105 -445 -583 -445zM1116 1382q-60 42 -135.5 89t-108.5 71.5t-53 52.5q-33 44 -30.5 92.5t40.5 75.5q38 28 85 14t79 -61q14 -22 30 -58.5
t27.5 -69.5t33 -96.5t36.5 -105.5z" />
    <glyph glyph-name="Uacute" unicode="&#xda;" horiz-adv-x="1466" 
d="M623 -25q-118 0 -209.5 27t-154.5 83t-82.5 143.5t5.5 209.5l131 574q32 126 8.5 183.5t-116.5 57.5l4 13h682l-4 -13q-93 0 -141 -55.5t-78 -185.5l-154 -664q-78 -336 215 -336q76 0 145.5 23.5t131.5 71t109.5 127.5t72.5 186l86 379q20 89 30.5 149.5t12 115t-9 87.5
t-35 57.5t-63.5 34.5t-97 10l4 13h553l-4 -13q-69 0 -119.5 -16.5t-87.5 -47t-66 -88.5t-51 -126.5t-47 -175.5l-88 -379q-105 -445 -583 -445zM825 1384l-4 5q247 285 307 335q50 39 94.5 37.5t73.5 -37.5q24 -29 22 -60.5t-17 -57.5t-39 -45q-28 -22 -91.5 -48
t-174.5 -65.5t-171 -63.5z" />
    <glyph glyph-name="Ucircumflex" unicode="&#xdb;" horiz-adv-x="1466" 
d="M623 -25q-118 0 -209.5 27t-154.5 83t-82.5 143.5t5.5 209.5l131 574q32 126 8.5 183.5t-116.5 57.5l4 13h682l-4 -13q-93 0 -141 -55.5t-78 -185.5l-154 -664q-78 -336 215 -336q76 0 145.5 23.5t131.5 71t109.5 127.5t72.5 186l86 379q20 89 30.5 149.5t12 115t-9 87.5
t-35 57.5t-63.5 34.5t-97 10l4 13h553l-4 -13q-69 0 -119.5 -16.5t-87.5 -47t-66 -88.5t-51 -126.5t-47 -175.5l-88 -379q-105 -445 -583 -445zM662 1356l-5 4l306 321q49 52 100 52q53 0 76 -52l157 -321l-4 -4l-276 170z" />
    <glyph glyph-name="Udieresis" unicode="&#xdc;" horiz-adv-x="1466" 
d="M623 -25q-118 0 -209.5 27t-154.5 83t-82.5 143.5t5.5 209.5l131 574q32 126 8.5 183.5t-116.5 57.5l4 13h682l-4 -13q-93 0 -141 -55.5t-78 -185.5l-154 -664q-78 -336 215 -336q76 0 145.5 23.5t131.5 71t109.5 127.5t72.5 186l86 379q20 89 30.5 149.5t12 115t-9 87.5
t-35 57.5t-63.5 34.5t-97 10l4 13h553l-4 -13q-69 0 -119.5 -16.5t-87.5 -47t-66 -88.5t-51 -126.5t-47 -175.5l-88 -379q-105 -445 -583 -445zM819 1415q-59 0 -102 43.5t-43 104.5q0 59 41 101t102 42q60 0 103 -42t43 -103q0 -60 -42.5 -103t-101.5 -43zM1212 1415
q-59 0 -102 43.5t-43 104.5q0 59 41 101t102 42q60 0 103 -42t43 -103q0 -60 -42.5 -103t-101.5 -43z" />
    <glyph glyph-name="Yacute" unicode="&#xdd;" 
d="M199 0l2 12q52 0 88.5 9t70.5 33t58.5 70.5t40.5 117.5l71 309l-200 506q-39 98 -87.5 147t-111.5 49l2 13h711l-2 -13q-92 0 -128 -61.5t-3 -149.5l166 -440h6l213 260q151 187 151 289t-151 102l2 13h530l-2 -13q-142 0 -283 -135q-85 -82 -233 -266l-217 -262
l-80 -348q-13 -57 -13 -98.5t10.5 -67t33.5 -40t51.5 -19.5t69.5 -5l-2 -12h-764zM817 1384l-4 5q247 285 307 335q50 39 94.5 37.5t73.5 -37.5q24 -29 22 -60.5t-17.5 -57.5t-39.5 -45q-28 -22 -91.5 -48t-174 -65.5t-170.5 -63.5z" />
    <glyph glyph-name="Thorn" unicode="&#xde;" horiz-adv-x="1374" 
d="M-61 0l2 12q96 0 140 42t73 167l190 823q28 126 4 167.5t-121 41.5l4 13h682l-4 -13q-96 0 -139 -42t-72 -167l-6 -24h195q127 0 222.5 -27t150 -74.5t80.5 -104.5t26 -124q0 -83 -39.5 -156t-116 -131.5t-204.5 -92.5t-291 -34h-123l2 13h39q65 0 119.5 20t91 52
t65 75.5t44 86.5t26 89t13.5 79t3 61q0 45 -9.5 86.5t-30.5 81t-61 63t-95 23.5h-111l-180 -785q-28 -126 -4.5 -167.5t119.5 -41.5l-2 -12h-682z" />
    <glyph glyph-name="germandbls" unicode="&#xdf;" horiz-adv-x="1396" 
d="M-72 -334q-72 0 -125 16t-81 43t-41 57t-13 62q0 64 42.5 104t101.5 40t95 -41t36 -99q0 -52 -29.5 -90t-69.5 -51q13 -26 47 -26q41 0 73 29.5t44 80.5l244 1032h-168l6 29h170l25 102q44 183 204 289.5t385 106.5q429 0 429 -418q-52 -8 -85 -14t-80.5 -15.5
t-77.5 -18.5t-64.5 -23t-53.5 -29.5t-32 -35.5t-13 -44q0 -32 22.5 -59t59 -48t80.5 -42.5t88 -48t80.5 -59t59 -82t22.5 -110.5q0 -138 -108.5 -232t-307.5 -94q-161 0 -264 60.5t-103 148.5q0 54 37 96t94 42q55 0 90 -37t35 -92q0 -44 -23.5 -77.5t-62.5 -45.5
q56 -82 176 -82q58 0 100 19t62.5 48t29.5 56t9 51q0 38 -22.5 70t-58.5 55.5t-80 46.5t-87.5 48t-79.5 54t-58.5 71t-22.5 93q0 201 348 283q8 53 12.5 101.5t4.5 102t-9.5 96t-27.5 78t-50.5 55t-77.5 19.5q-74 0 -132.5 -51.5t-80.5 -148.5l-262 -1137
q-36 -157 -163 -245.5t-298 -88.5z" />
    <glyph glyph-name="agrave" unicode="&#xe0;" horiz-adv-x="1202" 
d="M324 -23q-96 0 -162.5 48t-96.5 123t-30 169q0 84 24.5 165t73 151.5t114.5 124.5t154 85t187 31q142 0 227 -75l295 73l6 -2l-164 -735q-9 -40 3 -61t40 -21q29 0 105 35l-2 -12q-173 -101 -314 -101q-150 0 -157 134q-144 -132 -303 -132zM494 63q57 0 127 62l143 633
q-10 42 -37 70t-70 28q-63 0 -119.5 -65.5t-92 -160t-56 -192.5t-20.5 -170q0 -88 32 -146.5t93 -58.5zM819 973q-60 42 -135.5 89t-108.5 71.5t-53 52.5q-33 44 -30.5 92.5t40.5 75.5q38 28 85 14t79 -61q14 -22 30 -58.5t27.5 -69.5t33 -96.5t36.5 -105.5z" />
    <glyph glyph-name="aacute" unicode="&#xe1;" horiz-adv-x="1202" 
d="M324 -23q-96 0 -162.5 48t-96.5 123t-30 169q0 84 24.5 165t73 151.5t114.5 124.5t154 85t187 31q142 0 227 -75l295 73l6 -2l-164 -735q-9 -40 3 -61t40 -21q29 0 105 35l-2 -12q-173 -101 -314 -101q-150 0 -157 134q-144 -132 -303 -132zM494 63q57 0 127 62l143 633
q-10 42 -37 70t-70 28q-63 0 -119.5 -65.5t-92 -160t-56 -192.5t-20.5 -170q0 -88 32 -146.5t93 -58.5zM625 975l-4 4q250 289 307 336q50 39 94.5 37.5t73.5 -37.5q24 -29 22 -61t-17.5 -58t-39.5 -45q-28 -22 -91.5 -48t-173.5 -65t-171 -63z" />
    <glyph glyph-name="acircumflex" unicode="&#xe2;" horiz-adv-x="1202" 
d="M324 -23q-96 0 -162.5 48t-96.5 123t-30 169q0 84 24.5 165t73 151.5t114.5 124.5t154 85t187 31q142 0 227 -75l295 73l6 -2l-164 -735q-9 -40 3 -61t40 -21q29 0 105 35l-2 -12q-173 -101 -314 -101q-150 0 -157 134q-144 -132 -303 -132zM494 63q57 0 127 62l143 633
q-10 42 -37 70t-70 28q-63 0 -119.5 -65.5t-92 -160t-56 -192.5t-20.5 -170q0 -88 32 -146.5t93 -58.5zM381 946l-4 4l305 322q48 51 100 51q53 0 76 -51l158 -322l-4 -4l-277 170z" />
    <glyph glyph-name="atilde" unicode="&#xe3;" horiz-adv-x="1202" 
d="M324 -23q-96 0 -162.5 48t-96.5 123t-30 169q0 84 24.5 165t73 151.5t114.5 124.5t154 85t187 31q142 0 227 -75l295 73l6 -2l-164 -735q-9 -40 3 -61t40 -21q29 0 105 35l-2 -12q-173 -101 -314 -101q-150 0 -157 134q-144 -132 -303 -132zM494 63q57 0 127 62l143 633
q-10 42 -37 70t-70 28q-63 0 -119.5 -65.5t-92 -160t-56 -192.5t-20.5 -170q0 -88 32 -146.5t93 -58.5zM393 989q4 12 14.5 49t18.5 60.5t22 59.5t30.5 59.5t37.5 47t49.5 35t61.5 11.5q52 0 156.5 -48.5t160.5 -48.5q34 0 60 11t42 31.5t24.5 37.5t16.5 39l11 -2
q-44 -137 -62 -177q-67 -143 -174 -144q-51 0 -154 48t-161 48q-34 0 -60 -11t-43 -31.5t-25.5 -37t-17.5 -39.5z" />
    <glyph glyph-name="adieresis" unicode="&#xe4;" horiz-adv-x="1202" 
d="M324 -23q-96 0 -162.5 48t-96.5 123t-30 169q0 84 24.5 165t73 151.5t114.5 124.5t154 85t187 31q142 0 227 -75l295 73l6 -2l-164 -735q-9 -40 3 -61t40 -21q29 0 105 35l-2 -12q-173 -101 -314 -101q-150 0 -157 134q-144 -132 -303 -132zM494 63q57 0 127 62l143 633
q-10 42 -37 70t-70 28q-63 0 -119.5 -65.5t-92 -160t-56 -192.5t-20.5 -170q0 -88 32 -146.5t93 -58.5zM547 1006q-59 0 -102.5 43t-43.5 104q0 59 41.5 101t102.5 42q60 0 102.5 -42t42.5 -103q0 -60 -42 -102.5t-101 -42.5zM940 1006q-59 0 -102 43t-43 104q0 59 41 101
t102 42q60 0 102.5 -42t42.5 -103q0 -60 -42 -102.5t-101 -42.5z" />
    <glyph glyph-name="aring" unicode="&#xe5;" horiz-adv-x="1202" 
d="M324 -23q-96 0 -162.5 48t-96.5 123t-30 169q0 84 24.5 165t73 151.5t114.5 124.5t154 85t187 31q142 0 227 -75l295 73l6 -2l-164 -735q-9 -40 3 -61t40 -21q29 0 105 35l-2 -12q-173 -101 -314 -101q-150 0 -157 134q-144 -132 -303 -132zM494 63q57 0 127 62l143 633
q-10 42 -37 70t-70 28q-63 0 -119.5 -65.5t-92 -160t-56 -192.5t-20.5 -170q0 -88 32 -146.5t93 -58.5zM713 950q-105 0 -174.5 50t-69.5 137q0 101 89 173t218 72q106 0 176 -50t70 -138q0 -100 -89.5 -172t-219.5 -72zM705 958q31 0 57 39t41 95t23 108.5t8 87.5
q0 86 -50 86q-33 0 -59.5 -40t-40.5 -96.5t-21.5 -108t-7.5 -85.5q0 -86 50 -86z" />
    <glyph glyph-name="ae" unicode="&#xe6;" horiz-adv-x="1622" 
d="M348 -23q-161 0 -257.5 56t-96.5 157q0 170 312 223q87 15 314 30q10 0 19 1q10 88 10 172q0 17 -0.5 30t-3.5 40.5t-8.5 48.5t-17.5 46.5t-28 42.5t-41.5 28.5t-57.5 11.5q-93 0 -156 -90q40 -20 64 -60.5t24 -84.5q0 -63 -45 -106.5t-111 -43.5q-68 0 -107.5 47
t-39.5 107q0 101 119.5 171t294.5 70q212 0 315 -114q152 114 352 114q156 0 265.5 -67t109.5 -172q0 -52 -30 -91.5t-83.5 -62t-115.5 -37t-136.5 -18.5t-136 -3.5t-123.5 5.5q-10 -56 -10 -123q0 -123 56 -195.5t165 -72.5q155 0 318 151l8 -8q-43 -40 -84 -70.5
t-100 -63.5t-133 -51t-156 -18q-193 0 -295 105q-150 -105 -373 -105zM389 -12q89 0 157 121t91 319q-89 -5 -157.5 -33.5t-108 -72.5t-59 -95t-19.5 -106q0 -64 25 -98.5t71 -34.5zM1206 864q-59 0 -112.5 -67t-87 -159t-52.5 -196q88 -2 155.5 22.5t105.5 68t56.5 95
t18.5 109.5q0 127 -84 127z" />
    <glyph glyph-name="ccedilla" unicode="&#xe7;" horiz-adv-x="1019" 
d="M270 -477q-83 0 -154.5 18t-111.5 49l10 11q23 -19 74.5 -32t101.5 -13q92 0 140.5 50.5t48.5 127.5q0 56 -26.5 93.5t-84.5 37.5q-38 0 -80 -17l-4 7l168 129q-156 21 -235.5 121t-79.5 241q0 109 49 208t130 168.5t187 110.5t218 41q162 0 256 -79.5t94 -184.5
q0 -73 -44.5 -124.5t-119.5 -51.5q-72 0 -116 47t-44 115q0 62 37.5 108t95.5 56q-27 100 -121 100q-59 0 -109 -37.5t-82.5 -96.5t-55.5 -133t-33 -144.5t-10 -133.5q0 -137 52 -208.5t152 -71.5q154 0 316 153l8 -8q-213 -203 -469 -203q-12 0 -57 5l-138 -109
q59 16 136 16q113 0 177 -39t64 -118q0 -69 -50 -118t-125 -70t-165 -21z" />
    <glyph glyph-name="egrave" unicode="&#xe8;" horiz-adv-x="1048" 
d="M442 -23q-103 0 -182.5 29t-127.5 79.5t-72.5 114.5t-24.5 138q0 105 47.5 203.5t127 171.5t189.5 117t230 44q156 0 265.5 -67t109.5 -172q0 -52 -30 -91.5t-83.5 -62t-115.5 -37t-136.5 -18.5t-136 -3.5t-123.5 5.5q-10 -56 -10 -123q0 -123 56 -195.5t165 -72.5
q154 0 317 151l8 -8q-43 -40 -84 -70.5t-100 -63.5t-133 -51t-156 -18zM633 864q-59 0 -112.5 -67t-87 -159t-52.5 -196q88 -2 155.5 22.5t105.5 68t56.5 95t18.5 109.5q0 127 -84 127zM748 973q-60 42 -135.5 89t-108.5 71.5t-53 52.5q-33 44 -30.5 92.5t40.5 75.5
q38 28 85 14t79 -61q14 -22 30 -58.5t27.5 -69.5t33 -96.5t36.5 -105.5z" />
    <glyph glyph-name="eacute" unicode="&#xe9;" horiz-adv-x="1048" 
d="M442 -23q-103 0 -182.5 29t-127.5 79.5t-72.5 114.5t-24.5 138q0 105 47.5 203.5t127 171.5t189.5 117t230 44q156 0 265.5 -67t109.5 -172q0 -52 -30 -91.5t-83.5 -62t-115.5 -37t-136.5 -18.5t-136 -3.5t-123.5 5.5q-10 -56 -10 -123q0 -123 56 -195.5t165 -72.5
q154 0 317 151l8 -8q-43 -40 -84 -70.5t-100 -63.5t-133 -51t-156 -18zM633 864q-59 0 -112.5 -67t-87 -159t-52.5 -196q88 -2 155.5 22.5t105.5 68t56.5 95t18.5 109.5q0 127 -84 127zM475 975l-4 4q250 289 307 336q50 39 94.5 37.5t73.5 -37.5q24 -29 22 -61t-17.5 -58
t-39.5 -45q-28 -22 -91.5 -48t-173.5 -65t-171 -63z" />
    <glyph glyph-name="ecircumflex" unicode="&#xea;" horiz-adv-x="1048" 
d="M442 -23q-103 0 -182.5 29t-127.5 79.5t-72.5 114.5t-24.5 138q0 105 47.5 203.5t127 171.5t189.5 117t230 44q156 0 265.5 -67t109.5 -172q0 -52 -30 -91.5t-83.5 -62t-115.5 -37t-136.5 -18.5t-136 -3.5t-123.5 5.5q-10 -56 -10 -123q0 -123 56 -195.5t165 -72.5
q154 0 317 151l8 -8q-43 -40 -84 -70.5t-100 -63.5t-133 -51t-156 -18zM633 864q-59 0 -112.5 -67t-87 -159t-52.5 -196q88 -2 155.5 22.5t105.5 68t56.5 95t18.5 109.5q0 127 -84 127zM332 946l-4 4l305 322q48 51 100 51q53 0 76 -51l158 -322l-4 -4l-277 170z" />
    <glyph glyph-name="edieresis" unicode="&#xeb;" horiz-adv-x="1048" 
d="M442 -23q-103 0 -182.5 29t-127.5 79.5t-72.5 114.5t-24.5 138q0 105 47.5 203.5t127 171.5t189.5 117t230 44q156 0 265.5 -67t109.5 -172q0 -52 -30 -91.5t-83.5 -62t-115.5 -37t-136.5 -18.5t-136 -3.5t-123.5 5.5q-10 -56 -10 -123q0 -123 56 -195.5t165 -72.5
q154 0 317 151l8 -8q-43 -40 -84 -70.5t-100 -63.5t-133 -51t-156 -18zM633 864q-59 0 -112.5 -67t-87 -159t-52.5 -196q88 -2 155.5 22.5t105.5 68t56.5 95t18.5 109.5q0 127 -84 127zM502 1006q-59 0 -102.5 43t-43.5 104q0 59 41.5 101t102.5 42q60 0 102.5 -42
t42.5 -103q0 -60 -42 -102.5t-101 -42.5zM895 1006q-59 0 -102 43t-43 104q0 59 41 101t102 42q60 0 102.5 -42t42.5 -103q0 -60 -42 -102.5t-101 -42.5z" />
    <glyph glyph-name="igrave" unicode="&#xec;" horiz-adv-x="641" 
d="M231 -25q-100 0 -135.5 60.5t-11.5 163.5l117 516q9 40 -3 61t-40 21q-29 0 -105 -35l2 12q171 100 314 100q100 0 135.5 -60t11.5 -163l-117 -516q-9 -40 3 -61t40 -21q29 0 105 35l-2 -12q-173 -101 -314 -101zM565 973q-60 42 -135.5 89t-108.5 71.5t-53 52.5
q-33 44 -30 92t41 76t84.5 14t78.5 -61q14 -22 30 -58.5t27.5 -69.5t33 -96.5t36.5 -105.5z" />
    <glyph glyph-name="iacute" unicode="&#xed;" horiz-adv-x="641" 
d="M231 -25q-100 0 -135.5 60.5t-11.5 163.5l117 516q9 40 -3 61t-40 21q-29 0 -105 -35l2 12q171 100 314 100q100 0 135.5 -60t11.5 -163l-117 -516q-9 -40 3 -61t40 -21q29 0 105 35l-2 -12q-173 -101 -314 -101zM209 975l-4 4q250 289 307 336q50 39 94.5 37.5
t73.5 -37.5q24 -29 22 -61t-17.5 -58t-39.5 -45q-28 -22 -91.5 -48t-173.5 -65t-171 -63z" />
    <glyph glyph-name="icircumflex" unicode="&#xee;" horiz-adv-x="641" 
d="M231 -25q-100 0 -135.5 60.5t-11.5 163.5l117 516q9 40 -3 61t-40 21q-29 0 -105 -35l2 12q171 100 314 100q100 0 135.5 -60t11.5 -163l-117 -516q-9 -40 3 -61t40 -21q29 0 105 35l-2 -12q-173 -101 -314 -101zM88 946l-4 4l305 322q48 51 100 51q53 0 76 -51l158 -322
l-4 -4l-277 170z" />
    <glyph glyph-name="idieresis" unicode="&#xef;" horiz-adv-x="641" 
d="M231 -25q-100 0 -135.5 60.5t-11.5 163.5l117 516q9 40 -3 61t-40 21q-29 0 -105 -35l2 12q171 100 314 100q100 0 135.5 -60t11.5 -163l-117 -516q-9 -40 3 -61t40 -21q29 0 105 35l-2 -12q-173 -101 -314 -101zM256 1006q-59 0 -102 43t-43 104q0 59 41 101t102 42
q60 0 102.5 -42t42.5 -103q0 -60 -42 -102.5t-101 -42.5zM649 1006q-59 0 -102 43t-43 104q0 59 41 101t102 42q60 0 103 -42t43 -103q0 -60 -42.5 -102.5t-101.5 -42.5z" />
    <glyph glyph-name="eth" unicode="&#xf0;" horiz-adv-x="1177" 
d="M500 -23q-215 0 -339 96t-124 269q0 139 79 249.5t209 170t283 59.5q70 0 162 -18q-18 180 -106 325l-330 -149l-6 14l327 148q-74 118 -202 200l4 9q155 -92 266 -179l301 138l2 -17l-289 -131q367 -293 367 -602q0 -71 -17.5 -145t-61.5 -154t-110 -141.5
t-173.5 -101.5t-241.5 -40zM487 -8q55 0 100.5 33.5t75 88.5t53 126.5t34.5 147.5t19 151t6 137.5t-3 107.5q-58 13 -84 13q-65 0 -119 -31t-89 -83t-61 -113.5t-39.5 -130t-19.5 -124.5t-6 -104q0 -219 133 -219z" />
    <glyph glyph-name="ntilde" unicode="&#xf1;" horiz-adv-x="1234" 
d="M49 0l162 715q9 40 -3 61t-40 21q-29 0 -105 -35l3 12q171 100 313 100q96 0 132.5 -56t16.5 -154q107 98 201.5 154t190.5 56q103 0 158 -69t24 -211l-103 -459q-9 -40 3 -61t40 -21q29 0 105 35l-2 -12q-173 -101 -314 -101q-100 0 -135.5 60.5t-11.5 163.5l109 465
q11 46 -4 72t-54 26q-32 0 -72 -20.5t-65.5 -40.5t-73.5 -60l-145 -641h-330zM420 989q4 13 14.5 49.5t18.5 60t22 59.5t30 59.5t37.5 47t49.5 35t61 11.5q52 0 157 -48.5t161 -48.5q34 0 60 11t42 31.5t24.5 37.5t16.5 39l10 -2q-3 -9 -13 -41t-14 -44.5t-14.5 -42.5
t-17.5 -44t-19.5 -38.5t-23 -37t-26 -29t-31 -24.5t-35 -14t-41.5 -6q-51 0 -154.5 48t-161.5 48q-34 0 -60 -11t-42.5 -32t-25 -37t-17.5 -39z" />
    <glyph glyph-name="ograve" unicode="&#xf2;" horiz-adv-x="1169" 
d="M479 -23q-122 0 -220.5 40t-160 125.5t-61.5 205.5q0 142 84 264t224.5 192t301.5 70q85 0 161.5 -21t141.5 -63.5t103.5 -115.5t38.5 -168q0 -144 -84.5 -266.5t-225.5 -192.5t-303 -70zM461 -8q55 0 104 38.5t83 101.5t61.5 139t43.5 155t24.5 145.5t8.5 114.5
q0 174 -116 174q-65 0 -121.5 -55t-92.5 -137t-62.5 -179.5t-38 -180.5t-11.5 -142q0 -174 117 -174zM829 973q-60 42 -135.5 89t-108.5 71.5t-53 52.5q-33 44 -30 92t41 76t85 14t79 -61q14 -22 30 -58.5t27.5 -69.5t33 -96.5t36.5 -105.5z" />
    <glyph glyph-name="oacute" unicode="&#xf3;" horiz-adv-x="1169" 
d="M479 -23q-122 0 -220.5 40t-160 125.5t-61.5 205.5q0 142 84 264t224.5 192t301.5 70q85 0 161.5 -21t141.5 -63.5t103.5 -115.5t38.5 -168q0 -144 -84.5 -266.5t-225.5 -192.5t-303 -70zM461 -8q55 0 104 38.5t83 101.5t61.5 139t43.5 155t24.5 145.5t8.5 114.5
q0 174 -116 174q-65 0 -121.5 -55t-92.5 -137t-62.5 -179.5t-38 -180.5t-11.5 -142q0 -174 117 -174zM532 975l-4 4q247 286 308 336q50 39 94.5 37.5t73.5 -37.5q24 -29 22 -61t-17.5 -58t-39.5 -45q-28 -22 -92 -48t-173.5 -65t-171.5 -63z" />
    <glyph glyph-name="ocircumflex" unicode="&#xf4;" horiz-adv-x="1169" 
d="M479 -23q-122 0 -220.5 40t-160 125.5t-61.5 205.5q0 142 84 264t224.5 192t301.5 70q85 0 161.5 -21t141.5 -63.5t103.5 -115.5t38.5 -168q0 -144 -84.5 -266.5t-225.5 -192.5t-303 -70zM461 -8q55 0 104 38.5t83 101.5t61.5 139t43.5 155t24.5 145.5t8.5 114.5
q0 174 -116 174q-65 0 -121.5 -55t-92.5 -137t-62.5 -179.5t-38 -180.5t-11.5 -142q0 -174 117 -174zM373 946l-4 4l305 322q48 51 100 51q53 0 76 -51l158 -322l-4 -4l-277 170z" />
    <glyph glyph-name="otilde" unicode="&#xf5;" horiz-adv-x="1169" 
d="M479 -23q-122 0 -220.5 40t-160 125.5t-61.5 205.5q0 142 84 264t224.5 192t301.5 70q85 0 161.5 -21t141.5 -63.5t103.5 -115.5t38.5 -168q0 -144 -84.5 -266.5t-225.5 -192.5t-303 -70zM461 -8q55 0 104 38.5t83 101.5t61.5 139t43.5 155t24.5 145.5t8.5 114.5
q0 174 -116 174q-65 0 -121.5 -55t-92.5 -137t-62.5 -179.5t-38 -180.5t-11.5 -142q0 -174 117 -174zM387 989q4 12 14.5 49t18.5 60.5t22 59.5t30.5 59.5t37.5 47t49.5 35t61.5 11.5q52 0 156.5 -48.5t160.5 -48.5q34 0 60 11t42 31.5t24.5 37.5t16.5 39l11 -2
q-44 -137 -62 -177q-67 -143 -174 -144q-51 0 -154 48t-161 48q-34 0 -60 -11t-43 -31.5t-25.5 -37t-17.5 -39.5z" />
    <glyph glyph-name="odieresis" unicode="&#xf6;" horiz-adv-x="1169" 
d="M479 -23q-122 0 -220.5 40t-160 125.5t-61.5 205.5q0 142 84 264t224.5 192t301.5 70q85 0 161.5 -21t141.5 -63.5t103.5 -115.5t38.5 -168q0 -144 -84.5 -266.5t-225.5 -192.5t-303 -70zM461 -8q55 0 104 38.5t83 101.5t61.5 139t43.5 155t24.5 145.5t8.5 114.5
q0 174 -116 174q-65 0 -121.5 -55t-92.5 -137t-62.5 -179.5t-38 -180.5t-11.5 -142q0 -174 117 -174zM539 1006q-59 0 -102.5 43t-43.5 104q0 59 41.5 101t102.5 42q60 0 102.5 -42t42.5 -103q0 -60 -42 -102.5t-101 -42.5zM932 1006q-59 0 -102.5 43t-43.5 104
q0 59 41.5 101t102.5 42q60 0 102.5 -42t42.5 -103q0 -60 -42 -102.5t-101 -42.5z" />
    <glyph glyph-name="divide" unicode="&#xf7;" horiz-adv-x="1167" 
d="M504 70q-42 0 -72.5 30t-30.5 72q0 43 30 72.5t73 29.5t72.5 -29.5t29.5 -72.5q0 -42 -30 -72t-72 -30zM657 731q-42 0 -72 30.5t-30 72.5q0 43 29.5 72.5t72.5 29.5t73 -29.5t30 -72.5q0 -42 -30.5 -72.5t-72.5 -30.5zM123 494l4 18h911l-4 -18h-911z" />
    <glyph glyph-name="oslash" unicode="&#xf8;" horiz-adv-x="1169" 
d="M479 -23q-202 0 -325 105l-123 -100l-11 12l121 98q-104 93 -104 256q0 142 84 264t224.5 192t301.5 70q202 0 326 -104l125 102l10 -12l-121 -100q105 -95 105 -254q0 -144 -84.5 -266.5t-225.5 -192.5t-303 -70zM461 -8q70 0 129.5 61.5t97 158.5t60 193.5t32.5 188.5
l-432 -354q-7 -32 -5 -74.5t10 -81t36 -65.5t72 -27zM670 860q-70 0 -129 -61t-97 -157t-62 -192t-34 -188l434 352q3 28 4 51t0 54t-8 54t-19.5 44t-35 32t-53.5 11z" />
    <glyph glyph-name="ugrave" unicode="&#xf9;" horiz-adv-x="1232" 
d="M287 -23q-113 0 -169 69.5t-24 211.5l101 457q9 40 -3 61t-40 21q-29 0 -105 -35l2 12q171 100 313 100q101 0 136.5 -60t11.5 -163l-100 -430q-16 -72 5.5 -106.5t71.5 -34.5q74 0 172 76l160 696h326l-162 -717q-9 -40 3 -61t40 -21t104 35l-2 -12q-173 -101 -313 -101
q-85 0 -124 43.5t-34 120.5q-191 -162 -370 -162zM817 973q-60 42 -135.5 89t-108.5 71.5t-53 52.5q-33 44 -30.5 92.5t40.5 75.5q38 28 85 14t79 -61q14 -22 30 -58.5t27.5 -69.5t33 -96.5t36.5 -105.5z" />
    <glyph glyph-name="uacute" unicode="&#xfa;" horiz-adv-x="1232" 
d="M287 -23q-113 0 -169 69.5t-24 211.5l101 457q9 40 -3 61t-40 21q-29 0 -105 -35l2 12q171 100 313 100q101 0 136.5 -60t11.5 -163l-100 -430q-16 -72 5.5 -106.5t71.5 -34.5q74 0 172 76l160 696h326l-162 -717q-9 -40 3 -61t40 -21t104 35l-2 -12q-173 -101 -313 -101
q-85 0 -124 43.5t-34 120.5q-191 -162 -370 -162zM524 975l-4 4q250 289 307 336q50 39 94.5 37.5t73.5 -37.5q24 -29 22 -61t-17 -58t-39 -45q-28 -22 -92 -48t-173.5 -65t-171.5 -63z" />
    <glyph glyph-name="ucircumflex" unicode="&#xfb;" horiz-adv-x="1232" 
d="M287 -23q-113 0 -169 69.5t-24 211.5l101 457q9 40 -3 61t-40 21q-29 0 -105 -35l2 12q171 100 313 100q101 0 136.5 -60t11.5 -163l-100 -430q-16 -72 5.5 -106.5t71.5 -34.5q74 0 172 76l160 696h326l-162 -717q-9 -40 3 -61t40 -21t104 35l-2 -12q-173 -101 -313 -101
q-85 0 -124 43.5t-34 120.5q-191 -162 -370 -162zM375 946l-4 4l305 322q48 51 100 51q53 0 76 -51l158 -322l-4 -4l-277 170z" />
    <glyph glyph-name="udieresis" unicode="&#xfc;" horiz-adv-x="1232" 
d="M287 -23q-113 0 -169 69.5t-24 211.5l101 457q9 40 -3 61t-40 21q-29 0 -105 -35l2 12q171 100 313 100q101 0 136.5 -60t11.5 -163l-100 -430q-16 -72 5.5 -106.5t71.5 -34.5q74 0 172 76l160 696h326l-162 -717q-9 -40 3 -61t40 -21t104 35l-2 -12q-173 -101 -313 -101
q-85 0 -124 43.5t-34 120.5q-191 -162 -370 -162zM541 1006q-59 0 -102.5 43t-43.5 104q0 59 41.5 101t102.5 42q60 0 102.5 -42t42.5 -103q0 -60 -42 -102.5t-101 -42.5zM934 1006q-59 0 -102.5 43t-43.5 104q0 59 41.5 101t102.5 42q60 0 102.5 -42t42.5 -103
q0 -60 -42 -102.5t-101 -42.5z" />
    <glyph glyph-name="yacute" unicode="&#xfd;" horiz-adv-x="991" 
d="M-174 -356q-51 0 -81 25t-30 63q0 54 37.5 84t100.5 41.5t131.5 18.5t144.5 26.5t125 54.5l63 45l-153 758q-6 37 -45 37q-29 0 -105 -35l2 12q171 100 314 100q68 0 106.5 -28t46.5 -78l92 -580q255 212 277 379q-27 -10 -64 -10q-70 0 -113.5 45.5t-43.5 110.5
q0 68 46.5 114.5t119.5 46.5q56 0 93.5 -30t51.5 -69t14 -81q0 -73 -48.5 -161t-134 -177.5t-190 -175t-227.5 -168.5l-53 -37q-29 -20 -72 -64.5t-85 -87.5t-92 -85t-109 -68t-119 -26zM459 975l-4 4q250 289 307 336q50 39 94.5 37.5t73.5 -37.5q24 -29 22 -61t-17.5 -58
t-39.5 -45q-28 -22 -91.5 -48t-173.5 -65t-171 -63z" />
    <glyph glyph-name="thorn" unicode="&#xfe;" horiz-adv-x="1171" 
d="M-184 -334l2 12q76 0 110 44.5t56 134.5l299 1286q12 52 14 90t-21.5 60t-76.5 22l4 12l456 41l-141 -612q139 118 287 118q142 0 216.5 -96.5t74.5 -242.5q0 -142 -67 -268.5t-196 -208t-292 -81.5q-126 0 -193 48l-43 -185q-20 -80 4 -121t101 -41l-2 -12h-592z
M639 788q-58 0 -127 -53l-135 -588q-15 -65 8.5 -108t87.5 -43q66 0 123 67t92 164t54.5 194.5t19.5 168.5q0 88 -31.5 143t-91.5 55z" />
    <glyph glyph-name="ydieresis" unicode="&#xff;" horiz-adv-x="991" 
d="M-174 -356q-51 0 -81 25t-30 63q0 54 37.5 84t100.5 41.5t131.5 18.5t144.5 26.5t125 54.5l63 45l-153 758q-6 37 -45 37q-29 0 -105 -35l2 12q171 100 314 100q68 0 106.5 -28t46.5 -78l92 -580q255 212 277 379q-27 -10 -64 -10q-70 0 -113.5 45.5t-43.5 110.5
q0 68 46.5 114.5t119.5 46.5q56 0 93.5 -30t51.5 -69t14 -81q0 -73 -48.5 -161t-134 -177.5t-190 -175t-227.5 -168.5l-53 -37q-29 -20 -72 -64.5t-85 -87.5t-92 -85t-109 -68t-119 -26zM444 1006q-59 0 -102 43t-43 104q0 59 41 101t102 42q60 0 103 -42t43 -103
q0 -60 -42.5 -102.5t-101.5 -42.5zM838 1006q-59 0 -102.5 43t-43.5 104q0 59 41.5 101t102.5 42q60 0 102.5 -42t42.5 -103q0 -60 -42 -102.5t-101 -42.5z" />
    <glyph glyph-name="Amacron" unicode="&#x100;" 
d="M-209 0l2 12q49 0 94.5 15t88.5 47t79 66t78 89t72.5 97.5t75.5 109.5q7 10 10 15l557 827h14l258 -1002q14 -54 28.5 -94.5t38.5 -82.5t58.5 -64.5t77.5 -22.5l-2 -12h-729l2 12q73 0 118 39.5t54 98t-4 126.5l-31 132h-446l-6 -9q-45 -60 -67.5 -126.5t-18 -125t52 -97
t135.5 -38.5l-2 -12h-588zM297 428h428l-111 467zM575 1434l19 82h614l-18 -82h-615z" />
    <glyph glyph-name="amacron" unicode="&#x101;" horiz-adv-x="1202" 
d="M324 -23q-96 0 -162.5 48t-96.5 123t-30 169q0 84 24.5 165t73 151.5t114.5 124.5t154 85t187 31q142 0 227 -75l295 73l6 -2l-164 -735q-9 -40 3 -61t40 -21q29 0 105 35l-2 -12q-173 -101 -314 -101q-150 0 -157 134q-144 -132 -303 -132zM494 63q57 0 127 62l143 633
q-10 42 -37 70t-70 28q-63 0 -119.5 -65.5t-92 -160t-56 -192.5t-20.5 -170q0 -88 32 -146.5t93 -58.5zM395 1024l19 82h614l-18 -82h-615z" />
    <glyph glyph-name="Abreve" unicode="&#x102;" 
d="M-209 0l2 12q49 0 94.5 15t88.5 47t79 66t78 89t72.5 97.5t75.5 109.5q7 10 10 15l557 827h14l258 -1002q14 -54 28.5 -94.5t38.5 -82.5t58.5 -64.5t77.5 -22.5l-2 -12h-729l2 12q73 0 118 39.5t54 98t-4 126.5l-31 132h-446l-6 -9q-45 -60 -67.5 -126.5t-18 -125t52 -97
t135.5 -38.5l-2 -12h-588zM297 428h428l-111 467zM866 1384q-59 0 -102 25.5t-65 65.5t-31 91t-7 99t13 92h6q0 -69 53 -116.5t172 -47.5t193 47.5t106 116.5h6q-11 -46 -28.5 -92.5t-47.5 -98.5t-66.5 -91t-89.5 -65t-112 -26z" />
    <glyph glyph-name="abreve" unicode="&#x103;" horiz-adv-x="1202" 
d="M324 -23q-96 0 -162.5 48t-96.5 123t-30 169q0 84 24.5 165t73 151.5t114.5 124.5t154 85t187 31q142 0 227 -75l295 73l6 -2l-164 -735q-9 -40 3 -61t40 -21q29 0 105 35l-2 -12q-173 -101 -314 -101q-150 0 -157 134q-144 -132 -303 -132zM494 63q57 0 127 62l143 633
q-10 42 -37 70t-70 28q-63 0 -119.5 -65.5t-92 -160t-56 -192.5t-20.5 -170q0 -88 32 -146.5t93 -58.5zM719 975q-59 0 -102 25.5t-65 65.5t-31.5 91t-7 99t12.5 92h6q0 -69 53.5 -116.5t172.5 -47.5t193 47.5t106 116.5h6q-11 -46 -28.5 -92.5t-47.5 -98.5t-66.5 -91
t-89.5 -65t-112 -26z" />
    <glyph glyph-name="Aogonek" unicode="&#x104;" 
d="M838 -467q-105 0 -165.5 39t-60.5 109q0 26 9.5 51t23 45t38.5 40.5t46.5 36t56 32.5t59 28t64 25.5t61.5 22t60.5 20.5t52.5 18h-491l2 12q73 0 118 39.5t54 98t-4 126.5l-31 132h-446l-6 -9q-45 -60 -67.5 -126.5t-18 -125t52 -97t135.5 -38.5l-2 -12h-588l2 12
q49 0 94.5 15t88.5 47t79 66t78 89t72.5 97.5t75.5 109.5q7 10 10 15l557 827h14l258 -1002q14 -54 28.5 -94.5t38.5 -82.5t58.5 -64.5t77.5 -22.5l-2 -12h-205q-37 -17 -63 -30.5t-64 -40.5t-61.5 -55t-41.5 -70.5t-18 -90.5q0 -135 133 -135q47 0 111 19l2 -11
q-146 -53 -276 -53zM297 428h428l-111 467z" />
    <glyph glyph-name="aogonek" unicode="&#x105;" horiz-adv-x="1202" 
d="M610 -467q-105 0 -165 39t-60 109q0 44 26 84.5t63.5 69.5t95.5 57.5t104 45.5t108 37q-149 3 -155 134q-144 -132 -303 -132q-96 0 -162.5 48t-96.5 123t-30 169q0 84 24.5 165t73 151.5t114.5 124.5t154 85t187 31q142 0 227 -75l295 73l6 -2l-164 -735q-9 -40 3 -61
t40 -21q29 0 105 35l-2 -12q-125 -74 -248 -94q-41 -21 -72.5 -42t-65.5 -54t-52.5 -77t-18.5 -96q0 -135 133 -135q47 0 111 19l2 -11q-146 -53 -277 -53zM494 63q57 0 127 62l143 633q-10 42 -37 70t-70 28q-63 0 -119.5 -65.5t-92 -160t-56 -192.5t-20.5 -170
q0 -88 32 -146.5t93 -58.5z" />
    <glyph glyph-name="Cacute" unicode="&#x106;" horiz-adv-x="1449" 
d="M741 -25q-323 0 -485 142t-162 387q0 165 73 311.5t197 250.5t295 164t361 60q56 0 127.5 -6t120.5 -11t111.5 -2.5t117.5 15.5l-65 -446l-11 -2q-39 235 -135.5 337.5t-245.5 102.5q-101 0 -188 -43t-148.5 -116t-109 -163.5t-75.5 -191t-42 -193t-14 -174.5
q0 -65 9 -122.5t30 -111t53 -91.5t82 -61t113 -23q157 0 318 131.5t296 343.5l6 -2l-166 -424q-230 -62 -463 -62zM817 1384l-4 5q247 285 307 335q50 39 94.5 37.5t73.5 -37.5q24 -29 22 -60.5t-17.5 -57.5t-39.5 -45q-28 -22 -91.5 -48t-174 -65.5t-170.5 -63.5z" />
    <glyph glyph-name="cacute" unicode="&#x107;" horiz-adv-x="1019" 
d="M428 -23q-99 0 -175.5 30t-122.5 82t-69.5 117t-23.5 140q0 109 49 208t130 168.5t187 110.5t218 41q162 0 256 -79.5t94 -184.5q0 -73 -44.5 -124.5t-119.5 -51.5q-72 0 -116 47t-44 115q0 62 37.5 108t95.5 56q-27 100 -121 100q-59 0 -109 -37.5t-82.5 -96.5
t-55.5 -133t-33 -144.5t-10 -133.5q0 -137 52 -208.5t152 -71.5q154 0 316 153l8 -8q-213 -203 -469 -203zM422 975l-4 4q250 289 307 336q50 39 94.5 37.5t73.5 -37.5q24 -29 22 -61t-17.5 -58t-39.5 -45q-28 -22 -91.5 -48t-173.5 -65t-171 -63z" />
    <glyph glyph-name="Ccircumflex" unicode="&#x108;" horiz-adv-x="1449" 
d="M741 -25q-323 0 -485 142t-162 387q0 165 73 311.5t197 250.5t295 164t361 60q56 0 127.5 -6t120.5 -11t111.5 -2.5t117.5 15.5l-65 -446l-11 -2q-39 235 -135.5 337.5t-245.5 102.5q-101 0 -188 -43t-148.5 -116t-109 -163.5t-75.5 -191t-42 -193t-14 -174.5
q0 -65 9 -122.5t30 -111t53 -91.5t82 -61t113 -23q157 0 318 131.5t296 343.5l6 -2l-166 -424q-230 -62 -463 -62zM680 1356l-4 4l305 321q49 52 100 52q53 0 76 -52l158 -321l-4 -4l-277 170z" />
    <glyph glyph-name="ccircumflex" unicode="&#x109;" horiz-adv-x="1019" 
d="M428 -23q-99 0 -175.5 30t-122.5 82t-69.5 117t-23.5 140q0 109 49 208t130 168.5t187 110.5t218 41q162 0 256 -79.5t94 -184.5q0 -73 -44.5 -124.5t-119.5 -51.5q-72 0 -116 47t-44 115q0 62 37.5 108t95.5 56q-27 100 -121 100q-59 0 -109 -37.5t-82.5 -96.5
t-55.5 -133t-33 -144.5t-10 -133.5q0 -137 52 -208.5t152 -71.5q154 0 316 153l8 -8q-213 -203 -469 -203zM283 946l-4 4l305 322q48 51 100 51q53 0 76 -51l158 -322l-5 -4l-276 170z" />
    <glyph glyph-name="Cdotaccent" unicode="&#x10a;" horiz-adv-x="1449" 
d="M741 -25q-323 0 -485 142t-162 387q0 165 73 311.5t197 250.5t295 164t361 60q56 0 127.5 -6t120.5 -11t111.5 -2.5t117.5 15.5l-65 -446l-11 -2q-39 235 -135.5 337.5t-245.5 102.5q-101 0 -188 -43t-148.5 -116t-109 -163.5t-75.5 -191t-42 -193t-14 -174.5
q0 -65 9 -122.5t30 -111t53 -91.5t82 -61t113 -23q157 0 318 131.5t296 343.5l6 -2l-166 -424q-230 -62 -463 -62zM1030 1415q-61 0 -105 44t-44 106q0 61 43.5 105t105.5 44t106 -44t44 -105t-44 -105.5t-106 -44.5z" />
    <glyph glyph-name="cdotaccent" unicode="&#x10b;" horiz-adv-x="1019" 
d="M428 -23q-99 0 -175.5 30t-122.5 82t-69.5 117t-23.5 140q0 109 49 208t130 168.5t187 110.5t218 41q162 0 256 -79.5t94 -184.5q0 -73 -44.5 -124.5t-119.5 -51.5q-72 0 -116 47t-44 115q0 62 37.5 108t95.5 56q-27 100 -121 100q-59 0 -109 -37.5t-82.5 -96.5
t-55.5 -133t-33 -144.5t-10 -133.5q0 -137 52 -208.5t152 -71.5q154 0 316 153l8 -8q-213 -203 -469 -203zM670 1006q-62 0 -106 44t-44 105t44 105.5t106 44.5q61 0 105 -44t44 -106q0 -61 -43.5 -105t-105.5 -44z" />
    <glyph glyph-name="Ccaron" unicode="&#x10c;" horiz-adv-x="1449" 
d="M741 -25q-323 0 -485 142t-162 387q0 165 73 311.5t197 250.5t295 164t361 60q56 0 127.5 -6t120.5 -11t111.5 -2.5t117.5 15.5l-65 -446l-11 -2q-39 235 -135.5 337.5t-245.5 102.5q-101 0 -188 -43t-148.5 -116t-109 -163.5t-75.5 -191t-42 -193t-14 -174.5
q0 -65 9 -122.5t30 -111t53 -91.5t82 -61t113 -23q157 0 318 131.5t296 343.5l6 -2l-166 -424q-230 -62 -463 -62zM997 1362q-52 0 -75 51l-158 322l4 4l276 -170l355 170l4 -4l-305 -322q-48 -51 -101 -51z" />
    <glyph glyph-name="ccaron" unicode="&#x10d;" horiz-adv-x="1019" 
d="M428 -23q-99 0 -175.5 30t-122.5 82t-69.5 117t-23.5 140q0 109 49 208t130 168.5t187 110.5t218 41q162 0 256 -79.5t94 -184.5q0 -73 -44.5 -124.5t-119.5 -51.5q-72 0 -116 47t-44 115q0 62 37.5 108t95.5 56q-27 100 -121 100q-59 0 -109 -37.5t-82.5 -96.5
t-55.5 -133t-33 -144.5t-10 -133.5q0 -137 52 -208.5t152 -71.5q154 0 316 153l8 -8q-213 -203 -469 -203zM606 952q-53 0 -76 52l-157 321l4 4l276 -170l355 170l4 -4l-305 -321q-49 -52 -101 -52z" />
    <glyph glyph-name="Dcaron" unicode="&#x10e;" horiz-adv-x="1619" 
d="M-61 0l2 12q96 0 140 42t73 167l190 823q28 126 4 167.5t-121 41.5l4 13h717q290 0 459.5 -136t169.5 -389q0 -156 -66.5 -292t-185.5 -235.5t-292.5 -156.5t-377.5 -57h-716zM461 14h145q109 0 201 37.5t156 102t112.5 146t77 174t42 180t13.5 171.5q0 89 -16.5 163
t-51.5 134.5t-98 94.5t-149 34h-148zM940 1362q-53 0 -76 51l-157 322l4 4l276 -170l354 170l5 -4l-306 -322q-48 -51 -100 -51z" />
    <glyph glyph-name="dcaron" unicode="&#x10f;" horiz-adv-x="1234" 
d="M1270 881l-6 2q16 55 43 154t43.5 150.5t35.5 84.5q27 49 68.5 72.5t87.5 3.5q43 -20 48.5 -63t-23.5 -87q-19 -32 -58 -74t-116.5 -119t-122.5 -124zM324 -23q-96 0 -162.5 48t-96.5 123t-30 169q0 84 24.5 165t73 151.5t114.5 124.5t154 85t187 31q121 0 194 -49
l74 318q21 92 -9.5 132t-115.5 40l4 12l498 41l-281 -1233q-9 -40 3 -61t40 -21q29 0 105 35l-2 -12q-173 -101 -314 -101q-150 0 -157 134q-144 -132 -303 -132zM494 63q57 0 127 62l145 629q-12 44 -39 73t-70 29q-63 0 -119.5 -65.5t-92 -160t-56 -192.5t-20.5 -170
q0 -88 32 -146.5t93 -58.5z" />
    <glyph glyph-name="Dcroat" unicode="&#x110;" horiz-adv-x="1619" 
d="M-61 0l2 12q96 0 140 42t73 167l94 406h-162l4 18h162l92 399q28 126 4 167.5t-121 41.5l4 13h717q299 0 464 -134t165 -368q0 -168 -66.5 -310t-186 -242t-292 -156t-377.5 -56h-716zM461 14h145q93 0 175 30t142 81t109 119.5t81 143.5t54 156t31.5 153.5t9.5 138.5
q0 84 -16.5 155.5t-51.5 131.5t-98 94t-149 34h-148l-139 -606h312l-5 -18h-311z" />
    <glyph glyph-name="dcroat" unicode="&#x111;" horiz-adv-x="1202" 
d="M324 -23q-96 0 -162.5 48t-96.5 123t-30 169q0 84 24.5 165t73 151.5t114.5 124.5t154 85t187 31q121 0 194 -49l47 203h-264l4 19h265l22 96q21 92 -9.5 132t-115.5 40l4 12l498 41l-74 -321h137l-4 -19h-137l-203 -893q-9 -40 3 -61t40 -21q29 0 105 35l-2 -12
q-173 -101 -314 -101q-150 0 -157 134q-144 -132 -303 -132zM494 63q57 0 127 62l145 629q-12 44 -39 73t-70 29q-63 0 -119.5 -65.5t-92 -160t-56 -192.5t-20.5 -170q0 -88 32 -146.5t93 -58.5z" />
    <glyph glyph-name="Emacron" unicode="&#x112;" horiz-adv-x="1335" 
d="M-61 0l2 12q96 0 140 42t73 167l190 823q28 126 4 167.5t-121 41.5l4 13h1131l-70 -432l-8 -3q0 91 -22 165.5t-67 132.5t-122 90t-180 32h-148l-141 -612h64q77 0 147 26t123 71.5t93 98.5t69 115h8l-145 -633h-9q-2 61 -17.5 113.5t-48 97.5t-90 71t-134.5 26h-64
l-139 -611h157q360 0 599 451l8 -2l-146 -463h-1140zM567 1434l19 82h614l-18 -82h-615z" />
    <glyph glyph-name="emacron" unicode="&#x113;" horiz-adv-x="1048" 
d="M442 -23q-103 0 -182.5 29t-127.5 79.5t-72.5 114.5t-24.5 138q0 105 47.5 203.5t127 171.5t189.5 117t230 44q156 0 265.5 -67t109.5 -172q0 -52 -30 -91.5t-83.5 -62t-115.5 -37t-136.5 -18.5t-136 -3.5t-123.5 5.5q-10 -56 -10 -123q0 -123 56 -195.5t165 -72.5
q154 0 317 151l8 -8q-43 -40 -84 -70.5t-100 -63.5t-133 -51t-156 -18zM633 864q-59 0 -112.5 -67t-87 -159t-52.5 -196q88 -2 155.5 22.5t105.5 68t56.5 95t18.5 109.5q0 127 -84 127zM315 1024l19 82h614l-18 -82h-615z" />
    <glyph glyph-name="Ebreve" unicode="&#x114;" horiz-adv-x="1335" 
d="M-61 0l2 12q96 0 140 42t73 167l190 823q28 126 4 167.5t-121 41.5l4 13h1131l-70 -432l-8 -3q0 91 -22 165.5t-67 132.5t-122 90t-180 32h-148l-141 -612h64q77 0 147 26t123 71.5t93 98.5t69 115h8l-145 -633h-9q-2 61 -17.5 113.5t-48 97.5t-90 71t-134.5 26h-64
l-139 -611h157q360 0 599 451l8 -2l-146 -463h-1140zM874 1384q-59 0 -102 25.5t-65 65.5t-31 91t-7 99t13 92h6q0 -69 53 -116.5t172 -47.5t193 47.5t106 116.5h7q-11 -46 -28.5 -92.5t-48 -98.5t-67 -91t-89.5 -65t-112 -26z" />
    <glyph glyph-name="ebreve" unicode="&#x115;" horiz-adv-x="1048" 
d="M442 -23q-103 0 -182.5 29t-127.5 79.5t-72.5 114.5t-24.5 138q0 105 47.5 203.5t127 171.5t189.5 117t230 44q156 0 265.5 -67t109.5 -172q0 -52 -30 -91.5t-83.5 -62t-115.5 -37t-136.5 -18.5t-136 -3.5t-123.5 5.5q-10 -56 -10 -123q0 -123 56 -195.5t165 -72.5
q154 0 317 151l8 -8q-43 -40 -84 -70.5t-100 -63.5t-133 -51t-156 -18zM633 864q-59 0 -112.5 -67t-87 -159t-52.5 -196q88 -2 155.5 22.5t105.5 68t56.5 95t18.5 109.5q0 127 -84 127zM635 975q-59 0 -102 25.5t-65 65.5t-31.5 91t-7 99t12.5 92h7q0 -69 53 -116.5
t172 -47.5t193 47.5t106 116.5h6q-11 -46 -28.5 -92.5t-47.5 -98.5t-66.5 -91t-89.5 -65t-112 -26z" />
    <glyph glyph-name="Edotaccent" unicode="&#x116;" horiz-adv-x="1335" 
d="M-61 0l2 12q96 0 140 42t73 167l190 823q28 126 4 167.5t-121 41.5l4 13h1131l-70 -432l-8 -3q0 91 -22 165.5t-67 132.5t-122 90t-180 32h-148l-141 -612h64q77 0 147 26t123 71.5t93 98.5t69 115h8l-145 -633h-9q-2 61 -17.5 113.5t-48 97.5t-90 71t-134.5 26h-64
l-139 -611h157q360 0 599 451l8 -2l-146 -463h-1140zM893 1415q-61 0 -105.5 44.5t-44.5 105.5t44 105t106 44q61 0 105 -44t44 -105q0 -62 -44 -106t-105 -44z" />
    <glyph glyph-name="edotaccent" unicode="&#x117;" horiz-adv-x="1048" 
d="M442 -23q-103 0 -182.5 29t-127.5 79.5t-72.5 114.5t-24.5 138q0 105 47.5 203.5t127 171.5t189.5 117t230 44q156 0 265.5 -67t109.5 -172q0 -52 -30 -91.5t-83.5 -62t-115.5 -37t-136.5 -18.5t-136 -3.5t-123.5 5.5q-10 -56 -10 -123q0 -123 56 -195.5t165 -72.5
q154 0 317 151l8 -8q-43 -40 -84 -70.5t-100 -63.5t-133 -51t-156 -18zM633 864q-59 0 -112.5 -67t-87 -159t-52.5 -196q88 -2 155.5 22.5t105.5 68t56.5 95t18.5 109.5q0 127 -84 127zM659 1006q-61 0 -105 44t-44 105q0 62 44 106t105 44t105.5 -44.5t44.5 -105.5
t-44 -105t-106 -44z" />
    <glyph glyph-name="Eogonek" unicode="&#x118;" horiz-adv-x="1335" 
d="M698 -467q-105 0 -165 39t-60 109q0 26 9.5 51t23 45t38.5 40.5t46.5 36t56 32.5t59 28t64 25.5t61.5 22t60.5 20.5t52.5 18h-1005l2 12q96 0 140 42t73 167l190 823q28 126 4 167.5t-121 41.5l4 13h1131l-70 -432l-8 -3q0 91 -22 165.5t-67 132.5t-122 90t-180 32h-148
l-141 -612h64q77 0 147 26t123 71.5t93 98.5t69 115h8l-145 -633h-9q-2 61 -17.5 113.5t-48 97.5t-90 71t-134.5 26h-64l-139 -611h157q360 0 599 451l8 -2l-146 -463h-102q-37 -17 -63 -30.5t-64 -40.5t-61.5 -55t-41.5 -70.5t-18 -90.5q0 -135 133 -135q47 0 111 19l2 -11
q-146 -53 -277 -53z" />
    <glyph glyph-name="eogonek" unicode="&#x119;" horiz-adv-x="1048" 
d="M436 -467q-106 0 -166.5 42t-60.5 114q0 24 8 47t19.5 42t32.5 38.5t39.5 34t49.5 32t52 28.5t57 26.5t56 23.5t57.5 22.5t52.5 20.5q-93 -27 -191 -27q-103 0 -182.5 29t-127.5 79.5t-72.5 114.5t-24.5 138q0 105 47.5 203.5t127 171.5t189.5 117t230 44
q156 0 265.5 -67t109.5 -172q0 -52 -30 -91.5t-83.5 -62t-115.5 -37t-136.5 -18.5t-136 -3.5t-123.5 5.5q-10 -56 -10 -123q0 -123 56 -195.5t165 -72.5q154 0 317 151l8 -8q-87 -81 -178 -131q-39 -22 -61.5 -35t-68 -47.5t-72 -66t-48.5 -81t-22 -102.5q0 -139 135 -139
q45 0 109 19l2 -11q-146 -53 -275 -53zM633 864q-59 0 -112.5 -67t-87 -159t-52.5 -196q88 -2 155.5 22.5t105.5 68t56.5 95t18.5 109.5q0 127 -84 127z" />
    <glyph glyph-name="Ecaron" unicode="&#x11a;" horiz-adv-x="1335" 
d="M-61 0l2 12q96 0 140 42t73 167l190 823q28 126 4 167.5t-121 41.5l4 13h1131l-70 -432l-8 -3q0 91 -22 165.5t-67 132.5t-122 90t-180 32h-148l-141 -612h64q77 0 147 26t123 71.5t93 98.5t69 115h8l-145 -633h-9q-2 61 -17.5 113.5t-48 97.5t-90 71t-134.5 26h-64
l-139 -611h157q360 0 599 451l8 -2l-146 -463h-1140zM870 1362q-52 0 -75 51l-158 322l4 4l277 -170l354 170l4 -4l-305 -322q-48 -51 -101 -51z" />
    <glyph glyph-name="ecaron" unicode="&#x11b;" horiz-adv-x="1048" 
d="M442 -23q-103 0 -182.5 29t-127.5 79.5t-72.5 114.5t-24.5 138q0 105 47.5 203.5t127 171.5t189.5 117t230 44q156 0 265.5 -67t109.5 -172q0 -52 -30 -91.5t-83.5 -62t-115.5 -37t-136.5 -18.5t-136 -3.5t-123.5 5.5q-10 -56 -10 -123q0 -123 56 -195.5t165 -72.5
q154 0 317 151l8 -8q-43 -40 -84 -70.5t-100 -63.5t-133 -51t-156 -18zM633 864q-59 0 -112.5 -67t-87 -159t-52.5 -196q88 -2 155.5 22.5t105.5 68t56.5 95t18.5 109.5q0 127 -84 127zM623 952q-53 0 -76 52l-158 321l4 4l277 -170l354 170l4 -4l-305 -321
q-49 -52 -100 -52z" />
    <glyph glyph-name="Gcircumflex" unicode="&#x11c;" horiz-adv-x="1628" 
d="M762 -25q-339 0 -504.5 138t-165.5 383q0 142 54 269.5t146.5 222t213.5 163.5t258 104t276 35q52 0 130 -6t135.5 -11t128 -2.5t125.5 15.5l-62 -426l-10 -2q-13 112 -53 195t-97.5 130.5t-123 70t-140.5 22.5q-102 0 -192.5 -41t-156 -110.5t-118 -158.5t-84.5 -188.5
t-48.5 -196.5t-16.5 -186q0 -84 15.5 -153.5t49.5 -128.5t96 -92t148 -33q120 0 248 57l78 334q29 126 1.5 174.5t-128.5 48.5l2 12h682l-2 -12q-96 0 -139 -42t-72 -167l-76 -330q-334 -88 -598 -88zM702 1356l-4 4l306 321q49 52 100 52q53 0 76 -52l157 -321l-4 -4
l-276 170z" />
    <glyph glyph-name="gcircumflex" unicode="&#x11d;" horiz-adv-x="1122" 
d="M311 -356q-195 0 -320.5 38t-125.5 113q0 33 24.5 60t63.5 44t73 26t66 14q-84 38 -84 116q0 73 67.5 133.5t182.5 100.5q-87 32 -135.5 91t-48.5 142q0 144 138.5 248t356.5 104q163 0 271 -65q49 -8 106 -8q78 0 125 24q-39 12 -66.5 49.5t-27.5 81.5q0 54 39.5 92.5
t95.5 38.5t97.5 -41.5t41.5 -101.5q0 -81 -76 -121.5t-180 -40.5q-65 0 -135 13q96 -71 96 -189q0 -101 -69.5 -182.5t-182.5 -124.5t-243 -43q-111 0 -191 29q-63 -28 -63 -66q0 -25 37 -37.5t95.5 -16.5t129.5 -7t142.5 -14t130 -32t95.5 -67t37 -113q0 -47 -17.5 -88
t-58.5 -78t-104.5 -64t-161 -42.5t-221.5 -15.5zM342 -346q86 0 149.5 11.5t94.5 26.5t49 35.5t21 32t3 23.5q0 48 -63 72t-145.5 28t-186.5 16t-162 35q-82 -50 -82 -124q0 -156 322 -156zM578 864q-61 0 -111.5 -70t-76 -168t-25.5 -194q0 -166 90 -166q60 0 110 69
t75.5 167.5t25.5 197.5q0 164 -88 164zM289 967l-4 4l305 321q48 51 100 51q53 0 76 -51l158 -321l-4 -4l-277 170z" />
    <glyph glyph-name="Gbreve" unicode="&#x11e;" horiz-adv-x="1628" 
d="M762 -25q-339 0 -504.5 138t-165.5 383q0 142 54 269.5t146.5 222t213.5 163.5t258 104t276 35q52 0 130 -6t135.5 -11t128 -2.5t125.5 15.5l-62 -426l-10 -2q-13 112 -53 195t-97.5 130.5t-123 70t-140.5 22.5q-102 0 -192.5 -41t-156 -110.5t-118 -158.5t-84.5 -188.5
t-48.5 -196.5t-16.5 -186q0 -84 15.5 -153.5t49.5 -128.5t96 -92t148 -33q120 0 248 57l78 334q29 126 1.5 174.5t-128.5 48.5l2 12h682l-2 -12q-96 0 -139 -42t-72 -167l-76 -330q-334 -88 -598 -88zM1059 1384q-59 0 -102 25.5t-65 65.5t-31.5 91t-7 99t12.5 92h6
q0 -69 53.5 -116.5t172.5 -47.5t193 47.5t106 116.5h6q-11 -46 -28.5 -92.5t-47.5 -98.5t-66.5 -91t-89.5 -65t-112 -26z" />
    <glyph glyph-name="gbreve" unicode="&#x11f;" horiz-adv-x="1122" 
d="M311 -356q-195 0 -320.5 38t-125.5 113q0 33 24.5 60t63.5 44t73 26t66 14q-84 38 -84 116q0 73 67.5 133.5t182.5 100.5q-87 32 -135.5 91t-48.5 142q0 144 138.5 248t356.5 104q163 0 271 -65q49 -8 106 -8q78 0 125 24q-39 12 -66.5 49.5t-27.5 81.5q0 54 39.5 92.5
t95.5 38.5t97.5 -41.5t41.5 -101.5q0 -81 -76 -121.5t-180 -40.5q-65 0 -135 13q96 -71 96 -189q0 -101 -69.5 -182.5t-182.5 -124.5t-243 -43q-111 0 -191 29q-63 -28 -63 -66q0 -25 37 -37.5t95.5 -16.5t129.5 -7t142.5 -14t130 -32t95.5 -67t37 -113q0 -47 -17.5 -88
t-58.5 -78t-104.5 -64t-161 -42.5t-221.5 -15.5zM342 -346q86 0 149.5 11.5t94.5 26.5t49 35.5t21 32t3 23.5q0 48 -63 72t-145.5 28t-186.5 16t-162 35q-82 -50 -82 -124q0 -156 322 -156zM578 864q-61 0 -111.5 -70t-76 -168t-25.5 -194q0 -166 90 -166q60 0 110 69
t75.5 167.5t25.5 197.5q0 164 -88 164zM578 975q-59 0 -102 25.5t-65 65.5t-31.5 91t-7 99t12.5 92h6q0 -69 53 -116.5t172 -47.5t193 47.5t106 116.5h7q-11 -46 -28.5 -92.5t-47.5 -98.5t-66.5 -91t-89.5 -65t-112 -26z" />
    <glyph glyph-name="Gdotaccent" unicode="&#x120;" horiz-adv-x="1628" 
d="M762 -25q-339 0 -504.5 138t-165.5 383q0 142 54 269.5t146.5 222t213.5 163.5t258 104t276 35q52 0 130 -6t135.5 -11t128 -2.5t125.5 15.5l-62 -426l-10 -2q-13 112 -53 195t-97.5 130.5t-123 70t-140.5 22.5q-102 0 -192.5 -41t-156 -110.5t-118 -158.5t-84.5 -188.5
t-48.5 -196.5t-16.5 -186q0 -84 15.5 -153.5t49.5 -128.5t96 -92t148 -33q120 0 248 57l78 334q29 126 1.5 174.5t-128.5 48.5l2 12h682l-2 -12q-96 0 -139 -42t-72 -167l-76 -330q-334 -88 -598 -88zM1087 1415q-61 0 -105 44t-44 106q0 61 44 105t105 44q62 0 106 -44
t44 -105t-44.5 -105.5t-105.5 -44.5z" />
    <glyph glyph-name="gdotaccent" unicode="&#x121;" horiz-adv-x="1122" 
d="M311 -356q-195 0 -320.5 38t-125.5 113q0 33 24.5 60t63.5 44t73 26t66 14q-84 38 -84 116q0 73 67.5 133.5t182.5 100.5q-87 32 -135.5 91t-48.5 142q0 144 138.5 248t356.5 104q163 0 271 -65q49 -8 106 -8q78 0 125 24q-39 12 -66.5 49.5t-27.5 81.5q0 54 39.5 92.5
t95.5 38.5t97.5 -41.5t41.5 -101.5q0 -81 -76 -121.5t-180 -40.5q-65 0 -135 13q96 -71 96 -189q0 -101 -69.5 -182.5t-182.5 -124.5t-243 -43q-111 0 -191 29q-63 -28 -63 -66q0 -25 37 -37.5t95.5 -16.5t129.5 -7t142.5 -14t130 -32t95.5 -67t37 -113q0 -47 -17.5 -88
t-58.5 -78t-104.5 -64t-161 -42.5t-221.5 -15.5zM342 -346q86 0 149.5 11.5t94.5 26.5t49 35.5t21 32t3 23.5q0 48 -63 72t-145.5 28t-186.5 16t-162 35q-82 -50 -82 -124q0 -156 322 -156zM578 864q-61 0 -111.5 -70t-76 -168t-25.5 -194q0 -166 90 -166q60 0 110 69
t75.5 167.5t25.5 197.5q0 164 -88 164zM637 1006q-62 0 -106 44t-44 105t44.5 105.5t105.5 44.5t105 -44t44 -106q0 -61 -44 -105t-105 -44z" />
    <glyph glyph-name="uni0122" unicode="&#x122;" horiz-adv-x="1628" 
d="M453 -678l-2 8q88 30 169 99.5t113 156.5q-31 -14 -63 -14q-62 0 -98.5 40t-36.5 95q0 61 44.5 104.5t112.5 43.5t110 -46t42 -110q0 -106 -111.5 -215.5t-279.5 -161.5zM762 -25q-339 0 -504.5 138t-165.5 383q0 142 54 269.5t146.5 222t213.5 163.5t258 104t276 35
q52 0 130 -6t135.5 -11t128 -2.5t125.5 15.5l-62 -426l-10 -2q-13 112 -53 195t-97.5 130.5t-123 70t-140.5 22.5q-102 0 -192.5 -41t-156 -110.5t-118 -158.5t-84.5 -188.5t-48.5 -196.5t-16.5 -186q0 -84 15.5 -153.5t49.5 -128.5t96 -92t148 -33q120 0 248 57l78 334
q29 126 1.5 174.5t-128.5 48.5l2 12h682l-2 -12q-96 0 -139 -42t-72 -167l-76 -330q-334 -88 -598 -88z" />
    <glyph glyph-name="uni0123" unicode="&#x123;" horiz-adv-x="1122" 
d="M889 1507l2 -8q-89 -30 -170.5 -99t-114.5 -157q31 14 66 14q62 0 98.5 -40t36.5 -95q0 -61 -45 -104t-113 -43t-109.5 45.5t-41.5 109.5q0 106 111.5 215.5t279.5 161.5zM311 -356q-195 0 -320.5 38t-125.5 113q0 33 24.5 60t63.5 44t73 26t66 14q-84 38 -84 116
q0 73 67.5 133.5t182.5 100.5q-87 32 -135.5 91t-48.5 142q0 144 138.5 248t356.5 104q163 0 271 -65q49 -8 106 -8q78 0 125 24q-39 12 -66.5 49.5t-27.5 81.5q0 54 39.5 92.5t95.5 38.5t97.5 -41.5t41.5 -101.5q0 -81 -76 -121.5t-180 -40.5q-65 0 -135 13q96 -71 96 -189
q0 -101 -69.5 -182.5t-182.5 -124.5t-243 -43q-111 0 -191 29q-63 -28 -63 -66q0 -25 37 -37.5t95.5 -16.5t129.5 -7t142.5 -14t130 -32t95.5 -67t37 -113q0 -47 -17.5 -88t-58.5 -78t-104.5 -64t-161 -42.5t-221.5 -15.5zM342 -346q86 0 149.5 11.5t94.5 26.5t49 35.5
t21 32t3 23.5q0 48 -63 72t-145.5 28t-186.5 16t-162 35q-82 -50 -82 -124q0 -156 322 -156zM578 864q-61 0 -111.5 -70t-76 -168t-25.5 -194q0 -166 90 -166q60 0 110 69t75.5 167.5t25.5 197.5q0 164 -88 164z" />
    <glyph glyph-name="Hcircumflex" unicode="&#x124;" horiz-adv-x="1699" 
d="M-61 0l2 12q96 0 140 42t73 167l190 823q28 126 4 167.5t-121 41.5l4 13h682l-4 -13q-96 0 -139 -42t-72 -167l-92 -397h549l92 397q28 126 4 167.5t-121 41.5l5 13h682l-5 -13q-96 0 -138.5 -42t-71.5 -167l-191 -823q-28 -126 -4.5 -167.5t119.5 -41.5l-2 -12h-682
l2 12q96 0 140 42t73 167l94 408h-549l-94 -408q-28 -126 -4.5 -167.5t119.5 -41.5l-2 -12h-682zM737 1356l-4 4l305 321q49 52 101 52t75 -52l158 -321l-4 -4l-276 170z" />
    <glyph glyph-name="hcircumflex" unicode="&#x125;" horiz-adv-x="1204" 
d="M16 0l267 1143q12 52 14 90t-21.5 60t-76.5 22l4 12l456 41l-163 -706q108 99 202.5 155.5t190.5 56.5q103 0 158 -69t24 -211l-102 -459q-9 -40 3 -61t40 -21t104 35l-2 -12q-173 -101 -313 -101q-100 0 -136 60.5t-12 163.5l109 465q22 98 -57 98q-46 0 -96 -32
t-120 -91l-147 -639h-326zM354 1427l-4 5l305 321q48 51 101 51q52 0 75 -51l158 -321l-4 -5l-276 170z" />
    <glyph glyph-name="Hbar" unicode="&#x126;" horiz-adv-x="1699" 
d="M-59 0l2 12q96 0 140 42t73 167l159 697h-143l4 18h143l27 108q28 126 4 167.5t-121 41.5l4 13h682l-4 -13q-96 0 -139 -42t-72 -167l-26 -108h549l26 108q28 126 4 167.5t-120 41.5l4 13h682l-4 -13q-96 0 -139 -42t-72 -167l-27 -108h143l-4 -18h-143l-160 -697
q-28 -126 -4.5 -167.5t119.5 -41.5l-2 -12h-682l2 12q96 0 140 42t73 167l94 408h-549l-94 -408q-28 -126 -4.5 -167.5t119.5 -41.5l-2 -12h-682zM608 647h549l62 271h-549z" />
    <glyph glyph-name="hbar" unicode="&#x127;" horiz-adv-x="1206" 
d="M18 0l240 1028h-137l4 19h137l23 96q12 52 14 90t-21.5 60t-76.5 22l4 12l457 41l-76 -321h266l-4 -19h-266l-84 -366q108 99 202.5 155.5t190.5 56.5q103 0 158 -69t24 -211l-102 -459q-9 -40 3 -61t40 -21t104 35l-2 -12q-173 -101 -313 -101q-100 0 -136 60.5
t-12 163.5l109 465q22 98 -57 98q-32 0 -72 -20.5t-68 -42t-75 -60.5l-148 -639h-326z" />
    <glyph glyph-name="Itilde" unicode="&#x128;" horiz-adv-x="796" 
d="M-61 0l2 12q96 0 140 42t73 167l190 823q28 126 4 167.5t-121 41.5l4 13h682l-4 -13q-96 0 -139 -42t-72 -167l-190 -823q-28 -126 -4.5 -167.5t119.5 -41.5l-2 -12h-682zM289 1399q4 13 14.5 49.5t18.5 60t22 59t30 59t37.5 47t49.5 35t61 11.5q52 0 157 -48t161 -48
q34 0 60 11t42 31.5t24.5 37.5t16.5 39l10 -2q-3 -9 -13 -41t-14 -45t-14.5 -42.5t-17.5 -43.5l-19.5 -39t-23 -37.5t-26 -29t-31 -24.5t-35 -14t-41.5 -6q-51 0 -154.5 48.5t-161.5 48.5q-34 0 -60 -11t-42.5 -32t-25 -37t-17.5 -39z" />
    <glyph glyph-name="itilde" unicode="&#x129;" horiz-adv-x="641" 
d="M231 -25q-100 0 -135.5 60.5t-11.5 163.5l117 516q9 40 -3 61t-40 21q-29 0 -105 -35l2 12q171 100 314 100q100 0 135.5 -60t11.5 -163l-117 -516q-9 -40 3 -61t40 -21q29 0 105 35l-2 -12q-173 -101 -314 -101zM76 989q4 13 14.5 49.5t18.5 60t22 59.5t30 59.5t37.5 47
t49.5 35t61 11.5q52 0 157 -48.5t161 -48.5q34 0 60 11t42 31.5t24.5 37.5t16.5 39l10 -2q-3 -9 -13 -41t-14 -44.5t-14.5 -42.5t-17.5 -44t-19.5 -38.5t-23 -37t-26 -29t-31 -24.5t-35 -14t-41.5 -6q-51 0 -154.5 48t-161.5 48q-34 0 -60 -11t-42.5 -32t-25 -37t-17.5 -39z
" />
    <glyph glyph-name="Imacron" unicode="&#x12a;" horiz-adv-x="796" 
d="M-61 0l2 12q96 0 140 42t73 167l190 823q28 126 4 167.5t-121 41.5l4 13h682l-4 -13q-96 0 -139 -42t-72 -167l-190 -823q-28 -126 -4.5 -167.5t119.5 -41.5l-2 -12h-682zM303 1434l19 82h614l-18 -82h-615z" />
    <glyph glyph-name="imacron" unicode="&#x12b;" horiz-adv-x="641" 
d="M231 -25q-100 0 -135.5 60.5t-11.5 163.5l117 516q9 40 -3 61t-40 21q-29 0 -105 -35l2 12q171 100 314 100q100 0 135.5 -60t11.5 -163l-117 -516q-9 -40 3 -61t40 -21q29 0 105 35l-2 -12q-173 -101 -314 -101zM80 1024l18 82h615l-19 -82h-614z" />
    <glyph glyph-name="Ibreve" unicode="&#x12c;" horiz-adv-x="796" 
d="M-61 0l2 12q96 0 140 42t73 167l190 823q28 126 4 167.5t-121 41.5l4 13h682l-4 -13q-96 0 -139 -42t-72 -167l-190 -823q-28 -126 -4.5 -167.5t119.5 -41.5l-2 -12h-682zM590 1384q-59 0 -102 25.5t-65 65.5t-31.5 91t-7 99t12.5 92h6q0 -69 53.5 -116.5t172.5 -47.5
t193 47.5t106 116.5h6q-11 -46 -28.5 -92.5t-47.5 -98.5t-66.5 -91t-89.5 -65t-112 -26z" />
    <glyph glyph-name="ibreve" unicode="&#x12d;" horiz-adv-x="641" 
d="M231 -25q-100 0 -135.5 60.5t-11.5 163.5l117 516q9 40 -3 61t-40 21q-29 0 -105 -35l2 12q171 100 314 100q100 0 135.5 -60t11.5 -163l-117 -516q-9 -40 3 -61t40 -21q29 0 105 35l-2 -12q-173 -101 -314 -101zM383 975q-59 0 -102 25.5t-65 65.5t-31.5 91t-7 99
t12.5 92h7q0 -69 53 -116.5t172 -47.5t193 47.5t106 116.5h6q-11 -46 -28.5 -92.5t-47.5 -98.5t-66.5 -91t-89.5 -65t-112 -26z" />
    <glyph glyph-name="Iogonek" unicode="&#x12e;" horiz-adv-x="796" 
d="M150 -467q-105 0 -165.5 39t-60.5 109q0 26 9.5 51t23 45t38.5 40.5t46.5 36t56 32.5t59 28t64 25.5t61.5 22t60.5 20.5t52.5 18h-456l2 12q96 0 140 42t73 167l190 823q28 126 4 167.5t-121 41.5l4 13h682l-4 -13q-96 0 -139 -42t-72 -167l-190 -823
q-28 -126 -4.5 -167.5t119.5 -41.5l-2 -12h-193q-37 -17 -63 -30.5t-64 -40.5t-61.5 -55t-41.5 -70.5t-18 -90.5q0 -135 133 -135q47 0 111 19l2 -11q-146 -53 -276 -53z" />
    <glyph glyph-name="iogonek" unicode="&#x12f;" horiz-adv-x="641" 
d="M102 -467q-105 0 -165 39t-60 109q0 38 17.5 72.5t51.5 63.5t70.5 52t88 44.5t90 35.5t90.5 31q-123 -15 -176.5 40.5t-24.5 178.5l117 516q9 40 -3 61t-40 21q-29 0 -105 -35l2 12q171 100 314 100q100 0 135.5 -60t11.5 -163l-117 -516q-9 -40 3 -61t40 -21
q29 0 105 35l-2 -12q-71 -42 -144 -68q-107 -49 -153 -83q-114 -87 -115 -212q0 -135 133 -135q47 0 111 19l2 -11q-146 -53 -277 -53zM461 977q-79 0 -134 51t-55 129q0 77 55 127.5t134 50.5t133.5 -50.5t54.5 -127.5q0 -78 -54.5 -129t-133.5 -51z" />
    <glyph glyph-name="Idotaccent" unicode="&#x130;" horiz-adv-x="796" 
d="M-61 0l2 12q96 0 140 42t73 167l190 823q28 126 4 167.5t-121 41.5l4 13h682l-4 -13q-96 0 -139 -42t-72 -167l-190 -823q-28 -126 -4.5 -167.5t119.5 -41.5l-2 -12h-682zM621 1415q-61 0 -105.5 44.5t-44.5 105.5t44 105t106 44q61 0 105 -44t44 -105q0 -62 -44 -106
t-105 -44z" />
    <glyph glyph-name="dotlessi" unicode="&#x131;" horiz-adv-x="641" 
d="M231 -25q-100 0 -135.5 60.5t-11.5 163.5l117 516q9 40 -3 61t-40 21q-29 0 -105 -35l2 12q171 100 314 100q100 0 135.5 -60t11.5 -163l-117 -516q-9 -40 3 -61t40 -21q29 0 105 35l-2 -12q-173 -101 -314 -101z" />
    <glyph glyph-name="Jcircumflex" unicode="&#x134;" horiz-adv-x="778" 
d="M-178 -342l-4 10q54 25 95.5 52.5t70.5 59t48.5 58.5t34 65.5t22 65t17.5 70.5l234 1005q28 126 4 167.5t-121 41.5l4 13h682l-4 -13q-96 0 -140 -42t-73 -167l-217 -946q-19 -83 -83 -156t-157 -126.5t-196 -92.5t-217 -65zM262 1356l-4 4l305 321q49 52 101 52t75 -52
l158 -321l-4 -4l-277 170z" />
    <glyph glyph-name="jcircumflex" unicode="&#x135;" horiz-adv-x="626" 
d="M-78 -334q-72 0 -125 16t-81 43t-41 57t-13 62q0 64 42 104t101 40t95.5 -41t36.5 -99q0 -53 -29 -90.5t-70 -50.5q13 -26 47 -26q41 0 73 29.5t44 80.5l213 924q9 40 -3 61t-40 21t-104 -35l2 12q171 100 313 100q100 0 135.5 -60t11.5 -163l-151 -649
q-37 -158 -162 -247t-295 -89zM63 946l-4 4l306 322q48 51 100 51q53 0 76 -51l157 -322l-4 -4l-276 170z" />
    <glyph glyph-name="uni0136" unicode="&#x136;" horiz-adv-x="1515" 
d="M399 -678l-2 8q89 30 170 99.5t113 156.5q-32 -14 -64 -14q-62 0 -98.5 40t-36.5 95q0 61 45 104.5t113 43.5t110 -46t42 -110q0 -106 -112 -215.5t-280 -161.5zM-61 0l2 12q96 0 140 42t73 167l190 823q28 126 4 167.5t-121 41.5l4 13h682l-4 -13q-96 0 -139 -42
t-72 -167l-120 -518l399 320q278 223 278 332q0 75 -135 75l4 13h584l-4 -13q-79 0 -162 -36t-188 -107q-45 -32 -99.5 -72.5t-129.5 -97.5t-119 -90l-17 -14l268 -646q39 -93 80 -135.5t95 -42.5l-2 -12h-476l-243 612l-138 -110l-65 -281q-28 -126 -4.5 -167.5
t119.5 -41.5l-2 -12h-682z" />
    <glyph glyph-name="uni0137" unicode="&#x137;" horiz-adv-x="1105" 
d="M193 -678l-3 8q89 30 170 99.5t113 156.5q-32 -14 -63 -14q-62 0 -99 40t-37 95q0 61 45 104.5t113 43.5t110 -46t42 -110q0 -106 -111.5 -215.5t-279.5 -161.5zM18 0l265 1143q12 52 14 90t-21.5 60t-76.5 22l4 12l456 41l-221 -954q351 31 436 151q-58 11 -103.5 48.5
t-45.5 103.5q0 65 45.5 112.5t110.5 47.5q61 0 109 -43.5t48 -114.5q0 -82 -70.5 -145t-193.5 -105l144 -389q10 -27 40 -27q29 0 105 35l-2 -12q-173 -101 -311 -101q-120 0 -154 93l-123 338q-30 -5 -37 -5l-92 -401h-326z" />
    <glyph glyph-name="kgreenlandic" unicode="&#x138;" horiz-adv-x="1114" 
d="M27 0l151 649q12 52 14 90t-21.5 60t-76.5 22l4 13l457 40l-106 -460q349 31 434 151q-58 11 -104 48.5t-46 103.5q0 65 45.5 112.5t110.5 47.5q61 0 109.5 -43.5t48.5 -114.5q0 -82 -71 -145t-194 -105l144 -389q10 -27 41 -27q28 0 104 35l-2 -12q-173 -101 -311 -101
q-120 0 -154 93l-123 338q-30 -5 -37 -5l-92 -401h-325z" />
    <glyph glyph-name="Lacute" unicode="&#x139;" horiz-adv-x="1257" 
d="M-61 0l2 12q96 0 140 42t73 167l190 823q28 126 4 167.5t-121 41.5l4 13h723l-4 -13q-106 0 -166 -46t-92 -183l-233 -1010h125q101 0 196.5 37t172 100.5t136.5 143t101 170.5l8 -2l-139 -463h-1120zM461 1384l-4 5q247 285 307 335q50 39 94.5 37.5t73.5 -37.5
q24 -29 22 -60.5t-17.5 -57.5t-39.5 -45q-28 -22 -91.5 -48t-174 -65.5t-170.5 -63.5z" />
    <glyph glyph-name="lacute" unicode="&#x13a;" horiz-adv-x="632" 
d="M215 -25q-100 0 -135.5 60.5t-11.5 163.5l219 944q12 52 14 90t-21.5 60t-76.5 22l4 12l457 41l-281 -1233q-9 -40 3 -61t40 -21t104 35l-2 -12q-173 -101 -313 -101zM291 1427l-4 5q247 285 307 335q50 39 94.5 37.5t73.5 -37.5q24 -29 22 -60.5t-17.5 -57.5t-39.5 -45
q-28 -22 -91.5 -48t-174 -65.5t-170.5 -63.5z" />
    <glyph glyph-name="uni013B" unicode="&#x13b;" horiz-adv-x="1257" 
d="M260 -678l-2 8q89 30 170 99.5t113 156.5q-31 -14 -64 -14q-62 0 -98.5 40t-36.5 95q0 61 45 104.5t113 43.5t109.5 -46t41.5 -110q0 -106 -111.5 -215.5t-279.5 -161.5zM-61 0l2 12q96 0 140 42t73 167l190 823q28 126 4 167.5t-121 41.5l4 13h723l-4 -13
q-106 0 -166 -46t-92 -183l-233 -1010h125q101 0 196.5 37t172 100.5t136.5 143t101 170.5l8 -2l-139 -463h-1120z" />
    <glyph glyph-name="uni013C" unicode="&#x13c;" horiz-adv-x="632" 
d="M-115 -678l-2 8q89 30 170 99.5t113 156.5q-32 -14 -64 -14q-62 0 -98.5 40t-36.5 95q0 61 45 104.5t113 43.5t109.5 -46t41.5 -110q0 -106 -111.5 -215.5t-279.5 -161.5zM215 -25q-100 0 -135.5 60.5t-11.5 163.5l219 944q12 52 14 90t-21.5 60t-76.5 22l4 12l457 41
l-281 -1233q-9 -40 3 -61t40 -21t104 35l-2 -12q-173 -101 -313 -101z" />
    <glyph glyph-name="Lcaron" unicode="&#x13d;" horiz-adv-x="1263" 
d="M995 813l-6 2q15 51 35 123t31.5 112.5t27 84t29.5 69.5q27 49 68.5 72.5t87.5 3.5q43 -20 48 -63t-24 -87q-19 -32 -58 -74t-116.5 -119t-122.5 -124zM-61 0l2 12q96 0 140 42t73 167l190 823q28 126 4 167.5t-121 41.5l4 13h723l-4 -13q-106 0 -166 -46t-92 -183
l-233 -1010h125q101 0 196.5 37t172 100.5t136.5 143t101 170.5l8 -2l-139 -463h-1120z" />
    <glyph glyph-name="lcaron" unicode="&#x13e;" horiz-adv-x="663" 
d="M700 881l-6 2q15 51 35 123t31.5 112.5t27 84t29.5 69.5q27 49 68.5 72.5t87.5 3.5q43 -20 48 -63t-24 -87q-19 -32 -58 -74t-116.5 -119t-122.5 -124zM215 -25q-100 0 -135.5 60.5t-11.5 163.5l219 944q12 52 14 90t-21.5 60t-76.5 22l4 12l457 41l-281 -1233
q-9 -40 3 -61t40 -21t104 35l-2 -12q-173 -101 -313 -101z" />
    <glyph glyph-name="Ldot" unicode="&#x13f;" horiz-adv-x="1257" 
d="M-61 0l2 12q96 0 140 42t73 167l190 823q28 126 4 167.5t-121 41.5l4 13h723l-4 -13q-106 0 -166 -46t-92 -183l-233 -1010h125q101 0 196.5 37t172 100.5t136.5 143t101 170.5l8 -2l-139 -463h-1120zM1040 569q-61 0 -105 44t-44 106q0 61 43.5 105t105.5 44t106 -44
t44 -105t-44 -105.5t-106 -44.5z" />
    <glyph glyph-name="ldot" unicode="&#x140;" horiz-adv-x="874" 
d="M215 -25q-100 0 -135.5 60.5t-11.5 163.5l219 944q12 52 14 90t-21.5 60t-76.5 22l4 12l457 41l-281 -1233q-9 -40 3 -61t40 -21t104 35l-2 -12q-173 -101 -313 -101zM784 477q-61 0 -105 44t-44 106q0 61 43.5 105t105.5 44t106 -44t44 -105t-44 -105.5t-106 -44.5z" />
    <glyph glyph-name="Lslash" unicode="&#x141;" horiz-adv-x="1259" 
d="M-59 0l2 12q96 0 140 42t73 167l82 352l-185 -57l-2 19l191 59l104 450q28 126 4 167.5t-121 41.5l4 13h723l-4 -13q-106 0 -166 -46t-92 -183l-71 -313l299 94l2 -19l-308 -96l-155 -676h125q101 0 196.5 37t172 100.5t136.5 143t101 170.5l8 -2l-139 -463h-1120z" />
    <glyph glyph-name="lslash" unicode="&#x142;" horiz-adv-x="645" 
d="M227 -25q-100 0 -135.5 60.5t-11.5 163.5l88 381l-145 -56l-3 17l152 57l127 545q12 52 14 90t-21.5 60t-76.5 22l4 12l457 41l-146 -635l146 55l2 -16l-152 -57l-131 -580q-9 -40 3 -61t40 -21q29 0 105 35l-2 -12q-173 -101 -314 -101z" />
    <glyph glyph-name="Nacute" unicode="&#x143;" horiz-adv-x="1495" 
d="M-106 0l2 12q86 0 143.5 23t100 81.5t70 138t58.5 212.5l101 436q26 114 24 191.5t-48.5 118t-141.5 40.5l4 13h403l594 -815l82 348q20 89 30.5 149.5t12 115t-9 87.5t-35 57.5t-63.5 34.5t-97 10l4 13h553l-4 -13q-69 0 -119.5 -16.5t-87.5 -47t-66 -88t-51 -126.5
t-46 -176l-189 -815l-10 -2l-707 970l-112 -485q-20 -89 -30.5 -149.5t-12.5 -115.5t8.5 -88t34.5 -57.5t63 -34.5t97 -10l-3 -12h-552zM788 1384l-4 5q244 282 308 335q50 39 94.5 37.5t73.5 -37.5q24 -29 22 -60.5t-17.5 -57.5t-39.5 -45q-28 -22 -91.5 -48t-174.5 -65.5
t-171 -63.5z" />
    <glyph glyph-name="nacute" unicode="&#x144;" horiz-adv-x="1234" 
d="M49 0l162 715q9 40 -3 61t-40 21q-29 0 -105 -35l3 12q171 100 313 100q96 0 132.5 -56t16.5 -154q107 98 201.5 154t190.5 56q103 0 158 -69t24 -211l-103 -459q-9 -40 3 -61t40 -21q29 0 105 35l-2 -12q-173 -101 -314 -101q-100 0 -135.5 60.5t-11.5 163.5l109 465
q11 46 -4 72t-54 26q-32 0 -72 -20.5t-65.5 -40.5t-73.5 -60l-145 -641h-330zM530 975l-4 4q247 286 308 336q50 39 94 37.5t73 -37.5q24 -29 22 -61t-17 -58t-39 -45q-28 -22 -92 -48t-173.5 -65t-171.5 -63z" />
    <glyph glyph-name="uni0145" unicode="&#x145;" horiz-adv-x="1495" 
d="M352 -678l-2 8q89 30 170 99.5t113 156.5q-32 -14 -64 -14q-62 0 -98.5 40t-36.5 95q0 61 45 104.5t113 43.5t109.5 -46t41.5 -110q0 -106 -111.5 -215.5t-279.5 -161.5zM-106 0l2 12q86 0 143.5 23t100 81.5t70 138t58.5 212.5l101 436q26 114 24 191.5t-48.5 118
t-141.5 40.5l4 13h403l594 -815l82 348q20 89 30.5 149.5t12 115t-9 87.5t-35 57.5t-63.5 34.5t-97 10l4 13h553l-4 -13q-69 0 -119.5 -16.5t-87.5 -47t-66 -88t-51 -126.5t-46 -176l-189 -815l-10 -2l-707 970l-112 -485q-20 -89 -30.5 -149.5t-12.5 -115.5t8.5 -88
t34.5 -57.5t63 -34.5t97 -10l-3 -12h-552z" />
    <glyph glyph-name="uni0146" unicode="&#x146;" horiz-adv-x="1234" 
d="M231 -678l-2 8q89 30 170 99.5t113 156.5q-32 -14 -63 -14q-62 0 -99 40t-37 95q0 61 45 104.5t113 43.5t110 -46t42 -110q0 -106 -112 -215.5t-280 -161.5zM49 0l162 715q9 40 -3 61t-40 21q-29 0 -105 -35l3 12q171 100 313 100q96 0 132.5 -56t16.5 -154
q107 98 201.5 154t190.5 56q103 0 158 -69t24 -211l-103 -459q-9 -40 3 -61t40 -21q29 0 105 35l-2 -12q-173 -101 -314 -101q-100 0 -135.5 60.5t-11.5 163.5l109 465q11 46 -4 72t-54 26q-32 0 -72 -20.5t-65.5 -40.5t-73.5 -60l-145 -641h-330z" />
    <glyph glyph-name="Ncaron" unicode="&#x147;" horiz-adv-x="1495" 
d="M-106 0l2 12q86 0 143.5 23t100 81.5t70 138t58.5 212.5l101 436q26 114 24 191.5t-48.5 118t-141.5 40.5l4 13h403l594 -815l82 348q20 89 30.5 149.5t12 115t-9 87.5t-35 57.5t-63.5 34.5t-97 10l4 13h553l-4 -13q-69 0 -119.5 -16.5t-87.5 -47t-66 -88t-51 -126.5
t-46 -176l-189 -815l-10 -2l-707 970l-112 -485q-20 -89 -30.5 -149.5t-12.5 -115.5t8.5 -88t34.5 -57.5t63 -34.5t97 -10l-3 -12h-552zM946 1362q-53 0 -76 51l-157 322l4 4l276 -170l355 170l4 -4l-305 -322q-48 -51 -101 -51z" />
    <glyph glyph-name="ncaron" unicode="&#x148;" horiz-adv-x="1234" 
d="M49 0l162 715q9 40 -3 61t-40 21q-29 0 -105 -35l3 12q171 100 313 100q96 0 132.5 -56t16.5 -154q107 98 201.5 154t190.5 56q103 0 158 -69t24 -211l-103 -459q-9 -40 3 -61t40 -21q29 0 105 35l-2 -12q-173 -101 -314 -101q-100 0 -135.5 60.5t-11.5 163.5l109 465
q11 46 -4 72t-54 26q-32 0 -72 -20.5t-65.5 -40.5t-73.5 -60l-145 -641h-330zM670 952q-53 0 -76 52l-158 321l4 4l277 -170l354 170l4 -4l-305 -321q-49 -52 -100 -52z" />
    <glyph glyph-name="Eng" unicode="&#x14a;" horiz-adv-x="1492" 
d="M-106 0l2 12q86 0 143.5 23t100 81.5t70 138t58.5 212.5l101 436q26 114 24 191.5t-48.5 118t-141.5 40.5l4 13h403l594 -815l82 348q20 89 30.5 149.5t12 115t-9 87.5t-35 57.5t-63.5 34.5t-97 10l4 13h553l-4 -13q-69 0 -119.5 -16.5t-87.5 -47t-66 -88t-51 -126.5
t-46 -176l-152 -660q-28 -124 -126.5 -224t-234.5 -162t-302 -95l-3 10q109 29 187.5 70t128.5 95.5t79 114.5t48 140l24 102l-555 762l-112 -485q-20 -89 -30.5 -149.5t-12.5 -115.5t8.5 -88t34.5 -57.5t63 -34.5t97 -10l-3 -12h-552z" />
    <glyph glyph-name="eng" unicode="&#x14b;" horiz-adv-x="1185" 
d="M492 -397q-72 0 -125 16t-81.5 43t-41.5 57t-13 62q0 64 42.5 103.5t101.5 39.5t95 -40.5t36 -98.5q0 -52 -29.5 -90t-70.5 -51q17 -27 49 -27q41 0 72.5 29.5t43.5 81.5l222 936q11 46 -4 72t-54 26q-32 0 -72 -20.5t-65.5 -40.5t-73.5 -60l-145 -641h-330l162 715
q9 40 -3 61t-40 21q-29 0 -105 -35l3 12q171 100 313 100q96 0 132.5 -56t16.5 -154q107 98 201.5 154t190.5 56q103 0 158 -69t24 -211l-154 -655q-38 -158 -162.5 -247t-293.5 -89z" />
    <glyph glyph-name="Omacron" unicode="&#x14c;" horiz-adv-x="1624" 
d="M715 -25q-181 0 -320.5 64.5t-219 189.5t-79.5 293q0 156 70.5 299t188 245.5t277.5 163t333 60.5q181 0 320.5 -64.5t218.5 -189.5t79 -293q0 -156 -70 -299t-187.5 -245.5t-277.5 -163t-333 -60.5zM680 -10q111 0 214 81t175.5 211t116 297t43.5 334q0 176 -54 269.5
t-174 93.5q-113 0 -216.5 -82.5t-175 -213.5t-114 -297t-42.5 -331q0 -175 53 -268.5t174 -93.5zM711 1434l18 82h614l-18 -82h-614z" />
    <glyph glyph-name="omacron" unicode="&#x14d;" horiz-adv-x="1169" 
d="M479 -23q-122 0 -220.5 40t-160 125.5t-61.5 205.5q0 142 84 264t224.5 192t301.5 70q85 0 161.5 -21t141.5 -63.5t103.5 -115.5t38.5 -168q0 -144 -84.5 -266.5t-225.5 -192.5t-303 -70zM461 -8q55 0 104 38.5t83 101.5t61.5 139t43.5 155t24.5 145.5t8.5 114.5
q0 174 -116 174q-65 0 -121.5 -55t-92.5 -137t-62.5 -179.5t-38 -180.5t-11.5 -142q0 -174 117 -174zM393 1024l19 82h614l-18 -82h-615z" />
    <glyph glyph-name="Obreve" unicode="&#x14e;" horiz-adv-x="1624" 
d="M715 -25q-181 0 -320.5 64.5t-219 189.5t-79.5 293q0 156 70.5 299t188 245.5t277.5 163t333 60.5q181 0 320.5 -64.5t218.5 -189.5t79 -293q0 -156 -70 -299t-187.5 -245.5t-277.5 -163t-333 -60.5zM680 -10q111 0 214 81t175.5 211t116 297t43.5 334q0 176 -54 269.5
t-174 93.5q-113 0 -216.5 -82.5t-175 -213.5t-114 -297t-42.5 -331q0 -175 53 -268.5t174 -93.5zM1012 1384q-59 0 -102 25.5t-65 65.5t-31.5 91t-7 99t12.5 92h6q0 -69 53.5 -116.5t172.5 -47.5t193 47.5t106 116.5h6q-11 -46 -28.5 -92.5t-47.5 -98.5t-66.5 -91t-89.5 -65
t-112 -26z" />
    <glyph glyph-name="obreve" unicode="&#x14f;" horiz-adv-x="1169" 
d="M479 -23q-122 0 -220.5 40t-160 125.5t-61.5 205.5q0 142 84 264t224.5 192t301.5 70q85 0 161.5 -21t141.5 -63.5t103.5 -115.5t38.5 -168q0 -144 -84.5 -266.5t-225.5 -192.5t-303 -70zM461 -8q55 0 104 38.5t83 101.5t61.5 139t43.5 155t24.5 145.5t8.5 114.5
q0 174 -116 174q-65 0 -121.5 -55t-92.5 -137t-62.5 -179.5t-38 -180.5t-11.5 -142q0 -174 117 -174zM690 975q-59 0 -102 25.5t-65 65.5t-31 91t-7 99t13 92h6q0 -69 53 -116.5t172 -47.5t193 47.5t106 116.5h6q-11 -46 -28.5 -92.5t-47.5 -98.5t-66.5 -91t-89.5 -65
t-112 -26z" />
    <glyph glyph-name="Ohungarumlaut" unicode="&#x150;" horiz-adv-x="1624" 
d="M715 -25q-181 0 -320.5 64.5t-219 189.5t-79.5 293q0 156 70.5 299t188 245.5t277.5 163t333 60.5q181 0 320.5 -64.5t218.5 -189.5t79 -293q0 -156 -70 -299t-187.5 -245.5t-277.5 -163t-333 -60.5zM680 -10q111 0 214 81t175.5 211t116 297t43.5 334q0 176 -54 269.5
t-174 93.5q-113 0 -216.5 -82.5t-175 -213.5t-114 -297t-42.5 -331q0 -175 53 -268.5t174 -93.5zM741 1380l-4 2q16 33 44.5 94.5t42.5 91t34.5 69t35 62.5t28.5 38q34 39 74 49t71 -14q32 -24 33.5 -63.5t-35.5 -86.5q-14 -16 -35 -34.5t-55.5 -44t-63 -45t-82.5 -57
t-88 -61.5zM1100 1380l-4 2q17 36 44.5 94.5t42.5 90t34 70t34 62t29 38.5q34 39 74 49t71 -14q32 -24 33.5 -63.5t-35.5 -86.5q-14 -16 -34.5 -34.5t-55.5 -44t-62.5 -44.5t-83 -57.5t-87.5 -61.5z" />
    <glyph glyph-name="ohungarumlaut" unicode="&#x151;" horiz-adv-x="1169" 
d="M479 -23q-122 0 -220.5 40t-160 125.5t-61.5 205.5q0 142 84 264t224.5 192t301.5 70q85 0 161.5 -21t141.5 -63.5t103.5 -115.5t38.5 -168q0 -144 -84.5 -266.5t-225.5 -192.5t-303 -70zM461 -8q55 0 104 38.5t83 101.5t61.5 139t43.5 155t24.5 145.5t8.5 114.5
q0 174 -116 174q-65 0 -121.5 -55t-92.5 -137t-62.5 -179.5t-38 -180.5t-11.5 -142q0 -174 117 -174zM426 971l-4 2q16 35 44 94.5t42.5 90t34.5 69t34.5 62t28.5 38.5q33 39 74.5 49t71.5 -14q32 -24 33.5 -63.5t-35.5 -86.5q-14 -16 -35.5 -34.5t-55 -43t-63 -45t-82 -57
t-88.5 -61.5zM784 971l-4 2q15 31 44.5 94t43 91t34 68t35 63t28.5 38q34 39 74 49t71 -14q32 -24 33.5 -63.5t-35.5 -86.5q-14 -16 -35.5 -34.5t-55 -43t-63 -45t-82 -57t-88.5 -61.5z" />
    <glyph glyph-name="OE" unicode="&#x152;" horiz-adv-x="2207" 
d="M684 -25q-168 0 -302 61.5t-213 181.5t-79 280q0 144 65.5 286.5t177 254.5t272.5 181.5t339 69.5q58 0 242.5 -12t257.5 -12h790l-69 -432l-8 -3q1 91 -21 165.5t-67.5 132.5t-123 90t-180.5 32h-147l-141 -612h63q77 0 147 26t123 71.5t93 98.5t69 115h8l-145 -633h-8
q-2 61 -17.5 113.5t-47.5 97.5t-89.5 71t-134.5 26h-63l-142 -611h158q361 0 600 451l8 -2l-147 -463h-801q-72 0 -241 -12.5t-226 -12.5zM719 -10q125 0 203 61.5t104 169.5l191 821q25 104 -44.5 169t-181.5 65q-123 0 -228.5 -85.5t-173 -220.5t-105.5 -295.5t-38 -316.5
q0 -182 61.5 -275t211.5 -93z" />
    <glyph glyph-name="oe" unicode="&#x153;" horiz-adv-x="1761" 
d="M479 -23q-122 0 -220.5 40t-160 125.5t-61.5 205.5q0 142 84 264t224.5 192t301.5 70q218 0 332 -120q159 120 362 120q156 0 265.5 -67t109.5 -172q0 -52 -30 -91.5t-83 -62t-115 -37t-136.5 -18.5t-136 -3.5t-123.5 5.5q-11 -62 -11 -123q0 -123 56.5 -195.5
t165.5 -72.5q154 0 317 151l8 -8q-43 -40 -84 -70.5t-100 -63.5t-133 -51t-156 -18q-207 0 -307 115q-160 -115 -369 -115zM461 -8q55 0 104 38.5t83 101.5t61.5 139t43.5 155t24.5 145.5t8.5 114.5q0 174 -116 174q-65 0 -121.5 -55t-92.5 -137t-62.5 -179.5t-38 -180.5
t-11.5 -142q0 -174 117 -174zM1346 864q-59 0 -112.5 -67t-87 -159t-52.5 -196q88 -2 155.5 22.5t105.5 68t56.5 95t18.5 109.5q0 127 -84 127z" />
    <glyph glyph-name="Racute" unicode="&#x154;" horiz-adv-x="1517" 
d="M-61 0l2 12q96 0 140 42t73 167l190 823q28 126 4 167.5t-121 41.5l4 13h723q502 0 502 -301q0 -334 -629 -361l-2 -6q78 1 133.5 -1t100 -9t73 -16t49.5 -27t32 -36.5t18 -50t10 -62.5t6 -78q5 -80 10 -128q5 -53 12 -83.5t24 -54t45.5 -32t74.5 -8.5l-2 -12h-487
q-14 41 -18.5 108t-4.5 220q0 59 -1.5 93.5t-7.5 68.5t-16 50.5t-29.5 30.5t-45.5 19t-66 6h-141l-86 -375q-28 -126 -4.5 -167.5t119.5 -41.5l-2 -12h-682zM598 608h147q75 0 136.5 25.5t100.5 66t65.5 94.5t37.5 107t11 107q0 110 -51 176.5t-168 66.5h-132zM727 1384
l-4 5q247 285 307 335q50 39 94.5 37.5t73.5 -37.5q24 -29 22 -60.5t-17.5 -57.5t-39.5 -45q-28 -22 -91.5 -48t-174 -65.5t-170.5 -63.5z" />
    <glyph glyph-name="racute" unicode="&#x155;" horiz-adv-x="954" 
d="M49 0l162 715q9 40 -3 61t-40 21q-29 0 -105 -35l3 12q171 100 311 100q97 0 130 -59t9 -162l-24 -108q23 63 53 118t69 104t89 78t104 29q73 0 120.5 -50.5t47.5 -121.5q0 -72 -48.5 -122t-117.5 -50t-117.5 49.5t-48.5 120.5q0 15 4 35q-83 -45 -149 -211l-123 -524
h-326zM420 975l-4 4q250 289 307 336q50 39 94.5 37.5t73.5 -37.5q24 -29 22 -61t-17.5 -58t-39.5 -45q-28 -22 -91.5 -48t-173.5 -65t-171 -63z" />
    <glyph glyph-name="uni0156" unicode="&#x156;" horiz-adv-x="1517" 
d="M420 -678l-2 8q88 30 169 99.5t113 156.5q-32 -14 -63 -14q-62 0 -98.5 40t-36.5 95q0 61 44.5 104.5t112.5 43.5t110 -46t42 -110q0 -106 -111.5 -215.5t-279.5 -161.5zM-61 0l2 12q96 0 140 42t73 167l190 823q28 126 4 167.5t-121 41.5l4 13h723q502 0 502 -301
q0 -334 -629 -361l-2 -6q78 1 133.5 -1t100 -9t73 -16t49.5 -27t32 -36.5t18 -50t10 -62.5t6 -78q5 -80 10 -128q5 -53 12 -83.5t24 -54t45.5 -32t74.5 -8.5l-2 -12h-487q-14 41 -18.5 108t-4.5 220q0 59 -1.5 93.5t-7.5 68.5t-16 50.5t-29.5 30.5t-45.5 19t-66 6h-141
l-86 -375q-28 -126 -4.5 -167.5t119.5 -41.5l-2 -12h-682zM598 608h147q75 0 136.5 25.5t100.5 66t65.5 94.5t37.5 107t11 107q0 110 -51 176.5t-168 66.5h-132z" />
    <glyph glyph-name="uni0157" unicode="&#x157;" horiz-adv-x="954" 
d="M-88 -678l-2 8q89 30 170 99.5t113 156.5q-31 -14 -64 -14q-62 0 -98.5 40t-36.5 95q0 61 45 104.5t113 43.5t109.5 -46t41.5 -110q0 -106 -111.5 -215.5t-279.5 -161.5zM49 0l162 715q9 40 -3 61t-40 21q-29 0 -105 -35l3 12q171 100 311 100q97 0 130 -59t9 -162
l-24 -108q23 63 53 118t69 104t89 78t104 29q73 0 120.5 -50.5t47.5 -121.5q0 -72 -48.5 -122t-117.5 -50t-117.5 49.5t-48.5 120.5q0 15 4 35q-83 -45 -149 -211l-123 -524h-326z" />
    <glyph glyph-name="Rcaron" unicode="&#x158;" horiz-adv-x="1517" 
d="M-61 0l2 12q96 0 140 42t73 167l190 823q28 126 4 167.5t-121 41.5l4 13h723q502 0 502 -301q0 -334 -629 -361l-2 -6q78 1 133.5 -1t100 -9t73 -16t49.5 -27t32 -36.5t18 -50t10 -62.5t6 -78q5 -80 10 -128q5 -53 12 -83.5t24 -54t45.5 -32t74.5 -8.5l-2 -12h-487
q-14 41 -18.5 108t-4.5 220q0 59 -1.5 93.5t-7.5 68.5t-16 50.5t-29.5 30.5t-45.5 19t-66 6h-141l-86 -375q-28 -126 -4.5 -167.5t119.5 -41.5l-2 -12h-682zM598 608h147q75 0 136.5 25.5t100.5 66t65.5 94.5t37.5 107t11 107q0 110 -51 176.5t-168 66.5h-132zM868 1362
q-52 0 -75 51l-158 322l4 4l276 -170l355 170l4 -4l-305 -322q-48 -51 -101 -51z" />
    <glyph glyph-name="rcaron" unicode="&#x159;" horiz-adv-x="954" 
d="M49 0l162 715q9 40 -3 61t-40 21q-29 0 -105 -35l3 12q171 100 311 100q97 0 130 -59t9 -162l-24 -108q23 63 53 118t69 104t89 78t104 29q73 0 120.5 -50.5t47.5 -121.5q0 -72 -48.5 -122t-117.5 -50t-117.5 49.5t-48.5 120.5q0 15 4 35q-83 -45 -149 -211l-123 -524
h-326zM563 952q-53 0 -76 52l-157 321l4 4l276 -170l355 170l4 -4l-305 -321q-49 -52 -101 -52z" />
    <glyph glyph-name="Sacute" unicode="&#x15a;" horiz-adv-x="1226" 
d="M500 -25q-230 0 -484 54l72 389l10 2q14 -83 33.5 -146t50.5 -118.5t73.5 -91t103 -56t137.5 -20.5q85 0 150 23.5t100.5 62.5t53 83t17.5 91q0 64 -33.5 112t-87 78.5t-118 57.5t-129 58.5t-118 71t-87 106t-33.5 153.5q0 187 145 296t414 109q57 0 125 -5.5t113 -10.5
t102.5 -3.5t110.5 13.5l-78 -420l-8 -2q-20 106 -45 177.5t-66 128t-102 83.5t-146 27q-143 0 -221 -67t-78 -162q0 -59 34.5 -104t89.5 -74.5t121 -57t132.5 -62t121.5 -78.5t89.5 -116t34.5 -166q0 -198 -151.5 -307t-448.5 -109zM627 1384l-4 5q247 285 307 335
q50 39 94.5 37.5t73.5 -37.5q24 -29 22 -60.5t-17.5 -57.5t-39.5 -45q-28 -22 -91.5 -48t-174 -65.5t-170.5 -63.5z" />
    <glyph glyph-name="sacute" unicode="&#x15b;" horiz-adv-x="929" 
d="M346 -23q-151 0 -248.5 61.5t-97.5 147.5q0 54 37 96t94 42q55 0 90 -37t35 -92q0 -41 -20 -72.5t-54 -46.5q42 -86 158 -86q88 0 150.5 43.5t62.5 109.5q0 39 -24.5 68.5t-63.5 48t-86.5 35.5t-95 38t-86.5 47.5t-63.5 72t-24.5 104.5q0 139 120 228t301 89
q149 0 245.5 -59.5t96.5 -144.5q0 -54 -36.5 -96t-90.5 -42q-52 0 -88 38t-36 92q0 38 19.5 68.5t53.5 43.5q-43 88 -147 88q-79 0 -140 -41t-61 -106q0 -38 25 -66.5t64.5 -47t88 -35t96.5 -37t87.5 -47t64.5 -71.5t25 -104q0 -97 -63.5 -173.5t-165.5 -116.5t-222 -40z
M387 975l-4 4q250 289 307 336q50 39 94.5 37.5t73.5 -37.5q24 -29 22 -61t-17.5 -58t-39.5 -45q-28 -22 -91.5 -48t-173.5 -65t-171 -63z" />
    <glyph glyph-name="Scircumflex" unicode="&#x15c;" horiz-adv-x="1226" 
d="M500 -25q-230 0 -484 54l72 389l10 2q14 -83 33.5 -146t50.5 -118.5t73.5 -91t103 -56t137.5 -20.5q85 0 150 23.5t100.5 62.5t53 83t17.5 91q0 64 -33.5 112t-87 78.5t-118 57.5t-129 58.5t-118 71t-87 106t-33.5 153.5q0 187 145 296t414 109q57 0 125 -5.5t113 -10.5
t102.5 -3.5t110.5 13.5l-78 -420l-8 -2q-20 106 -45 177.5t-66 128t-102 83.5t-146 27q-143 0 -221 -67t-78 -162q0 -59 34.5 -104t89.5 -74.5t121 -57t132.5 -62t121.5 -78.5t89.5 -116t34.5 -166q0 -198 -151.5 -307t-448.5 -109zM459 1356l-4 4l305 321q49 52 100 52
q53 0 76 -52l158 -321l-4 -4l-277 170z" />
    <glyph glyph-name="scircumflex" unicode="&#x15d;" horiz-adv-x="929" 
d="M346 -23q-151 0 -248.5 61.5t-97.5 147.5q0 54 37 96t94 42q55 0 90 -37t35 -92q0 -41 -20 -72.5t-54 -46.5q42 -86 158 -86q88 0 150.5 43.5t62.5 109.5q0 39 -24.5 68.5t-63.5 48t-86.5 35.5t-95 38t-86.5 47.5t-63.5 72t-24.5 104.5q0 139 120 228t301 89
q149 0 245.5 -59.5t96.5 -144.5q0 -54 -36.5 -96t-90.5 -42q-52 0 -88 38t-36 92q0 38 19.5 68.5t53.5 43.5q-43 88 -147 88q-79 0 -140 -41t-61 -106q0 -38 25 -66.5t64.5 -47t88 -35t96.5 -37t87.5 -47t64.5 -71.5t25 -104q0 -97 -63.5 -173.5t-165.5 -116.5t-222 -40z
M223 946l-4 4l305 322q48 51 101 51q52 0 75 -51l158 -322l-4 -4l-276 170z" />
    <glyph glyph-name="Scedilla" unicode="&#x15e;" horiz-adv-x="1226" 
d="M358 -477q-83 0 -154.5 18t-111.5 49l10 11q23 -19 75 -32t102 -13q92 0 140 50.5t48 127.5q0 56 -26.5 93.5t-84.5 37.5q-38 0 -80 -17l-4 7l164 122q-215 6 -420 52l72 389l10 2q14 -83 33.5 -146t50.5 -118.5t73.5 -91t103 -56t137.5 -20.5q85 0 150 23.5t100.5 62.5
t53 83t17.5 91q0 64 -33.5 112t-87 78.5t-118 57.5t-129 58.5t-118 71t-87 106t-33.5 153.5q0 187 145 296t414 109q57 0 125 -5.5t113 -10.5t102.5 -3.5t110.5 13.5l-78 -420l-8 -2q-20 106 -45 177.5t-66 128t-102 83.5t-146 27q-143 0 -221 -67t-78 -162q0 -59 34.5 -104
t89.5 -74.5t121 -57t132.5 -62t121.5 -78.5t89.5 -116t34.5 -166q0 -198 -151.5 -307t-448.5 -109h-43l-135 -102q59 16 135 16q113 0 177 -39t64 -118q0 -69 -50 -118t-125 -70t-165 -21z" />
    <glyph glyph-name="scedilla" unicode="&#x15f;" horiz-adv-x="929" 
d="M193 -477q-83 0 -155 18t-112 49l11 11q23 -19 74.5 -32t101.5 -13q92 0 140 50.5t48 127.5q0 56 -26.5 93.5t-84.5 37.5q-36 0 -79 -17l-5 7l166 127q-122 13 -197 71t-75 133q0 54 37 96t94 42q55 0 90 -37t35 -92q0 -41 -20 -72.5t-54 -46.5q42 -86 158 -86
q88 0 150.5 43.5t62.5 109.5q0 39 -24.5 68.5t-63.5 48t-86.5 35.5t-95 38t-86.5 47.5t-63.5 72t-24.5 104.5q0 139 120 228t301 89q149 0 245.5 -59.5t96.5 -144.5q0 -54 -36.5 -96t-90.5 -42q-52 0 -88 38t-36 92q0 38 19.5 68.5t53.5 43.5q-43 88 -147 88q-79 0 -140 -41
t-61 -106q0 -38 25 -66.5t64.5 -47t88 -35t96.5 -37t87.5 -47t64.5 -71.5t25 -104q0 -97 -63.5 -173.5t-165.5 -116.5t-222 -40q-9 0 -27 1.5t-26 1.5l-137 -107q59 16 135 16q113 0 177 -39t64 -118q0 -69 -50 -118t-124.5 -70t-164.5 -21z" />
    <glyph glyph-name="Scaron" unicode="&#x160;" horiz-adv-x="1226" 
d="M500 -25q-230 0 -484 54l72 389l10 2q14 -83 33.5 -146t50.5 -118.5t73.5 -91t103 -56t137.5 -20.5q85 0 150 23.5t100.5 62.5t53 83t17.5 91q0 64 -33.5 112t-87 78.5t-118 57.5t-129 58.5t-118 71t-87 106t-33.5 153.5q0 187 145 296t414 109q57 0 125 -5.5t113 -10.5
t102.5 -3.5t110.5 13.5l-78 -420l-8 -2q-20 106 -45 177.5t-66 128t-102 83.5t-146 27q-143 0 -221 -67t-78 -162q0 -59 34.5 -104t89.5 -74.5t121 -57t132.5 -62t121.5 -78.5t89.5 -116t34.5 -166q0 -198 -151.5 -307t-448.5 -109zM805 1382q-53 0 -76 52l-158 321l4 4
l277 -170l354 170l4 -4l-305 -321q-49 -52 -100 -52z" />
    <glyph glyph-name="scaron" unicode="&#x161;" horiz-adv-x="929" 
d="M346 -23q-151 0 -248.5 61.5t-97.5 147.5q0 54 37 96t94 42q55 0 90 -37t35 -92q0 -41 -20 -72.5t-54 -46.5q42 -86 158 -86q88 0 150.5 43.5t62.5 109.5q0 39 -24.5 68.5t-63.5 48t-86.5 35.5t-95 38t-86.5 47.5t-63.5 72t-24.5 104.5q0 139 120 228t301 89
q149 0 245.5 -59.5t96.5 -144.5q0 -54 -36.5 -96t-90.5 -42q-52 0 -88 38t-36 92q0 38 19.5 68.5t53.5 43.5q-43 88 -147 88q-79 0 -140 -41t-61 -106q0 -38 25 -66.5t64.5 -47t88 -35t96.5 -37t87.5 -47t64.5 -71.5t25 -104q0 -97 -63.5 -173.5t-165.5 -116.5t-222 -40z
M559 952q-53 0 -76 52l-157 321l4 4l276 -170l355 170l4 -4l-306 -321q-49 -52 -100 -52z" />
    <glyph glyph-name="uni0162" unicode="&#x162;" horiz-adv-x="1402" 
d="M444 -457q-83 0 -154.5 18.5t-111.5 49.5l10 10q23 -19 75 -32t102 -13q92 0 140 50.5t48 127.5q0 56 -26.5 93.5t-84.5 37.5q-40 0 -80 -16l-4 6l164 125h-321l4 12q52 0 88.5 9t70.5 33t58.5 70.5t40.5 117.5l233 1009h-18q-92 0 -173.5 -35.5t-149 -102.5t-120 -141
t-104.5 -171l-8 2l139 463h1227l-74 -463l-8 -2q-7 77 -18.5 138t-36 121.5t-60.5 100.5t-92.5 65t-130.5 25h-18l-234 -1009q-13 -57 -13 -98.5t10.5 -67t33.5 -40t51.5 -19.5t69.5 -5l-4 -12h-420l-137 -106q59 16 135 16q113 0 177 -39.5t64 -118.5q0 -69 -50 -118
t-125 -70t-165 -21z" />
    <glyph glyph-name="uni0163" unicode="&#x163;" horiz-adv-x="755" 
d="M186 -477q-83 0 -154.5 18t-111.5 49l10 11q23 -19 74.5 -32t101.5 -13q92 0 140.5 50.5t48.5 127.5q0 56 -26.5 93.5t-84.5 37.5q-38 0 -80 -17l-4 7l164 127q-103 11 -147.5 81.5t-14.5 198.5l129 561h-125l7 29h125l51 221l340 64l-66 -285h250l-6 -29h-252l-141 -616
q-18 -75 -0.5 -107t67.5 -32q95 0 221 114l9 -8q-66 -60 -121.5 -100t-139 -70.5t-165.5 -23.5l-135 -107q59 16 135 16q113 0 177 -39t64 -118q0 -69 -50 -118t-125 -70t-165 -21z" />
    <glyph glyph-name="Tcaron" unicode="&#x164;" horiz-adv-x="1402" 
d="M201 0l4 12q52 0 88.5 9t70.5 33t58.5 70.5t40.5 117.5l233 1009h-18q-92 0 -173.5 -35.5t-149 -102.5t-120 -141t-104.5 -171l-8 2l139 463h1227l-74 -463l-8 -2q-7 77 -18.5 138t-36 121.5t-60.5 100.5t-92.5 65t-130.5 25h-18l-234 -1009q-13 -57 -13 -98.5t10.5 -67
t33.5 -40t51.5 -19.5t69.5 -5l-4 -12h-764zM891 1362q-53 0 -76 51l-158 322l5 4l276 -170l354 170l4 -4l-305 -322q-48 -51 -100 -51z" />
    <glyph glyph-name="tcaron" unicode="&#x165;" horiz-adv-x="755" 
d="M725 956l-6 2q15 51 35 123t31.5 113t27 84.5t29.5 69.5q27 49 68 72t87 3q43 -20 48.5 -62.5t-23.5 -86.5q-19 -32 -57.5 -74t-117.5 -120.5t-122 -123.5zM307 -23q-125 0 -181.5 72.5t-23.5 212.5l129 561h-125l7 29h125l51 221l340 64l-66 -285h250l-6 -29h-252
l-141 -616q-18 -75 -0.5 -107t67.5 -32q95 0 221 114l9 -8q-92 -86 -190 -141.5t-214 -55.5z" />
    <glyph glyph-name="Tbar" unicode="&#x166;" horiz-adv-x="1402" 
d="M199 0l4 12q52 0 88.5 9t70.5 33t58.5 70.5t40.5 117.5l86 370h-248l4 19h248l143 620h-18q-92 0 -173.5 -35.5t-149 -102.5t-120 -141t-104.5 -171l-8 2l139 463h1227l-74 -463l-8 -2q-7 77 -18.5 138t-36 121.5t-60.5 100.5t-92.5 65t-130.5 25h-18l-144 -620h244
l-4 -19h-244l-86 -370q-13 -57 -13 -98.5t10.5 -67t33.5 -40t51.5 -19.5t69.5 -5l-4 -12h-764z" />
    <glyph glyph-name="tbar" unicode="&#x167;" horiz-adv-x="755" 
d="M309 -23q-125 0 -181.5 72.5t-23.5 212.5l56 244h-115l4 18h115l69 299h-124l6 29h125l51 221l340 64l-66 -285h250l-6 -29h-252l-70 -299h228l-4 -18h-228l-67 -299q-18 -75 -0.5 -107t67.5 -32q96 0 222 114l8 -8q-92 -86 -190 -141.5t-214 -55.5z" />
    <glyph glyph-name="Utilde" unicode="&#x168;" horiz-adv-x="1466" 
d="M623 -25q-118 0 -209.5 27t-154.5 83t-82.5 143.5t5.5 209.5l131 574q32 126 8.5 183.5t-116.5 57.5l4 13h682l-4 -13q-93 0 -141 -55.5t-78 -185.5l-154 -664q-78 -336 215 -336q76 0 145.5 23.5t131.5 71t109.5 127.5t72.5 186l86 379q20 89 30.5 149.5t12 115t-9 87.5
t-35 57.5t-63.5 34.5t-97 10l4 13h553l-4 -13q-69 0 -119.5 -16.5t-87.5 -47t-66 -88.5t-51 -126.5t-47 -175.5l-88 -379q-105 -445 -583 -445zM662 1399q4 13 14.5 49.5t18.5 60t22 59t30 59t37.5 47t49.5 35t61 11.5q52 0 156.5 -48t160.5 -48q34 0 60 11t42.5 31.5
t25 37.5t16.5 39l10 -2q-2 -8 -12.5 -41.5t-14.5 -44.5t-15 -42t-17.5 -44t-19.5 -38.5t-23 -37.5t-26 -29.5t-31.5 -25t-35 -13.5t-41.5 -6q-51 0 -154 48.5t-161 48.5q-34 0 -60 -11t-42.5 -32t-25 -37t-17.5 -39z" />
    <glyph glyph-name="utilde" unicode="&#x169;" horiz-adv-x="1232" 
d="M287 -23q-113 0 -169 69.5t-24 211.5l101 457q9 40 -3 61t-40 21q-29 0 -105 -35l2 12q171 100 313 100q101 0 136.5 -60t11.5 -163l-100 -430q-16 -72 5.5 -106.5t71.5 -34.5q74 0 172 76l160 696h326l-162 -717q-9 -40 3 -61t40 -21t104 35l-2 -12q-173 -101 -313 -101
q-85 0 -124 43.5t-34 120.5q-191 -162 -370 -162zM365 989q4 13 14.5 49.5t18.5 60t22 59.5t30 59.5t37.5 47t49.5 35t61 11.5q52 0 156.5 -48.5t160.5 -48.5q34 0 60 11t42.5 31.5t25 37.5t16.5 39l10 -2q-3 -9 -13 -41t-14 -44.5t-14.5 -42.5t-17.5 -44t-19.5 -38.5
t-23 -37t-26 -29t-31 -24.5t-35 -14t-41.5 -6q-51 0 -154.5 48t-161.5 48q-34 0 -60 -11t-42.5 -32t-25 -37t-17.5 -39z" />
    <glyph glyph-name="Umacron" unicode="&#x16a;" horiz-adv-x="1466" 
d="M623 -25q-118 0 -209.5 27t-154.5 83t-82.5 143.5t5.5 209.5l131 574q32 126 8.5 183.5t-116.5 57.5l4 13h682l-4 -13q-93 0 -141 -55.5t-78 -185.5l-154 -664q-78 -336 215 -336q76 0 145.5 23.5t131.5 71t109.5 127.5t72.5 186l86 379q20 89 30.5 149.5t12 115t-9 87.5
t-35 57.5t-63.5 34.5t-97 10l4 13h553l-4 -13q-69 0 -119.5 -16.5t-87.5 -47t-66 -88.5t-51 -126.5t-47 -175.5l-88 -379q-105 -445 -583 -445zM659 1434l19 82h614l-18 -82h-615z" />
    <glyph glyph-name="umacron" unicode="&#x16b;" horiz-adv-x="1232" 
d="M287 -23q-113 0 -169 69.5t-24 211.5l101 457q9 40 -3 61t-40 21q-29 0 -105 -35l2 12q171 100 313 100q101 0 136.5 -60t11.5 -163l-100 -430q-16 -72 5.5 -106.5t71.5 -34.5q74 0 172 76l160 696h326l-162 -717q-9 -40 3 -61t40 -21t104 35l-2 -12q-173 -101 -313 -101
q-85 0 -124 43.5t-34 120.5q-191 -162 -370 -162zM377 1024l18 82h615l-19 -82h-614z" />
    <glyph glyph-name="Ubreve" unicode="&#x16c;" horiz-adv-x="1466" 
d="M623 -25q-118 0 -209.5 27t-154.5 83t-82.5 143.5t5.5 209.5l131 574q32 126 8.5 183.5t-116.5 57.5l4 13h682l-4 -13q-93 0 -141 -55.5t-78 -185.5l-154 -664q-78 -336 215 -336q76 0 145.5 23.5t131.5 71t109.5 127.5t72.5 186l86 379q20 89 30.5 149.5t12 115t-9 87.5
t-35 57.5t-63.5 34.5t-97 10l4 13h553l-4 -13q-69 0 -119.5 -16.5t-87.5 -47t-66 -88.5t-51 -126.5t-47 -175.5l-88 -379q-105 -445 -583 -445zM969 1384q-59 0 -102 25.5t-65 65.5t-31.5 91t-7 99t12.5 92h6q0 -69 53.5 -116.5t172.5 -47.5t193 47.5t106 116.5h6
q-11 -46 -28.5 -92.5t-47.5 -98.5t-66.5 -91t-89.5 -65t-112 -26z" />
    <glyph glyph-name="ubreve" unicode="&#x16d;" horiz-adv-x="1232" 
d="M287 -23q-113 0 -169 69.5t-24 211.5l101 457q9 40 -3 61t-40 21q-29 0 -105 -35l2 12q171 100 313 100q101 0 136.5 -60t11.5 -163l-100 -430q-16 -72 5.5 -106.5t71.5 -34.5q74 0 172 76l160 696h326l-162 -717q-9 -40 3 -61t40 -21t104 35l-2 -12q-173 -101 -313 -101
q-85 0 -124 43.5t-34 120.5q-191 -162 -370 -162zM664 975q-59 0 -102 25.5t-65 65.5t-31.5 91t-7 99t12.5 92h6q0 -69 53 -116.5t172 -47.5t193 47.5t106 116.5h7q-11 -46 -28.5 -92.5t-47.5 -98.5t-66.5 -91t-89.5 -65t-112 -26z" />
    <glyph glyph-name="Uring" unicode="&#x16e;" horiz-adv-x="1466" 
d="M623 -25q-118 0 -209.5 27t-154.5 83t-82.5 143.5t5.5 209.5l131 574q32 126 8.5 183.5t-116.5 57.5l4 13h682l-4 -13q-93 0 -141 -55.5t-78 -185.5l-154 -664q-78 -336 215 -336q76 0 145.5 23.5t131.5 71t109.5 127.5t72.5 186l86 379q20 89 30.5 149.5t12 115t-9 87.5
t-35 57.5t-63.5 34.5t-97 10l4 13h553l-4 -13q-69 0 -119.5 -16.5t-87.5 -47t-66 -88.5t-51 -126.5t-47 -175.5l-88 -379q-105 -445 -583 -445zM969 1360q-105 0 -174.5 50t-69.5 136q0 101 89 173.5t218 72.5q106 0 176 -50t70 -138q0 -100 -89.5 -172t-219.5 -72z
M961 1368q31 0 57 39t41 95t23 108.5t8 87.5q0 86 -50 86q-33 0 -59.5 -40t-40.5 -96.5t-21.5 -108t-7.5 -85.5q0 -86 50 -86z" />
    <glyph glyph-name="uring" unicode="&#x16f;" horiz-adv-x="1232" 
d="M287 -23q-113 0 -169 69.5t-24 211.5l101 457q9 40 -3 61t-40 21q-29 0 -105 -35l2 12q171 100 313 100q101 0 136.5 -60t11.5 -163l-100 -430q-16 -72 5.5 -106.5t71.5 -34.5q74 0 172 76l160 696h326l-162 -717q-9 -40 3 -61t40 -21t104 35l-2 -12q-173 -101 -313 -101
q-85 0 -124 43.5t-34 120.5q-191 -162 -370 -162zM668 950q-105 0 -174.5 50t-69.5 137q0 101 89 173t218 72q106 0 176 -50t70 -138q0 -100 -89.5 -172t-219.5 -72zM659 958q31 0 57 39t41 95t23 108.5t8 87.5q0 86 -49 86q-33 0 -59.5 -40t-40.5 -96.5t-21.5 -108
t-7.5 -85.5q0 -86 49 -86z" />
    <glyph glyph-name="Uhungarumlaut" unicode="&#x170;" horiz-adv-x="1466" 
d="M623 -25q-118 0 -209.5 27t-154.5 83t-82.5 143.5t5.5 209.5l131 574q32 126 8.5 183.5t-116.5 57.5l4 13h682l-4 -13q-93 0 -141 -55.5t-78 -185.5l-154 -664q-78 -336 215 -336q76 0 145.5 23.5t131.5 71t109.5 127.5t72.5 186l86 379q20 89 30.5 149.5t12 115t-9 87.5
t-35 57.5t-63.5 34.5t-97 10l4 13h553l-4 -13q-69 0 -119.5 -16.5t-87.5 -47t-66 -88.5t-51 -126.5t-47 -175.5l-88 -379q-105 -445 -583 -445zM692 1380l-4 2q17 36 44.5 94.5t42.5 90t34 70t34 62t29 38.5q33 39 74.5 49t71.5 -14q32 -24 33.5 -63.5t-35.5 -86.5
q-14 -16 -35 -34.5t-55.5 -44t-63 -45t-82.5 -57t-88 -61.5zM1051 1380l-4 2q17 36 44.5 94.5t42.5 90t34 70t34 62t29 38.5q34 39 74 49t71 -14q32 -24 33.5 -63.5t-35.5 -86.5q-14 -16 -34.5 -34.5t-55.5 -44t-62.5 -44.5t-83 -57.5t-87.5 -61.5z" />
    <glyph glyph-name="uhungarumlaut" unicode="&#x171;" horiz-adv-x="1232" 
d="M287 -23q-113 0 -169 69.5t-24 211.5l101 457q9 40 -3 61t-40 21q-29 0 -105 -35l2 12q171 100 313 100q101 0 136.5 -60t11.5 -163l-100 -430q-16 -72 5.5 -106.5t71.5 -34.5q74 0 172 76l160 696h326l-162 -717q-9 -40 3 -61t40 -21t104 35l-2 -12q-173 -101 -313 -101
q-85 0 -124 43.5t-34 120.5q-191 -162 -370 -162zM397 971l-4 2q15 31 44.5 94t43 91t34 68t35 63t28.5 38q34 39 74 49t71 -14q32 -24 33.5 -63.5t-35.5 -86.5q-14 -16 -35.5 -34.5t-55 -43t-63 -45t-82 -57t-88.5 -61.5zM756 971l-4 2q16 35 44 94.5t42.5 90t34.5 69
t34.5 62t28.5 38.5q34 39 74 49t71 -14q32 -24 33.5 -63.5t-35.5 -86.5q-14 -16 -35 -34.5t-55 -43.5t-62.5 -45t-82 -57t-88.5 -61z" />
    <glyph glyph-name="Uogonek" unicode="&#x172;" horiz-adv-x="1466" 
d="M569 -467q-105 0 -165 39t-60 109q0 34 16 66t38 56.5t61.5 49.5t70.5 41.5t82.5 37t79.5 30t78 26.5q-73 -13 -147 -13q-118 0 -209.5 27t-154.5 83t-82.5 143.5t5.5 209.5l131 574q32 126 8.5 183.5t-116.5 57.5l4 13h682l-4 -13q-93 0 -141 -55.5t-78 -185.5
l-154 -664q-78 -336 215 -336q163 0 288.5 103.5t170.5 304.5l86 379q20 89 30.5 149.5t12 115t-9 87.5t-35 57.5t-63.5 34.5t-97 10l4 13h553l-4 -13q-69 0 -119.5 -16.5t-87.5 -47t-66 -88.5t-51 -126.5t-47 -175.5l-88 -379q-71 -302 -327 -406q-31 -12 -52 -22
t-58.5 -29.5t-63 -42t-52 -53t-40 -70t-13.5 -84.5q0 -135 133 -135q47 0 111 19l2 -11q-146 -53 -277 -53z" />
    <glyph glyph-name="uogonek" unicode="&#x173;" horiz-adv-x="1232" 
d="M684 -467q-105 0 -165 39t-60 109q0 33 14 63.5t35.5 54.5t57 48t67.5 41t78 35.5t77.5 30t77.5 26.5q-45 -5 -51 -5q-85 0 -124 43.5t-34 120.5q-191 -162 -370 -162q-113 0 -169 69.5t-24 211.5l101 457q9 40 -3 61t-40 21q-29 0 -105 -35l2 12q171 100 313 100
q101 0 136.5 -60t11.5 -163l-100 -430q-16 -72 5.5 -106.5t71.5 -34.5q74 0 172 76l160 696h326l-162 -717q-9 -40 3 -61t40 -21t104 35l-2 -12q-78 -48 -153 -72q-110 -51 -157 -90q-102 -83 -103 -201q0 -135 133 -135q46 0 110 19l3 -11q-146 -53 -277 -53z" />
    <glyph glyph-name="Wcircumflex" unicode="&#x174;" horiz-adv-x="2043" 
d="M524 -12l-200 1001q-6 33 -10 51.5t-14.5 55t-24.5 59.5t-34.5 48t-50.5 37.5t-67 12.5l2 13h688l-2 -13q-50 0 -83 -20t-45.5 -52.5t-16 -72t5.5 -78.5l112 -622l326 524l-8 57q-15 80 -36.5 135t-62 92t-96.5 37l2 13h729l-2 -13q-56 0 -95.5 -25t-57 -64t-25 -85.5
t1.5 -89.5l84 -569l217 352q137 223 137 352t-145 129l2 13h547l-2 -13q-165 0 -309 -174q-18 -22 -38 -48.5t-34.5 -47t-37 -56t-33 -51.5t-36.5 -59t-34 -55l-484 -774h-14l-164 915l-579 -915h-13zM950 1356l-4 4l305 321q49 52 101 52t75 -52l158 -321l-4 -4l-276 170z
" />
    <glyph glyph-name="wcircumflex" unicode="&#x175;" horiz-adv-x="1490" 
d="M309 -8h-6l-139 768q-6 37 -45 37q-29 0 -105 -35l2 12q171 100 314 100q130 0 143 -106l80 -590q129 104 203 195l-88 479h315l90 -670q258 218 279 385q-27 -10 -64 -10q-70 0 -114 45.5t-44 110.5q0 68 46.5 114.5t119.5 46.5q42 0 74.5 -17t50.5 -45t26.5 -57.5
t8.5 -60.5q0 -100 -90 -226.5t-226 -243.5t-309 -232h-6l-65 352q-156 -156 -451 -352zM512 946l-4 4l305 322q48 51 100 51q53 0 76 -51l158 -322l-4 -4l-277 170z" />
    <glyph glyph-name="Ycircumflex" unicode="&#x176;" 
d="M199 0l2 12q52 0 88.5 9t70.5 33t58.5 70.5t40.5 117.5l71 309l-200 506q-39 98 -87.5 147t-111.5 49l2 13h711l-2 -13q-92 0 -128 -61.5t-3 -149.5l166 -440h6l213 260q151 187 151 289t-151 102l2 13h530l-2 -13q-142 0 -283 -135q-85 -82 -233 -266l-217 -262
l-80 -348q-13 -57 -13 -98.5t10.5 -67t33.5 -40t51.5 -19.5t69.5 -5l-2 -12h-764zM612 1356l-4 4l305 321q49 52 101 52q53 0 76 -52l157 -321l-4 -4l-276 170z" />
    <glyph glyph-name="ycircumflex" unicode="&#x177;" horiz-adv-x="991" 
d="M-174 -356q-51 0 -81 25t-30 63q0 54 37.5 84t100.5 41.5t131.5 18.5t144.5 26.5t125 54.5l63 45l-153 758q-6 37 -45 37q-29 0 -105 -35l2 12q171 100 314 100q68 0 106.5 -28t46.5 -78l92 -580q255 212 277 379q-27 -10 -64 -10q-70 0 -113.5 45.5t-43.5 110.5
q0 68 46.5 114.5t119.5 46.5q56 0 93.5 -30t51.5 -69t14 -81q0 -73 -48.5 -161t-134 -177.5t-190 -175t-227.5 -168.5l-53 -37q-29 -20 -72 -64.5t-85 -87.5t-92 -85t-109 -68t-119 -26zM270 946l-4 4l305 322q48 51 101 51t76 -51l157 -322l-4 -4l-276 170z" />
    <glyph glyph-name="Ydieresis" unicode="&#x178;" 
d="M199 0l2 12q52 0 88.5 9t70.5 33t58.5 70.5t40.5 117.5l71 309l-200 506q-39 98 -87.5 147t-111.5 49l2 13h711l-2 -13q-92 0 -128 -61.5t-3 -149.5l166 -440h6l213 260q151 187 151 289t-151 102l2 13h530l-2 -13q-142 0 -283 -135q-85 -82 -233 -266l-217 -262
l-80 -348q-13 -57 -13 -98.5t10.5 -67t33.5 -40t51.5 -19.5t69.5 -5l-2 -12h-764zM780 1415q-59 0 -102 43.5t-43 104.5q0 59 41 101t102 42q60 0 103 -42t43 -103q0 -60 -42.5 -103t-101.5 -43zM1174 1415q-59 0 -102.5 43.5t-43.5 104.5q0 59 41 101t102 42q60 0 103 -42
t43 -103q0 -60 -42 -103t-101 -43z" />
    <glyph glyph-name="Zacute" unicode="&#x179;" horiz-adv-x="1325" 
d="M-57 0l-2 4l1042 1247h-209q-93 0 -186 -39.5t-169 -106t-137.5 -143.5t-105.5 -161l-10 2l145 463h1102l4 -4l-1042 -1248h246q93 0 186 40t169 106.5t137.5 143.5t105.5 161l10 -2l-146 -463h-1140zM686 1384l-4 5q247 285 307 335q50 39 94.5 37.5t73.5 -37.5
q24 -29 22 -60.5t-17.5 -57.5t-39.5 -45q-28 -22 -91.5 -48t-174 -65.5t-170.5 -63.5z" />
    <glyph glyph-name="zacute" unicode="&#x17a;" horiz-adv-x="1015" 
d="M94 -16q-62 0 -93.5 30.5t-31.5 79.5q0 75 69.5 126.5t194.5 51.5h15l452 306q-36 3 -170 20.5t-208 17.5q-98 0 -150.5 -30t-81.5 -115l-8 2q8 46 21 93t38 105t56 101t79.5 72.5t104.5 29.5q43 0 75.5 -16.5t56.5 -46t46 -62t55 -72.5t72 -69q-14 102 42.5 180
t152.5 78q62 0 93.5 -30.5t31.5 -79.5q0 -75 -70 -126.5t-193 -51.5h-16l-453 -308q29 -2 153 -18t212 -16q47 0 79.5 4.5t67.5 18.5t59.5 44t39.5 76l8 -2q-8 -46 -21 -93.5t-38 -105t-56 -101t-79.5 -73t-104.5 -29.5q-52 0 -92 27.5t-63.5 64t-64.5 88.5t-87 87
q11 -101 -41 -179.5t-152 -78.5zM467 975l-4 4q250 289 307 336q50 39 94.5 37.5t73.5 -37.5q24 -29 22 -61t-17.5 -58t-39.5 -45q-28 -22 -91.5 -48t-173.5 -65t-171 -63z" />
    <glyph glyph-name="Zdotaccent" unicode="&#x17b;" horiz-adv-x="1325" 
d="M-57 0l-2 4l1042 1247h-209q-93 0 -186 -39.5t-169 -106t-137.5 -143.5t-105.5 -161l-10 2l145 463h1102l4 -4l-1042 -1248h246q93 0 186 40t169 106.5t137.5 143.5t105.5 161l10 -2l-146 -463h-1140zM870 1415q-61 0 -105 44t-44 106q0 61 43.5 105t105.5 44t106 -44
t44 -105t-44 -105.5t-106 -44.5z" />
    <glyph glyph-name="zdotaccent" unicode="&#x17c;" horiz-adv-x="1015" 
d="M94 -16q-62 0 -93.5 30.5t-31.5 79.5q0 75 69.5 126.5t194.5 51.5h15l452 306q-36 3 -170 20.5t-208 17.5q-98 0 -150.5 -30t-81.5 -115l-8 2q8 46 21 93t38 105t56 101t79.5 72.5t104.5 29.5q43 0 75.5 -16.5t56.5 -46t46 -62t55 -72.5t72 -69q-14 102 42.5 180
t152.5 78q62 0 93.5 -30.5t31.5 -79.5q0 -75 -70 -126.5t-193 -51.5h-16l-453 -308q29 -2 153 -18t212 -16q47 0 79.5 4.5t67.5 18.5t59.5 44t39.5 76l8 -2q-8 -46 -21 -93.5t-38 -105t-56 -101t-79.5 -73t-104.5 -29.5q-52 0 -92 27.5t-63.5 64t-64.5 88.5t-87 87
q11 -101 -41 -179.5t-152 -78.5zM657 1006q-61 0 -105 44t-44 105q0 62 44 106t105 44t105.5 -44.5t44.5 -105.5t-44 -105t-106 -44z" />
    <glyph glyph-name="Zcaron" unicode="&#x17d;" horiz-adv-x="1325" 
d="M-57 0l-2 4l1042 1247h-209q-93 0 -186 -39.5t-169 -106t-137.5 -143.5t-105.5 -161l-10 2l145 463h1102l4 -4l-1042 -1248h246q93 0 186 40t169 106.5t137.5 143.5t105.5 161l10 -2l-146 -463h-1140zM862 1362q-53 0 -76 51l-157 322l4 4l276 -170l355 170l4 -4
l-305 -322q-48 -51 -101 -51z" />
    <glyph glyph-name="zcaron" unicode="&#x17e;" horiz-adv-x="1015" 
d="M94 -16q-62 0 -93.5 30.5t-31.5 79.5q0 75 69.5 126.5t194.5 51.5h15l452 306q-36 3 -170 20.5t-208 17.5q-98 0 -150.5 -30t-81.5 -115l-8 2q8 46 21 93t38 105t56 101t79.5 72.5t104.5 29.5q43 0 75.5 -16.5t56.5 -46t46 -62t55 -72.5t72 -69q-14 102 42.5 180
t152.5 78q62 0 93.5 -30.5t31.5 -79.5q0 -75 -70 -126.5t-193 -51.5h-16l-453 -308q29 -2 153 -18t212 -16q47 0 79.5 4.5t67.5 18.5t59.5 44t39.5 76l8 -2q-8 -46 -21 -93.5t-38 -105t-56 -101t-79.5 -73t-104.5 -29.5q-52 0 -92 27.5t-63.5 64t-64.5 88.5t-87 87
q11 -101 -41 -179.5t-152 -78.5zM596 952q-53 0 -76 52l-158 321l5 4l276 -170l354 170l4 -4l-305 -321q-49 -52 -100 -52z" />
    <glyph glyph-name="AEacute" unicode="&#x1fc;" horiz-adv-x="2103" 
d="M-213 0l2 12q121 0 284.5 116t344.5 306l708 744q-6 42 -37 58.5t-94 16.5l4 13h1131l-70 -432l-8 -3q0 91 -22 165.5t-67 132.5t-122 90t-180 32h-148l-141 -612h64q77 0 147 26t123 71.5t93 98.5t69 115h8l-145 -633h-9q-2 61 -17.5 113.5t-48 97.5t-90 71t-134.5 26
h-64l-139 -611h157q360 0 599 451l8 -2l-146 -463h-1140l2 12q96 0 140 42t73 167l53 236h-508l-31 -33q-241 -254 -179 -356q35 -56 161 -56l-2 -12h-629zM485 477h496l131 567q16 75 16 113zM1339 1384l-4 5q247 285 307 335q50 39 94.5 37.5t73.5 -37.5q24 -29 22 -60.5
t-17 -57.5t-39 -45q-28 -22 -91.5 -48t-174.5 -65.5t-171 -63.5z" />
    <glyph glyph-name="aeacute" unicode="&#x1fd;" horiz-adv-x="1622" 
d="M348 -23q-161 0 -257.5 56t-96.5 157q0 170 312 223q87 15 314 30q10 0 19 1q10 88 10 172q0 17 -0.5 30t-3.5 40.5t-8.5 48.5t-17.5 46.5t-28 42.5t-41.5 28.5t-57.5 11.5q-93 0 -156 -90q40 -20 64 -60.5t24 -84.5q0 -63 -45 -106.5t-111 -43.5q-68 0 -107.5 47
t-39.5 107q0 101 119.5 171t294.5 70q212 0 315 -114q152 114 352 114q156 0 265.5 -67t109.5 -172q0 -52 -30 -91.5t-83.5 -62t-115.5 -37t-136.5 -18.5t-136 -3.5t-123.5 5.5q-10 -56 -10 -123q0 -123 56 -195.5t165 -72.5q155 0 318 151l8 -8q-43 -40 -84 -70.5
t-100 -63.5t-133 -51t-156 -18q-193 0 -295 105q-150 -105 -373 -105zM389 -12q89 0 157 121t91 319q-89 -5 -157.5 -33.5t-108 -72.5t-59 -95t-19.5 -106q0 -64 25 -98.5t71 -34.5zM1206 864q-59 0 -112.5 -67t-87 -159t-52.5 -196q88 -2 155.5 22.5t105.5 68t56.5 95
t18.5 109.5q0 127 -84 127zM766 975l-4 4q250 289 307 336q50 39 94.5 37.5t73.5 -37.5q24 -29 22 -61t-17.5 -58t-39.5 -45q-28 -22 -91.5 -48t-173.5 -65t-171 -63z" />
    <glyph glyph-name="Oslashacute" unicode="&#x1fe;" horiz-adv-x="1624" 
d="M715 -25q-259 0 -426 129l-160 -149l-14 14l157 148q-176 149 -176 405q0 156 70.5 299t188 245.5t277.5 163t333 60.5q258 0 428 -131l159 150l15 -15l-160 -147q176 -149 176 -404q0 -156 -70 -299t-187.5 -245.5t-277.5 -163t-333 -60.5zM1001 1276
q-113 0 -216.5 -82.5t-175 -213.5t-114 -297t-42.5 -331q0 -45 2 -65l770 717q-26 272 -224 272zM680 -10q111 0 214 81t175.5 211t116 297t43.5 334q0 12 -1 33t-1 31l-770 -717q23 -270 223 -270zM838 1405l-4 4q250 289 307 336q50 39 94.5 37.5t73.5 -37.5
q24 -29 22 -61t-17.5 -58t-39.5 -45q-28 -22 -91.5 -48t-173.5 -65t-171 -63z" />
    <glyph glyph-name="oslashacute" unicode="&#x1ff;" horiz-adv-x="1169" 
d="M532 975l-4 4q247 286 308 336q50 39 94.5 37.5t73.5 -37.5q24 -29 22 -61t-17.5 -58t-39.5 -45q-28 -22 -92 -48t-173.5 -65t-171.5 -63zM479 -23q-202 0 -325 105l-123 -100l-11 12l121 98q-104 93 -104 256q0 142 84 264t224.5 192t301.5 70q202 0 326 -104l125 102
l10 -12l-121 -100q105 -95 105 -254q0 -144 -84.5 -266.5t-225.5 -192.5t-303 -70zM461 -8q70 0 129.5 61.5t97 158.5t60 193.5t32.5 188.5l-432 -354q-7 -32 -5 -74.5t10 -81t36 -65.5t72 -27zM670 860q-70 0 -129 -61t-97 -157t-62 -192t-34 -188l434 352q3 28 4 51t0 54
t-8 54t-19.5 44t-35 32t-53.5 11z" />
    <glyph glyph-name="uni0218" unicode="&#x218;" horiz-adv-x="1226" 
d="M182 -678l-2 8q89 30 170 99.5t113 156.5q-31 -14 -64 -14q-62 0 -98.5 40t-36.5 95q0 61 45 104.5t113 43.5t109.5 -46t41.5 -110q0 -106 -111.5 -215.5t-279.5 -161.5zM500 -25q-230 0 -484 54l72 389l10 2q14 -83 33.5 -146t50.5 -118.5t73.5 -91t103 -56t137.5 -20.5
q85 0 150 23.5t100.5 62.5t53 83t17.5 91q0 64 -33.5 112t-87 78.5t-118 57.5t-129 58.5t-118 71t-87 106t-33.5 153.5q0 187 145 296t414 109q57 0 125 -5.5t113 -10.5t102.5 -3.5t110.5 13.5l-78 -420l-8 -2q-20 106 -45 177.5t-66 128t-102 83.5t-146 27q-143 0 -221 -67
t-78 -162q0 -59 34.5 -104t89.5 -74.5t121 -57t132.5 -62t121.5 -78.5t89.5 -116t34.5 -166q0 -198 -151.5 -307t-448.5 -109z" />
    <glyph glyph-name="uni0219" unicode="&#x219;" horiz-adv-x="929" 
d="M53 -678l-2 8q89 30 170 99.5t113 156.5q-31 -14 -64 -14q-62 0 -98.5 40t-36.5 95q0 61 45 104.5t113 43.5t109.5 -46t41.5 -110q0 -106 -111.5 -215.5t-279.5 -161.5zM346 -23q-151 0 -248.5 61.5t-97.5 147.5q0 54 37 96t94 42q55 0 90 -37t35 -92q0 -41 -20 -72.5
t-54 -46.5q42 -86 158 -86q88 0 150.5 43.5t62.5 109.5q0 39 -24.5 68.5t-63.5 48t-86.5 35.5t-95 38t-86.5 47.5t-63.5 72t-24.5 104.5q0 139 120 228t301 89q149 0 245.5 -59.5t96.5 -144.5q0 -54 -36.5 -96t-90.5 -42q-52 0 -88 38t-36 92q0 38 19.5 68.5t53.5 43.5
q-43 88 -147 88q-79 0 -140 -41t-61 -106q0 -38 25 -66.5t64.5 -47t88 -35t96.5 -37t87.5 -47t64.5 -71.5t25 -104q0 -97 -63.5 -173.5t-165.5 -116.5t-222 -40z" />
    <glyph glyph-name="uni021A" unicode="&#x21a;" horiz-adv-x="1402" 
d="M297 -678l-2 8q89 30 170 99.5t113 156.5q-31 -14 -64 -14q-62 0 -98.5 40t-36.5 95q0 61 45 104.5t113 43.5t109.5 -46t41.5 -110q0 -106 -111.5 -215.5t-279.5 -161.5zM201 0l4 12q52 0 88.5 9t70.5 33t58.5 70.5t40.5 117.5l233 1009h-18q-92 0 -173.5 -35.5
t-149 -102.5t-120 -141t-104.5 -171l-8 2l139 463h1227l-74 -463l-8 -2q-7 77 -18.5 138t-36 121.5t-60.5 100.5t-92.5 65t-130.5 25h-18l-234 -1009q-13 -57 -13 -98.5t10.5 -67t33.5 -40t51.5 -19.5t69.5 -5l-4 -12h-764z" />
    <glyph glyph-name="uni021B" unicode="&#x21b;" horiz-adv-x="755" 
d="M16 -678l-2 8q89 30 170 99.5t113 156.5q-31 -14 -64 -14q-62 0 -98.5 40t-36.5 95q0 61 45 104.5t113 43.5t110 -46t42 -110q0 -106 -112 -215.5t-280 -161.5zM307 -23q-125 0 -181.5 72.5t-23.5 212.5l129 561h-125l7 29h125l51 221l340 64l-66 -285h250l-6 -29h-252
l-141 -616q-18 -75 -0.5 -107t67.5 -32q95 0 221 114l9 -8q-92 -86 -190 -141.5t-214 -55.5z" />
    <glyph glyph-name="circumflex" unicode="&#x2c6;" horiz-adv-x="952" 
d="M385 946l-4 4l305 322q48 51 100 51q53 0 76 -51l158 -322l-4 -4l-277 170z" />
    <glyph glyph-name="caron" unicode="&#x2c7;" horiz-adv-x="952" 
d="M700 952q-52 0 -75 52l-158 321l4 4l277 -170l354 170l4 -4l-305 -321q-49 -52 -101 -52z" />
    <glyph glyph-name="breve" unicode="&#x2d8;" horiz-adv-x="772" 
d="M623 975q-59 0 -102 25.5t-65 65.5t-31.5 91t-7 99t12.5 92h6q0 -69 53.5 -116.5t172.5 -47.5t193 47.5t106 116.5h6q-11 -46 -28.5 -92.5t-47.5 -98.5t-66.5 -91t-89.5 -65t-112 -26z" />
    <glyph glyph-name="dotaccent" unicode="&#x2d9;" horiz-adv-x="626" 
d="M590 1006q-62 0 -106 44t-44 105t44 105.5t106 44.5q61 0 105 -44t44 -106q0 -61 -43.5 -105t-105.5 -44z" />
    <glyph glyph-name="ring" unicode="&#x2da;" horiz-adv-x="745" 
d="M610 950q-105 0 -174 50t-69 137q0 101 89 173t218 72q106 0 176 -50t70 -138q0 -100 -90 -172t-220 -72zM602 958q31 0 57 39t41 95t23 108.5t8 87.5q0 86 -49 86q-33 0 -59.5 -40t-40.5 -96.5t-21.5 -108t-7.5 -85.5q0 -86 49 -86z" />
    <glyph glyph-name="ogonek" unicode="&#x2db;" horiz-adv-x="749" 
d="M287 -467q-105 0 -165.5 39t-60.5 109q0 48 31 92t76 74.5t109 59.5t117 47t113.5 38t86.5 31l2 -9q-8 -4 -36.5 -17.5t-44 -21.5t-45 -25.5t-47 -32t-40 -38t-35.5 -46.5t-22 -54.5t-9 -65.5q0 -135 134 -135q46 0 110 19l2 -11q-146 -53 -276 -53z" />
    <glyph glyph-name="tilde" unicode="&#x2dc;" horiz-adv-x="868" 
d="M352 989q4 12 14.5 49t18.5 60.5t22 59.5t30.5 59.5t37.5 47t49.5 35t61.5 11.5q52 0 156.5 -48.5t160.5 -48.5q34 0 60 11t42.5 31.5t25 37.5t16.5 39l10 -2q-44 -137 -62 -177q-67 -143 -174 -144q-51 0 -154 48t-161 48q-34 0 -60 -11t-43 -31.5t-25.5 -37
t-17.5 -39.5z" />
    <glyph glyph-name="hungarumlaut" unicode="&#x2dd;" horiz-adv-x="1021" 
d="M418 971l-4 2q16 35 44 94.5t42.5 90t34.5 69t34.5 62t28.5 38.5q34 39 74 49t71 -14q32 -24 33.5 -63.5t-35.5 -86.5q-14 -16 -35 -34.5t-55 -43.5t-62.5 -45t-82 -57t-88.5 -61zM776 971l-4 2q16 35 44 94.5t42.5 90t34.5 69t34.5 62t28.5 38.5q33 39 74.5 49t71.5 -14
q32 -24 33.5 -63.5t-35.5 -86.5q-14 -16 -35.5 -34.5t-55 -43t-63 -45t-82 -57t-88.5 -61.5z" />
    <glyph glyph-name="Wgrave" unicode="&#x1e80;" horiz-adv-x="2043" 
d="M524 -12l-200 1001q-6 33 -10 51.5t-14.5 55t-24.5 59.5t-34.5 48t-50.5 37.5t-67 12.5l2 13h688l-2 -13q-50 0 -83 -20t-45.5 -52.5t-16 -72t5.5 -78.5l112 -622l326 524l-8 57q-15 80 -36.5 135t-62 92t-96.5 37l2 13h729l-2 -13q-56 0 -95.5 -25t-57 -64t-25 -85.5
t1.5 -89.5l84 -569l217 352q137 223 137 352t-145 129l2 13h547l-2 -13q-165 0 -309 -174q-18 -22 -38 -48.5t-34.5 -47t-37 -56t-33 -51.5t-36.5 -59t-34 -55l-484 -774h-14l-164 915l-579 -915h-13zM1370 1382q-60 42 -135.5 89t-108.5 71.5t-53 52.5q-33 44 -30.5 92.5
t40.5 75.5q38 28 85 14t79 -61q14 -22 30 -58.5t27.5 -69.5t33 -96.5t36.5 -105.5z" />
    <glyph glyph-name="wgrave" unicode="&#x1e81;" horiz-adv-x="1490" 
d="M309 -8h-6l-139 768q-6 37 -45 37q-29 0 -105 -35l2 12q171 100 314 100q130 0 143 -106l80 -590q129 104 203 195l-88 479h315l90 -670q258 218 279 385q-27 -10 -64 -10q-70 0 -114 45.5t-44 110.5q0 68 46.5 114.5t119.5 46.5q42 0 74.5 -17t50.5 -45t26.5 -57.5
t8.5 -60.5q0 -100 -90 -226.5t-226 -243.5t-309 -232h-6l-65 352q-156 -156 -451 -352zM932 973q-60 42 -135.5 89t-108.5 71.5t-53 52.5q-33 44 -30.5 92.5t40.5 75.5q38 28 85 14t79 -61q14 -22 30 -58.5t27.5 -69.5t33 -96.5t36.5 -105.5z" />
    <glyph glyph-name="Wacute" unicode="&#x1e82;" horiz-adv-x="2043" 
d="M524 -12l-200 1001q-6 33 -10 51.5t-14.5 55t-24.5 59.5t-34.5 48t-50.5 37.5t-67 12.5l2 13h688l-2 -13q-50 0 -83 -20t-45.5 -52.5t-16 -72t5.5 -78.5l112 -622l326 524l-8 57q-15 80 -36.5 135t-62 92t-96.5 37l2 13h729l-2 -13q-56 0 -95.5 -25t-57 -64t-25 -85.5
t1.5 -89.5l84 -569l217 352q137 223 137 352t-145 129l2 13h547l-2 -13q-165 0 -309 -174q-18 -22 -38 -48.5t-34.5 -47t-37 -56t-33 -51.5t-36.5 -59t-34 -55l-484 -774h-14l-164 915l-579 -915h-13zM1079 1384l-4 5q247 285 307 335q50 39 94.5 37.5t73.5 -37.5
q24 -29 22 -60.5t-17 -57.5t-39 -45q-28 -22 -91.5 -48t-174.5 -65.5t-171 -63.5z" />
    <glyph glyph-name="wacute" unicode="&#x1e83;" horiz-adv-x="1490" 
d="M309 -8h-6l-139 768q-6 37 -45 37q-29 0 -105 -35l2 12q171 100 314 100q130 0 143 -106l80 -590q129 104 203 195l-88 479h315l90 -670q258 218 279 385q-27 -10 -64 -10q-70 0 -114 45.5t-44 110.5q0 68 46.5 114.5t119.5 46.5q42 0 74.5 -17t50.5 -45t26.5 -57.5
t8.5 -60.5q0 -100 -90 -226.5t-226 -243.5t-309 -232h-6l-65 352q-156 -156 -451 -352zM690 975l-4 4q250 289 307 336q50 39 94.5 37.5t73.5 -37.5q24 -29 22 -61t-17.5 -58t-39.5 -45q-28 -22 -91.5 -48t-173.5 -65t-171 -63z" />
    <glyph glyph-name="Wdieresis" unicode="&#x1e84;" horiz-adv-x="2043" 
d="M524 -12l-200 1001q-6 33 -10 51.5t-14.5 55t-24.5 59.5t-34.5 48t-50.5 37.5t-67 12.5l2 13h688l-2 -13q-50 0 -83 -20t-45.5 -52.5t-16 -72t5.5 -78.5l112 -622l326 524l-8 57q-15 80 -36.5 135t-62 92t-96.5 37l2 13h729l-2 -13q-56 0 -95.5 -25t-57 -64t-25 -85.5
t1.5 -89.5l84 -569l217 352q137 223 137 352t-145 129l2 13h547l-2 -13q-165 0 -309 -174q-18 -22 -38 -48.5t-34.5 -47t-37 -56t-33 -51.5t-36.5 -59t-34 -55l-484 -774h-14l-164 915l-579 -915h-13zM1063 1415q-59 0 -102 43.5t-43 104.5q0 59 41 101t102 42
q60 0 102.5 -42t42.5 -103q0 -60 -42 -103t-101 -43zM1456 1415q-59 0 -102 43.5t-43 104.5q0 59 41 101t102 42q60 0 102.5 -42t42.5 -103q0 -60 -42 -103t-101 -43z" />
    <glyph glyph-name="wdieresis" unicode="&#x1e85;" horiz-adv-x="1490" 
d="M309 -8h-6l-139 768q-6 37 -45 37q-29 0 -105 -35l2 12q171 100 314 100q130 0 143 -106l80 -590q129 104 203 195l-88 479h315l90 -670q258 218 279 385q-27 -10 -64 -10q-70 0 -114 45.5t-44 110.5q0 68 46.5 114.5t119.5 46.5q42 0 74.5 -17t50.5 -45t26.5 -57.5
t8.5 -60.5q0 -100 -90 -226.5t-226 -243.5t-309 -232h-6l-65 352q-156 -156 -451 -352zM678 1006q-59 0 -102.5 43t-43.5 104q0 59 41.5 101t102.5 42q60 0 102.5 -42t42.5 -103q0 -60 -42 -102.5t-101 -42.5zM1071 1006q-59 0 -102 43t-43 104q0 59 41 101t102 42
q60 0 102.5 -42t42.5 -103q0 -60 -42 -102.5t-101 -42.5z" />
    <glyph glyph-name="Ygrave" unicode="&#x1ef2;" 
d="M199 0l2 12q52 0 88.5 9t70.5 33t58.5 70.5t40.5 117.5l71 309l-200 506q-39 98 -87.5 147t-111.5 49l2 13h711l-2 -13q-92 0 -128 -61.5t-3 -149.5l166 -440h6l213 260q151 187 151 289t-151 102l2 13h530l-2 -13q-142 0 -283 -135q-85 -82 -233 -266l-217 -262
l-80 -348q-13 -57 -13 -98.5t10.5 -67t33.5 -40t51.5 -19.5t69.5 -5l-2 -12h-764zM1057 1382q-60 42 -135.5 89t-108.5 71.5t-53 52.5q-33 44 -30.5 92.5t40.5 75.5q38 28 85 14t79 -61q14 -22 30 -58.5t27.5 -69.5t33 -96.5t36.5 -105.5z" />
    <glyph glyph-name="ygrave" unicode="&#x1ef3;" horiz-adv-x="991" 
d="M-174 -356q-51 0 -81 25t-30 63q0 54 37.5 84t100.5 41.5t131.5 18.5t144.5 26.5t125 54.5l63 45l-153 758q-6 37 -45 37q-29 0 -105 -35l2 12q171 100 314 100q68 0 106.5 -28t46.5 -78l92 -580q255 212 277 379q-27 -10 -64 -10q-70 0 -113.5 45.5t-43.5 110.5
q0 68 46.5 114.5t119.5 46.5q56 0 93.5 -30t51.5 -69t14 -81q0 -73 -48.5 -161t-134 -177.5t-190 -175t-227.5 -168.5l-53 -37q-29 -20 -72 -64.5t-85 -87.5t-92 -85t-109 -68t-119 -26zM674 973q-60 42 -135.5 89t-108.5 71.5t-53 52.5q-33 44 -30.5 92.5t40.5 75.5
q38 28 85 14t79 -61q14 -22 30 -58.5t27.5 -69.5t33 -96.5t36.5 -105.5z" />
    <glyph glyph-name="endash" unicode="&#x2013;" horiz-adv-x="1173" 
d="M100 442l19 84h938l-19 -84h-938z" />
    <glyph glyph-name="emdash" unicode="&#x2014;" horiz-adv-x="1779" 
d="M100 442l19 84h1544l-18 -84h-1545z" />
    <glyph glyph-name="quoteleft" unicode="&#x2018;" horiz-adv-x="524" 
d="M643 1440l2 -8q-104 -36 -200.5 -119t-135.5 -185q39 17 74 17q73 0 117.5 -48.5t44.5 -113.5q0 -72 -53.5 -123t-133.5 -51q-82 0 -131 53.5t-49 130.5q0 83 58.5 170.5t166 162t240.5 114.5z" />
    <glyph glyph-name="quoteright" unicode="&#x2019;" horiz-adv-x="530" 
d="M172 809l-2 8q104 36 200.5 118.5t135.5 184.5q-37 -16 -74 -16q-73 0 -117.5 48.5t-44.5 113.5q0 72 53.5 123t133.5 51q82 0 131 -54t49 -131q0 -83 -59 -170.5t-166 -161.5t-240 -114z" />
    <glyph glyph-name="quotesinglbase" unicode="&#x201a;" horiz-adv-x="548" 
d="M-86 -293l-2 8q104 36 200.5 118.5t135.5 184.5q-37 -16 -74 -16q-73 0 -117.5 48.5t-44.5 113.5q0 72 53.5 123t133.5 51q82 0 131 -53.5t49 -130.5q0 -83 -58.5 -170.5t-166 -162t-240.5 -114.5z" />
    <glyph glyph-name="quotedblleft" unicode="&#x201c;" horiz-adv-x="1001" 
d="M643 1440l2 -8q-104 -36 -200.5 -119t-135.5 -185q39 17 74 17q73 0 117.5 -48.5t44.5 -113.5q0 -72 -53.5 -123t-133.5 -51q-82 0 -131 53.5t-49 130.5q0 83 58.5 170.5t166 162t240.5 114.5zM1120 1440l2 -8q-104 -36 -200.5 -119t-135.5 -185q39 17 74 17
q73 0 117.5 -48.5t44.5 -113.5q0 -72 -53 -123t-133 -51q-82 0 -131.5 53.5t-49.5 130.5q0 83 58.5 170.5t166 162t240.5 114.5z" />
    <glyph glyph-name="quotedblright" unicode="&#x201d;" horiz-adv-x="1007" 
d="M172 809l-2 8q104 36 200.5 118.5t135.5 184.5q-37 -16 -74 -16q-73 0 -117.5 48.5t-44.5 113.5q0 72 53.5 123t133.5 51q82 0 131 -54t49 -131q0 -83 -59 -170.5t-166 -161.5t-240 -114zM649 809l-2 8q104 36 200.5 118.5t135.5 184.5q-37 -16 -74 -16q-73 0 -117 48.5
t-44 113.5q0 72 53 123t133 51q82 0 131 -54t49 -131q0 -83 -59 -170.5t-166 -161.5t-240 -114z" />
    <glyph glyph-name="quotedblbase" unicode="&#x201e;" horiz-adv-x="1026" 
d="M-86 -293l-2 8q104 36 200.5 118.5t135.5 184.5q-37 -16 -74 -16q-73 0 -117.5 48.5t-44.5 113.5q0 72 53.5 123t133.5 51q82 0 131 -53.5t49 -130.5q0 -83 -58.5 -170.5t-166 -162t-240.5 -114.5zM391 -293l-2 8q104 36 200.5 118.5t135.5 184.5q-37 -16 -74 -16
q-73 0 -117.5 48.5t-44.5 113.5q0 72 53.5 123t133.5 51q82 0 131 -53.5t49 -130.5q0 -83 -58.5 -170.5t-166 -162t-240.5 -114.5z" />
    <glyph glyph-name="dagger" unicode="&#x2020;" horiz-adv-x="1054" 
d="M326 -354q-111 0 -111 112q0 47 23.5 110.5t65 150t88 190.5t102 268t98.5 348q-107 -1 -174 -12.5t-105 -42.5t-52 -54.5t-35 -79.5q-2 -5 -3 -7q-7 -19 -16 -19q-19 0 -34 57.5t-15 120.5q0 76 37 129.5t92 53.5q28 0 63.5 -20.5t66.5 -45t79.5 -45.5t99.5 -22
q11 82 2.5 134t-24 122.5t-15.5 105.5q0 79 49 124.5t117 45.5q46 0 74 -26.5t28 -77.5q0 -40 -29 -93.5t-65 -100.5t-73.5 -112t-51.5 -122q50 1 107.5 22t100 45.5t88.5 45t75 20.5q32 0 50 -25.5t18 -64.5q0 -45 -31 -111t-68.5 -113t-56.5 -47q-4 0 -4 68
q0 29 -5.5 49.5t-23 39.5t-48.5 31t-82.5 19t-123.5 8q-14 -61 -26 -122.5t-20.5 -111.5t-15 -108.5t-11 -96.5t-7.5 -93.5t-4.5 -81.5t-2.5 -78t-1 -66v-63v-51q0 -307 -190 -307z" />
    <glyph glyph-name="daggerdbl" unicode="&#x2021;" horiz-adv-x="1054" 
d="M322 -391q-46 0 -74.5 26.5t-28.5 77.5q0 40 28.5 93.5t64.5 100.5t74 112t52 122q-51 -1 -109 -22.5t-100.5 -46t-87.5 -44.5t-73 -20q-32 0 -50 25.5t-18 64.5q0 45 31 111t68.5 113t56.5 47q4 0 4 -68q0 -37 10 -61.5t38.5 -45.5t86 -30.5t147.5 -9.5q12 60 -4 166.5
t-16 130.5q0 51 35 113t79.5 133t59.5 128q-107 -1 -174 -12.5t-105 -42.5t-52 -54.5t-35 -79.5q-2 -5 -3 -7q-7 -19 -16 -19q-19 0 -34 57.5t-15 120.5q0 76 37 129.5t92 53.5q28 0 63.5 -20.5t66.5 -45t79.5 -45.5t99.5 -22q12 83 3.5 134.5t-24.5 122t-16 105.5
q0 79 49 124.5t117 45.5q46 0 74 -26.5t28 -77.5q0 -40 -29 -93.5t-65 -100.5t-73.5 -112t-51.5 -122q50 1 107.5 22t100 45.5t88.5 45t75 20.5q34 0 51 -25.5t17 -64.5q0 -45 -31 -111t-68.5 -113t-56.5 -47q-4 0 -4 68q0 29 -5.5 49t-23 39.5t-48 31.5t-82 19t-124.5 8
q-11 -63 15 -168.5t26 -136.5q0 -38 -25.5 -86t-58 -88t-65.5 -93.5t-45 -98.5q54 0 98 3t77.5 11t58 15t43.5 22.5t31 26.5t23.5 33t17.5 35.5t16 41.5q2 5 3 8q7 19 17 19q19 0 34 -58t15 -121q0 -76 -37 -129t-92 -53q-29 0 -65 20t-67 44.5t-79 46t-98 22.5
q-12 -83 -4 -134.5t24 -122t16 -105.5q0 -79 -49 -124.5t-116 -45.5z" />
    <glyph glyph-name="bullet" unicode="&#x2022;" horiz-adv-x="753" 
d="M371 268q-95 0 -162.5 67.5t-67.5 162.5t67.5 162t162.5 67t162 -67t67 -162t-67 -162.5t-162 -67.5z" />
    <glyph glyph-name="ellipsis" unicode="&#x2026;" horiz-adv-x="1677" 
d="M190 -18q-74 0 -126 52t-52 126t52 126t126 52t126.5 -52.5t52.5 -125.5t-52.5 -125.5t-126.5 -52.5zM764 -18q-74 0 -126 52t-52 126t52 126t126 52t126 -52t52 -126t-52 -126t-126 -52zM1337 -18q-73 0 -125.5 52t-52.5 126t52.5 126t125.5 52q74 0 126.5 -52.5
t52.5 -125.5t-52.5 -125.5t-126.5 -52.5z" />
    <glyph glyph-name="perthousand" unicode="&#x2030;" horiz-adv-x="2414" 
d="M481 604q-57 0 -110.5 16t-101 49t-76.5 91.5t-29 134.5q0 90 41.5 166.5t106.5 124t141.5 74t150.5 26.5q92 0 172 -40.5t117 -121.5q55 -10 102 -10q76 0 182 22.5t199 59.5q14 14 29 43.5t29 47.5t34 18q27 0 27 -29q0 -54 -106 -96l-1186 -1198l-13 14l1170 1178
q-201 -78 -361 -78q-57 0 -98 8q19 -49 19 -107q0 -73 -27 -138t-72 -110.5t-102 -79t-118 -49.5t-120 -16zM1053 -20q-57 0 -110.5 16t-101.5 48.5t-77 91t-29 134.5q0 90 41.5 166.5t107 124.5t142 74.5t150.5 26.5q58 0 111.5 -16.5t100.5 -49t75 -90.5t28 -133
q0 -91 -41 -168t-106 -124.5t-141 -74t-150 -26.5zM1872 -20q-57 0 -110.5 16t-101.5 48.5t-77 91t-29 134.5q0 90 41.5 166.5t107 124.5t142 74.5t150.5 26.5q58 0 111.5 -16.5t100.5 -49t75 -90.5t28 -133q0 -91 -41 -168t-106 -124.5t-141 -74t-150 -26.5zM1040 -8
q49 0 92.5 53.5t71 133t43 166.5t15.5 159q0 145 -74 145q-63 0 -116 -91t-79 -207.5t-26 -215.5q0 -78 18.5 -110.5t54.5 -32.5zM1860 -8q49 0 92.5 53.5t70.5 133t42.5 166.5t15.5 159q0 145 -74 145q-63 0 -116 -91t-79 -207.5t-26 -215.5q0 -143 74 -143zM469 616
q49 0 92.5 53.5t70.5 133t42.5 166.5t15.5 159q0 58 -12 93q-33 33 -47 51q-4 2 -15 2q-63 0 -116 -91t-79 -207.5t-26 -215.5q0 -144 74 -144z" />
    <glyph glyph-name="guilsinglleft" unicode="&#x2039;" horiz-adv-x="716" 
d="M532 47l-497 408l2 8l686 407l4 -8l-508 -403l322 -404z" />
    <glyph glyph-name="guilsinglright" unicode="&#x203a;" horiz-adv-x="716" 
d="M-33 47l-4 8l508 404l-321 403l8 8l497 -407l-2 -8z" />
    <glyph glyph-name="fraction" unicode="&#x2044;" horiz-adv-x="327" 
d="M-381 -16l-12 8l1155 1294l12 -8z" />
    <glyph glyph-name="uni2070" unicode="&#x2070;" horiz-adv-x="892" 
d="M496 672q-149 0 -232.5 83t-83.5 238q0 134 60 246.5t170 180t247 67.5q150 0 234 -84t84 -238q0 -133 -61 -246t-171.5 -180t-246.5 -67zM483 680q58 0 109.5 66.5t84.5 166t52 210t19 204.5q0 76 -17 113t-59 37q-57 0 -108 -65t-84.5 -163t-52.5 -209.5t-19 -208.5
q0 -77 16 -114t59 -37z" />
    <glyph glyph-name="uni2074" unicode="&#x2074;" horiz-adv-x="831" 
d="M326 686v8q79 0 122 29.5t66 118.5l12 49h-434l-2 6l131 78q99 60 163.5 154t64.5 186q0 102 -74 172q89 4 166.5 -8t135.5 -51.5t58 -102.5q0 -48 -33.5 -90.5t-93 -78t-118.5 -63.5t-134 -62t-116 -58l-121 -72h409l27 98l281 213h6l-74 -311q39 -1 64 2t37 6.5t16 3.5
q22 0 22 -16q0 -10 -9.5 -15t-20.5 -5q-5 0 -15.5 3t-34.5 5.5t-61 1.5l-14 -60q-8 -31 -9.5 -53.5t4 -37t13 -23t23.5 -13t30.5 -5.5t38.5 -1l-2 -8h-524z" />
    <glyph glyph-name="uni2075" unicode="&#x2075;" horiz-adv-x="815" 
d="M436 672q-154 0 -235.5 49t-81.5 127q0 52 33.5 87.5t87.5 35.5q52 0 82 -33.5t30 -83.5q0 -47 -27 -81t-69 -40q33 -47 104 -47q60 0 107.5 26.5t76 70t43.5 93.5t15 101q0 160 -149 160q-49 0 -99 -15.5t-84 -38.5q-19 -37 -35 -42q-4 -1 -8 -1q-16 0 -16 17
q0 23 47 35l127 378q242 -14 334 -9q186 8 237 67q2 -12 2 -31q0 -59 -17 -105t-43.5 -74t-62 -46t-70 -24.5t-71.5 -6.5q-78 0 -139.5 32.5t-181.5 121.5l-103 -299q119 65 260 65q87 0 157.5 -22t118.5 -75t48 -130q0 -125 -118 -193.5t-300 -68.5z" />
    <glyph glyph-name="uni2076" unicode="&#x2076;" horiz-adv-x="876" 
d="M506 672q-169 0 -250.5 80.5t-81.5 224.5q0 135 64.5 250.5t188 187.5t280.5 72q132 0 201 -49t69 -125q0 -54 -31.5 -88.5t-85.5 -34.5q-52 0 -83.5 32.5t-31.5 82.5q0 42 24.5 73.5t61.5 40.5q-18 58 -83 58q-71 0 -139 -62t-115.5 -161.5t-69.5 -215.5q74 152 250 152
q108 0 178 -55.5t70 -153.5q0 -129 -115 -219t-301 -90zM479 680q57 0 102.5 44.5t69.5 108.5t36.5 123.5t12.5 102.5q0 102 -90 102q-69 0 -122 -53t-79 -127.5t-28 -153.5q-5 -147 98 -147z" />
    <glyph glyph-name="uni2077" unicode="&#x2077;" horiz-adv-x="712" 
d="M233 686q28 95 142.5 229t306.5 283q15 12 51.5 39.5t52 39.5t38 34.5t38.5 44.5q-2 2 -4 2q-40 -52 -99.5 -93.5t-131.5 -41.5q-23 0 -116.5 11t-150.5 11q-31 0 -50.5 -4t-42.5 -17.5t-40 -43.5t-30 -78h-11l84 368h15l-45 -229h2q17 47 28.5 74.5t31.5 65t39.5 58
t48.5 35.5t63 15q45 0 87 -26.5t69.5 -57.5t66 -57.5t78.5 -26.5q34 0 64 17.5t47.5 43.5t28 49t13.5 39h15q-7 -37 -23 -71t-30.5 -54t-43.5 -55q-73 -88 -112.5 -139t-89.5 -128t-85.5 -158t-64.5 -179h-240z" />
    <glyph glyph-name="uni2078" unicode="&#x2078;" horiz-adv-x="909" 
d="M514 672q-196 0 -286.5 55.5t-90.5 134.5q0 36 18.5 71.5t60 71.5t122 61.5t190.5 31.5q-268 16 -268 164q0 92 101.5 158.5t304.5 66.5q164 0 256 -46.5t92 -129.5q0 -86 -94.5 -144.5t-264.5 -68.5q150 -9 218.5 -57t68.5 -123q0 -32 -11 -63t-40.5 -65t-75.5 -59.5
t-124 -42t-177 -16.5zM477 680q67 0 117 50t72 116t22 131q0 41 -9.5 67t-26.5 35.5t-28 12t-28 2.5q-63 0 -111.5 -49t-71 -115t-22.5 -131q0 -119 86 -119zM680 1477q-44 0 -79 -28t-54.5 -71t-29 -86.5t-9.5 -81.5q0 -108 88 -108q47 0 82.5 29.5t52.5 74.5t25 86t8 76
q0 109 -84 109z" />
    <glyph glyph-name="uni2079" unicode="&#x2079;" horiz-adv-x="876" 
d="M436 672q-132 0 -204 49.5t-72 122.5q0 52 33.5 87.5t85.5 35.5q50 0 81 -33.5t31 -81.5q0 -44 -27 -77t-65 -42q28 -51 109 -51q44 0 83 18.5t67.5 46.5t53 71t40.5 81.5t30.5 89.5t21.5 83.5t15 74.5q-72 -164 -254 -164q-108 0 -178 52t-70 149q0 124 111.5 213.5
t296.5 89.5q171 0 254.5 -82.5t83.5 -224.5q0 -96 -37 -186.5t-103 -162.5t-167 -115.5t-220 -43.5zM647 1477q-64 0 -112.5 -58.5t-69.5 -132.5t-21 -143q0 -131 93 -131q79 0 141.5 87.5t62.5 227.5q0 80 -23.5 115t-70.5 35z" />
    <glyph glyph-name="uni2080" unicode="&#x2080;" horiz-adv-x="892" 
d="M289 -219q-149 0 -232.5 83t-83.5 238q0 134 60 246.5t170.5 180t247.5 67.5q150 0 233.5 -84t83.5 -238q0 -133 -61 -246t-171.5 -180t-246.5 -67zM276 -211q58 0 109.5 66.5t84.5 166t52 210t19 204.5q0 76 -17 113t-59 37q-57 0 -108 -64.5t-84.5 -163t-52.5 -209.5
t-19 -208q0 -77 16 -114.5t59 -37.5z" />
    <glyph glyph-name="uni2081" unicode="&#x2081;" horiz-adv-x="565" 
d="M-139 -205v8q80 0 123 29.5t65 118.5l113 455q9 36 -0.5 51.5t-44.5 15.5h-94l4 8q232 25 409 101l6 -2l-155 -643q-9 -37 -8.5 -62t7 -39t23.5 -21.5t33.5 -9.5t44.5 -2l-2 -8h-524z" />
    <glyph glyph-name="uni2082" unicode="&#x2082;" horiz-adv-x="829" 
d="M-86 -205q5 84 31 135.5t90 98.5q39 29 106.5 67t120 69t105 71.5t81.5 93.5t29 116q0 140 -133 140q-58 0 -105 -27t-75 -70q36 -8 62 -39.5t26 -76.5q0 -51 -33.5 -85t-83.5 -34t-82.5 36.5t-32.5 84.5q0 85 103.5 153t271.5 68q87 0 157 -18.5t118.5 -66t48.5 -118.5
q0 -69 -46 -114t-125 -71.5t-165 -48.5t-187 -62t-171 -95q-56 -45 -62 -63q75 100 252 100q51 0 141.5 -11.5t130.5 -11.5q79 0 124 34t48 122h9q1 -38 -5 -85t-23 -102.5t-44 -100.5t-72 -75t-102 -30q-47 0 -85.5 21.5t-65.5 51.5t-53 60.5t-61 52t-77 21.5
q-70 0 -111 -55t-43 -136h-12z" />
    <glyph glyph-name="uni2083" unicode="&#x2083;" horiz-adv-x="833" 
d="M246 -219q-161 0 -243.5 49t-82.5 123q0 52 34.5 89.5t86.5 37.5q49 0 81 -34.5t32 -84.5q0 -43 -26 -75.5t-67 -43.5q35 -47 121 -47q104 0 162.5 70t58.5 168q0 76 -42 115.5t-138 39.5q-29 0 -49.5 -3.5t-30.5 -7t-14 -3.5q-8 0 -15.5 4.5t-7.5 11.5q0 10 10 16.5
t21 6.5q3 0 28 -8t62 -8q66 0 116 22t78.5 58.5t42 78t13.5 86.5q0 138 -135 138q-92 0 -143 -58q31 -11 54 -42t23 -72q0 -47 -32 -80t-82 -33q-51 0 -81 34.5t-30 78.5q0 82 100.5 135t254.5 53q149 0 236 -53t87 -142q0 -55 -34.5 -95.5t-95.5 -63.5t-135.5 -34
t-162.5 -11h-14l-2 -7h16q158 0 256 -48t98 -142q0 -72 -59.5 -123t-149.5 -73.5t-200 -22.5z" />
    <glyph glyph-name="uni2084" unicode="&#x2084;" horiz-adv-x="831" 
d="M121 -205v8q79 0 122 29.5t66 118.5l13 49h-435l-2 6l131 78q99 60 163.5 154t64.5 186q0 102 -74 172q89 4 166.5 -8t135.5 -51.5t58 -102.5q0 -48 -33.5 -90.5t-93 -78t-118.5 -63.5t-134 -62t-116 -58l-121 -72h410l26 99l281 213h6l-74 -312q39 -1 64 2.5t37 7
t16 3.5q10 0 16 -5t6 -12q0 -10 -9.5 -15t-20.5 -5q-5 0 -15.5 3t-34.5 5.5t-61 1.5l-14 -59q-9 -37 -9 -62t6.5 -39t23.5 -21.5t34 -9.5t45 -2l-2 -8h-524z" />
    <glyph glyph-name="uni2085" unicode="&#x2085;" horiz-adv-x="815" 
d="M231 -219q-154 0 -235.5 49t-81.5 127q0 52 33.5 87.5t87.5 35.5q52 0 82 -34t30 -83q0 -47 -27 -81t-69 -40q33 -47 105 -47q59 0 107 26.5t76 70t43 93.5t15 101q0 160 -149 160q-103 0 -182 -53q-19 -37 -35 -42q-4 -1 -8 -1q-17 0 -17 16q0 23 47 35l127 379
q238 -14 325 -10q194 7 247 67q2 -12 2 -31q0 -73 -25 -126t-66 -79.5t-84 -38.5t-90 -12q-78 0 -139.5 32.5t-181.5 121.5l-102 -299q119 65 260 65q87 0 157.5 -22t118 -75t47.5 -130q0 -125 -118 -193.5t-300 -68.5z" />
    <glyph glyph-name="uni2086" unicode="&#x2086;" horiz-adv-x="876" 
d="M299 -219q-169 0 -250.5 80.5t-81.5 224.5q0 135 64.5 250.5t188 187.5t280.5 72q132 0 201 -49t69 -125q0 -54 -31.5 -88.5t-85.5 -34.5q-52 0 -83 32.5t-31 82.5q0 42 24.5 73.5t61.5 40.5q-18 58 -84 58q-71 0 -139 -62t-115.5 -161.5t-69.5 -215.5q74 152 250 152
q108 0 178 -55.5t70 -153.5q0 -129 -115 -219t-301 -90zM272 -211q57 0 102.5 44.5t70 108.5t37 123.5t12.5 102.5q0 102 -91 102q-69 0 -122 -53t-79 -127t-28 -153q-5 -148 98 -148z" />
    <glyph glyph-name="uni2087" unicode="&#x2087;" horiz-adv-x="712" 
d="M29 -205q28 95 142 229t306 283q15 12 51.5 39.5t52 39.5t38 34.5t38.5 44.5q-2 2 -4 2q-40 -52 -99.5 -93.5t-131.5 -41.5q-23 0 -116 11t-150 11q-31 0 -51 -4t-42.5 -17.5t-40 -43.5t-30.5 -78h-10l84 369h14l-45 -230h2q17 47 28.5 74.5t31.5 65t39.5 58t48.5 35.5
t63 15q37 0 71 -17.5t60 -42t51 -49t55.5 -42t63.5 -17.5q45 0 81 31t52 63t20 56h15q-9 -53 -31.5 -91.5t-64.5 -89.5q-73 -89 -112 -139.5t-90 -127.5t-86.5 -158t-64.5 -179h-239z" />
    <glyph glyph-name="uni2088" unicode="&#x2088;" horiz-adv-x="909" 
d="M307 -219q-196 0 -286.5 55.5t-90.5 134.5q0 28 10.5 56t38.5 59t71 55t113 42.5t159 23.5q-269 16 -269 164q0 92 101.5 158.5t304.5 66.5q164 0 256 -46.5t92 -129.5q0 -86 -94 -144.5t-264 -68.5q150 -9 218 -57t68 -123q0 -32 -11 -63t-40.5 -65t-75.5 -59.5
t-124 -42t-177 -16.5zM270 -211q67 0 117 50t72 116t22 131q0 41 -9.5 67t-26.5 35.5t-28 12t-28 2.5q-63 0 -111.5 -49t-71 -115t-22.5 -131q0 -119 86 -119zM473 586q-44 0 -79 -28t-54.5 -71t-29 -86.5t-9.5 -81.5q0 -108 88 -108q47 0 82.5 29.5t52.5 74.5t25 86t8 76
q0 109 -84 109z" />
    <glyph glyph-name="uni2089" unicode="&#x2089;" horiz-adv-x="876" 
d="M231 -219q-132 0 -204 49.5t-72 122.5q0 52 33.5 87.5t85.5 35.5q50 0 81 -33.5t31 -81.5q0 -44 -27 -77t-65 -42q28 -51 109 -51q44 0 83 18.5t67.5 46.5t53 71t40.5 81.5t30.5 89.5t21.5 83.5t15 74.5q-72 -164 -254 -164q-108 0 -178 52t-70 149q0 124 111.5 213.5
t296.5 89.5q171 0 254.5 -82.5t83.5 -224.5q0 -96 -37 -186.5t-103 -162.5t-167 -115.5t-220 -43.5zM442 586q-49 0 -89 -34t-64 -86t-36.5 -108t-12.5 -106q0 -131 92 -131q79 0 142 87.5t63 227.5q0 79 -24 114.5t-71 35.5z" />
    <glyph glyph-name="Euro" unicode="&#x20ac;" horiz-adv-x="1445" 
d="M719 -25q-240 0 -380 131.5t-140 368.5v21h-136l5 18h131q6 129 57 256h-129l4 18h133q96 221 300 361.5t450 140.5q112 0 198.5 -31t134.5 -82t71.5 -106.5t23.5 -112.5q0 -86 -47 -141t-123 -55q-72 0 -122 51.5t-50 126.5q0 70 43.5 120t109.5 58q-35 156 -194 156
q-86 0 -161.5 -40t-132.5 -110t-99.5 -153.5t-73.5 -182.5h379l-4 -18h-381q-37 -121 -54 -256h375l-4 -18h-373q-4 -74 -4 -101q0 -79 15 -146t47.5 -123t91 -88t137.5 -32q262 0 494 367l12 -6q-62 -95 -117 -159.5t-127 -121t-161.5 -84t-198.5 -27.5z" />
    <glyph glyph-name="uni2116" unicode="&#x2116;" horiz-adv-x="2342" 
d="M96 -250q-97 0 -135.5 83t-7.5 216q35 -31 71.5 -44t92.5 -13q147 0 223.5 86.5t118.5 271.5l127 553q26 114 24 191.5t-48.5 118t-141.5 40.5l4 13h403l451 -815l127 540q25 109 58 200t78 167t104 119t127 43q97 0 135.5 -83t7.5 -216q-35 31 -71.5 44t-92.5 13
q-147 0 -223.5 -86.5t-118.5 -271.5l-217 -936l-10 -2l-564 970l-155 -673q-25 -109 -58 -200t-78 -167t-104 -119t-127 -43zM1827 350q-148 0 -245 76t-97 213q0 167 136.5 288.5t328.5 121.5q66 0 125.5 -16.5t109 -49.5t78.5 -90t29 -131q0 -169 -136 -290.5t-329 -121.5
zM1812 360q56 0 102 66.5t71.5 161.5t39 182t13.5 145q0 123 -72 123q-55 0 -100.5 -66t-70.5 -160.5t-38.5 -182t-13.5 -146.5q0 -123 69 -123zM1341 74l5 18h808l-4 -18h-809zM1374 217l4 19h809l-4 -19h-809z" />
    <glyph glyph-name="uni2117" unicode="&#x2117;" horiz-adv-x="1505" 
d="M313 264l2 6q56 0 83 25.5t42 93.5l113 485q16 70 0.5 95.5t-72.5 25.5l2 6h461q150 0 226.5 -51t76.5 -143q0 -34 -10.5 -65.5t-38.5 -63.5t-71.5 -55t-115.5 -37.5t-165 -14.5h-80v9h22q97 0 156.5 76.5t59.5 189.5q0 147 -119 147h-64l-139 -604q-15 -69 0.5 -94
t71.5 -25l-2 -6h-439zM711 -25q-167 0 -303 80t-212.5 217.5t-76.5 302.5q0 143 60.5 276t160.5 228.5t234 153t276 57.5q167 0 303 -79.5t212.5 -217t76.5 -303.5q0 -143 -60 -275.5t-159.5 -228.5t-234 -153.5t-277.5 -57.5zM713 -6q186 0 350 93.5t263 254.5t99 346
q0 161 -74.5 295.5t-207 212.5t-295.5 78q-111 0 -217.5 -35.5t-195 -100.5t-156 -150t-105 -191.5t-37.5 -218.5q0 -160 74.5 -294t207 -212t294.5 -78z" />
    <glyph glyph-name="trademark" unicode="&#x2122;" horiz-adv-x="1779" 
d="M774 645l2 6q76 0 120 51t85 187l59 194q31 85 15.5 131t-92.5 46l2 6h260l104 -416l275 416h223l-2 -6q-48 0 -73 -33t-36 -99l-61 -342q-14 -69 -1.5 -102t62.5 -33l-2 -6h-344l2 6q48 0 73 30.5t36 94.5l67 387l-340 -510h-4l-131 500l-84 -264q-43 -135 -30.5 -186.5
t88.5 -51.5l-3 -6h-270zM252 645v6q51 0 81 23t46 90l115 493h-11q-150 0 -266 -219h-4l70 228h600l-37 -228h-4q-3 38 -9 67.5t-18 59t-29.5 49t-45.5 31.5t-64 12h-8l-115 -493q-16 -67 3 -90t71 -23v-6h-375z" />
    <glyph glyph-name="minus" unicode="&#x2212;" horiz-adv-x="1169" 
d="M123 494l4 18h911l-4 -18h-911z" />
    <glyph glyph-name="notequal" unicode="&#x2260;" horiz-adv-x="1179" 
d="M154 -2l-15 10l264 322h-321l4 18h334l354 432h-588l4 19h601l278 338l14 -11l-270 -327h289l-4 -19h-301l-355 -432h555l-4 -18h-567z" />
    <glyph glyph-name="s_t" unicode="&#xfb06;" horiz-adv-x="1617" 
d="M346 -23q-151 0 -248.5 61.5t-97.5 147.5q0 54 37 96t94 42q55 0 90 -37t35 -92q0 -41 -20 -72.5t-54 -46.5q42 -86 158 -86q88 0 150.5 43.5t62.5 109.5q0 39 -24.5 68.5t-63.5 48t-86.5 35.5t-95 38t-86.5 47.5t-63.5 72t-24.5 104.5q0 139 120 228t301 89
q92 0 168 -26q-55 91 -55 215q0 126 71.5 229.5t185.5 160t241 56.5q163 0 254.5 -92t91.5 -233q0 -65 -10 -103l-54 -229h252l-6 -29h-252l-141 -616q-18 -75 -0.5 -107t67.5 -32q96 0 222 114l8 -8q-92 -86 -190 -141.5t-214 -55.5q-124 0 -180.5 72.5t-23.5 212.5
l129 559h-117l4 21q238 0 361.5 86.5t123.5 253.5q0 78 -26.5 139t-72 97.5t-103 55.5t-123.5 19q-88 0 -174 -32.5t-153 -88t-108.5 -136.5t-41.5 -171q0 -130 65 -227q68 -29 105.5 -73t37.5 -95q0 -54 -36.5 -96t-90.5 -42q-52 0 -88 38t-36 92q0 38 19.5 68.5t53.5 43.5
q-43 88 -147 88q-79 0 -140 -41t-61 -106q0 -38 25 -66.5t64.5 -47t88 -35t96.5 -37t87.5 -47t64.5 -71.5t25 -104q0 -97 -63.5 -173.5t-165.5 -116.5t-222 -40z" />
    <glyph glyph-name="c_k" horiz-adv-x="2105" 
d="M428 -23q-99 0 -175.5 30t-122.5 82t-69.5 117t-23.5 140q0 109 49 208t130 168.5t187 110.5t218 41q90 0 163 -28q-43 67 -43 121q0 24 6.5 45.5t23 41t32 35.5t46.5 33t52 29t64 28t66.5 24.5t74.5 24t75 22t79 22.5q238 67 294 86t105 49l6 -4l-227 -989
q351 31 436 151q-58 11 -104 48.5t-46 103.5q0 65 45.5 112.5t110.5 47.5q61 0 109.5 -43.5t48.5 -114.5q0 -82 -70.5 -145t-193.5 -105l143 -389q10 -27 41 -27q28 0 104 35l-2 -12q-173 -101 -311 -101q-120 0 -154 93l-122 338q-30 -5 -37 -5l-93 -401h-325l291 1268
l-45 -13q-52 -15 -76.5 -22t-72.5 -21.5t-72 -23t-64 -23.5t-61 -26.5t-50.5 -27.5t-44.5 -31t-30.5 -33t-22 -38t-6.5 -42q0 -68 55 -136q72 -38 112 -97.5t40 -123.5q0 -73 -44.5 -124.5t-119.5 -51.5q-72 0 -116 47t-44 115q0 62 37.5 108t95.5 56q-27 100 -121 100
q-59 0 -109 -37.5t-82.5 -96.5t-55.5 -133t-33 -144.5t-10 -133.5q0 -137 52 -208.5t152 -71.5q154 0 316 153l8 -8q-213 -203 -469 -203z" />
    <glyph glyph-name="c_t" horiz-adv-x="1724" 
d="M428 -23q-99 0 -175.5 30t-122.5 82t-69.5 117t-23.5 140q0 109 49 208t130 168.5t187 110.5t218 41t194 -40q-65 95 -65 229q0 126 71.5 229.5t185 160t240.5 56.5q163 0 254.5 -92t91.5 -233q0 -65 -10 -103l-53 -229h252l-6 -29h-252l-142 -616q-18 -75 0 -107t68 -32
q95 0 221 114l8 -8q-42 -39 -80 -69t-90 -61.5t-111.5 -49t-121.5 -17.5q-125 0 -181.5 72.5t-23.5 212.5l129 559h-117l4 21q238 0 362 86.5t124 253.5q0 78 -26.5 139t-72.5 97.5t-103.5 55.5t-123.5 19q-88 0 -174 -32.5t-153 -88t-108.5 -136.5t-41.5 -171
q0 -72 25 -143.5t67 -116.5q53 -37 81 -89t28 -106q0 -73 -44.5 -124.5t-119.5 -51.5q-72 0 -116 47t-44 115q0 62 37.5 108t95.5 56q-27 100 -121 100q-59 0 -109 -37.5t-82.5 -96.5t-55.5 -133t-33 -144.5t-10 -133.5q0 -137 52 -208.5t152 -71.5q154 0 316 153l8 -8
q-213 -203 -469 -203z" />
    <glyph glyph-name="r_k" horiz-adv-x="2017" 
d="M49 0l162 715q9 40 -3 61t-40 21q-29 0 -105 -35l3 12q171 100 311 100q97 0 130 -59t9 -162l-24 -108q83 223 206 297q-45 68 -45 125q0 24 6.5 45.5t23 41t32 35.5t46 33t52 29.5t63.5 27.5t66.5 24t75 24.5t74.5 22.5t79 22q240 67 295.5 86t104.5 49l6 -4l-227 -989
q351 31 436 151q-58 11 -104 48.5t-46 103.5q0 65 45.5 112.5t110.5 47.5q61 0 109.5 -43.5t48.5 -114.5q0 -82 -70.5 -145t-193.5 -105l143 -389q10 -27 41 -27q28 0 104 35l-2 -12q-173 -101 -311 -101q-120 0 -154 93l-123 338q-30 -5 -36 -5l-93 -401h-325l291 1268
l-45 -13q-52 -15 -76.5 -22t-72.5 -21.5t-72 -23t-64 -23.5t-61 -26.5t-50.5 -27.5t-44.5 -31t-30.5 -33t-22 -38t-6.5 -42q0 -58 41 -115q42 22 90 22q73 0 120.5 -50.5t47.5 -121.5q0 -72 -48.5 -122t-117.5 -50t-117.5 49.5t-48.5 120.5q0 15 4 35q-83 -45 -149 -211
l-123 -524h-326z" />
    <glyph glyph-name="t_t" horiz-adv-x="1472" 
d="M307 -23q-125 0 -181.5 72.5t-23.5 212.5l129 561h-125l7 29h125l51 221l340 64l-66 -285h391l52 221l340 64l-66 -285h250l-6 -29h-252l-142 -616q-18 -75 0 -107t68 -32q95 0 221 114l8 -8q-42 -39 -80 -69t-90 -61.5t-111.5 -49t-121.5 -17.5q-125 0 -181.5 72.5
t-23.5 212.5l129 561h-393l-141 -616q-18 -75 -0.5 -107t67.5 -32q95 0 221 114l9 -8q-92 -86 -190 -141.5t-214 -55.5z" />
    <glyph glyph-name="F_i" horiz-adv-x="2197" 
d="M385 0l4 12q96 0 139 42t72 167l229 996q-16 2 -49 2q-122 0 -206 -24t-126.5 -67.5t-59.5 -91.5t-17 -110q0 -109 55 -176q-45 6 -84 15.5t-79.5 28t-69 42.5t-46.5 60.5t-18 80.5q0 129 143.5 194.5t413.5 65.5q133 0 280.5 -16.5t253 -37t225 -37t204.5 -16.5
q91 0 160 18t109 45.5t65 67.5t33.5 77.5t8.5 80.5q0 101 -55 174q44 -6 82.5 -15.5t79 -27.5t69.5 -42t47.5 -60.5t18.5 -81.5q0 -129 -139 -192.5t-391 -63.5q-98 0 -207 11t-174 21.5t-180 31.5l-129 -556h53q77 0 147 26t123 72t93 99t69 115h8l-145 -633h-9
q-2 61 -17.5 113.5t-48 97.5t-90 70.5t-134.5 25.5h-52l-83 -362q-13 -58 -13.5 -99t10 -66.5t34 -40t51.5 -19.5t69 -5l-4 -12h-723zM1788 -25q-100 0 -136 59.5t-12 164.5l117 516q9 40 -3 61t-40 21t-104 -35l2 12q171 100 313 100q100 0 136 -59t12 -164l-117 -516
q-9 -40 3 -61t40 -21t104 35l-2 -12q-173 -101 -313 -101z" />
    <glyph glyph-name="T_h" horiz-adv-x="2545" 
d="M344 0l4 12q52 0 88.5 9t70.5 33t58.5 70.5t40.5 117.5l236 1022q-27 2 -76 2q-199 0 -292 -80t-93 -217q0 -106 55 -174q-297 40 -297 227q0 128 141.5 194t399.5 66q181 0 479 -43t400 -43q196 0 288 79t92 216q0 97 -55 172q44 -6 82.5 -15.5t79 -27.5t69.5 -42
t47.5 -60.5t18.5 -81.5q0 -161 -217 -222l-127 -552q108 99 202.5 155.5t190.5 56.5q103 0 158.5 -69t24.5 -211l-103 -459q-9 -40 3 -61t40 -21q29 0 105 35l-2 -12q-173 -101 -314 -101q-100 0 -135.5 60.5t-11.5 163.5l108 465q22 98 -57 98q-32 0 -72 -20.5t-68 -42
t-75 -60.5l-148 -639h-325l274 1178q-161 0 -446 41l-225 -977q-13 -58 -13.5 -99t10 -66.5t34 -40t51.5 -19.5t69 -5l-4 -12h-764z" />
    <glyph glyph-name="C_o" horiz-adv-x="2369" 
d="M741 -25q-323 0 -485 142t-162 387q0 165 73 311.5t197 250.5t295 164t361 60q56 0 127.5 -6t120.5 -11t111.5 -2.5t117.5 15.5l-65 -446l-11 -2q-39 235 -135.5 337.5t-245.5 102.5q-101 0 -188 -43t-148.5 -116t-109 -163.5t-75.5 -191t-42 -193t-14 -174.5
q0 -65 9 -122.5t30 -111t53 -91.5t82 -61t113 -23q157 0 318 131.5t296 343.5l6 -2l-166 -424q-230 -62 -463 -62zM1874 350q-148 0 -245 76t-97 213q0 167 136.5 288.5t328.5 121.5q66 0 125.5 -16.5t109 -49.5t78.5 -90t29 -131q0 -169 -136 -290.5t-329 -121.5zM1860 360
q56 0 102 66.5t71 161.5t38.5 182t13.5 145q0 123 -72 123q-55 0 -100.5 -66t-70.5 -160.5t-38.5 -182t-13.5 -146.5q0 -123 70 -123zM1421 217l6 19h809l-6 -19h-809zM1386 74l7 18h809l-7 -18h-809z" />
    <glyph glyph-name="zero.op" horiz-adv-x="1300" 
d="M569 -23q-120 0 -214.5 36.5t-152 98t-87 138.5t-29.5 164q0 81 24.5 166t77.5 167.5t126.5 147t180.5 104t232 39.5q120 0 214.5 -36t152 -98t87 -138.5t29.5 -163.5q0 -81 -24.5 -166.5t-77.5 -167.5t-126.5 -147t-180.5 -104.5t-232 -39.5zM551 -8q76 0 141.5 73.5
t106 188t63.5 246.5t23 256q0 56 -5.5 99t-19.5 84t-43 63t-72 22q-76 0 -141.5 -74t-106.5 -189t-64 -246.5t-23 -254.5q0 -55 5.5 -97.5t19.5 -84t43.5 -64t72.5 -22.5z" />
    <glyph glyph-name="one.op" horiz-adv-x="915" 
d="M-18 0l2 12q119 0 185.5 47.5t96.5 180.5l117 501q13 59 -1 85t-69 26h-141l2 10q331 31 606 156l8 -4l-182 -793q-11 -46 -12.5 -80.5t6 -57.5t20.5 -37t36 -21.5t47 -10t59 -2.5l-2 -12h-778z" />
    <glyph glyph-name="two.op" horiz-adv-x="1196" 
d="M29 0q0 158 129 268q44 38 115.5 81t135.5 76.5t133.5 79t119 90.5t82 108t32.5 135q0 87 -46 134.5t-138 47.5q-82 0 -145 -37t-97 -96q52 -14 86.5 -56t34.5 -100q0 -68 -46.5 -114t-113.5 -46q-70 0 -114.5 48.5t-44.5 113.5q0 52 33 105t93.5 98t159.5 73.5t219 28.5
q85 0 163 -14.5t145.5 -44t108 -82.5t40.5 -123q0 -65 -35.5 -114t-98.5 -82t-140.5 -59t-169.5 -51.5t-178.5 -52t-174 -68.5t-149.5 -93q-27 -23 -37 -35q99 83 291 86q84 1 217.5 -19t187.5 -20q103 0 154 45t57 158h13q1 -45 -3.5 -94t-16 -106.5t-35 -107.5
t-55.5 -92.5t-83 -67t-113 -24.5q-64 0 -120 27t-97.5 65.5t-82 77.5t-91.5 66t-108 27q-89 0 -146 -69.5t-55 -170.5h-16z" />
    <glyph glyph-name="three.op" horiz-adv-x="1269" 
d="M455 -276q-238 0 -362 79t-124 197q0 79 51 134.5t125 55.5q71 0 118.5 -51t47.5 -125q0 -68 -39 -117t-100 -61q57 -90 195 -90q82 0 148.5 32t108 86t63.5 122.5t22 144.5q0 124 -66 189t-211 65q-58 0 -100.5 -11.5t-44.5 -11.5q-11 0 -21 8t-10 19q0 13 13.5 25
t31.5 12q9 0 22 -6t42 -12.5t77 -6.5q97 0 172 34.5t118.5 91.5t65 124t21.5 140q0 225 -207 225q-143 0 -229 -105q52 -18 84.5 -63.5t32.5 -104.5q0 -74 -47.5 -123t-120.5 -49q-74 0 -119 51t-45 119q0 83 68.5 151t190.5 107t273 39q220 0 352 -82.5t132 -222.5
q0 -86 -51.5 -152t-141.5 -105t-202 -58t-242 -19h-21l-2 -10h21q152 0 268 -31.5t187 -102t71 -173.5q0 -88 -51.5 -157.5t-139 -112.5t-196 -65.5t-229.5 -22.5z" />
    <glyph glyph-name="four.op" horiz-adv-x="1267" 
d="M293 -254l2 12q119 0 185 47.5t98 180.5l20 90h-655l-2 8l211 152q143 103 241.5 248.5t98.5 293.5q0 81 -30 148.5t-77 109.5q94 4 183 -8t166 -39t124 -78.5t47 -119.5q0 -69 -46.5 -131.5t-130.5 -117.5t-170.5 -101t-198 -105.5t-181.5 -106.5l-203 -137h627l41 178
l406 308h10l-113 -486q59 1 97.5 7t55.5 12t25 6q14 0 22.5 -8t8.5 -19q0 -16 -15 -26.5t-30 -10.5q-7 0 -23 5.5t-52.5 10.5t-92.5 5l-24 -107q-11 -46 -13 -80.5t6 -57.5t20.5 -37t35.5 -21.5t47 -10t59 -2.5l-2 -12h-778z" />
    <glyph glyph-name="five.op" horiz-adv-x="1239" 
d="M430 -274q-228 0 -350.5 79.5t-122.5 202.5q0 78 48 131.5t126 53.5q76 0 122 -50.5t46 -124.5q0 -71 -41 -121t-104 -59q54 -92 178 -92q90 0 162 43t114 112.5t64 149t22 160.5q0 262 -233 262q-71 0 -146.5 -22.5t-128.5 -55.5q-8 -20 -14 -32.5t-19.5 -24.5
t-29.5 -12q-25 0 -25 22q0 36 74 60l195 608q423 -27 598.5 -8.5t248.5 92.5q3 -38 3 -78q0 -77 -24 -138t-62.5 -98t-90 -61t-101.5 -33.5t-103 -9.5q-118 0 -218.5 49t-271.5 170l-158 -487q185 96 383 96q97 0 183 -21.5t155 -64t109.5 -113t40.5 -161.5
q0 -132 -85.5 -229.5t-226.5 -146t-317 -48.5z" />
    <glyph glyph-name="six.op" horiz-adv-x="1333" 
d="M598 -25q-252 0 -374 132t-122 360q0 126 36 247.5t105.5 225t165 182t222 123.5t268.5 45q197 0 300.5 -79t103.5 -199q0 -79 -45.5 -131t-122.5 -52q-75 0 -123.5 49t-48.5 123q0 64 37 112.5t96 60.5q-29 100 -138 100q-111 0 -214 -100t-175.5 -260.5t-107.5 -352.5
q50 109 145 178.5t240 69.5q163 0 269 -90t106 -246q0 -98 -44.5 -187.5t-123.5 -159t-197.5 -110.5t-257.5 -41zM561 -10q68 0 126.5 44t96.5 110.5t65 148t38.5 154.5t11.5 131q0 190 -143 190q-96 0 -178.5 -77.5t-129.5 -201.5t-47 -260q0 -239 160 -239z" />
    <glyph glyph-name="seven.op" horiz-adv-x="1110" 
d="M145 -254q67 201 216.5 379t457.5 446q12 10 46 39.5t46.5 40.5t39.5 35t40.5 37.5t33.5 33t35.5 37t29.5 35.5l-7 5q-45 -50 -71.5 -76t-69 -57.5t-87.5 -45.5t-99 -14q-47 0 -187.5 21.5t-216.5 21.5q-103 0 -162 -44.5t-96 -178.5h-16l127 551h20l-67 -350h4
q24 69 41.5 114.5t46.5 99.5t58.5 85.5t72 53t92.5 21.5q57 0 108.5 -27t90.5 -66t77 -78t83.5 -66t93.5 -27q53 0 98 27.5t72 68t42.5 78t18.5 66.5h21q-7 -59 -40 -125t-66 -110.5t-97.5 -124.5t-95.5 -122q-262 -349 -383 -784h-351z" />
    <glyph glyph-name="eight.op" horiz-adv-x="1376" 
d="M602 -25q-119 0 -215 17t-159 46t-105 69t-60 84t-18 94q0 48 16.5 94.5t59 95.5t106.5 87.5t167 66t233 35.5q-396 28 -396 264q0 70 35.5 133t106.5 115t191 83t274 31q243 0 379.5 -74.5t136.5 -207.5q0 -138 -141.5 -233.5t-395.5 -110.5q221 -13 323.5 -90.5
t102.5 -200.5q0 -53 -17 -104.5t-62.5 -106t-115 -95t-184.5 -66.5t-262 -26zM561 -10q59 0 111 30t89.5 79t65 111t41 126.5t13.5 124.5q0 196 -154 196q-75 0 -138.5 -46t-102 -117t-59.5 -150.5t-21 -153.5q0 -200 155 -200zM856 1276q-54 0 -100 -29t-76 -75t-51 -103
t-30 -111t-9 -102q0 -184 143 -184q58 0 105 31t75.5 77.5t47.5 105t26.5 110t7.5 96.5q0 184 -139 184z" />
    <glyph glyph-name="nine.op" horiz-adv-x="1335" 
d="M438 -276q-195 0 -304 79.5t-109 196.5q0 80 48.5 132t123.5 52q74 0 121 -49t47 -121q0 -67 -39.5 -116t-100.5 -60q50 -98 174 -98q349 0 478 741q-110 -254 -388 -254q-163 0 -269.5 84.5t-106.5 239.5q0 95 42.5 182.5t119 155.5t194 108.5t256.5 40.5
q256 0 380 -131t124 -356q0 -153 -55 -299.5t-153.5 -264.5t-251 -190.5t-331.5 -72.5zM756 1024q-72 0 -134 -53t-100 -134t-59 -171.5t-21 -171.5q0 -65 14 -111.5t37.5 -69.5t48.5 -33t54 -10q123 0 219 140.5t96 357.5q0 256 -155 256z" />
    <glyph glyph-name="A.alt" horiz-adv-x="2299" 
d="M354 -322q-196 0 -323 95t-127 245q0 97 59 178t151.5 129.5t204 70.5t218.5 10q-169 -41 -256.5 -147.5t-87.5 -246.5q0 -126 68.5 -205t193.5 -79q61 0 120 19.5t114 59t102 83t99 109t89 117.5t88 128l676 1007h-240q-89 0 -160 -28t-114 -75.5t-65.5 -106
t-22.5 -123.5q0 -101 39 -162q-115 9 -181.5 66.5t-66.5 146.5q0 132 143 214.5t369 82.5h336l256 -990q11 -42 21.5 -75t28 -70.5t38 -61.5t50 -40.5t64.5 -16.5l-2 -12h-729l2 12q73 0 118 39.5t54 98t-4 126.5l-30 132h-445l-112 -170q-136 -203 -206 -286
q-167 -197 -356 -251q-82 -23 -174 -23zM1217 428h423l-112 467z" />
    <glyph glyph-name="B.alt" horiz-adv-x="1857" 
d="M338 0l2 12q96 0 140 42t73 167l238 1030h-97q-89 0 -160 -28t-114 -75.5t-65.5 -106t-22.5 -123.5q0 -101 39 -162q-115 9 -181.5 66.5t-66.5 146.5q0 132 143 214.5t369 82.5h708q498 0 498 -267q0 -70 -34.5 -129t-106 -106.5t-193 -74.5t-282.5 -27l-2 -9
q272 0 394 -69.5t122 -202.5q0 -77 -38.5 -144t-113.5 -121t-200.5 -85t-286.5 -31h-762zM860 14h148q90 0 161.5 36t113.5 95.5t63.5 128t21.5 140.5q0 233 -225 233h-137zM1010 662h88q94 0 167 29.5t116 81.5t65 118t22 143q0 217 -178 217h-145z" />
    </font>
</defs>
</svg>
